<?xml version="1.0" encoding="UTF-8"?>
<svg id="Calque_2" data-name="Calque 2" xmlns="http://www.w3.org/2000/svg" viewBox="0 0 250 250">
  <defs>
    <style>
      .cls-1 {
        fill: #010101;
      }

      .cls-2 {
        fill: #f5f6f6;
      }

      .cls-3 {
        fill: #fafbfc;
      }

      .cls-4 {
        fill: #fff;
      }

      .cls-5 {
        fill: #66473d;
      }

      .cls-6 {
        fill: #9f7463;
      }

      .cls-7 {
        fill: #d8822e;
      }

      .cls-8 {
        fill: #e0e1e0;
      }

      .cls-9 {
        fill: #273339;
      }

      .cls-10 {
        fill: #386250;
      }

      .cls-11 {
        opacity: .2;
      }

      .cls-12 {
        opacity: .5;
      }
    </style>
  </defs>
  <g id="Calque_1-2" data-name="Calque 1">
    <g>
      <rect class="cls-4" width="250" height="250"/>
      <g>
        <g id="Background_Complete" data-name="Background Complete">
          <g>
            <g>
              <rect class="cls-2" x="159.37" y="153.4" width="56.02" height="25.84"/>
              <path class="cls-8" d="m214.06,178.02h-53.41v-23.26h53.41v23.26Zm-53.06-.35h52.71v-22.56h-52.71v22.56Z"/>
              <rect class="cls-8" x="215.4" y="153.4" width="13.69" height="25.84"/>
              <path class="cls-8" d="m160.83,161.95h53.06c.09,0,.09-.14,0-.14h-53.06c-.09,0-.09.14,0,.14h0Z"/>
              <path class="cls-8" d="m187.53,161.89c.16-2.29.14-4.72.02-7.02,0-.09-.14-.09-.14,0-.12,2.3-.14,4.72.02,7.02,0,.07.1.07.11,0h0Z"/>
              <path class="cls-8" d="m201.82,158.37c0,.4-.32.72-.72.72s-.72-.32-.72-.72.32-.72.72-.72.72.32.72.72Z"/>
              <path class="cls-8" d="m173.97,158.37c0,.4-.32.72-.72.72s-.72-.32-.72-.72.32-.72.72-.72.72.32.72.72Z"/>
              <path class="cls-8" d="m188.08,166.39c0,.4-.32.72-.72.72s-.72-.32-.72-.72.32-.72.72-.72.72.32.72.72Z"/>
              <polygon class="cls-8" points="166.07 179.23 163.19 195.45 164.81 195.45 170.13 179.23 166.07 179.23"/>
              <polygon class="cls-8" points="211.43 179.23 213.85 195.48 212.22 195.48 207.38 179.23 211.43 179.23"/>
              <polygon class="cls-8" points="222.27 179.23 225 195.48 223.38 195.48 218.21 179.23 222.27 179.23"/>
              <path class="cls-8" d="m188.04,173.7c0,.4-.32.72-.72.72s-.72-.32-.72-.72.32-.72.72-.72.72.32.72.72Z"/>
              <path class="cls-8" d="m160.83,169.96h53.06c.09,0,.09-.14,0-.14h-53.06c-.09,0-.09.14,0,.14h0Z"/>
            </g>
            <g>
              <rect class="cls-8" x="181.53" y="141.22" width="16.94" height="3.45" transform="translate(-.75 1) rotate(-.3)"/>
              <g>
                <rect class="cls-2" x="181.62" y="148.01" width="18.88" height="5.36" transform="translate(-.79 1) rotate(-.3)"/>
                <path class="cls-8" d="m196.89,153.29s-.09-1.2-.09-2.68.04-2.68.09-2.68.09,1.2.09,2.68-.04,2.68-.09,2.68Z"/>
                <path class="cls-8" d="m197.68,153.29s-.09-1.2-.09-2.68.04-2.68.09-2.68.09,1.2.09,2.68-.04,2.68-.09,2.68Z"/>
                <path class="cls-8" d="m184.49,153.29s-.09-1.2-.09-2.68.04-2.68.09-2.68.09,1.2.09,2.68-.04,2.68-.09,2.68Z"/>
                <path class="cls-8" d="m185.28,153.29s-.09-1.2-.09-2.68.04-2.68.09-2.68.09,1.2.09,2.68-.04,2.68-.09,2.68Z"/>
                <path class="cls-8" d="m187.01,150.69c0-.05,1.91-.09,4.25-.09s4.25.04,4.25.09-1.91.09-4.25.09-4.25-.04-4.25-.09Z"/>
              </g>
              <g>
                <g class="cls-12">
                  <rect class="cls-10" x="184.3" y="144.54" width="23.3" height="3.45" transform="translate(-.76 1.03) rotate(-.3)"/>
                </g>
                <path class="cls-8" d="m204.28,147.51c-.61,0-1.1-.5-1.1-1.12s.49-1.12,1.1-1.12,1.1.5,1.1,1.12-.49,1.12-1.1,1.12Z"/>
                <rect class="cls-8" x="185.66" y="146.05" width="15.6" height=".69"/>
              </g>
            </g>
          </g>
          <g>
            <g>
              <g>
                <g class="cls-12">
                  <path class="cls-10" d="m25.39,81.35s-1.98,1.51-.08,3.51c.03.03.08.05.12.05l17.32-.1s1.48-1.66.25-3.57l-17.62.11h0Z"/>
                </g>
                <path class="cls-8" d="m38.92,82.92s-2.16.03-4.82.03-4.82-.02-4.82-.03,2.16-.03,4.82-.03,4.82.02,4.82.03Z"/>
                <path class="cls-8" d="m36.23,83.55s-1.01.03-2.27.03-2.27-.02-2.27-.03,1.01-.03,2.27-.03,2.27.02,2.27.03Z"/>
                <path class="cls-8" d="m40.69,84.75s.04-.2.09-.52c.05-.32.11-.77.1-1.26s-.07-.94-.12-1.26-.11-.52-.1-.52c0,0,.02.05.05.13.03.09.06.21.1.38.07.32.14.77.15,1.27,0,.5-.06.95-.12,1.27-.03.16-.07.29-.09.38-.02.09-.04.14-.05.13Z"/>
                <path class="cls-8" d="m41.99,81.21s.03.04.08.13c.02.04.05.09.08.16s.06.13.09.21c.06.16.12.35.16.57.04.22.07.47.07.73,0,.26-.02.51-.06.73-.04.22-.1.42-.16.58-.02.08-.06.15-.08.21-.02.06-.05.11-.07.16-.04.08-.07.13-.07.13-.01,0,.08-.19.19-.51.05-.16.1-.35.14-.57.03-.22.06-.46.06-.72s-.03-.5-.07-.72c-.04-.22-.09-.41-.15-.57-.11-.32-.21-.5-.2-.51h0Z"/>
                <path class="cls-8" d="m28.12,84.77s-.03-.04-.08-.11c-.02-.04-.05-.09-.08-.14-.03-.06-.07-.12-.09-.2-.07-.15-.12-.34-.17-.55-.04-.21-.07-.45-.07-.7,0-.25.04-.48.09-.7.05-.21.11-.39.18-.54.03-.07.07-.14.1-.2.03-.06.06-.11.08-.14.05-.07.08-.11.08-.11.01,0-.1.17-.22.47-.06.15-.12.33-.16.54-.04.21-.07.44-.08.68,0,.25.02.48.06.68.04.21.09.39.15.54.11.3.22.47.21.48h0Z"/>
                <path class="cls-8" d="m26.25,85.2s-.03-.04-.09-.13c-.03-.04-.06-.1-.09-.16s-.07-.14-.11-.22c-.07-.17-.14-.38-.2-.61-.05-.24-.09-.5-.1-.78,0-.28.02-.55.06-.79.05-.24.11-.45.17-.62.03-.09.07-.16.09-.23.03-.07.06-.12.08-.17.05-.09.08-.14.08-.13.01,0-.1.2-.21.55-.06.17-.11.38-.16.62-.04.24-.06.5-.06.77s.04.53.09.77c.05.23.11.44.18.61.13.34.25.53.24.53h0Z"/>
              </g>
              <g>
                <g>
                  <g class="cls-12">
                    <path class="cls-10" d="m42.11,90.08v3.32h-6.41v-3.32h6.41Z"/>
                  </g>
                  <path class="cls-8" d="m21.4,91.77s0,.06,0,.09c.05,1,.9,1.78,1.91,1.78h19.1v-.24h-4.53c-.92,0-1.66-.74-1.66-1.66h0c0-.92.74-1.66,1.66-1.66h4.53v-.35l-19.11.07c-1.08,0-1.95.9-1.91,1.98h0Z"/>
                  <path class="cls-8" d="m42.11,91.78s-1.32.03-2.95.03-2.95-.02-2.95-.03,1.32-.03,2.95-.03,2.95.02,2.95.03Z"/>
                  <path class="cls-8" d="m42.02,92.53s-1.25.03-2.79.03-2.79-.02-2.79-.03,1.25-.03,2.79-.03,2.79.02,2.79.03Z"/>
                  <path class="cls-8" d="m42.11,93.21s-1.12.03-2.5.03-2.5-.02-2.5-.03,1.12-.03,2.5-.03,2.5.02,2.5.03Z"/>
                  <path class="cls-8" d="m42.11,91.11s-1.29.03-2.88.03-2.88-.02-2.88-.03,1.29-.03,2.88-.03,2.88.02,2.88.03Z"/>
                  <path class="cls-8" d="m42.02,90.44s-1.15.03-2.57.03-2.57-.02-2.57-.03,1.15-.03,2.57-.03,2.57.02,2.57.03Z"/>
                </g>
                <path class="cls-2" d="m23.72,89.85s-.19.16-.41.48c-.22.32-.44.83-.44,1.43,0,.59.24,1.1.47,1.41.23.32.43.46.42.47,0,0-.05-.03-.14-.1-.08-.07-.2-.18-.32-.34-.24-.31-.49-.83-.5-1.44,0-.61.23-1.14.47-1.45.12-.16.23-.28.31-.35.08-.07.13-.11.14-.11Z"/>
                <path class="cls-2" d="m23.07,89.78s-.19.16-.41.48c-.22.32-.44.83-.44,1.43,0,.59.24,1.1.47,1.41.23.32.43.46.42.47,0,0-.05-.03-.14-.1-.08-.07-.2-.18-.32-.34-.24-.31-.49-.83-.5-1.44,0-.61.23-1.14.47-1.45.12-.16.23-.28.31-.35.08-.07.13-.11.14-.11Z"/>
                <path class="cls-2" d="m36.05,89.85s-.19.16-.41.48c-.22.32-.44.83-.44,1.43,0,.59.24,1.1.47,1.41.23.32.43.46.42.47,0,0-.05-.03-.14-.1s-.2-.18-.32-.34c-.24-.31-.49-.83-.5-1.44,0-.61.23-1.14.47-1.45.12-.16.23-.28.31-.35.08-.07.13-.11.14-.11Z"/>
                <path class="cls-2" d="m35.4,89.78s-.19.16-.41.48c-.22.32-.44.83-.44,1.43,0,.59.24,1.1.47,1.41.23.32.43.46.42.47,0,0-.05-.03-.14-.1s-.2-.18-.32-.34c-.24-.31-.49-.83-.5-1.44,0-.61.23-1.14.47-1.45.12-.16.23-.28.31-.35.08-.07.13-.11.14-.11Z"/>
                <path class="cls-2" d="m25.89,92.23c0-.45-.01-.9-.02-1.35,0-.12,0-.24-.05-.35-.04-.11-.14-.21-.25-.21-.17-.07-.43.07-.55.26-.12.2-.13.43-.13.66,0,.35.02.71.05,1.07.02.17.04.34.12.49s.24.26.41.25c.17-.02.3-.16.36-.31.06-.16.06-.33.06-.5h0Z"/>
                <path class="cls-2" d="m33.31,91.85s-1.38.03-3.08.03-3.08-.02-3.08-.03,1.38-.03,3.08-.03,3.08.02,3.08.03Z"/>
              </g>
              <g>
                <g>
                  <g>
                    <polygon class="cls-2" points="24.61 89.72 24.57 86.57 26.28 86.57 26.34 89.72 24.61 89.72"/>
                    <path class="cls-8" d="m26.18,87.13s-.35.03-.8.03-.8-.02-.8-.03.35-.03.8-.03.8.02.8.03Z"/>
                    <path class="cls-8" d="m26.18,87.62s-.35.03-.8.03-.8-.02-.8-.03.35-.03.8-.03.8.02.8.03Z"/>
                    <path class="cls-8" d="m26.18,88.1s-.35.03-.8.03-.8-.02-.8-.03.35-.03.8-.03.8.02.8.03Z"/>
                    <path class="cls-8" d="m26.18,88.59s-.35.03-.8.03-.8-.02-.8-.03.35-.03.8-.03.8.02.8.03Z"/>
                    <path class="cls-8" d="m26.18,89.07s-.35.03-.8.03-.8-.02-.8-.03.35-.03.8-.03.8.02.8.03Z"/>
                  </g>
                  <g class="cls-12">
                    <path class="cls-10" d="m24.48,86.49h18.96c.23,1.04.2,2.18,0,3.4h-18.87v-.23h1.15c.3,0,.54-.24.54-.54v-1.88c0-.3-.24-.54-.54-.54h-1.23v-.2h0Z"/>
                  </g>
                  <g>
                    <path class="cls-3" d="m28.96,88.19h.32s.02,0,.03,0c.02.01.03.03.03.06v.02s-.01.05-.02.08c-.04.15-.11.26-.2.36-.09.09-.18.14-.27.14h-.04c-.09-.01-.16-.07-.21-.16-.06-.1-.09-.23-.09-.38,0-.09.01-.18.04-.27.04-.15.1-.27.19-.37.09-.1.18-.15.29-.15.04,0,.08,0,.12.03.08.04.14.12.18.23,0,0,0,.02,0,.03,0,.01,0,.02,0,.03-.01.02-.03.03-.06.03,0,0-.01,0-.02,0-.02,0-.04-.02-.04-.04h0s-.02-.06-.04-.08c-.04-.06-.09-.09-.15-.09-.03,0-.07.01-.11.04-.07.05-.12.13-.17.25-.05.12-.07.24-.07.36s.02.21.06.28c.04.08.1.12.16.12.05,0,.1-.03.15-.09.07-.07.12-.17.16-.3h-.23s-.07-.03-.07-.08c0,0,0-.02,0-.02.01-.02.04-.04.07-.04h0Z"/>
                    <path class="cls-3" d="m30.04,87.57s0,.01,0,.02c.01.05.09.44.22,1.17,0,0,0,.01,0,.02,0,.01,0,.02,0,.03-.01.02-.03.03-.06.03h-.01s-.04-.02-.05-.05l-.07-.39h-.39l-.19.39s0,0,0,.01c-.02.02-.04.03-.06.03-.01,0-.02,0-.04-.01-.02-.02-.03-.03-.03-.06,0,0,0-.01,0-.02.01-.03.03-.07.06-.13.27-.59.44-.94.49-1.05.02-.03.04-.05.07-.05s.05.01.06.03h0Zm-.08.26l-.21.44h.3l-.09-.44Z"/>
                    <path class="cls-3" d="m31.1,88.86h-.57s-.02,0-.04-.01c-.02-.01-.03-.04-.03-.07h0s.05-.41.16-1.17c0,0,0-.02,0-.02.01-.03.03-.04.06-.04.01,0,.02,0,.03,0,.02.01.04.03.04.06,0,.05-.02.16-.04.32-.07.5-.1.76-.1.79h.48s.02,0,.04,0c.03.01.04.03.04.07,0,0,0,.02,0,.02,0,.02-.03.04-.07.05h0Z"/>
                    <path class="cls-3" d="m31.88,87.57s0,.01,0,.02c.01.05.09.44.22,1.17,0,0,0,.01,0,.02,0,.01,0,.02,0,.03-.01.02-.03.03-.06.03h-.01s-.04-.02-.05-.05l-.07-.39h-.39l-.19.39s0,0,0,.01c-.02.02-.04.03-.06.03-.01,0-.02,0-.04-.01-.02-.02-.03-.03-.03-.06,0,0,0-.01,0-.02.01-.03.03-.07.06-.13.27-.59.44-.94.49-1.05.02-.03.04-.05.07-.05s.05.01.06.03h0Zm-.08.26l-.21.44h.3l-.09-.44Z"/>
                    <path class="cls-3" d="m32.79,88.25c.04.12.08.22.1.29.06.16.09.25.09.26,0,.01,0,.02-.01.03-.01.02-.03.03-.06.03-.02,0-.04-.02-.06-.05,0-.01,0-.02,0-.03-.03-.07-.08-.21-.15-.4l-.32.44s-.04.03-.06.04c-.01,0-.02,0-.03,0-.02-.01-.03-.03-.03-.06v-.02s.01-.03.03-.06c.11-.14.23-.31.36-.5-.01-.04-.03-.07-.04-.11-.12-.33-.18-.49-.18-.5,0-.01,0-.02,0-.03.01-.02.03-.03.06-.03.03,0,.05.01.07.04l.19.51.38-.52s.04-.03.06-.03c.01,0,.02,0,.03,0,.02.01.03.03.03.06,0,0,0,.02,0,.03l-.44.61h0Z"/>
                    <path class="cls-3" d="m34.2,87.54s.02,0,.03,0c.02.01.03.03.04.06-.09.74-.15,1.14-.16,1.2-.02.12-.06.23-.12.31-.09.12-.22.19-.38.19-.05,0-.11-.02-.18-.05-.1-.05-.16-.11-.2-.18,0,0,0-.02,0-.03s0-.02,0-.03c.01-.02.03-.03.06-.03.02,0,.04,0,.05.03.08.11.18.16.29.17.09,0,.16-.04.23-.11.07-.09.11-.21.13-.36-.02.03-.05.07-.08.09-.06.04-.13.07-.21.07h-.04c-.09-.01-.16-.07-.22-.16-.06-.1-.1-.23-.1-.38,0-.07,0-.14,0-.21,0-.11.04-.28.08-.49,0,0,0-.01,0-.02.01-.03.03-.05.06-.05.01,0,.02,0,.03,0,.02.01.03.03.03.05,0,.03,0,.12-.03.26-.03.21-.05.34-.05.4,0,.13.02.23.05.31.04.09.1.14.17.14h.02c.06-.01.11-.06.17-.14.07-.09.11-.2.14-.31l.09-.65s0-.02,0-.03c.01-.02.03-.04.06-.04h0Z"/>
                  </g>
                  <path class="cls-2" d="m42.73,89.93s-.03-.78-.03-1.74.02-1.74.03-1.74.03.78.03,1.74-.02,1.74-.03,1.74Z"/>
                  <path class="cls-8" d="m27.22,89.93s-.03-.78-.03-1.74.02-1.74.03-1.74.03.78.03,1.74-.02,1.74-.03,1.74Z"/>
                  <path class="cls-2" d="m43.06,89.93s-.03-.78-.03-1.74.02-1.74.03-1.74.03.78.03,1.74-.02,1.74-.03,1.74Z"/>
                  <path class="cls-8" d="m26.9,89.93s-.03-.78-.03-1.74.02-1.74.03-1.74.03.78.03,1.74-.02,1.74-.03,1.74Z"/>
                </g>
                <g>
                  <path class="cls-8" d="m38.13,87.02h0c.52.41,1.22.98,2,1.61l.02.02h-.02c-.08.03-.17.05-.27.08-.61.16-1.18.31-1.69.44h0c-.63-.27-1.16-.49-1.53-.65-.19-.08-.33-.14-.44-.19-.05-.02-.09-.04-.11-.05-.01,0-.02,0-.03-.01,0,0,0,0,0,0,0,0,0,0,0,0,0,0,.02,0,.03.01.03.01.07.03.11.05.1.04.25.1.44.18.38.16.91.38,1.54.64h0c.51-.13,1.08-.29,1.69-.45.09-.02.18-.05.27-.07v.02c-.79-.63-1.49-1.2-2-1.62h0"/>
                  <polygon class="cls-8" points="39.95 88.38 40.06 88.48 40.21 88.45 40.14 88.58 40.22 88.72 40.07 88.7 39.97 88.81 39.94 88.66 39.8 88.6 39.94 88.53 39.95 88.38"/>
                  <polygon class="cls-8" points="38.03 89.02 38.1 89.08 38.2 89.05 38.16 89.14 38.21 89.22 38.12 89.22 38.06 89.29 38.03 89.2 37.94 89.17 38.02 89.11 38.03 89.02"/>
                  <polygon class="cls-8" points="35.9 88.15 36.02 88.15 36.1 88.06 36.13 88.17 36.24 88.21 36.14 88.28 36.13 88.4 36.04 88.32 35.93 88.35 35.97 88.25 35.9 88.15"/>
                  <polygon class="cls-8" points="40.85 87.05 40.97 87.05 41.04 86.96 41.07 87.07 41.18 87.12 41.08 87.18 41.08 87.3 40.99 87.22 40.87 87.25 40.91 87.15 40.85 87.05"/>
                  <polygon class="cls-8" points="38.03 86.97 38.11 86.97 38.16 86.91 38.18 86.99 38.25 87.01 38.18 87.05 38.18 87.13 38.12 87.08 38.05 87.1 38.08 87.03 38.03 86.97"/>
                  <path class="cls-8" d="m41.01,87.13s-.65-.01-1.45-.05-1.45-.07-1.45-.07.65.01,1.45.05c.8.03,1.45.07,1.45.07Z"/>
                </g>
              </g>
              <g>
                <path class="cls-8" d="m41.74,86.46h-19.22c-.25-.57-.31-1.11,0-1.6h19.23c.25.58.23,1.11,0,1.6h0Z"/>
                <g class="cls-12">
                  <rect class="cls-10" x="26.5" y="85.32" width="10.41" height=".58"/>
                </g>
                <path class="cls-8" d="m23.26,86.47s-.07-.06-.15-.19c-.08-.13-.16-.33-.17-.57-.02-.23.02-.45.07-.59s.11-.22.11-.22c0,0-.03.09-.07.23s-.07.34-.05.57.09.42.15.55c.06.13.12.21.11.22h0Z"/>
                <path class="cls-8" d="m23.67,86.47s-.07-.06-.15-.19c-.08-.13-.16-.33-.17-.57-.02-.23.02-.45.07-.59s.11-.22.11-.22c0,0-.03.09-.07.23s-.07.34-.05.57.09.42.15.55c.06.13.12.21.11.22h0Z"/>
                <path class="cls-2" d="m40.96,86.43s.14-.34.14-.78c0-.44-.15-.78-.13-.78.01-.01.2.32.2.78,0,.46-.19.79-.21.78Z"/>
                <path class="cls-2" d="m40.61,86.43s.06-.34.06-.77-.08-.76-.06-.77c.02,0,.13.33.13.76s-.11.77-.13.77h0Z"/>
              </g>
            </g>
            <g>
              <g>
                <g class="cls-12">
                  <rect class="cls-10" x="50.82" y="62.64" width="6.85" height="7.26" transform="translate(-.36 .29) rotate(-.31)"/>
                </g>
                <rect class="cls-2" x="57.63" y="62.6" width="6.85" height="7.26" transform="translate(-.36 .33) rotate(-.31)"/>
                <path class="cls-8" d="m50.81,64.67c4.55.04,9.11.01,13.66-.06.09,0,.09-.15,0-.15-4.55-.02-9.11,0-13.66.08-.08,0-.08.12,0,.12h0Z"/>
              </g>
              <g>
                <g class="cls-12">
                  <rect class="cls-10" x="46.55" y="69.8" width="12.44" height="5.92" transform="translate(-.39 .29) rotate(-.31)"/>
                </g>
                <rect class="cls-2" x="58.92" y="69.73" width="12.44" height="5.92" transform="translate(-.39 .35) rotate(-.31)"/>
                <path class="cls-8" d="m46.54,71.48c8.26.09,16.55,0,24.81-.12.09,0,.09-.15,0-.15-8.26-.04-16.55-.04-24.81.14-.08,0-.08.12,0,.12h0Z"/>
              </g>
            </g>
            <g>
              <g class="cls-12">
                <rect class="cls-10" x="35.32" y="103.29" width="12.44" height="5.92" transform="translate(-.57 .23) rotate(-.31)"/>
              </g>
              <rect class="cls-2" x="47.7" y="103.22" width="12.44" height="5.92" transform="translate(-.57 .29) rotate(-.31)"/>
              <path class="cls-8" d="m35.31,104.97c8.26.09,16.55,0,24.81-.12.09,0,.09-.15,0-.15-8.26-.04-16.55-.04-24.81.14-.08,0-.08.12,0,.12h0Z"/>
            </g>
            <g>
              <rect class="cls-8" x="27.95" y="60.16" width="3.14" height="15.61" transform="translate(-.37 .16) rotate(-.31)"/>
              <g class="cls-12">
                <rect class="cls-10" x="31.03" y="54.34" width="3.14" height="21.47" transform="translate(-.35 .18) rotate(-.31)"/>
              </g>
              <g>
                <rect class="cls-2" x="34.18" y="58.34" width="4.88" height="17.4" transform="translate(-.36 .2) rotate(-.31)"/>
                <path class="cls-8" d="m38.98,61.68s-1.09.08-2.44.08-2.44-.04-2.44-.08,1.09-.08,2.44-.08,2.44.04,2.44.08Z"/>
                <path class="cls-8" d="m38.98,60.95s-1.09.08-2.44.08-2.44-.04-2.44-.08,1.09-.08,2.44-.08,2.44.04,2.44.08Z"/>
                <path class="cls-8" d="m38.98,73.11s-1.09.08-2.44.08-2.44-.04-2.44-.08,1.09-.08,2.44-.08,2.44.04,2.44.08Z"/>
                <path class="cls-8" d="m38.98,72.38s-1.09.08-2.44.08-2.44-.04-2.44-.08,1.09-.08,2.44-.08,2.44.04,2.44.08Z"/>
                <path class="cls-8" d="m36.62,70.79s-.08-1.76-.08-3.92.04-3.92.08-3.92.08,1.76.08,3.92-.04,3.92-.08,3.92Z"/>
              </g>
              <g class="cls-12">
                <rect class="cls-10" x="39.03" y="62.6" width="5.31" height="13.13"/>
              </g>
              <path class="cls-8" d="m33.39,58c0,.5-.4.9-.9.9s-.9-.4-.9-.9.4-.9.9-.9.9.4.9.9Z"/>
              <rect class="cls-8" x="32.22" y="60.48" width=".56" height="12.77"/>
            </g>
            <g>
              <rect class="cls-8" x="19.17" y="93.74" width="55.23" height="1.89"/>
              <rect class="cls-8" x="19.17" y="75.82" width="55.23" height="1.89"/>
              <rect class="cls-8" x="30.44" y="109.25" width="43.96" height="1.78"/>
              <rect class="cls-8" x="44.68" y="77.34" width="2.11" height="17.83"/>
              <rect class="cls-8" x="30.45" y="93.74" width="2.11" height="17.29"/>
            </g>
            <path class="cls-2" d="m57.33,85.64l-1.3,1.86s2.91.81,2.91,3.4-1.78,3.07-3.72,3.07-3.8-.57-3.72-3.15,2.51-3.56,2.51-3.56l-1.22-1.62h4.54Z"/>
          </g>
          <g>
            <rect class="cls-8" x="228.65" y="62.02" width="2.18" height="46.95"/>
            <rect class="cls-2" x="196.97" y="62.38" width="31.35" height="46.66" rx=".03" ry=".03"/>
            <g class="cls-12">
              <path class="cls-10" d="m228.65,109.4h-32.01s-.03-.02-.03-.03v-47.32s.02-.03.03-.03h32.01s.03.02.03.03v47.32s-.02.03-.03.03Zm-31.28-.73h30.56s.03-.02.03-.03v-45.87s-.02-.03-.03-.03h-30.56s-.03.02-.03.03v45.87s.02.03.03.03Z"/>
            </g>
            <rect class="cls-4" x="200.12" y="65.26" width="25.09" height="40.87" rx=".03" ry=".03"/>
            <g class="cls-12">
              <rect class="cls-10" x="205.59" y="76.85" width="14.09" height="16.51" rx=".02" ry=".02"/>
            </g>
            <path class="cls-8" d="m218.57,91.34c.02.05-.68.36-2,.2-.65-.09-1.46-.32-2.25-.9-.77-.57-1.5-1.5-1.75-2.75-.26-1.23.16-2.77,1.34-3.76.29-.25.63-.45,1.01-.59.4-.15.84-.2,1.27-.15.43.05.88.2,1.27.55.39.35.6.95.5,1.48-.09.53-.38.94-.7,1.27-.32.33-.69.57-1.06.78-.76.42-1.63.68-2.53.72-.9.04-1.86-.14-2.7-.62-.83-.47-1.54-1.17-1.99-2.06-.45-.87-.59-1.93-.36-2.88.23-.94.76-1.79,1.52-2.37.38-.29.8-.51,1.27-.64.47-.12.95-.14,1.43-.04.47.1.96.33,1.3.73.35.4.51.92.51,1.39,0,.48-.12.94-.34,1.32-.21.39-.5.7-.8.97-.61.52-1.29.85-2,1.06-.7.2-1.42.25-2.1.16-.68-.1-1.31-.34-1.83-.7-1.04-.71-1.64-1.77-1.75-2.76-.12-1.01.25-1.83.65-2.37.41-.55.87-.83,1.2-.95.33-.12.52-.12.53-.09.01.04-.15.12-.42.3-.26.18-.63.49-.93,1-.29.5-.53,1.23-.38,2.02.14.79.68,1.64,1.55,2.17.85.54,2.05.68,3.2.3.57-.18,1.14-.49,1.6-.91.46-.41.77-.94.75-1.5-.02-.56-.37-.95-.96-1.07-.29-.06-.62-.04-.92.04-.3.09-.61.25-.87.45-.53.42-.93,1.05-1.1,1.75-.17.69-.07,1.43.27,2.09.33.67.88,1.22,1.52,1.58.63.36,1.36.51,2.09.48.72-.02,1.43-.23,2.05-.56.31-.17.6-.36.82-.58.22-.22.38-.47.42-.68.04-.21-.02-.4-.17-.54-.15-.15-.41-.26-.68-.3-.27-.04-.55-.02-.8.07-.27.09-.52.23-.74.41-.45.35-.78.83-.97,1.34-.19.51-.24,1.03-.16,1.54.15,1.01.71,1.84,1.34,2.38.64.54,1.34.82,1.93.96,1.19.28,1.91.14,1.92.24h0Z"/>
          </g>
          <g>
            <polygon class="cls-2" points="70.23 188 70.23 195.67 81.45 195.67 93.82 195.67 93.82 188 70.23 188"/>
            <polygon class="cls-8" points="69.24 185.85 69.24 188 94.64 188 94.64 185.85 81.45 185.85 69.24 185.85"/>
            <polygon class="cls-8" points="81.94 195.67 93.82 195.67 93.82 188 94.64 188 94.64 185.85 81.45 185.85 81.45 187.8 81.94 195.67"/>
            <rect class="cls-8" x="73.53" y="189.23" width="4.78" height="1.16"/>
            <rect class="cls-4" x="72.91" y="191.83" width="6.14" height="2.44"/>
          </g>
          <g>
            <polygon class="cls-2" points="75.72 178.19 75.72 185.86 86.94 185.86 99.31 185.86 99.31 178.19 75.72 178.19"/>
            <polygon class="cls-8" points="74.73 176.05 74.73 178.19 100.13 178.19 100.13 176.05 86.94 176.05 74.73 176.05"/>
            <polygon class="cls-8" points="87.43 185.86 99.31 185.86 99.31 178.19 100.13 178.19 100.13 176.05 86.94 176.05 86.94 177.99 87.43 185.86"/>
            <rect class="cls-8" x="79.02" y="179.43" width="4.78" height="1.16"/>
            <rect class="cls-4" x="78.4" y="182.03" width="6.14" height="2.44"/>
          </g>
          <g>
            <polygon class="cls-2" points="27.63 187.72 27.63 195.39 38.85 195.39 51.22 195.39 51.22 187.72 27.63 187.72"/>
            <polygon class="cls-8" points="26.64 185.57 26.64 187.72 52.04 187.72 52.04 185.57 38.85 185.57 26.64 185.57"/>
            <polygon class="cls-8" points="39.34 195.39 51.22 195.39 51.22 187.72 52.04 187.72 52.04 185.57 38.85 185.57 38.85 187.52 39.34 195.39"/>
            <rect class="cls-8" x="30.93" y="188.96" width="4.78" height="1.16"/>
            <rect class="cls-4" x="30.31" y="191.56" width="6.14" height="2.44"/>
          </g>
        </g>
        <g id="Floor">
          <path class="cls-9" d="m221.03,125s-41.42.08-92.51.08-92.52-.04-92.52-.08,41.41-.08,92.52-.08,92.51.04,92.51.08Z"/>
        </g>
        <g id="Device">
          <g>
            <g>
              <g>
                <path class="cls-8" d="m202.97,77.52l-.05,95.04c0,2.94-2.38,5.32-5.32,5.32l-141.03-.07c-2.94,0-5.32-2.38-5.32-5.32l.05-95.05c0-2.94,2.39-5.32,5.32-5.32l141.03.07c2.94,0,5.32,2.39,5.32,5.32h0Z"/>
                <path class="cls-9" d="m202.97,77.52s0-.11-.02-.33c0-.11-.01-.25-.04-.4-.02-.16-.05-.35-.11-.56-.1-.42-.29-.93-.62-1.47-.33-.54-.82-1.12-1.51-1.6-.35-.23-.74-.46-1.18-.61-.44-.17-.93-.27-1.44-.31-.13,0-.26-.01-.39-.02h-65.69c-11.44,0-23.96,0-37.41,0-6.72,0-13.68,0-20.84,0-3.58,0-7.22,0-10.9,0h-5.56c-.47,0-.93-.01-1.39.06-.46.05-.9.2-1.33.37-.85.38-1.6.97-2.15,1.72-.15.18-.25.39-.38.59-.1.21-.22.41-.29.64-.18.43-.26.9-.32,1.36-.03.47-.02.94-.02,1.42v7.21c0,3.87,0,7.79,0,11.74,0,7.92,0,16,0,24.22,0,16.45-.02,33.49-.02,50.94,0,.54.09,1.07.24,1.59.16.51.41.99.71,1.44.3.44.69.82,1.11,1.15.42.33.9.59,1.4.76,1,.4,2.1.3,3.18.32h3.24c4.31,0,8.59,0,12.84,0,8.5,0,16.87,0,25.1.02,16.46,0,32.33.02,47.46.03s29.49.02,42.94.03c1.68,0,3.35,0,5,0h2.47c.41,0,.82,0,1.22-.04.4-.05.8-.14,1.17-.28,1.52-.53,2.71-1.81,3.2-3.31.06-.19.1-.38.15-.57.03-.19.07-.39.08-.58.03-.39.02-.78.02-1.18v-2.35c0-6.24,0-12.23.02-17.95.02-22.87.04-41.38.05-54.17,0-6.4.02-11.36.02-14.73,0-1.68,0-2.96,0-3.83s0-1.31,0-1.31c0,0,0,.44,0,1.31s0,2.15,0,3.83c0,3.37,0,8.33,0,14.73v54.17c0,5.72,0,11.71,0,17.95v2.35c0,.39,0,.79-.02,1.19-.02.2-.06.4-.08.6-.05.19-.09.39-.16.58-.5,1.53-1.72,2.84-3.27,3.39-.38.15-.79.23-1.2.29-.41.05-.82.05-1.23.04h-7.47c-13.45,0-27.82,0-42.94-.02-15.12,0-31-.01-47.46-.02-8.23,0-16.6,0-25.1-.01-4.25,0-8.53,0-12.84,0h-3.24c-.54,0-1.08,0-1.63-.01-.55-.01-1.09-.13-1.61-.31-.52-.18-1.01-.45-1.44-.79-.43-.34-.83-.73-1.14-1.19-.31-.45-.56-.95-.73-1.48-.16-.53-.24-1.08-.25-1.63,0-17.45.02-34.49.03-50.94,0-8.23,0-16.31.02-24.22,0-3.96,0-7.87,0-11.74,0-1.94,0-3.86,0-5.77v-1.43c0-.48,0-.95.03-1.44.06-.48.15-.95.33-1.4.07-.23.2-.44.3-.66.13-.2.24-.42.39-.6.56-.78,1.34-1.39,2.21-1.77.44-.18.9-.33,1.37-.38.47-.07.94-.06,1.41-.06,1.86,0,3.72,0,5.56,0,3.68,0,7.32,0,10.9,0,7.16,0,14.12,0,20.84.02,13.45,0,25.98.02,37.41.03,22.87.02,41.38.04,54.17.05,3.2,0,6.04,0,8.5.01h3.01c.13,0,.26.01.39.02.52.04,1.01.15,1.45.32.45.16.84.38,1.19.62.69.49,1.18,1.07,1.51,1.61.33.55.52,1.06.62,1.48.06.21.08.4.11.56.03.16.03.3.04.41,0,.22.01.33.01.33h0Z"/>
              </g>
              <rect class="cls-4" x="61.76" y="75.69" width="126.66" height="99.02"/>
              <path class="cls-9" d="m195.33,120.98c2.24,0,4.05,1.82,4.05,4.06s-1.82,4.06-4.06,4.05c-2.24,0-4.05-1.82-4.05-4.06s1.82-4.05,4.06-4.05h0Z"/>
              <rect class="cls-9" x="55.64" y="109.05" width="1.68" height="31.83" rx=".38" ry=".38"/>
            </g>
            <rect class="cls-2" x="71.43" y="159.72" width="49.53" height="8.2" rx="1.69" ry="1.69"/>
            <rect class="cls-2" x="71.01" y="142.15" width="49.53" height="8.2" rx="1.69" ry="1.69"/>
            <rect class="cls-2" x="124.24" y="142.15" width="49.53" height="8.2" rx="1.69" ry="1.69"/>
            <rect class="cls-2" x="125.56" y="92.21" width="47.69" height="8.2" rx="1.69" ry="1.69"/>
            <rect class="cls-2" x="71.43" y="108.51" width="102.94" height="8.2" rx="1.69" ry="1.69"/>
            <rect class="cls-2" x="71.35" y="92.21" width="49.53" height="8.2" rx="1.69" ry="1.69"/>
            <g>
              <path class="cls-8" d="m74.79,96.51v.56h-.23v-.56l-.64-1.05h.25l.52.85.52-.85h.23l-.64,1.06h0Z"/>
              <path class="cls-8" d="m75.38,96.46c0-.36.27-.62.64-.62s.63.26.63.62-.27.62-.63.62-.64-.26-.64-.62Zm1.05,0c0-.26-.17-.43-.41-.43s-.41.17-.41.43.18.43.41.43.41-.17.41-.43Z"/>
              <path class="cls-8" d="m78.1,95.84v1.22h-.21v-.18c-.09.13-.24.2-.42.2-.32,0-.53-.17-.53-.53v-.71h.22v.68c0,.24.12.36.33.36.23,0,.38-.14.38-.41v-.63h.22Z"/>
              <path class="cls-8" d="m79.18,95.83v.21h-.05c-.24,0-.39.15-.39.41v.61h-.22v-1.22h.21v.21c.08-.14.23-.22.44-.22h0Z"/>
              <path class="cls-8" d="m81.52,95.45v1.62h-.19l-.97-1.21v1.21h-.23v-1.62h.19l.97,1.21v-1.21h.23Z"/>
              <path class="cls-8" d="m82.94,96.33v.74h-.21v-.16c-.07.11-.21.17-.4.17-.28,0-.45-.15-.45-.36,0-.2.13-.36.49-.36h.35v-.04c0-.19-.11-.3-.33-.3-.15,0-.29.05-.39.13l-.09-.17c.13-.1.31-.16.51-.16.34,0,.53.16.53.5h0Zm-.22.36v-.17h-.34c-.22,0-.28.08-.28.19,0,.12.1.2.27.2s.3-.08.35-.22h0Z"/>
              <path class="cls-8" d="m85.38,96.36v.71h-.22v-.68c0-.24-.11-.36-.32-.36-.22,0-.37.14-.37.41v.63h-.22v-.68c0-.24-.11-.36-.32-.36-.22,0-.37.14-.37.41v.63h-.22v-1.22h.21v.18c.09-.12.24-.19.42-.19s.34.07.43.23c.09-.14.26-.23.47-.23.3,0,.5.17.5.53h0Z"/>
              <path class="cls-8" d="m86.9,96.53h-.99c.03.21.2.36.44.36.14,0,.26-.05.35-.15l.12.14c-.11.13-.28.2-.48.2-.39,0-.66-.26-.66-.62s.26-.62.62-.62.61.25.61.63c0,.02,0,.05,0,.07h0Zm-.99-.16h.79c-.02-.21-.18-.35-.39-.35s-.37.14-.39.35h0Z"/>
            </g>
            <g>
              <path class="cls-9" d="m80.17,88.5v1.62h-.25l-.89-1.09v1.09h-.3v-1.62h.25l.89,1.09v-1.09h.3Z"/>
              <path class="cls-9" d="m81.61,89.39v.72h-.27v-.15c-.07.11-.2.17-.39.17-.28,0-.46-.16-.46-.37s.14-.37.51-.37h.32v-.02c0-.17-.1-.27-.31-.27-.14,0-.28.05-.37.12l-.11-.21c.13-.1.32-.15.52-.15.35,0,.56.17.56.53h0Zm-.29.34v-.14h-.3c-.2,0-.25.07-.25.16,0,.1.09.17.24.17s.26-.07.31-.19h0Z"/>
              <path class="cls-9" d="m84.04,89.41v.71h-.29v-.67c0-.22-.1-.33-.28-.33-.19,0-.32.12-.32.37v.62h-.29v-.67c0-.22-.1-.33-.28-.33-.19,0-.32.12-.32.37v.62h-.29v-1.23h.27v.16c.09-.11.24-.17.4-.17.18,0,.33.07.42.21.1-.13.26-.21.46-.21.3,0,.51.17.51.54h0Z"/>
              <path class="cls-9" d="m85.58,89.59h-.97c.03.18.18.3.4.3.14,0,.25-.04.34-.13l.16.18c-.11.13-.28.2-.5.2-.41,0-.68-.26-.68-.63s.27-.63.64-.63.62.25.62.64c0,.02,0,.06,0,.08h0Zm-.97-.19h.7c-.02-.18-.16-.3-.35-.3s-.32.12-.35.3Z"/>
              <g>
                <path class="cls-9" d="m73.34,88.82v.4h.7v.28h-.7v.55h-.35v-1.51h1.14v.28h-.79,0Z"/>
                <path class="cls-9" d="m74.28,88.54c0-.11.08-.19.21-.19s.21.08.21.18c0,.11-.08.2-.21.2s-.21-.08-.21-.19h0Zm.04.35h.34v1.16h-.34v-1.16Z"/>
                <path class="cls-9" d="m75.7,88.87v.31s-.05,0-.07,0c-.19,0-.31.1-.31.32v.55h-.34v-1.16h.32v.15c.08-.11.22-.17.4-.17h0Z"/>
                <path class="cls-9" d="m75.79,89.94l.11-.24c.1.07.26.11.4.11.16,0,.21-.04.21-.11,0-.19-.7,0-.7-.46,0-.22.2-.38.54-.38.16,0,.34.04.45.1l-.11.24c-.11-.07-.23-.09-.34-.09-.15,0-.22.05-.22.11,0,.2.7,0,.7.47,0,.22-.2.37-.55.37-.2,0-.39-.05-.5-.12h0Z"/>
                <path class="cls-9" d="m77.8,89.99c-.07.05-.17.07-.27.07-.27,0-.44-.14-.44-.42v-.48h-.18v-.26h.18v-.28h.34v.28h.29v.26h-.29v.47c0,.1.05.15.15.15.05,0,.1-.02.14-.04l.09.24h0Z"/>
              </g>
            </g>
            <path class="cls-7" d="m87.06,88.31l-.26.35h0s.42-.05.42-.05v.19l-.42-.05h0s.27.34.27.34l-.17.1-.17-.39h0l-.18.39-.16-.1.26-.34h0s-.41.05-.41.05v-.19l.41.05h0s-.26-.34-.26-.34l.17-.1.17.39h0l.17-.39.17.09h0Z"/>
            <g>
              <path class="cls-8" d="m75.11,146.74v.56h-.23v-.56l-.64-1.05h.25l.52.85.52-.85h.23l-.64,1.06h0Z"/>
              <path class="cls-8" d="m75.7,146.69c0-.36.27-.62.64-.62s.63.26.63.62-.27.62-.63.62-.64-.26-.64-.62Zm1.05,0c0-.26-.17-.43-.41-.43s-.41.17-.41.43.18.43.41.43.41-.17.41-.43Z"/>
              <path class="cls-8" d="m78.42,146.07v1.22h-.21v-.18c-.09.13-.24.2-.42.2-.32,0-.53-.17-.53-.53v-.71h.22v.68c0,.24.12.36.33.36.23,0,.38-.14.38-.41v-.63h.22Z"/>
              <path class="cls-8" d="m79.5,146.06v.21h-.05c-.24,0-.39.15-.39.41v.61h-.22v-1.22h.21v.21c.08-.14.23-.22.44-.22h0Z"/>
              <path class="cls-8" d="m81.83,145.68v1.62h-.19l-.97-1.21v1.21h-.23v-1.62h.19l.97,1.21v-1.21h.23Z"/>
              <path class="cls-8" d="m83.26,146.56v.74h-.21v-.16c-.07.11-.21.18-.4.18-.28,0-.45-.15-.45-.36,0-.2.13-.36.49-.36h.35v-.04c0-.19-.11-.3-.33-.3-.15,0-.29.05-.39.13l-.09-.17c.13-.1.31-.16.51-.16.34,0,.53.16.53.5h0Zm-.22.36v-.17h-.34c-.22,0-.28.09-.28.19,0,.12.1.2.27.2s.3-.08.35-.22h0Z"/>
              <path class="cls-8" d="m85.7,146.59v.71h-.22v-.68c0-.24-.11-.36-.32-.36-.22,0-.37.14-.37.41v.63h-.22v-.68c0-.24-.11-.36-.32-.36-.22,0-.37.14-.37.41v.63h-.22v-1.22h.21v.18c.09-.12.24-.19.42-.19s.34.07.43.23c.09-.14.26-.23.47-.23.3,0,.5.17.5.53h0Z"/>
              <path class="cls-8" d="m87.22,146.76h-.99c.03.21.2.36.44.36.14,0,.26-.05.35-.15l.12.14c-.11.13-.28.2-.48.2-.39,0-.66-.26-.66-.62s.26-.62.62-.62.61.25.61.63c0,.02,0,.05,0,.07h0Zm-.99-.16h.79c-.02-.21-.18-.35-.39-.35s-.37.14-.39.35h0Z"/>
            </g>
            <path class="cls-7" d="m84.35,137.88l-.26.35h0s.42-.05.42-.05v.19l-.42-.05h0s.27.34.27.34l-.17.1-.17-.39h0l-.18.39-.16-.1.26-.34h0s-.41.05-.41.05v-.19l.41.05h0s-.26-.34-.26-.34l.17-.1.17.39h0l.17-.39.17.09h0Z"/>
            <path class="cls-7" d="m133.15,138.58l-.26.35h0s.42-.05.42-.05v.19l-.42-.05h0s.27.34.27.34l-.17.1-.17-.39h0l-.18.39-.16-.1.26-.34h0s-.41.05-.41.05v-.19l.41.05h0s-.26-.34-.26-.34l.17-.1.17.39h0l.17-.39.17.09h0Z"/>
            <g>
              <path class="cls-8" d="m127.91,146.74v.56h-.23v-.56l-.64-1.05h.25l.52.85.52-.85h.23l-.64,1.06h0Z"/>
              <path class="cls-8" d="m128.51,146.69c0-.36.27-.62.64-.62s.63.26.63.62-.27.62-.63.62-.64-.26-.64-.62Zm1.05,0c0-.26-.18-.43-.41-.43s-.41.17-.41.43.18.43.41.43.41-.17.41-.43Z"/>
              <path class="cls-8" d="m131.23,146.07v1.22h-.21v-.18c-.09.13-.24.2-.42.2-.32,0-.53-.17-.53-.53v-.71h.22v.68c0,.24.12.36.33.36.23,0,.38-.14.38-.41v-.63h.22Z"/>
              <path class="cls-8" d="m132.31,146.06v.21h-.05c-.24,0-.39.15-.39.41v.61h-.22v-1.22h.21v.21c.08-.14.23-.22.44-.22h0Z"/>
              <path class="cls-8" d="m134.64,145.68v1.62h-.19l-.97-1.21v1.21h-.23v-1.62h.19l.97,1.21v-1.21h.23Z"/>
              <path class="cls-8" d="m136.06,146.56v.74h-.21v-.16c-.07.11-.21.18-.4.18-.28,0-.45-.15-.45-.36,0-.2.13-.36.49-.36h.35v-.04c0-.19-.11-.3-.33-.3-.15,0-.29.05-.39.13l-.09-.17c.13-.1.31-.16.51-.16.34,0,.53.16.53.5h0Zm-.22.36v-.17h-.34c-.22,0-.28.09-.28.19,0,.12.1.2.27.2s.3-.08.35-.22Z"/>
              <path class="cls-8" d="m138.51,146.59v.71h-.22v-.68c0-.24-.11-.36-.32-.36-.22,0-.37.14-.37.41v.63h-.22v-.68c0-.24-.11-.36-.32-.36-.22,0-.37.14-.37.41v.63h-.22v-1.22h.21v.18c.09-.12.24-.19.42-.19s.34.07.43.23c.09-.14.26-.23.47-.23.3,0,.5.17.5.53h0Z"/>
              <path class="cls-8" d="m140.03,146.76h-.99c.03.21.2.36.44.36.14,0,.26-.05.35-.15l.12.14c-.11.13-.28.2-.48.2-.39,0-.66-.26-.66-.62s.26-.62.62-.62.61.25.61.63c0,.02,0,.05,0,.07h0Zm-.99-.16h.79c-.02-.21-.18-.35-.39-.35s-.37.14-.39.35h0Z"/>
            </g>
            <g>
              <path class="cls-9" d="m74.55,106.18v.25h-1.21v-1.62h1.18v.25h-.88v.42h.78v.25h-.78v.44h.91Z"/>
              <path class="cls-9" d="m76.92,105.72v.71h-.29v-.67c0-.22-.1-.33-.28-.33-.19,0-.32.12-.32.37v.62h-.29v-.67c0-.22-.1-.33-.28-.33-.19,0-.32.12-.32.37v.62h-.29v-1.23h.27v.16c.09-.11.24-.17.4-.17.18,0,.33.07.42.21.1-.13.26-.21.46-.21.3,0,.51.17.51.54h0Z"/>
              <path class="cls-9" d="m78.33,105.71v.72h-.27v-.15c-.07.11-.2.17-.39.17-.28,0-.46-.16-.46-.37s.14-.37.51-.37h.32v-.02c0-.17-.1-.27-.31-.27-.14,0-.28.05-.37.12l-.11-.21c.13-.1.32-.15.52-.15.35,0,.56.17.56.53h0Zm-.29.34v-.14h-.3c-.2,0-.25.07-.25.16,0,.1.09.17.24.17s.26-.07.31-.19h0Z"/>
              <path class="cls-9" d="m78.66,104.82c0-.1.08-.17.18-.17s.18.07.18.17c0,.1-.08.18-.18.18s-.18-.08-.18-.17Zm.04.38h.29v1.23h-.29v-1.23Z"/>
              <path class="cls-9" d="m79.36,104.72h.29v1.71h-.29v-1.71Z"/>
            </g>
            <g>
              <path class="cls-8" d="m75.11,113.1v.56h-.23v-.56l-.64-1.05h.25l.52.85.52-.85h.23l-.64,1.06h0Z"/>
              <path class="cls-8" d="m75.7,113.04c0-.36.27-.62.64-.62s.63.26.63.62-.27.62-.63.62-.64-.26-.64-.62Zm1.05,0c0-.26-.17-.43-.41-.43s-.41.17-.41.43.18.43.41.43.41-.17.41-.43Z"/>
              <path class="cls-8" d="m78.42,112.43v1.22h-.21v-.18c-.09.13-.24.2-.42.2-.32,0-.53-.17-.53-.53v-.71h.22v.68c0,.24.12.36.33.36.23,0,.38-.14.38-.41v-.63h.22Z"/>
              <path class="cls-8" d="m79.5,112.42v.21h-.05c-.24,0-.39.15-.39.41v.61h-.22v-1.22h.21v.21c.08-.14.23-.22.44-.22h0Z"/>
              <path class="cls-8" d="m81.62,113.45v.2h-1.17v-1.62h1.14v.2h-.91v.5h.81v.2h-.81v.52h.94Z"/>
              <path class="cls-8" d="m83.99,112.95v.71h-.22v-.68c0-.24-.11-.36-.32-.36-.22,0-.37.14-.37.41v.63h-.22v-.68c0-.24-.11-.36-.32-.36-.22,0-.37.14-.37.41v.63h-.22v-1.22h.21v.18c.09-.12.24-.19.42-.19s.34.07.43.23c.09-.14.26-.23.47-.23.3,0,.5.17.5.53h0Z"/>
              <path class="cls-8" d="m85.37,112.92v.74h-.21v-.16c-.07.11-.21.17-.4.17-.28,0-.45-.15-.45-.36,0-.2.13-.36.49-.36h.35v-.04c0-.19-.11-.3-.33-.3-.15,0-.29.05-.39.13l-.09-.17c.13-.1.31-.16.51-.16.34,0,.53.16.53.5h0Zm-.22.36v-.17h-.34c-.22,0-.28.08-.28.19,0,.12.1.2.27.2s.3-.08.35-.22h0Z"/>
              <path class="cls-8" d="m85.74,112.05c0-.08.07-.15.15-.15s.15.06.15.14c0,.08-.06.15-.15.15s-.15-.06-.15-.14h0Zm.04.38h.22v1.22h-.22v-1.22Z"/>
              <path class="cls-8" d="m86.43,111.94h.22v1.71h-.22v-1.71Z"/>
            </g>
            <path class="cls-7" d="m81.5,104.62l-.26.35h0s.42-.05.42-.05v.19l-.42-.05h0s.27.34.27.34l-.17.1-.17-.39h0l-.18.39-.16-.1.26-.34h0s-.41.05-.41.05v-.19l.41.05h0s-.26-.34-.26-.34l.17-.1.17.39h0l.17-.39.17.09h0Z"/>
            <path class="cls-7" d="m94.11,121.4l-.26.35h0s.42-.05.42-.05v.19l-.42-.05h0s.27.34.27.34l-.17.1-.17-.39h0l-.18.39-.16-.1.26-.34h0s-.41.05-.41.05v-.19l.41.05h0s-.26-.34-.26-.34l.17-.1.17.39h0l.17-.39.17.09h0Z"/>
            <rect class="cls-2" x="71.28" y="125.92" width="103.09" height="8.2" rx="1.69" ry="1.69"/>
            <g>
              <path class="cls-9" d="m126.83,87.88h.3v1.36h.85v.25h-1.15v-1.62Z"/>
              <path class="cls-9" d="m129.23,88.77v.72h-.27v-.15c-.07.11-.2.17-.39.17-.28,0-.46-.16-.46-.37s.14-.37.51-.37h.32v-.02c0-.17-.1-.27-.31-.27-.14,0-.28.05-.37.12l-.11-.21c.13-.1.32-.15.52-.15.35,0,.56.17.56.53h0Zm-.29.34v-.14h-.3c-.2,0-.25.07-.25.16,0,.1.09.17.24.17s.26-.07.31-.19h0Z"/>
              <path class="cls-9" d="m129.46,89.37l.11-.22c.11.07.27.12.43.12.18,0,.26-.05.26-.14,0-.24-.76-.01-.76-.51,0-.23.21-.39.54-.39.16,0,.35.04.46.11l-.11.22c-.12-.07-.24-.09-.35-.09-.17,0-.26.06-.26.14,0,.25.76.03.76.51,0,.23-.21.38-.56.38-.21,0-.41-.06-.52-.14h0Z"/>
              <path class="cls-9" d="m131.53,89.43c-.07.06-.17.08-.28.08-.27,0-.43-.14-.43-.42v-.59h-.2v-.23h.2v-.28h.29v.28h.33v.23h-.33v.59c0,.12.06.18.17.18.06,0,.12-.02.16-.05l.08.21h0Z"/>
              <path class="cls-9" d="m133.87,87.88v1.62h-.25l-.89-1.09v1.09h-.3v-1.62h.25l.89,1.09v-1.09h.3Z"/>
              <path class="cls-9" d="m135.31,88.77v.72h-.27v-.15c-.07.11-.2.17-.39.17-.28,0-.46-.16-.46-.37s.14-.37.51-.37h.32v-.02c0-.17-.1-.27-.31-.27-.14,0-.28.05-.37.12l-.11-.21c.13-.1.32-.15.52-.15.35,0,.56.17.56.53h0Zm-.29.34v-.14h-.3c-.2,0-.25.07-.25.16,0,.1.09.17.24.17s.26-.07.31-.19h0Z"/>
              <path class="cls-9" d="m137.74,88.79v.71h-.29v-.67c0-.22-.1-.33-.28-.33-.19,0-.32.12-.32.37v.62h-.29v-.67c0-.22-.1-.33-.28-.33-.19,0-.32.12-.32.37v.62h-.29v-1.23h.27v.16c.09-.11.24-.17.4-.17.18,0,.33.07.42.21.1-.13.26-.21.46-.21.3,0,.51.17.51.54h0Z"/>
              <path class="cls-9" d="m139.28,88.97h-.97c.03.18.18.3.4.3.14,0,.25-.04.34-.13l.16.18c-.11.13-.28.2-.5.2-.41,0-.68-.27-.68-.63s.27-.63.64-.63.62.25.62.64c0,.02,0,.06,0,.08h0Zm-.97-.19h.7c-.02-.18-.16-.3-.35-.3s-.32.12-.35.3Z"/>
            </g>
            <g>
              <path class="cls-8" d="m129.69,96.51v.56h-.23v-.56l-.64-1.05h.25l.52.85.52-.85h.23l-.64,1.06h0Z"/>
              <path class="cls-8" d="m130.28,96.46c0-.36.27-.62.64-.62s.63.26.63.62-.27.62-.63.62-.64-.26-.64-.62Zm1.05,0c0-.26-.18-.43-.41-.43s-.41.17-.41.43.18.43.41.43.41-.17.41-.43Z"/>
              <path class="cls-8" d="m133,95.84v1.22h-.21v-.18c-.09.13-.24.2-.42.2-.32,0-.53-.17-.53-.53v-.71h.22v.68c0,.24.12.36.33.36.23,0,.38-.14.38-.41v-.63h.22Z"/>
              <path class="cls-8" d="m134.08,95.83v.21h-.05c-.24,0-.39.15-.39.41v.61h-.22v-1.22h.21v.21c.08-.14.23-.22.44-.22Z"/>
              <path class="cls-8" d="m136.41,95.45v1.62h-.19l-.97-1.21v1.21h-.23v-1.62h.19l.97,1.21v-1.21h.23Z"/>
              <path class="cls-8" d="m137.84,96.33v.74h-.21v-.16c-.07.11-.21.17-.4.17-.28,0-.45-.15-.45-.36,0-.2.13-.36.49-.36h.35v-.04c0-.19-.11-.3-.33-.3-.15,0-.29.05-.39.13l-.09-.17c.13-.1.31-.16.51-.16.34,0,.53.16.53.5h0Zm-.22.36v-.17h-.34c-.22,0-.28.08-.28.19,0,.12.1.2.27.2s.3-.08.35-.22Z"/>
              <path class="cls-8" d="m140.28,96.36v.71h-.22v-.68c0-.24-.11-.36-.32-.36-.22,0-.37.14-.37.41v.63h-.22v-.68c0-.24-.11-.36-.32-.36-.22,0-.37.14-.37.41v.63h-.22v-1.22h.21v.18c.09-.12.24-.19.42-.19s.34.07.43.23c.09-.14.26-.23.47-.23.3,0,.5.17.5.53h0Z"/>
              <path class="cls-8" d="m141.8,96.53h-.99c.03.21.2.36.44.36.14,0,.26-.05.35-.15l.12.14c-.11.13-.28.2-.48.2-.39,0-.66-.26-.66-.62s.26-.62.62-.62.61.25.61.63c0,.02,0,.05,0,.07h0Zm-.99-.16h.79c-.02-.21-.18-.35-.39-.35s-.37.14-.39.35h0Z"/>
            </g>
            <path class="cls-7" d="m140.86,87.69l-.26.35h0s.42-.05.42-.05v.19l-.42-.05h0s.27.34.27.34l-.17.1-.17-.39h0l-.18.39-.16-.1.26-.34h0s-.41.05-.41.05v-.19l.41.05h0s-.26-.34-.26-.34l.17-.1.17.39h0l.17-.39.17.09h0Z"/>
            <g>
              <path class="cls-9" d="m72.52,122.21c0-.48.37-.83.87-.83.26,0,.49.09.64.27l-.19.18c-.12-.13-.26-.19-.43-.19-.34,0-.58.24-.58.57s.24.57.58.57c.17,0,.31-.06.43-.19l.19.18c-.15.17-.38.27-.64.27-.49,0-.86-.35-.86-.83h0Z"/>
              <path class="cls-9" d="m74.14,122.4c0-.37.28-.63.66-.63s.66.26.66.63-.27.63-.66.63-.66-.26-.66-.63Zm1.02,0c0-.24-.16-.39-.37-.39s-.36.15-.36.39.16.39.36.39.37-.15.37-.39Z"/>
              <path class="cls-9" d="m76.95,122.31v.71h-.29v-.67c0-.22-.11-.33-.29-.33-.21,0-.34.12-.34.37v.62h-.29v-1.23h.27v.16c.09-.11.25-.17.43-.17.3,0,.52.17.52.54h0Z"/>
              <path class="cls-9" d="m78.06,122.95c-.07.06-.17.08-.28.08-.27,0-.43-.14-.43-.42v-.59h-.2v-.23h.2v-.28h.29v.28h.33v.23h-.33v.59c0,.12.06.18.17.18.06,0,.12-.02.16-.05l.08.21Z"/>
              <path class="cls-9" d="m79.33,122.29v.72h-.27v-.15c-.07.11-.2.17-.39.17-.28,0-.46-.16-.46-.37s.14-.37.51-.37h.32v-.02c0-.17-.1-.27-.31-.27-.14,0-.28.05-.37.12l-.11-.21c.13-.1.32-.15.52-.15.35,0,.56.17.56.53h0Zm-.29.34v-.14h-.3c-.2,0-.25.07-.25.16,0,.1.09.17.24.17s.26-.07.31-.19h0Z"/>
              <path class="cls-9" d="m79.61,122.4c0-.37.28-.63.67-.63.24,0,.43.1.53.29l-.22.13c-.07-.12-.18-.17-.31-.17-.21,0-.37.15-.37.39s.16.39.37.39c.12,0,.23-.05.31-.17l.22.13c-.09.18-.29.29-.53.29-.39,0-.67-.26-.67-.63Z"/>
              <path class="cls-9" d="m81.81,122.95c-.07.06-.17.08-.28.08-.27,0-.43-.14-.43-.42v-.59h-.2v-.23h.2v-.28h.29v.28h.33v.23h-.33v.59c0,.12.06.18.17.18.06,0,.12-.02.16-.05l.08.21Z"/>
              <path class="cls-9" d="m84.51,121.4v1.62h-.25l-.89-1.09v1.09h-.3v-1.62h.25l.89,1.09v-1.09h.3Z"/>
              <path class="cls-9" d="m86.12,121.78v1.23h-.27v-.16c-.09.11-.24.17-.4.17-.32,0-.53-.17-.53-.54v-.71h.29v.67c0,.22.11.33.29.33.2,0,.34-.12.34-.37v-.62h.29Z"/>
              <path class="cls-9" d="m88.56,122.31v.71h-.29v-.67c0-.22-.1-.33-.28-.33-.19,0-.32.12-.32.37v.62h-.29v-.67c0-.22-.1-.33-.28-.33-.19,0-.32.12-.32.37v.62h-.29v-1.23h.27v.16c.09-.11.24-.17.4-.17.18,0,.33.07.42.21.1-.13.26-.21.46-.21.3,0,.51.17.51.54h0Z"/>
              <path class="cls-9" d="m90.24,122.4c0,.38-.26.63-.62.63-.17,0-.31-.06-.41-.17v.16h-.27v-1.71h.29v.63c.1-.11.24-.16.39-.16.36,0,.62.25.62.63h0Zm-.29,0c0-.24-.16-.39-.36-.39s-.37.15-.37.39.16.39.37.39.36-.15.36-.39Z"/>
              <path class="cls-9" d="m91.67,122.49h-.97c.03.18.18.3.4.3.14,0,.25-.04.34-.13l.16.18c-.11.13-.28.2-.5.2-.41,0-.68-.26-.68-.63s.27-.63.64-.63.62.25.62.64c0,.02,0,.06,0,.08h0Zm-.97-.19h.7c-.02-.18-.16-.3-.35-.3s-.32.12-.35.3Z"/>
              <path class="cls-9" d="m92.67,121.77v.27s-.05,0-.07,0c-.22,0-.36.13-.36.38v.6h-.29v-1.23h.27v.18c.08-.13.23-.19.44-.19h0Z"/>
            </g>
            <g>
              <path class="cls-9" d="m74.39,139.32h-.81l-.16.37h-.31l.73-1.62h.3l.73,1.62h-.31l-.16-.37Zm-.1-.24l-.3-.71-.3.71h.61Z"/>
              <path class="cls-9" d="m76.24,137.98v1.71h-.28v-.16c-.1.12-.24.17-.41.17-.36,0-.62-.25-.62-.63s.26-.63.62-.63c.16,0,.3.05.4.17v-.63h.29Zm-.28,1.1c0-.24-.16-.39-.37-.39s-.37.15-.37.39.16.39.37.39.37-.15.37-.39Z"/>
              <path class="cls-9" d="m77.83,137.98v1.71h-.28v-.16c-.1.12-.24.17-.41.17-.36,0-.62-.25-.62-.63s.26-.63.62-.63c.16,0,.3.05.4.17v-.63h.29Zm-.28,1.1c0-.24-.16-.39-.37-.39s-.37.15-.37.39.16.39.37.39.37-.15.37-.39Z"/>
              <path class="cls-9" d="m78.92,138.44v.27s-.05,0-.07,0c-.22,0-.36.13-.36.38v.6h-.29v-1.23h.27v.18c.08-.13.23-.19.44-.19h0Z"/>
              <path class="cls-9" d="m80.31,139.17h-.97c.03.18.18.3.4.3.14,0,.25-.04.34-.13l.16.18c-.11.13-.28.2-.5.2-.41,0-.68-.26-.68-.63s.27-.63.64-.63.62.25.62.64c0,.02,0,.06,0,.09h0Zm-.97-.19h.7c-.02-.18-.16-.3-.35-.3s-.32.12-.35.3Z"/>
              <path class="cls-9" d="m80.45,139.57l.11-.22c.11.07.27.12.43.12.18,0,.26-.05.26-.14,0-.24-.76-.01-.76-.51,0-.23.21-.39.54-.39.16,0,.35.04.46.11l-.11.22c-.12-.07-.24-.09-.35-.09-.17,0-.26.06-.26.14,0,.25.76.03.76.51,0,.23-.21.38-.56.38-.21,0-.41-.06-.52-.14h0Z"/>
              <path class="cls-9" d="m81.64,139.57l.11-.22c.11.07.27.12.43.12.18,0,.26-.05.26-.14,0-.24-.76-.01-.76-.51,0-.23.21-.39.54-.39.16,0,.35.04.46.11l-.11.22c-.12-.07-.24-.09-.35-.09-.17,0-.26.06-.26.14,0,.25.76.03.76.51,0,.23-.21.38-.56.38-.21,0-.41-.06-.52-.14h0Z"/>
            </g>
            <g>
              <path class="cls-8" d="m75.41,163.78l.67.38-.17.31-.68-.4v.77s-.33,0-.33,0v-.77s-.68.4-.68.4l-.17-.31.68-.38-.68-.37.17-.32.68.4v-.76s.33,0,.33,0v.76s.68-.4.68-.4l.17.32-.67.37Z"/>
              <path class="cls-8" d="m77.78,163.78l.67.38-.17.31-.68-.4v.77s-.33,0-.33,0v-.77s-.68.4-.68.4l-.17-.31.68-.38-.68-.37.17-.32.68.4v-.76s.33,0,.33,0v.76s.68-.4.68-.4l.17.32-.67.37Z"/>
              <path class="cls-8" d="m80.16,163.78l.67.38-.17.31-.68-.4v.77s-.33,0-.33,0v-.77s-.68.4-.68.4l-.17-.31.68-.38-.68-.37.17-.32.68.4v-.76s.33,0,.33,0v.76s.68-.4.68-.4l.17.32-.67.37Z"/>
              <path class="cls-8" d="m82.54,163.78l.67.38-.17.31-.68-.4v.77s-.33,0-.33,0v-.77s-.68.4-.68.4l-.17-.31.68-.38-.68-.37.17-.32.68.4v-.76s.33,0,.33,0v.76s.68-.4.68-.4l.17.32-.67.37Z"/>
              <path class="cls-8" d="m84.91,163.78l.67.38-.17.31-.68-.4v.77s-.33,0-.33,0v-.77s-.68.4-.68.4l-.17-.31.68-.38-.68-.37.17-.32.68.4v-.76s.33,0,.33,0v.76s.68-.4.68-.4l.17.32-.67.37Z"/>
              <path class="cls-8" d="m87.29,163.78l.67.38-.17.31-.68-.4v.77s-.33,0-.33,0v-.77s-.68.4-.68.4l-.17-.31.68-.38-.68-.37.17-.32.68.4v-.76s.33,0,.33,0v.76s.68-.4.68-.4l.17.32-.67.37Z"/>
              <path class="cls-8" d="m89.66,163.78l.67.38-.17.31-.68-.4v.77s-.33,0-.33,0v-.77s-.68.4-.68.4l-.17-.31.68-.38-.68-.37.17-.32.68.4v-.76s.33,0,.33,0v.76s.68-.4.68-.4l.17.32-.67.37Z"/>
            </g>
            <g>
              <path class="cls-9" d="m125.64,140.23l.1-.23c.13.1.34.18.53.18.25,0,.36-.09.36-.21,0-.35-.96-.12-.96-.72,0-.26.21-.48.65-.48.19,0,.4.05.54.14l-.09.23c-.15-.09-.3-.13-.44-.13-.25,0-.35.1-.35.22,0,.34.96.12.96.71,0,.26-.21.48-.65.48-.25,0-.5-.08-.64-.19h0Z"/>
              <path class="cls-9" d="m127.94,140.33c-.07.06-.17.08-.28.08-.27,0-.43-.14-.43-.42v-.59h-.2v-.23h.2v-.28h.29v.28h.33v.23h-.33v.59c0,.12.06.18.17.18.06,0,.12-.02.16-.05l.08.21h0Z"/>
              <path class="cls-9" d="m129.21,139.68v.72h-.27v-.15c-.07.11-.2.17-.39.17-.28,0-.46-.16-.46-.37s.14-.37.51-.37h.32v-.02c0-.17-.1-.27-.31-.27-.14,0-.28.05-.37.12l-.11-.21c.13-.1.32-.15.52-.15.35,0,.56.17.56.53h0Zm-.29.34v-.14h-.3c-.2,0-.25.07-.25.16,0,.1.09.17.24.17s.26-.07.31-.19h0Z"/>
              <path class="cls-9" d="m130.33,140.33c-.07.06-.17.08-.28.08-.27,0-.43-.14-.43-.42v-.59h-.2v-.23h.2v-.28h.29v.28h.33v.23h-.33v.59c0,.12.06.18.17.18.06,0,.12-.02.16-.05l.08.21h0Z"/>
              <path class="cls-9" d="m131.68,139.87h-.97c.03.18.18.3.4.3.14,0,.25-.04.34-.13l.16.18c-.11.13-.28.2-.5.2-.41,0-.68-.26-.68-.63s.27-.63.64-.63.62.25.62.64c0,.02,0,.06,0,.09h0Zm-.97-.19h.7c-.02-.18-.16-.3-.35-.3s-.32.12-.35.3Z"/>
            </g>
            <g>
              <path class="cls-9" d="m73.99,156.31c0,.35-.26.57-.69.57h-.36v.47h-.3v-1.62h.67c.43,0,.69.22.69.57Zm-.3,0c0-.2-.14-.32-.4-.32h-.35v.64h.35c.26,0,.4-.12.4-.32h0Z"/>
              <path class="cls-9" d="m75.29,156.64v.72h-.27v-.15c-.07.11-.2.17-.39.17-.28,0-.46-.16-.46-.37s.14-.37.51-.37h.32v-.02c0-.17-.1-.27-.31-.27-.14,0-.28.05-.37.12l-.11-.21c.13-.1.32-.15.52-.15.35,0,.56.17.56.53h0Zm-.29.34v-.14h-.3c-.2,0-.25.07-.25.16,0,.1.09.17.24.17s.26-.07.31-.19h0Z"/>
              <path class="cls-9" d="m75.52,157.23l.11-.22c.11.07.27.12.43.12.18,0,.26-.05.26-.14,0-.24-.76-.01-.76-.51,0-.23.21-.39.54-.39.16,0,.35.04.46.11l-.11.22c-.12-.07-.24-.09-.35-.09-.17,0-.26.06-.26.14,0,.25.76.03.76.51,0,.23-.21.38-.56.38-.21,0-.41-.06-.52-.14h0Z"/>
              <path class="cls-9" d="m76.71,157.23l.11-.22c.11.07.27.12.43.12.18,0,.26-.05.26-.14,0-.24-.76-.01-.76-.51,0-.23.21-.39.54-.39.16,0,.35.04.46.11l-.11.22c-.12-.07-.24-.09-.35-.09-.17,0-.26.06-.26.14,0,.25.76.03.76.51,0,.23-.21.38-.56.38-.21,0-.41-.06-.52-.14h0Z"/>
              <path class="cls-9" d="m79.93,156.12l-.45,1.23h-.28l-.32-.85-.32.85h-.28l-.45-1.23h.27l.33.91.34-.91h.24l.33.91.34-.91h.25,0Z"/>
              <path class="cls-9" d="m80,156.74c0-.37.28-.63.66-.63s.66.26.66.63-.27.63-.66.63-.66-.26-.66-.63Zm1.02,0c0-.24-.16-.39-.37-.39s-.36.15-.36.39.16.39.36.39.37-.15.37-.39Z"/>
              <path class="cls-9" d="m82.31,156.11v.27s-.05,0-.07,0c-.22,0-.36.13-.36.38v.6h-.29v-1.23h.27v.18c.08-.13.23-.19.44-.19h0Z"/>
              <path class="cls-9" d="m83.75,155.64v1.71h-.28v-.16c-.1.12-.24.17-.41.17-.36,0-.62-.25-.62-.63s.26-.63.62-.63c.16,0,.3.05.4.17v-.63h.29Zm-.28,1.1c0-.24-.16-.39-.37-.39s-.37.15-.37.39.16.39.37.39.37-.15.37-.39Z"/>
            </g>
            <g>
              <path class="cls-7" d="m166.96,167.93s.17,0,.48-.09c.3-.1.76-.34,1.02-.91.14-.28.16-.62.15-.99,0-.38,0-.79,0-1.23,0-.88,0-1.88-.01-2.99,0-.28,0-.56-.09-.82-.09-.26-.25-.51-.47-.7-.22-.19-.49-.33-.79-.38-.3-.05-.62-.02-.95-.02-1.3,0-2.69,0-4.16,0-2.93,0-6.15,0-9.53,0-.4,0-.8.16-1.09.43-.29.27-.48.65-.51,1.04-.02.81,0,1.63,0,2.42v2.35c-.02.38.04.74.24,1.05.19.3.48.54.8.66.33.14.69.1,1.05.1h1.06c.69,0,1.37,0,2.02,0,1.3,0,2.51,0,3.62,0,2.21,0,4,.02,5.25.02.61,0,1.09.01,1.43.02.16,0,.28,0,.37,0,.08,0,.13,0,.13,0s-.04,0-.13,0c-.09,0-.21,0-.37,0-.34,0-.81,0-1.43.02-1.25,0-3.04.02-5.25.02-1.11,0-2.32,0-3.62,0-.65,0-1.32,0-2.02,0h-1.06c-.18,0-.35,0-.54,0-.19,0-.38-.04-.56-.11-.36-.13-.68-.39-.88-.72-.22-.33-.29-.75-.27-1.13v-2.35c0-.8,0-1.6,0-2.44.04-.43.24-.85.56-1.14s.76-.47,1.2-.47c3.38,0,6.6,0,9.53,0,1.46,0,2.86,0,4.16,0,.33,0,.64-.02.97.03.32.06.62.21.85.41.24.21.41.48.5.76.1.29.09.59.09.86,0,1.11,0,2.11-.01,2.99,0,.44,0,.85,0,1.23,0,.37-.02.74-.16,1.02-.27.58-.76.82-1.07.91-.32.08-.49.06-.49.06h0Z"/>
              <g>
                <path class="cls-7" d="m154.21,163.94c0-.51.39-.88.92-.88.29,0,.54.11.7.3l-.25.23c-.11-.13-.26-.2-.43-.2-.32,0-.54.22-.54.54s.22.54.54.54c.17,0,.31-.07.43-.2l.25.23c-.16.2-.4.3-.7.3-.53,0-.92-.37-.92-.88h0Z"/>
                <path class="cls-7" d="m155.92,164.14c0-.39.3-.67.72-.67s.71.28.71.67-.3.67-.71.67-.72-.28-.72-.67Zm1.05,0c0-.22-.14-.36-.33-.36s-.34.14-.34.36.15.36.34.36.33-.14.33-.36Z"/>
                <path class="cls-7" d="m158.94,164.04v.75h-.38v-.69c0-.21-.1-.31-.26-.31-.18,0-.31.11-.31.35v.64h-.38v-1.31h.36v.15c.1-.11.25-.17.43-.17.31,0,.54.18.54.58h0Z"/>
                <path class="cls-7" d="m160.12,164.73c-.08.06-.19.08-.31.08-.31,0-.49-.16-.49-.47v-.53h-.2v-.29h.2v-.32h.38v.32h.32v.29h-.32v.53c0,.11.06.17.16.17.06,0,.11-.02.15-.05l.1.27h0Z"/>
                <path class="cls-7" d="m160.29,163.1c0-.12.09-.21.24-.21s.24.09.24.21c0,.13-.09.22-.24.22s-.24-.09-.24-.21h0Zm.05.39h.38v1.31h-.38v-1.31Z"/>
                <path class="cls-7" d="m162.39,164.04v.75h-.38v-.69c0-.21-.1-.31-.26-.31-.18,0-.31.11-.31.35v.64h-.38v-1.31h.36v.15c.1-.11.25-.17.43-.17.31,0,.54.18.54.58h0Z"/>
                <path class="cls-7" d="m164.05,163.49v1.31h-.36v-.16c-.1.11-.25.17-.4.17-.33,0-.56-.18-.56-.59v-.74h.38v.68c0,.22.1.31.26.31s.3-.11.3-.35v-.64h.38,0Z"/>
                <path class="cls-7" d="m165.67,164.25h-.99c.04.16.17.26.37.26.14,0,.24-.04.33-.13l.2.22c-.12.14-.3.21-.54.21-.45,0-.74-.28-.74-.67s.3-.67.7-.67.68.26.68.67c0,.03,0,.07,0,.1h0Zm-.99-.22h.64c-.03-.16-.15-.27-.32-.27s-.3.1-.32.27Z"/>
              </g>
            </g>
            <g>
              <rect class="cls-7" x="130.04" y="159.72" width="17.73" height="8.2" rx="1.69" ry="1.69"/>
              <g>
                <path class="cls-4" d="m136.02,164.63l.13-.3c.14.11.36.18.56.18.23,0,.33-.08.33-.18,0-.32-.99-.1-.99-.73,0-.29.23-.53.71-.53.21,0,.43.05.59.15l-.12.3c-.16-.09-.32-.13-.47-.13-.23,0-.32.09-.32.19,0,.31.99.1.99.72,0,.28-.24.53-.72.53-.27,0-.54-.08-.69-.2h0Z"/>
                <path class="cls-4" d="m138.83,164.05v.74h-.35v-.16c-.07.12-.21.18-.4.18-.3,0-.49-.17-.49-.39s.16-.39.56-.39h.3c0-.16-.1-.26-.3-.26-.14,0-.28.05-.38.12l-.14-.26c.14-.1.35-.16.56-.16.4,0,.63.18.63.58h0Zm-.38.33v-.13h-.26c-.18,0-.23.07-.23.15,0,.09.08.16.21.16s.24-.06.28-.18h0Z"/>
                <path class="cls-4" d="m140.44,163.49l-.55,1.31h-.39l-.55-1.31h.39l.36.89.37-.89h.36,0Z"/>
                <path class="cls-4" d="m141.83,164.25h-.99c.04.16.17.26.37.26.14,0,.24-.04.33-.13l.2.22c-.12.14-.3.21-.54.21-.45,0-.74-.28-.74-.67s.3-.67.7-.67.68.26.68.67c0,.03,0,.07,0,.1h0Zm-.99-.22h.64c-.03-.16-.15-.27-.32-.27s-.3.1-.32.27Z"/>
              </g>
            </g>
            <g>
              <path class="cls-8" d="m75.64,130.32v.56h-.23v-.56l-.64-1.05h.25l.52.85.52-.85h.23l-.64,1.06h0Z"/>
              <path class="cls-8" d="m76.23,130.27c0-.36.27-.62.64-.62s.63.26.63.62-.27.62-.63.62-.64-.26-.64-.62Zm1.05,0c0-.26-.17-.43-.41-.43s-.41.17-.41.43.18.43.41.43.41-.17.41-.43Z"/>
              <path class="cls-8" d="m78.95,129.66v1.22h-.21v-.18c-.09.13-.24.2-.42.2-.32,0-.53-.17-.53-.53v-.71h.22v.68c0,.24.12.36.33.36.23,0,.38-.14.38-.41v-.63h.22Z"/>
              <path class="cls-8" d="m80.03,129.64v.21h-.05c-.24,0-.39.15-.39.41v.61h-.22v-1.22h.21v.21c.08-.14.23-.22.44-.22h0Z"/>
              <path class="cls-8" d="m82.37,129.26v1.62h-.19l-.97-1.21v1.21h-.23v-1.62h.19l.97,1.21v-1.21h.23Z"/>
              <path class="cls-8" d="m83.96,129.66v1.22h-.21v-.18c-.09.13-.24.2-.42.2-.32,0-.53-.17-.53-.53v-.71h.22v.68c0,.24.12.36.33.36.23,0,.38-.14.38-.41v-.63h.22Z"/>
              <path class="cls-8" d="m86.42,130.17v.71h-.22v-.68c0-.24-.11-.36-.32-.36-.22,0-.37.14-.37.41v.63h-.22v-.68c0-.24-.11-.36-.32-.36-.22,0-.37.14-.37.41v.63h-.22v-1.22h.21v.18c.09-.12.24-.19.42-.19s.34.07.43.23c.09-.14.26-.23.47-.23.3,0,.5.17.5.53h0Z"/>
              <path class="cls-8" d="m88.09,130.27c0,.37-.26.62-.62.62-.18,0-.34-.07-.44-.21v.19h-.21v-1.71h.22v.67c.1-.13.25-.2.43-.2.36,0,.62.25.62.62h0Zm-.22,0c0-.26-.18-.43-.41-.43s-.41.17-.41.43.18.43.41.43.41-.17.41-.43Z"/>
              <path class="cls-8" d="m89.5,130.34h-.99c.03.21.2.36.44.36.14,0,.26-.05.35-.15l.12.14c-.11.13-.28.2-.48.2-.39,0-.66-.26-.66-.62s.26-.62.62-.62.61.25.61.63c0,.02,0,.05,0,.07h0Zm-.99-.16h.79c-.02-.21-.18-.35-.39-.35s-.37.14-.39.35h0Z"/>
              <path class="cls-8" d="m90.47,129.64v.21h-.05c-.24,0-.39.15-.39.41v.61h-.22v-1.22h.21v.21c.08-.14.23-.22.44-.22h0Z"/>
            </g>
            <rect class="cls-7" x="61.69" y="75.52" width="126.79" height="7.76"/>
            <g>
              <path class="cls-4" d="m69.26,79.03v.51h.9v.36h-.9v.71h-.45v-1.94h1.47v.36h-1.02,0Z"/>
              <path class="cls-4" d="m70.44,79.64c0-.58.45-1,1.06-1s1.06.43,1.06,1-.45,1-1.06,1-1.06-.43-1.06-1Zm1.67,0c0-.37-.26-.62-.61-.62s-.61.25-.61.62.26.62.61.62.61-.25.61-.62Z"/>
              <path class="cls-4" d="m74.14,80.61l-.38-.54h-.41v.54h-.45v-1.94h.84c.52,0,.84.27.84.71,0,.29-.15.5-.4.61l.44.62h-.48,0Zm-.42-1.58h-.37v.68h.37c.27,0,.41-.13.41-.34s-.14-.34-.41-.34Z"/>
              <path class="cls-4" d="m76.71,80.61v-1.17l-.57.96h-.2l-.57-.94v1.14h-.42v-1.94h.37l.73,1.21.71-1.21h.37v1.94s-.42,0-.42,0Z"/>
            </g>
            <path class="cls-9" d="m188.45,75.72c-.64,0-51.46,0-126.66,0l.07-.07c-.01,29.55-.03,63.31-.04,99.01h0s-.08-.07-.08-.07c46.97.03,90.58.06,126.66.08l-.07.07c.07-59.77.12-98.47.12-99.02,0,.56,0,39.25.02,99.02v.07h-.07c-36.08-.02-79.7-.03-126.66-.05h-.08v-.09c.02-35.7.04-69.46.06-99.01v-.07h.07c75.2.08,126.03.14,126.66.14h0Z"/>
          </g>
        </g>
        <g id="Plant">
          <g>
            <g>
              <rect class="cls-9" x="39.65" y="136.79" width="22.84" height="3.14"/>
              <path class="cls-9" d="m62.53,139.97h-22.92v-3.22h22.92v3.22Zm-22.84-.08h22.77v-3.06h-22.77v3.06Z"/>
            </g>
            <polygon class="cls-9" points="41.76 138.88 45.05 155.1 57.22 155.1 60.4 139.93 41.76 138.88"/>
            <polygon class="cls-10" points="41.76 153.57 43.52 155.98 58.31 155.98 60.4 153.57 41.76 153.57"/>
            <path class="cls-9" d="m50.21,139.36s-.1-7.51-.13-16.78c-.02-9.27,0-16.79.03-16.79s.1,7.51.13,16.79c.02,9.27,0,16.78-.03,16.78Z"/>
            <path class="cls-9" d="m55.3,120.55s-.02.06-.06.17c-.05.13-.12.29-.21.49-.05.11-.1.22-.15.35-.05.13-.1.27-.15.43-.06.15-.11.32-.18.49-.06.17-.11.36-.17.56-.25.78-.45,1.73-.64,2.8-.16,1.07-.29,2.25-.35,3.5-.11,2.5.03,4.76.18,6.39.07.81.15,1.48.2,1.93.02.21.04.39.06.53.01.12.02.18,0,.18s-.02-.06-.04-.18c-.02-.14-.05-.31-.09-.52-.07-.45-.16-1.11-.25-1.93-.18-1.63-.34-3.9-.23-6.41.06-1.25.19-2.44.37-3.52.2-1.07.41-2.03.68-2.81.07-.2.11-.39.18-.56.07-.17.13-.34.19-.49.06-.15.11-.29.16-.42.06-.13.11-.24.16-.34.09-.19.17-.35.23-.48.06-.11.09-.16.09-.16h0Z"/>
            <path class="cls-9" d="m54.72,114.47s-.02.09-.07.25c-.06.17-.14.41-.24.7-.05.15-.11.32-.17.5-.06.19-.12.39-.18.61-.13.44-.29.93-.43,1.49-.07.28-.15.57-.23.87-.07.3-.14.62-.21.95-.16.65-.27,1.36-.42,2.11-.25,1.49-.47,3.14-.63,4.88-.14,1.74-.21,3.41-.23,4.92,0,1.51.02,2.88.08,4.02.02.57.06,1.09.09,1.54.02.45.06.85.08,1.17.02.31.04.55.06.74.01.17.02.26,0,.26s-.02-.09-.04-.25c-.02-.18-.05-.43-.09-.73-.04-.32-.08-.71-.11-1.16-.04-.45-.08-.97-.11-1.54-.08-1.14-.11-2.51-.11-4.03.01-1.52.07-3.19.22-4.93.15-1.75.38-3.4.64-4.89.15-.74.27-1.45.44-2.11.08-.33.15-.65.22-.95.08-.3.16-.59.24-.87.15-.56.31-1.05.45-1.48.07-.21.14-.42.2-.6.07-.18.13-.35.19-.5.11-.29.2-.52.27-.69.06-.16.1-.24.1-.24h0Z"/>
            <path class="cls-9" d="m48.77,140.69s0-.03-.01-.09c0-.07-.01-.15-.02-.26-.02-.24-.04-.57-.07-.99-.06-.88-.13-2.13-.23-3.66-.2-3.09-.48-7.36-1-12.06-.26-2.35-.57-4.58-.9-6.6-.17-1.01-.32-1.97-.5-2.86-.16-.9-.33-1.72-.49-2.48-.15-.76-.32-1.44-.45-2.04s-.26-1.12-.37-1.54c-.1-.41-.18-.74-.24-.97-.02-.1-.04-.19-.06-.25-.01-.06-.02-.09-.02-.09,0,0,.01.03.03.08.02.07.04.15.07.25.07.23.15.55.27.96.11.42.25.93.39,1.53.14.6.32,1.28.48,2.04.17.76.35,1.59.51,2.48.18.89.34,1.85.52,2.86.33,2.02.64,4.25.91,6.6.52,4.7.79,8.97.96,12.06.08,1.55.14,2.8.18,3.66.02.42.03.76.04,1,0,.11,0,.19,0,.26,0,.06,0,.09,0,.09h0Z"/>
            <path class="cls-7" d="m50.02,109.4c-.1-1.07-1.17-1.87-2.24-1.88-1.07-.01-2.07.63-2.72,1.48s-1.01,1.88-1.31,2.91c-.72,2.51-1.11,5.14-.8,7.74.31,2.59,1.36,5.14,3.22,6.97.3.3.69.6,1.11.51.23-.05.41-.21.58-.36,3.65-3.3,5.76-8.24,5.62-13.16-.03-.99-.16-2.01-.71-2.83-.55-.82-1.82-1.69-2.75-1.36"/>
            <g>
              <path class="cls-7" d="m42.04,100.87c-.5.91-1,1.82-1.51,2.73-.03.06-.08.13-.16.14-.08,0-.14-.07-.18-.13-1.33-2.04-2.65-4.07-3.98-6.11l.92-.52,4.9,3.9h0Z"/>
              <g class="cls-11">
                <path class="cls-1" d="m42.04,100.87c-.5.91-1,1.82-1.51,2.73-.03.06-.08.13-.16.14-.08,0-.14-.07-.18-.13-1.33-2.04-2.65-4.07-3.98-6.11l.92-.52,4.9,3.9h0Z"/>
              </g>
              <path class="cls-7" d="m50.12,105.78c-4.53-2.67-9.05-5.34-13.58-8.02-.14-.08-.29-.18-.33-.33-.05-.2.1-.39.24-.54,1.87-1.93,4.58-3.04,7.26-2.85,2.68.19,5.25,1.74,6.56,4.08,1.31,2.34,1.36,5.44-.15,7.66"/>
              <path class="cls-9" d="m38.49,95.21s.06-.01.18-.02c.12,0,.29-.03.51-.02.45-.01,1.09.02,1.88.15s1.72.38,2.69.81c.97.43,1.97,1.05,2.88,1.87.9.83,1.62,1.76,2.15,2.68s.87,1.82,1.08,2.59c.21.77.3,1.41.34,1.86.02.22.02.28.02.39,0,.12-.1.3-.11.3-.02,0,.07-.25.02-.69-.05-.44-.16-1.08-.39-1.84-.43-1.51-1.43-3.55-3.23-5.18-1.8-1.63-3.93-2.41-5.48-2.69-.78-.14-1.42-.19-1.86-.2-.44,0-.69,0-.69-.02h0Z"/>
              <path class="cls-9" d="m48.28,100.25s-.25.14-.69.31c-.43.17-1.04.39-1.71.6-.68.21-1.3.39-1.75.5-.45.11-.74.16-.74.14,0-.02.27-.11.71-.25.5-.16,1.08-.34,1.73-.54.64-.21,1.22-.39,1.72-.56.44-.14.72-.22.72-.21h0Z"/>
              <path class="cls-9" d="m46.14,94.51s.14.67.16,1.51c.02.84-.04,1.52-.08,1.52-.05,0-.06-.68-.08-1.52s-.04-1.52,0-1.52h0Z"/>
              <path class="cls-9" d="m36.42,97.62s.37-.16.99-.35c.62-.19,1.48-.43,2.43-.66s1.83-.41,2.47-.52c.64-.11,1.03-.16,1.03-.14,0,.02-.39.11-1.01.25-.63.14-1.5.34-2.45.57-.95.23-1.82.45-2.44.62-.62.16-1.01.26-1.02.24h0Z"/>
            </g>
            <g>
              <path class="cls-7" d="m44.39,107.09c-1.17-.89-2.4-1.06-3.87-1-1.46.06-2.89.5-4.23,1.09-2.29,1-4.44,2.48-5.81,4.57-1.37,2.09-1.84,4.86-.82,7.14.1.23.24.47.46.56.24.1.52.02.77-.06,2.6-.85,5.23-1.71,7.62-3.04,2.4-1.33,4.57-3.18,5.86-5.6.31-.58.57-1.2.62-1.86.05-.66-.13-1.35-.6-1.82"/>
              <path class="cls-9" d="m44.41,106.81s-.06.03-.19.08c-.14.05-.32.11-.55.19-.12.04-.25.08-.39.13-.14.05-.3.11-.46.18-.33.13-.71.27-1.12.46-.21.09-.42.19-.64.29-.22.1-.44.23-.68.35-.47.23-.95.53-1.46.83-1,.63-2.05,1.39-3.08,2.29-1.02.91-1.91,1.86-2.66,2.77-.36.47-.72.9-1.01,1.34-.15.22-.3.42-.43.63-.13.21-.25.41-.37.6-.25.38-.43.74-.6,1.05-.08.16-.17.3-.24.44-.07.14-.12.26-.18.38-.11.21-.19.38-.25.52-.06.12-.09.18-.1.18s.02-.07.07-.19c.06-.14.13-.31.23-.53.05-.12.11-.25.17-.38.07-.14.15-.28.23-.44.17-.31.34-.68.58-1.06.11-.19.24-.39.36-.61.13-.21.28-.42.43-.64.29-.44.64-.89,1-1.36.75-.92,1.64-1.88,2.67-2.8,1.03-.9,2.1-1.66,3.11-2.29.51-.3,1-.59,1.48-.82.24-.12.46-.24.68-.34.22-.1.44-.19.65-.28.41-.19.8-.32,1.13-.44.17-.06.32-.12.47-.17.15-.04.28-.08.4-.12.23-.07.41-.12.56-.16.13-.03.2-.05.2-.04h0Z"/>
              <path class="cls-9" d="m35.29,111.76s-1.26.45-2.84.92c-1.58.46-2.87.8-2.89.76-.01-.04,1.26-.45,2.84-.92,1.58-.46,2.87-.8,2.89-.76Z"/>
              <path class="cls-9" d="m35.17,118.03s-.05-.34-.06-.89-.02-1.31,0-2.14c.02-.84.07-1.59.11-2.14.05-.55.09-.88.11-.88.02,0,.02.34,0,.89-.02.6-.04,1.33-.07,2.14-.02.8-.04,1.54-.05,2.14-.02.55-.03.89-.05.89h0Z"/>
              <path class="cls-9" d="m40.54,115.29s-.19-1.54-.32-3.43c-.13-1.9-.2-3.44-.16-3.45.04,0,.19,1.54.32,3.43.13,1.9.2,3.44.16,3.44h0Z"/>
              <path class="cls-9" d="m33.85,108.26s.35-.03.91-.03,1.34.02,2.19.05,1.63.06,2.19.1c.56.03.91.07.91.09s-.35.03-.91.03c-.56,0-1.34-.02-2.19-.05-.86-.03-1.63-.06-2.19-.1s-.91-.07-.9-.09Z"/>
            </g>
            <path class="cls-9" d="m46.75,126.97s-.01-.06-.02-.18c0-.14-.02-.31-.02-.52-.02-.45-.02-1.11,0-1.92.02-.81.07-1.78.17-2.85.11-1.07.26-2.24.48-3.46.22-1.22.49-2.37.77-3.41.29-1.04.57-1.96.85-2.73.27-.77.51-1.38.69-1.8.08-.2.15-.36.21-.48.05-.11.08-.16.08-.16,0,0-.01.06-.05.18-.05.13-.11.29-.18.49-.16.43-.38,1.04-.63,1.82-.26.77-.53,1.7-.81,2.73-.27,1.04-.53,2.19-.76,3.4-.22,1.22-.38,2.38-.49,3.45-.11,1.07-.17,2.03-.2,2.84s-.04,1.47-.04,1.92c0,.21,0,.39,0,.52,0,.12,0,.18-.01.18h0Z"/>
            <path class="cls-9" d="m47.46,118.08s-.19.25-.54.59c-.35.35-.85.82-1.42,1.32s-1.1.93-1.49,1.23-.65.48-.66.46c-.02-.02.21-.22.59-.55.42-.36.91-.79,1.46-1.27.54-.48,1.03-.91,1.45-1.28.37-.33.6-.53.62-.51h0Z"/>
            <path class="cls-9" d="m51.76,121.54s-.24-.3-.58-.8c-.37-.54-.83-1.22-1.34-1.96-.52-.74-.99-1.4-1.37-1.94-.35-.49-.57-.8-.55-.82.02-.01.26.27.64.75s.88,1.15,1.41,1.91.99,1.47,1.31,1.99c.32.52.5.85.48.86h0Z"/>
            <path class="cls-9" d="m49.51,110.65s-1.4,1-3.19,2.15c-1.79,1.15-3.25,2.05-3.28,2.01s1.4-1,3.19-2.15c1.78-1.15,3.25-2.05,3.28-2.01h0Z"/>
            <path class="cls-9" d="m53.54,114.99s-1-.86-2.16-2c-1.16-1.13-2.08-2.08-2.05-2.11.03-.03,1,.86,2.16,2,1.16,1.13,2.08,2.08,2.05,2.11Z"/>
            <g>
              <path class="cls-7" d="m54.55,114.91l1.22-.1c.87-.07,1.72-.33,2.48-.76.38-.21.76-.42,1.15-.58,1.52-.61,3.21-.5,4.84-.58,2.66-.13,5.3-.81,7.7-1.97.14-.07.26-.17.34-.3.25-.46-.21-.87-.62-1.12-2.07-1.27-4.17-2.56-6.51-3.19s-5-.53-7,.85c-2.35,1.61-3.2,4.93-3.6,7.75"/>
              <path class="cls-9" d="m72.3,110.47s-.07-.03-.21-.1c-.15-.08-.34-.18-.58-.3-.5-.26-1.23-.66-2.15-1.1-.92-.44-2.03-.93-3.32-1.28-1.29-.36-2.77-.54-4.3-.35-1.53.2-2.93.8-3.93,1.68-1,.89-1.61,1.96-2.05,2.87-.43.92-.7,1.7-.89,2.23-.09.25-.16.46-.22.62-.05.14-.08.21-.09.21,0,0,.01-.08.06-.22.05-.16.11-.37.19-.63.17-.54.42-1.33.85-2.26.42-.92,1.03-2.02,2.05-2.93,1.01-.92,2.45-1.53,4-1.73,1.56-.2,3.07,0,4.37.37,1.31.37,2.42.87,3.33,1.32.91.45,1.63.86,2.13,1.14.24.14.42.25.57.33.13.08.2.12.19.12h0Z"/>
              <path class="cls-9" d="m69.36,112.05s-1.63-1-3.58-2.32c-1.95-1.32-3.52-2.41-3.49-2.45.02-.04,1.63,1,3.58,2.32,1.95,1.32,3.52,2.41,3.49,2.45Z"/>
              <path class="cls-9" d="m67.65,107.19s-.51.16-1.17.21c-.66.06-1.19.02-1.19-.02s.53-.07,1.18-.12c.65-.05,1.17-.11,1.18-.07Z"/>
              <path class="cls-9" d="m60.63,106.28s-.2.39-.53.82c-.33.44-.63.77-.67.76s.2-.39.53-.82c.33-.44.63-.77.67-.76Z"/>
              <path class="cls-9" d="m62.06,112.99s-.31-.14-.77-.42c-.46-.28-1.09-.69-1.76-1.18-.67-.48-1.26-.94-1.68-1.28s-.68-.55-.67-.57c.01-.02.3.16.73.48.48.35,1.06.77,1.71,1.24.67.48,1.28.91,1.72,1.22.44.3.72.49.71.52Z"/>
            </g>
            <g>
              <path class="cls-7" d="m56.36,120.12c-1.17-.31-2.56.83-2.8,2.01-.24,1.18.2,2.4.72,3.49,1.15,2.42,2.74,4.66,4.84,6.33,2.09,1.67,4.71,2.73,7.39,2.72-.49-2.3.13-4.7-.15-7.03-.24-2.04-1.19-3.98-2.65-5.42s-3.41-2.37-5.45-2.59c-.75-.08-1.61-.2-1.91.49"/>
              <path class="cls-9" d="m66.5,134.67s-.06-.02-.17-.08c-.11-.06-.26-.15-.44-.29-.37-.28-.79-.81-1.15-1.54-.19-.36-.39-.76-.6-1.19-.2-.44-.41-.9-.63-1.39-.22-.49-.47-.99-.77-1.49-.3-.49-.67-.98-1.06-1.45-.8-.94-1.66-1.75-2.41-2.53-.75-.77-1.38-1.52-1.83-2.2-.46-.68-.74-1.28-.9-1.71-.07-.21-.13-.39-.16-.5-.03-.11-.04-.18-.04-.18.02,0,.08.24.25.66.17.42.47,1.01.93,1.67.46.67,1.09,1.4,1.85,2.16.75.77,1.61,1.58,2.42,2.53.4.48.77.96,1.08,1.47.31.5.55,1.02.77,1.51.22.49.42.96.62,1.4.2.43.4.83.58,1.19.35.73.75,1.26,1.09,1.55.34.3.57.4.56.42h0Z"/>
              <path class="cls-9" d="m60.46,132.76s.02-.3.11-.79c.09-.48.24-1.14.44-1.86.2-.72.42-1.36.59-1.82.17-.46.3-.73.32-.73.02,0-.07.3-.21.76-.15.47-.34,1.11-.55,1.83-.2.72-.37,1.37-.49,1.84-.12.47-.2.77-.22.76h0Z"/>
              <path class="cls-9" d="m66.28,127.12s-.32-.06-.82-.19c-.5-.13-1.2-.31-1.97-.48s-1.48-.31-1.99-.41c-.51-.1-.83-.16-.83-.18,0-.02.33,0,.84.07.52.07,1.23.19,2.01.36s1.47.37,1.97.53c.5.16.8.28.79.3h0Z"/>
              <path class="cls-9" d="m56.12,128.76s.02-.35.13-.91.27-1.33.48-2.16c.22-.84.45-1.59.63-2.13.18-.54.31-.86.34-.86s-.07.34-.22.89c-.16.54-.37,1.3-.59,2.13-.22.84-.4,1.59-.53,2.15-.13.55-.22.89-.24.89Z"/>
              <path class="cls-9" d="m63.6,122.21s-1.46-.07-3.26-.26c-1.8-.19-3.25-.38-3.24-.43,0-.04,1.46.07,3.26.26,1.8.19,3.25.38,3.24.43h0Z"/>
            </g>
            <path class="cls-10" d="m62.53,139.91s-5.13.08-11.46.08-11.46-.04-11.46-.08,5.13-.08,11.46-.08,11.46.04,11.46.08Z"/>
            <path class="cls-10" d="m58.96,146.52s-3.46.08-7.72.08-7.72-.04-7.72-.08,3.46-.08,7.72-.08,7.72.04,7.72.08Z"/>
            <path class="cls-10" d="m58.83,147.46s-3.4.08-7.59.08-7.59-.04-7.59-.08,3.4-.08,7.59-.08,7.59.04,7.59.08Z"/>
            <path class="cls-10" d="m59.09,145.74s-3.58.08-7.99.08-7.99-.04-7.99-.08,3.57-.08,7.99-.08,7.99.04,7.99.08Z"/>
          </g>
        </g>
        <g id="Character">
          <g>
            <g>
              <g>
                <path class="cls-7" d="m195.26,85.89s-2.49-.4-3.94.76c-1.45,1.16-2.1,2.6-2.28,4.2-.18,1.59-1.33,7.74-1.33,7.74l-2.25-3.04-2.48,2.18s2.09,10.04,4.06,10.72c1.97.68,4.1-1.53,4.61-1.93s3.61-20.62,3.61-20.62h0Z"/>
                <path class="cls-7" d="m194.42,85.83s-3.27,4.66-3.65,5.85-3.14,3.34-3.08,6.17c.03,1.61.2,2.97.34,3.84.12.72.11,1.46-.04,2.18l-1.28,6.15s.81,1.4,2.81,1.62,7.1,1.42,10.49,0l2.43-1.19v-9.52l1.68-3.89,4.77-7.74s-2.44-1.69-4.71-2.42c-2.39-.77-6.26-.84-9.77-1.06h0Z"/>
                <path class="cls-9" d="m186.97,108.79s0-.07.03-.21c.03-.16.07-.36.11-.61.11-.55.26-1.31.44-2.24.08-.48.24-.98.31-1.54.02-.14.04-.28.07-.43.01-.15.02-.29.04-.44.03-.3.02-.61.02-.92-.02-.63-.14-1.29-.33-1.95-.18-.67-.41-1.37-.36-2.13.03-.75.26-1.45.53-2.09.27-.64.61-1.23.94-1.77.67-1.09,1.36-2.01,1.92-2.8.56-.77,1.01-1.4,1.34-1.85.15-.21.27-.38.36-.5.08-.11.13-.17.13-.17,0,0-.03.07-.11.19-.09.13-.2.3-.34.52-.3.45-.74,1.09-1.3,1.88-.55.79-1.22,1.72-1.89,2.81-.33.54-.65,1.13-.92,1.76-.27.63-.49,1.32-.52,2.04-.04.73.18,1.41.36,2.09.19.67.31,1.34.33,1.99,0,.32,0,.64-.03.94-.02.15-.03.3-.04.45-.02.15-.05.29-.07.43-.08.57-.25,1.07-.33,1.54-.2.93-.37,1.69-.49,2.23-.06.25-.11.45-.14.61-.03.14-.05.21-.06.21h0Z"/>
              </g>
              <path class="cls-7" d="m207.31,88.31s5.95,2.13,3.69,9.55c-1.8,5.91-5.49,12.96-7.84,13.1-1.22.07-2.54.03-3.36-.62-3.35-2.64-5.38-9.71-5.38-9.71l3.2-3.58,3.88,5.75c.44-.19,3.02-8.15,3.02-8.15,0,0,1.86-6.1,2.79-6.35h0Z"/>
              <path class="cls-9" d="m204.48,95.32s0,.05-.04.14c-.04.1-.08.24-.14.41-.13.37-.32.89-.56,1.54-.49,1.33-1.19,3.22-2.03,5.46l-.05.13-.08-.11c-1.15-1.69-2.47-3.65-3.89-5.74h.12c-.12.14-.26.28-.39.42-1.03,1.05-2.03,2.07-2.95,3.02l.02-.08c.49,1.56.98,3.01,1.55,4.25.55,1.25,1.16,2.3,1.72,3.13.56.84,1.1,1.43,1.45,1.84.18.19.33.34.44.45.1.1.15.16.15.16,0,0-.06-.05-.16-.14-.11-.11-.26-.25-.46-.44-.37-.4-.93-.99-1.5-1.82-.58-.83-1.2-1.88-1.76-3.13-.58-1.25-1.08-2.69-1.57-4.25l-.02-.04.03-.03c.92-.95,1.92-1.97,2.95-3.02.13-.14.27-.28.39-.4l.07-.07.06.08c1.41,2.09,2.73,4.06,3.87,5.75l-.12.02c.86-2.24,1.57-4.11,2.08-5.45.25-.65.45-1.16.6-1.53.07-.17.12-.3.16-.4.04-.09.06-.14.06-.13h0Z"/>
            </g>
            <g>
              <path class="cls-7" d="m190,173.26l.4,6.05s-6.01,2.43-6.05,3.56l11.75-.35-.23-9.45-5.87.19h0Z"/>
              <path class="cls-8" d="m194.02,178.7c.23.06.39.31.35.54-.05.23-.3.4-.53.35-.23-.05-.44-.35-.37-.57s.38-.41.59-.3"/>
              <path class="cls-9" d="m196.12,182.94l-.02-1.08-11.3.41s-.52.24-.45.61l11.77.07Z"/>
              <path class="cls-9" d="m190.2,179.26c0,.06.29.07.58.25.29.17.44.41.5.39.05-.01-.04-.35-.39-.56-.35-.21-.7-.13-.68-.08h0Z"/>
              <path class="cls-9" d="m188.99,179.8c-.01.06.24.15.44.38.21.23.27.49.32.49.05,0,.08-.33-.17-.62-.25-.29-.59-.3-.59-.25h0Z"/>
              <path class="cls-9" d="m188.33,181.3c.05,0,.12-.28-.03-.59-.16-.31-.43-.43-.45-.38-.03.05.15.21.27.47.13.25.16.49.21.5Z"/>
              <path class="cls-9" d="m190.27,177.87c.02.05.29-.03.61-.02.33,0,.58.11.61.06.03-.04-.22-.25-.6-.26-.38-.01-.65.18-.62.22Z"/>
            </g>
            <g>
              <path class="cls-7" d="m200.83,173.38l.34,6.05s-6.03,2.38-6.08,3.51l11.75-.25-.15-9.45-5.87.14h0Z"/>
              <path class="cls-8" d="m204.8,178.85c.23.06.39.31.34.54s-.3.4-.53.34-.44-.35-.36-.57c.07-.22.39-.4.59-.3"/>
              <path class="cls-9" d="m206.86,182.94v-.92s-11.32.31-11.32.31c0,0-.52.24-.45.61h11.77,0Z"/>
              <path class="cls-9" d="m200.98,179.38c0,.06.29.08.58.25.29.17.44.42.49.39.05-.01-.04-.35-.39-.56-.35-.21-.69-.14-.68-.08h0Z"/>
              <path class="cls-9" d="m199.76,179.91c-.01.06.24.15.44.39.21.23.26.49.32.49.05,0,.09-.33-.17-.62-.25-.3-.59-.31-.59-.25h0Z"/>
              <path class="cls-9" d="m199.09,181.4c.05.01.13-.28-.03-.59-.15-.31-.43-.43-.45-.38-.03.05.15.21.27.47.13.25.15.5.21.5h0Z"/>
              <path class="cls-9" d="m201.06,177.99c.02.05.29-.03.61-.02.33,0,.58.11.61.06.03-.04-.22-.25-.6-.26-.38-.02-.65.17-.62.22h0Z"/>
            </g>
            <g>
              <path class="cls-9" d="m202.62,110.24s2.99,3.14,4.57,7.01c1.57,3.87.88,22.49.88,22.49l-.33,9.76s.47,8.39.11,14.37c-.36,5.98-.77,12.61-.77,12.61l-6.53.31-6.93-50.73,1.73,23.4c1.1,5.97.97,16.49.76,27.33h-6.92s-2.38-16.19-2.92-20.03c-.61-4.35-2.42-16.3-2.42-16.3,0,0-1.39-11.44-.91-17.61.48-6.16,4.16-14.78,4.28-15.14l14.76,2.66"/>
              <g>
                <path class="cls-10" d="m203.38,108.6l1.73,4.61s12.87,17.96,12.5,19.45c-.37,1.49-7.39,7.29-9.45,6.36s-7.39-4.77-9.17-8.6c-1.78-3.84-6.83-14.59-6.83-14.59l-1.59-2.99,1.78-1.22,11.02-3.02h0Z"/>
                <path class="cls-10" d="m187.11,107.96h0c1.56.84,1.39,3.45,2.95,4.29-2.6,3.64-3.49,8.23-3.85,12.7-.35,4.46-.25,8.99-1.14,13.37-1.9-.13-1.33-.09-3.23-.23-.55-8.61.39-17.31,2.75-25.61.48-1.68,1.33-3.23,2.51-4.52h0Z"/>
                <path class="cls-9" d="m199.7,115.52s.32-.04.81-.19c.49-.14,1.17-.38,1.9-.69.72-.31,1.36-.64,1.8-.9s.71-.44.7-.46c-.01-.02-.29.13-.75.36s-1.09.55-1.81.85-1.38.55-1.87.72-.79.27-.78.3h0Z"/>
                <g class="cls-11">
                  <path class="cls-1" d="m208.05,129.19l.31.02c-2.13,2.2-5.69,2.85-8.46,1.55-.94-.44-1.88-1.26-1.84-2.3,3.18,1.13,6.67,1.38,9.99.73h0Z"/>
                </g>
                <g>
                  <g>
                    <path class="cls-10" d="m191.98,112.85c1.2-.22,3.51.41,4.36,1.29.85.88,1.35,2.03,1.77,3.18.9,2.49,1.54,5.25,3.51,7.04,1.84,1.68,4.46,2.13,6.93,2.51.07.91.06,2-.69,2.52-.22.16-.48.24-.74.31-.73.2-1.48.34-2.24.4-3.51.29-7.23-1.13-9.29-3.98-2.6-3.61-2.81-7.95-4.29-12.16"/>
                    <path class="cls-9" d="m191.29,113.96s0,.05.03.13c.03.09.07.22.12.39.11.34.25.84.43,1.49.18.65.37,1.45.6,2.37.23.93.48,1.99.83,3.14.35,1.15.82,2.4,1.54,3.62.35.62.77,1.22,1.27,1.79s1.1,1.08,1.76,1.53c1.33.89,2.95,1.49,4.67,1.71.86.11,1.75.11,2.65.02.45-.05.89-.12,1.34-.22.22-.05.44-.11.67-.17s.45-.14.65-.27c.21-.14.39-.33.5-.55s.19-.45.23-.69c.08-.47.07-.94.03-1.38v-.06h-.07c-1.65-.26-3.26-.54-4.7-1.14-.71-.3-1.38-.67-1.95-1.15-.57-.47-1.04-1.03-1.43-1.63-.77-1.19-1.23-2.48-1.64-3.66-.41-1.19-.76-2.32-1.23-3.28-.23-.48-.49-.93-.78-1.31-.15-.19-.3-.37-.46-.53-.16-.16-.34-.3-.53-.4-.73-.44-1.45-.64-2.02-.76-.58-.12-1.04-.15-1.36-.14s-.47.06-.47.06c0,0,.16-.02.47-.03.31,0,.77.03,1.34.16.57.13,1.28.34,1.99.78.18.11.35.24.51.39.16.16.3.34.44.53.28.38.54.82.76,1.3.46.96.8,2.08,1.21,3.28.41,1.19.86,2.49,1.64,3.7.39.6.87,1.17,1.46,1.66.58.49,1.26.87,1.99,1.18,1.46.61,3.08.89,4.73,1.14l-.07-.07c.03.44.05.9-.03,1.34-.07.44-.28.89-.67,1.13-.37.23-.83.31-1.26.42-.44.1-.88.17-1.32.22-.88.09-1.76.08-2.61-.02-1.7-.21-3.29-.8-4.61-1.68-.66-.44-1.24-.94-1.74-1.5-.5-.55-.91-1.16-1.26-1.77-.71-1.21-1.18-2.45-1.54-3.59-.36-1.14-.62-2.2-.85-3.12s-.44-1.72-.62-2.37c-.18-.65-.34-1.14-.46-1.48-.06-.16-.1-.29-.13-.38-.03-.08-.05-.13-.05-.13h0Z"/>
                  </g>
                  <path class="cls-9" d="m205.79,129.92s-.34-.78-.22-1.78c.09-1,.63-1.67.58-1.69-.01-.01-.16.13-.34.43-.17.29-.35.73-.4,1.25-.05.52.03.99.14,1.31s.23.49.25.48h0Z"/>
                  <path class="cls-9" d="m205.7,127.68s.61.12,1.37.17c.76.05,1.38.06,1.39.01,0-.04-.61-.12-1.37-.17-.76-.05-1.38-.06-1.39-.01Z"/>
                  <path class="cls-9" d="m205.44,128.69s.64.09,1.43.11c.79.02,1.43,0,1.43-.05s-.64-.09-1.43-.11c-.79-.02-1.43,0-1.43.05Z"/>
                </g>
                <g>
                  <g>
                    <path class="cls-10" d="m189.02,113.63c-2.15,1.95-2.96,5.03-2.88,7.93.08,2.9.92,5.72,1.57,8.55s1.1,5.8.41,8.62c.92.13,1.84.26,2.76.39,2.26-2.39,3.4-5.78,3.06-9.05-.28-2.71-1.51-5.21-2.39-7.78-.88-2.57-1.4-5.48-.29-7.96"/>
                    <path class="cls-9" d="m191.25,114.33s-.02.04-.06.12c-.04.09-.09.21-.15.36-.11.33-.27.81-.37,1.47s-.12,1.46-.02,2.4c.1.93.32,1.98.67,3.11.35,1.13.84,2.33,1.32,3.63.48,1.3.96,2.72,1.18,4.26.21,1.54.1,3.21-.39,4.84-.49,1.63-1.36,3.21-2.6,4.53l.07-.02c-.43-.06-.89-.13-1.36-.2-.48-.07-.96-.14-1.4-.2l.07.1c.44-1.79.41-3.6.21-5.3-.21-1.7-.6-3.31-.97-4.83-.37-1.52-.73-2.96-.95-4.33-.23-1.36-.32-2.65-.27-3.83.11-2.35.83-4.17,1.54-5.26.34-.56.69-.93.91-1.19.12-.12.21-.21.27-.28.06-.06.09-.1.09-.1,0,0-.04.03-.1.09-.07.07-.16.16-.29.27-.23.25-.59.62-.94,1.18-.72,1.09-1.47,2.92-1.59,5.29-.06,1.18.03,2.48.25,3.85s.57,2.82.94,4.34c.37,1.52.75,3.12.95,4.82.21,1.69.23,3.48-.21,5.24l-.02.09h.09c.44.08.92.15,1.4.21.47.07.93.13,1.36.2h.04s.03-.02.03-.02c1.26-1.34,2.14-2.95,2.64-4.6.5-1.65.61-3.34.39-4.91-.22-1.57-.72-2.99-1.2-4.29-.49-1.3-.98-2.5-1.33-3.62-.36-1.12-.59-2.16-.69-3.09-.1-.93-.09-1.73,0-2.38.08-.65.24-1.14.34-1.46.06-.16.11-.28.14-.37.03-.08.04-.13.04-.13h0Z"/>
                  </g>
                  <path class="cls-9" d="m188.57,136.5s.87-.11,1.93.03c1.06.14,1.85.52,1.87.48,0-.02-.18-.14-.51-.28-.33-.14-.8-.29-1.34-.36-.54-.07-1.04-.06-1.39,0-.35.05-.57.11-.56.13h0Z"/>
                  <path class="cls-9" d="m190.17,139.05s.33-.47.65-1.09c.32-.62.54-1.15.51-1.17-.04-.02-.33.47-.65,1.09-.32.62-.54,1.15-.51,1.17Z"/>
                  <path class="cls-9" d="m188.73,138.84s.31-.51.6-1.17c.29-.67.49-1.22.45-1.24s-.31.51-.6,1.17c-.29.67-.49,1.22-.45,1.24Z"/>
                </g>
                <g>
                  <path class="cls-9" d="m192.69,112.72s.07-.06.09-.19c.02-.12.01-.3-.07-.48s-.2-.31-.31-.38c-.11-.07-.19-.08-.2-.06-.02.04.23.19.36.51.14.31.08.59.12.61h0Z"/>
                  <path class="cls-10" d="m189.1,112.05c.37-.59,1.26-.78,1.95-.87.85-.07,1.66.65,1.74,1.49s-.54,1.69-1.36,1.91c-.82.22-1.75-.16-2.22-.87-.32-.49-.43-1.17-.11-1.66h0Z"/>
                  <path class="cls-9" d="m190.65,111.51s-.2.12-.37.44c-.17.31-.3.82-.16,1.36.15.54.52.92.82,1.1.31.19.53.21.53.19,0-.02-.2-.09-.47-.29-.27-.19-.6-.56-.73-1.05-.13-.49-.03-.97.11-1.27.14-.31.29-.47.27-.48h0Z"/>
                  <path class="cls-9" d="m189.28,111.83s-.12.08-.22.29c-.1.2-.18.52-.14.87.04.35.18.65.32.82.14.18.27.25.28.24.02-.02-.07-.12-.18-.3-.11-.18-.22-.45-.26-.77-.03-.32.02-.61.09-.81.07-.2.14-.32.12-.33h0Z"/>
                </g>
                <g class="cls-11">
                  <path class="cls-1" d="m189.06,113.62c.55.63,1.26.9,2.1.96-.16.38-.68.72-1.08.75-.41.02-.82-.19-1.03-.54s-.2-.82.02-1.17h0Z"/>
                </g>
                <g class="cls-11">
                  <path class="cls-1" d="m198.9,116.33c.28-.35.73-.52,1.15-.67,1.6-.58,3.33-1.57,4.93-2.14-1.46,1.3-3.04,2.82-4.72,3.83-.4.24-.93.47-1.32.2-.37-.26-.33-.85-.05-1.21h0Z"/>
                </g>
                <g class="cls-11">
                  <path class="cls-1" d="m185.64,119.21c.25-1.92,1.14-3.82,2.69-4.98-.83,1.52-1.68,3.06-2.05,4.76-.41,1.86-.11,3.05.08,4.94l-.18.94c-.52-1.87-.79-3.73-.54-5.65h0Z"/>
                </g>
                <path class="cls-9" d="m199.76,117.66s.09-.03.25-.12.37-.22.64-.39c.53-.35,1.24-.86,1.98-1.5.73-.63,1.35-1.26,1.77-1.74.21-.24.38-.44.48-.57.11-.14.16-.22.16-.23-.02-.02-.28.27-.72.73-.44.45-1.06,1.06-1.79,1.69-.73.63-1.42,1.16-1.94,1.53-.51.37-.84.59-.82.61h0Z"/>
              </g>
            </g>
            <g>
              <g>
                <path class="cls-9" d="m191.85,71.16c-.47-.83-.18-1.95.51-2.6.69-.66,1.68-.91,2.64-.88.95.03,1.87.3,2.79.57.68-.89,1.87-1.34,2.97-1.14,1.1.21,2.05,1.07,2.35,2.14.65-.26,1.44-.13,1.96.33.53.45.78,1.21.63,1.89l-4.03,2.03-3.56,8.71c-1.2,1.32-3.41,1.58-4.87.56s-2.01-3.17-1.19-4.76c-.29-.19-.54-.44-.75-.72-.79-.36-1.45-.99-1.75-1.8-.63-1.73.51-3.88,2.3-4.33h0Z"/>
                <g>
                  <g>
                    <g>
                      <g>
                        <path class="cls-6" d="m196.87,86.87c.09-1.36.13-1.45.13-1.44,0,0-2.61-.65-2.89-4.14-.14-1.74.17-4.55.49-6.84.29-2.06,1.86-4.5,3.91-4.12l6.32,2.13c.62.11.8.66.74,1.29l.03.3-1.07,9.87-.33,2.96c-.2,1.88-1.88,3.79-3.77,3.76h0c-2.09-.03-3.7-1.69-3.56-3.77h0Z"/>
                        <g>
                          <path class="cls-9" d="m195.25,77.6c-.03.23.15.45.39.48.24.03.46-.13.49-.36s-.15-.45-.39-.48c-.24-.03-.46.13-.49.36Z"/>
                          <path class="cls-9" d="m195.18,76.3c.05.06.4-.16.88-.12.48.03.81.3.86.25.03-.02-.02-.13-.16-.25-.14-.12-.39-.25-.69-.27s-.56.07-.71.17c-.16.1-.21.2-.19.23h0Z"/>
                        </g>
                        <g>
                          <path class="cls-9" d="m199.36,77.84c-.03.23.15.45.39.48.24.03.46-.13.49-.36s-.15-.45-.39-.48c-.24-.03-.46.13-.49.36Z"/>
                          <path class="cls-9" d="m199.74,76.57c.05.06.41-.16.88-.12.48.03.81.3.86.25.03-.02-.02-.13-.16-.25-.14-.12-.39-.25-.69-.27s-.56.07-.71.17c-.16.1-.21.2-.19.23h0Z"/>
                        </g>
                        <path class="cls-9" d="m197.77,79.81s-.29-.1-.76-.2c-.12-.02-.23-.06-.25-.14-.02-.09.04-.22.11-.35.14-.29.28-.58.43-.9.6-1.28,1.05-2.34,1-2.36s-.58.99-1.18,2.28c-.15.32-.29.62-.42.9-.06.13-.15.29-.1.47.02.09.11.17.19.19.08.03.15.04.21.04.48.06.78.09.79.06h0Z"/>
                        <path class="cls-5" d="m197,85.42s2.31.33,4.72-.87c0,0-1.36,2.35-4.79,1.76l.07-.88h0Z"/>
                      </g>
                      <path class="cls-9" d="m199.83,75.27c.05.13.53.07,1.09.13.56.05,1.02.21,1.09.1.03-.06-.05-.18-.23-.3-.18-.12-.47-.24-.81-.28-.34-.03-.65.02-.85.11-.21.08-.31.19-.29.25h0Z"/>
                      <path class="cls-9" d="m195.27,74.91c.09.11.49.03.96.07.47.02.86.14.96.03.04-.05,0-.16-.17-.28-.16-.11-.44-.22-.76-.24-.32-.02-.61.06-.78.16-.17.1-.24.21-.2.26h0Z"/>
                    </g>
                    <path class="cls-9" d="m203.08,70.41c-.05.69-.42,1.36-.99,1.76-.56.4-1.31.54-1.98.37-.52-.14-1.08-.45-1.56-.2-.5.26-.58.98-1.03,1.32-.65.48-1.58-.09-2.37.08-.61.13-1.03.67-1.46,1.13-.43.45-1.06.86-1.65.64.08-.53.16-1.07.36-1.58.2-.5.53-.97,1-1.23.26-.14.55-.22.8-.39.53-.36.69-1.05,1.04-1.59.45-.69,1.25-1.14,2.07-1.16.68-.02,1.37.24,2.05.12.5-.09.95-.37,1.45-.43.98-.11,1.83.65,2.47,1.4"/>
                  </g>
                  <path class="cls-9" d="m199.88,71.55c.44-.09,1.35-.3,1.61-.66.57-.78,1.5-1.27,2.4-1.15.9.12,1.72.9,1.84,1.88,1.1.09,2.12.86,2.57,1.94s.31,2.42-.35,3.38c-.17.25-.42.81-.42.81,0,0,.47.45.67.77.92,1.49-.94,2.34-.94,2.34.13,1.06-.85,1.18-1.48,1.26-.6.07-.76,1.8-1.26,1.8l-.17-5.23c-.06.03-.13.06-.22.07-1.18.17-1.16-2.1-.85-2.73-.39-.4-.79-.81-1.07-1.31-.29-.5-.47-1.81-.36-2.39-.42,0-2.16-.73-1.96-.77h0Z"/>
                  <g>
                    <path class="cls-6" d="m204.21,78.98c.09-.73.93-1.16,1.54-.75.34.23.57.66.48,1.43-.24,2.08-2.28,1.4-2.27,1.34,0-.04.15-1.17.25-2.03Z"/>
                    <path class="cls-5" d="m204.68,80.3s.03.03.09.07.16.07.27.04c.23-.06.45-.38.51-.76.03-.19,0-.37-.04-.53-.05-.16-.13-.28-.24-.31-.11-.04-.19.02-.22.07-.03.06-.02.1-.04.1,0,0-.04-.04-.01-.12.01-.04.04-.09.1-.12.06-.03.13-.05.21-.03.16.03.29.19.34.37.06.17.09.38.06.59-.06.42-.32.78-.63.83-.15.02-.27-.04-.32-.09-.06-.06-.07-.11-.06-.11Z"/>
                  </g>
                </g>
                <path class="cls-10" d="m193.06,77.57s-.2-.12-.5-.4c-.29-.28-.67-.77-.83-1.48-.08-.35-.11-.76-.04-1.17.08-.41.25-.85.57-1.2.61-.72,1.72-1.16,2.8-.93.1.02.19.05.29.08.09.03.18.07.26.11l.13.05-.02-.14c-.03-.24.03-.49.17-.69.13-.2.32-.36.52-.49.41-.25.89-.31,1.33-.27.89.08,1.67.38,2.37.37.7,0,1.24-.25,1.52-.52.14-.13.22-.26.26-.35.04-.09.06-.14.05-.14-.02-.01-.07.21-.36.45-.28.25-.8.46-1.48.45-.33,0-.7-.08-1.09-.17-.39-.09-.81-.2-1.27-.24-.23-.02-.47-.02-.71.02-.24.04-.48.13-.71.26-.22.13-.43.31-.58.53-.15.22-.23.52-.19.8l.12-.08c-.09-.04-.18-.08-.28-.11-.1-.03-.2-.07-.3-.08-1.14-.24-2.31.23-2.95.99-.33.38-.52.84-.59,1.28-.07.44-.03.86.06,1.22.19.73.59,1.23.9,1.5.16.14.29.23.39.28.1.05.15.08.15.07h0Z"/>
                <path class="cls-10" d="m192.56,70.46s.19-.19.62-.3c.21-.06.48-.09.78-.03.3.05.62.2.87.47l.09.1.03-.13c.16-.71.82-1.44,1.72-1.66.68-.17,1.34.06,1.9.29.56.24,1.08.48,1.55.56.47.1.86.07,1.12-.01.13-.04.22-.08.28-.12s.09-.06.09-.06c0-.01-.13.06-.39.12-.25.06-.63.07-1.08-.04-.45-.1-.95-.34-1.51-.59-.29-.12-.59-.24-.93-.31-.34-.07-.71-.08-1.07,0-.97.24-1.66,1.03-1.82,1.79l.12-.03c-.28-.3-.63-.45-.95-.49-.32-.05-.6,0-.82.07-.22.07-.37.17-.47.25-.09.08-.13.13-.13.13Z"/>
                <path class="cls-5" d="m198.07,80.82c.12-.16.33-.23.53-.23.19,0,.44.13.57.32,0,0,0,0,0,0,0,0,.02.02.02.02h0c.05.06.09.14.09.22,0,.19-.11.36-.27.46-.25.16-.6.17-.83-.01s-.3-.56-.11-.8h0Z"/>
                <path class="cls-9" d="m199.3,80.42s-.07.1-.17.25-.28.32-.52.42c-.25.09-.49.08-.67.04-.17-.04-.28-.09-.29-.07-.01.02.07.11.25.19.18.08.48.12.77,0,.3-.11.48-.34.57-.52.09-.18.08-.31.06-.31h0Z"/>
              </g>
              <path class="cls-9" d="m207.29,74.69s.03-.02.09-.07c.06-.05.14-.12.23-.23.19-.21.44-.56.56-1.07.06-.25.07-.54,0-.84-.07-.3-.21-.6-.47-.85-.25-.25-.61-.41-.99-.4-.38,0-.78.16-1.03.49l.1.05s0-.02,0-.02c.25-.74.25-1.55-.06-2.18-.3-.62-.88-1.01-1.4-1.07-.53-.06-.94.14-1.15.33-.11.09-.18.18-.22.25-.04.07-.06.1-.06.1,0,0,.08-.14.3-.31.22-.17.62-.35,1.12-.28.49.06,1.03.44,1.32,1.04.3.59.3,1.37.05,2.09,0,0,0,.02,0,.02l-.11.32.2-.27c.22-.3.59-.44.94-.44.35,0,.68.14.92.36.23.22.38.52.45.8.07.28.06.56.02.8-.1.49-.34.84-.52,1.05-.18.22-.3.32-.29.33h0Z"/>
            </g>
            <g>
              <path class="cls-9" d="m177.51,93.78l2.01,7.61c.11.42.5.71.93.71l10.43-.21c.59-.01,1.03-.56.91-1.14l-1.54-7.29c-.09-.44-.48-.75-.93-.75h-11c-.56,0-.97.53-.82,1.07h0Z"/>
              <path class="cls-6" d="m176.63,95.49c-.23-.25-.21-.67,0-.94s.55-.41.9-.42.68.08.99.21c.39.15.77.34,1.13.56.25.16.51.36.56.66.05.29-.27.63-.53.48.34.14.67.5.73.87.05.37-.15.57-.5.68.27.11.45.45.32.71-.13.28-.52.35-.8.25-.29-.11-.5-.35-.7-.59.21.35.28.78.2,1.18-.79-.27-1.4-1.02-1.51-1.85-.39-.29-.52-.88-.29-1.31-.32-.1-.68-.59-.66-.92"/>
              <path class="cls-5" d="m179.9,97.59s-.13-.1-.34-.26c-.21-.16-.51-.38-.9-.46-.19-.04-.39-.04-.55,0s-.3.12-.4.2c-.2.17-.25.34-.26.33,0,0,0-.04.03-.11s.09-.17.19-.26c.1-.09.25-.18.42-.23.18-.05.39-.05.59,0,.41.09.72.33.93.5.2.18.31.3.3.31h0Z"/>
              <path class="cls-5" d="m179.81,96.07s-.17-.05-.42-.17c-.12-.06-.27-.13-.44-.19-.17-.06-.37-.11-.57-.15-.21-.03-.4-.04-.58,0-.17.03-.32.11-.43.19-.22.16-.27.34-.28.34,0,0,0-.05.03-.12.03-.07.1-.17.21-.26s.26-.18.45-.22c.19-.04.4-.04.61,0,.21.04.41.09.58.16.17.07.32.15.44.21.24.14.39.22.39.23h0Z"/>
              <path class="cls-4" d="m184.37,96.38h.06c.26-.03.53.17.56.44s-.17.53-.43.57c-.26.04-.53-.16-.58-.41s.14-.54.39-.59h0Z"/>
            </g>
            <g>
              <path class="cls-6" d="m194.5,93.77s-1.11-2.16-1.43-2.03-.76.13-.55.95.75,1.38.72,2.02c-.03.64-.53,2.08.02,2.75.56.67,1.5,2.69,1.5,2.69l2.45-2.5-.55-.8s.92-1.27,1.1-2.01c.18-.74-.09-1.79-.09-1.79,0,0,.07-.62-.27-1.09,0,0,.06-.49.05-.99-.01-.5-1.3-2.56-1.3-2.56,0,0-.66.25-.44.94s.51,1.27.51,1.27l-1.5-.57s-.39.73.41,1.16.92.8.92.8l-1.15.09s-.11.64.35.77l.46.13-1.22.8h0Z"/>
              <path class="cls-5" d="m195.17,92.81c.21.05.51.11,1.03.22h.02v.02c.12.25.23.56.21.92-.02.36-.2.73-.48,1.02-.31.31-.7.48-1.03.66-.33.17-.61.35-.79.56-.18.21-.26.43-.29.57-.03.15,0,.24-.02.24,0,0,0-.02-.02-.06,0-.04,0-.1,0-.18.02-.16.09-.39.27-.61.18-.23.47-.42.8-.6.33-.18.7-.35,1-.65.26-.28.43-.63.46-.96.03-.34-.07-.64-.18-.88l.02.02c-.63-.15-1.03-.26-1.02-.29h0Z"/>
              <path class="cls-5" d="m197.43,92.94s-.04-.1-.11-.24c-.07-.14-.21-.32-.42-.44-.21-.12-.43-.17-.59-.21s-.26-.05-.26-.07c0-.01.1-.02.27,0,.16.02.4.07.63.19.11.07.21.15.28.23.07.09.12.18.15.26.06.16.06.27.05.27h0Z"/>
              <path class="cls-5" d="m197.3,91.67s-.2-.28-.49-.56c-.29-.29-.58-.45-.57-.48,0-.02.33.11.63.41.3.3.44.62.43.62h0Z"/>
            </g>
          </g>
        </g>
      </g>
    </g>
  </g>
</svg>