<?xml version="1.0" encoding="utf-8"?>
<!-- Generator: Adobe Illustrator 27.5.0, SVG Export Plug-In . SVG Version: 6.00 Build 0)  -->
<svg version="1.1" id="Calque_1" xmlns="http://www.w3.org/2000/svg" xmlns:xlink="http://www.w3.org/1999/xlink" x="0px" y="0px"
	 viewBox="0 0 250 250" style="enable-background:new 0 0 250 250;" xml:space="preserve">
<style type="text/css">
	.st0{fill:#F6B11A;}
	.st1{fill:#F38520;}
	.st2{fill:#01614D;}
	.st3{fill:#D7C25D;}
	.st4{fill:#F3E7D7;}
	.st5{fill:none;stroke:#FFD580;stroke-miterlimit:10;}
	.st6{fill:#F4B11C;}
	.st7{fill:#FFEDC8;}
	.st8{fill:#FFFFFF;}
	.st9{fill:url(#);}
	.st10{fill:#FAFBFB;}
	.st11{fill:#F5F6F6;}
	.st12{fill:#E0E1E0;}
	.st13{opacity:0.5;}
	.st14{fill:#386250;}
	.st15{fill:#FAFBFC;}
	.st16{fill:#273339;}
	.st17{fill:#D8822E;}
	.st18{opacity:0.2;}
	.st19{fill:#010101;}
	.st20{fill:#9F7463;}
	.st21{fill:#66473D;}
	.st22{opacity:0.7;fill:#03624E;enable-background:new    ;}
	.st23{fill:#03624E;}
	.st24{opacity:0.7;}
	.st25{opacity:0.4;}
	.st26{fill:#858259;}
	.st27{fill:#58512F;}
	.st28{fill:#F08421;}
	.st29{fill:#F4B01C;}
	.st30{opacity:0.4;fill:#FFFFFF;enable-background:new    ;}
	.st31{opacity:0.1;fill:#FFFFFF;enable-background:new    ;}
	.st32{fill:#465B65;}
	.st33{fill:#F2A235;}
	.st34{opacity:0.3;}
	.st35{fill:#A9B283;}
	.st36{fill:#147162;}
	.st37{fill:#FBBF9E;}
	.st38{fill:#AE7462;}
	.st39{fill:#6F453A;}
	.st40{opacity:0.3;fill:#010101;enable-background:new    ;}
	.st41{fill:#F28421;}
	.st42{fill:#7C8546;}
	.st43{fill:#F2B01C;}
	.st44{opacity:0.27;fill:#AFCAB7;enable-background:new    ;}
	.st45{fill:#FBF8F6;}
	.st46{opacity:0.32;}
	.st47{fill:#22201D;}
	.st48{opacity:0.22;}
	.st49{fill:#AFCAB7;}
	.st50{fill:#043026;}
	.st51{fill:#996828;}
	.st52{fill:#BF6E3D;}
	.st53{fill:#80431C;}
	.st54{fill:#A86327;}
	.st55{fill:#F1E6D6;}
	.st56{fill:#D6C15E;}
	.st57{fill:#7B2923;}
	.st58{fill:#814F25;}
	.st59{fill:#97442A;}
	.st60{fill:#6D311F;}
	.st61{fill:#FBC9BA;}
	.st62{fill:#026DB1;}
	.st63{fill:#1481C4;}
	.st64{fill:#F9AA91;}
	.st65{fill:#F9AA92;}
	.st66{fill:#F58A68;}
</style>
<rect class="st8" width="250" height="250"/>
<g id="OBJECTS">
	<g>
		<polygon class="st44" points="150.4,140.4 152,142 150.4,143.6 151.4,144.5 152.9,143 154.5,144.5 155.5,143.6 153.9,142 
			155.5,140.4 154.5,139.5 152.9,141.1 151.4,139.5 		"/>
		<polygon class="st45" points="26.4,134.1 22.2,138.8 26,143.2 22.2,147.6 26,152 22.2,156.3 26.4,161.1 26.4,160.3 22.9,156.4 
			26.8,151.9 23,147.5 26.8,143.2 23,138.8 26.4,134.9 		"/>
		<g class="st46">
			<path class="st29" d="M78,33.7c-0.6,3.3-3.8,5.4-7,4.8c-3.3-0.6-5.4-3.8-4.8-7c0.6-3.3,3.8-5.4,7-4.8
				C76.4,27.3,78.6,30.4,78,33.7z"/>
			<path class="st47" d="M75.5,24c3.1,0,5.7,2.5,5.7,5.7s-2.5,5.7-5.7,5.7c-3.1,0-5.7-2.5-5.7-5.7S72.4,24,75.5,24 M75.5,23.6
				c-3.3,0-6,2.7-6,6s2.7,6,6,6c3.3,0,6-2.7,6-6S78.8,23.6,75.5,23.6L75.5,23.6z"/>
		</g>
		<path class="st23" d="M226.1,150.2c-0.9,0-1.7,0.7-1.7,1.7c0,0.9,0.7,1.7,1.7,1.7c0.9,0,1.7-0.7,1.7-1.7
			C227.8,151,227,150.2,226.1,150.2z M226.1,153c-0.6,0-1.1-0.5-1.1-1.1c0-0.6,0.5-1.1,1.1-1.1c0.6,0,1.1,0.5,1.1,1.1
			C227.2,152.5,226.7,153,226.1,153z"/>
		<g class="st48">
			<polygon class="st49" points="209.4,70.3 216.4,60.5 222.5,70.3 			"/>
			<path class="st47" d="M220.9,59.1l5.5,8.8h-11.8L220.9,59.1 M220.9,58.5l-7,9.7H227L220.9,58.5L220.9,58.5z"/>
		</g>
		<path class="st29" d="M92.7,201.7c-3.7,0-6.7,3-6.7,6.7h13.4C99.4,204.7,96.4,201.7,92.7,201.7z"/>
		<path class="st23" d="M192.8,27.3c2.1,0,3.8,1.7,3.8,3.8h1.9c0-3.1-2.5-5.7-5.7-5.7s-5.7,2.5-5.7,5.7h1.9
			C189,29,190.7,27.3,192.8,27.3L192.8,27.3z"/>
		<path class="st23" d="M30.9,192.9c0-2.1,1.7-3.8,3.8-3.8v-1.9c-3.1,0-5.7,2.5-5.7,5.7s2.5,5.7,5.7,5.7v-1.9
			C32.6,196.7,30.9,195,30.9,192.9L30.9,192.9z"/>
		<g>
			<g>
				<path class="st50" d="M112.8,58.3v30.9H99.2c-1.2,0-2.2-1-2.2-2.2V60.5c0-1.2,1-2.2,2.2-2.2L112.8,58.3L112.8,58.3z"/>
				<path class="st51" d="M165.6,72.9c-1.4,13.1-8.9,16.3-8.9,16.3h-44V58.3c12.3-2.4,18.2-17.6,16.9-25.2c0.2-1.7,0.2-3.3,0-4.7
					c0.9-2.6,3.4-2.1,3.4-2.1c8.5,1.3,9,18.9,8.9,24.7c0,1,0.7,1.8,1.7,1.9c3.2,0.2,10.3,0.9,16.5,2.5c4.1,1.1,5.8,2.1,6.3,4.5
					C167.1,62.3,166.3,66.2,165.6,72.9L165.6,72.9z"/>
			</g>
			<g>
				<path class="st23" d="M112.8,58.3v26.2H99.2c-1.2,0-2.2-1-2.2-2.2V60.5c0-1.2,1-2.2,2.2-2.2L112.8,58.3L112.8,58.3z"/>
				<path class="st29" d="M166.6,59.9c-0.2,2.1-0.6,4.9-1,8.3c-1.4,13.1-8.9,16.3-8.9,16.3h-44V58.3c6.1-1.2,10.9-5.7,13.8-11.1
					c2.1-3.9,2.7-8.2,3-12.6c0.2-2.5-0.8-9.1,3.5-8.2c8.5,1.3,9,18.9,8.9,24.7c0,1,0.7,1.8,1.7,1.9c3.2,0.2,10.3,0.9,16.5,2.5
					C164.4,56.5,166.1,57.6,166.6,59.9L166.6,59.9z"/>
			</g>
			<path class="st52" d="M149,89.2h6.6l-3.2,3.5v3.8h-4.7v-3.3c0-0.7,0.2-1.5,0.5-2.2L149,89.2L149,89.2z"/>
			<g>
				<path class="st52" d="M148.8,92.2c0.7-0.4,1.2-1.2,1.2-2c0-0.8-0.6-1.6-1.3-1.9c-0.1-1.3-1.3-2.3-2.6-2.5
					c0.9,2.1,1.5,4.4,1.8,6.7L148.8,92.2L148.8,92.2z"/>
				<path class="st53" d="M147.8,86.5c0.5,0.2,0.6,0.7,0.7,1.1c0.1,0.3,0.1,0.5,0.3,0.7c0.2,0.2,0.5,0.3,0.7,0.5
					c0.4,0.3,0.8,0.8,0.8,1.3c0.1,0.6-0.2,1.2-0.4,1.7c-0.1,0.2-0.3,0-0.3-0.1c0.2-0.5,0.4-1.1,0.3-1.7c-0.1-0.6-0.5-0.9-0.9-1.2
					c-0.2-0.1-0.4-0.2-0.5-0.4c-0.1-0.2-0.2-0.4-0.2-0.6c-0.1-0.4-0.2-1-0.6-1.1C147.4,86.7,147.6,86.4,147.8,86.5L147.8,86.5z"/>
			</g>
			<path class="st52" d="M106.1,89.2h-6.6l3.2,3.5v3.8h4.7v-3.3c0-0.7-0.2-1.5-0.5-2.2L106.1,89.2L106.1,89.2z"/>
			<g>
				<path class="st23" d="M134.3,123.6c3.9-2.6,7.5-5.7,10.7-9.2c1.1-6.2,1.7-12.9,2.2-19.2c1.9-0.2,4.1-0.3,6-0.1
					c1.5,8.5,2,17,1.4,25.5c-5.3,5.2-11,11.1-16.3,16.4L134.3,123.6L134.3,123.6z"/>
				<path class="st50" d="M154,116.7c0.3-0.4,0.6-0.9,0.8-1.4c0,1.7-0.1,3.5-0.2,5.2c-5.3,5.2-11,11.1-16.3,16.4l-0.9-3.1
					C143.2,128.6,149,123.1,154,116.7L154,116.7z"/>
				<path class="st50" d="M147.6,98.2c1.3,0,2.7,0.1,4,0.1c0.2,0,0.2,0.3,0,0.3c-1.3,0-2.7-0.1-4-0.1
					C147.4,98.5,147.4,98.2,147.6,98.2z"/>
			</g>
			<g>
				<path class="st23" d="M120.8,123.6c-3.9-2.6-7.5-5.7-10.7-9.2c-1.1-6.2-1.7-12.9-2.2-19.2c-1.9-0.2-4.1-0.3-6-0.1
					c-1.5,8.5-2,17-1.4,25.5c5.3,5.2,11,11.1,16.3,16.4L120.8,123.6L120.8,123.6z"/>
				<path class="st50" d="M117,132.4c0.1,1,0.2,2,0.2,3l-0.5,1.6c-5.3-5.2-11-11.1-16.3-16.4c-0.2-2.3-0.2-4.5-0.2-6.8
					C103.2,121.6,109.8,127.5,117,132.4L117,132.4z"/>
				<path class="st50" d="M102.2,98.4c1.8-0.1,3.5-0.2,5.3-0.3c0.2,0,0.2,0.3,0,0.3c-1.8,0.1-3.5,0.2-5.3,0.3
					C102,98.7,102,98.4,102.2,98.4z"/>
			</g>
			<g>
				<g>
					<g>
						<path class="st23" d="M114.4,217.2c0,0.7,0,1.5,0,2.1h4.3l0.2-2.1H114.4L114.4,217.2z"/>
						<path class="st23" d="M135.6,217.2c0,0.7,0,1.5,0,2.1h4.3l0.2-2.1H135.6L135.6,217.2z"/>
						<path class="st50" d="M140.2,159c-11.3,1.2-12.9,7.7-12.9,7.7l4.6,27l2.4,24.7h7.6C144.2,187.5,140.3,159,140.2,159L140.2,159
							z"/>
						<path class="st23" d="M130.3,166.4c0,0,5-3.2,5.6-6l-20.4,0.7c0,0-2.8,36.4-2.8,56.2h7.8L130.3,166.4z"/>
						<path class="st23" d="M129.8,169.4l-9.2,49.1h-7.8c-0.1-14.7,1.5-39.9,2.3-51.1C119.8,168.8,124.8,169.6,129.8,169.4
							L129.8,169.4z"/>
						<path class="st50" d="M115.1,167.3c0.3-3.9,0.5-6.3,0.5-6.3l20.4-0.7c-0.6,2.8-5.6,6-5.6,6l-0.6,3
							C124.8,169.6,119.9,168.8,115.1,167.3L115.1,167.3z"/>
						<path class="st50" d="M134.2,163.2c1-1,1.9-2.1,2.1-3.2l-19.1-0.9c0,0-0.2,2.1-0.2,2.9C122.7,163.3,128.5,163.8,134.2,163.2
							L134.2,163.2z"/>
					</g>
					<g>
						<path class="st23" d="M119,219l-5-0.1c-1.4,1.4-2.4,3.3-2.9,5.2h9C119.9,222.4,119.6,220.7,119,219L119,219z"/>
						<path class="st54" d="M111.1,224.1c0,0.2-0.1,0.4-0.1,0.6c-0.1,0.3,0.2,0.6,0.5,0.6h8.3c0.3,0,0.5-0.2,0.5-0.5
							c0-0.2,0-0.4-0.1-0.6L111.1,224.1L111.1,224.1z"/>
					</g>
					<g>
						<path class="st23" d="M135.3,219l5-0.1c1.4,1.4,9.8,3.3,10.3,5.2h-16.4C134.3,222.4,134.7,220.7,135.3,219L135.3,219z"/>
						<path class="st54" d="M150.6,224.1c0,0.2,0.1,0.4,0.1,0.6c0.1,0.3-0.2,0.6-0.5,0.6h-15.7c-0.3,0-0.5-0.2-0.5-0.5
							c0-0.2,0-0.4,0.1-0.6L150.6,224.1L150.6,224.1z"/>
					</g>
				</g>
				<path class="st50" d="M118.4,195.7c-0.6-1.1-1.3-2.1-1.8-3.2c-0.5-1.1-0.9-2.3-1.3-3.5c0-0.1-0.3-0.1-0.2,0.1
					c0.2,1.2,0.7,2.4,1.2,3.6c0.5,1.1,1.1,2.3,1.9,3.3C118.3,196,118.5,195.8,118.4,195.7z"/>
				<path class="st50" d="M114.1,216.5h5c0.2,0,0.2,0.3,0,0.3h-5C113.9,216.8,113.9,216.5,114.1,216.5z"/>
			</g>
			<g>
				<path class="st55" d="M138.2,127.2c-0.1-1.3-1-2.5-2.4-3c-2.9-1.1-6.2-1.4-9.3-1.2c-2.9,0.2-5.8,0.8-8.6,1.6
					c-1.8,0.5-3,2.2-2.7,3.8c1.7,10,2.2,20.2,1.6,30.3c7.5,2.2,14.9,2.8,22,0.3C139.1,148.9,138.7,137.5,138.2,127.2L138.2,127.2z"
					/>
				<path class="st56" d="M127.7,125.9c-0.8,0.4-1.6,0.9-2.3,1.5c-0.3-0.6-0.6-1.1-0.9-1.7c-0.2-0.3-0.3-0.6-0.5-0.9
					c-0.2-0.3-0.3-0.6-0.5-0.9c-0.1-0.1-0.3,0-0.2,0.1c0.1,0.3,0.3,0.6,0.4,0.9c0.2,0.3,0.3,0.7,0.5,1c0.3,0.6,0.7,1.3,1,1.9
					c0.1,0.1,0.2,0.1,0.3,0c0.7-0.6,1.5-1.2,2.4-1.6C128.1,126.1,127.9,125.8,127.7,125.9L127.7,125.9z"/>
				<path class="st56" d="M130.6,125.9c0-0.3,0-0.5,0-0.8c0-0.2,0.1-0.6-0.1-0.8c0-0.1-0.2-0.1-0.2,0c-0.1,0.2-0.1,0.5-0.1,0.8
					c0,0.3,0,0.6,0,0.8c0,0.5,0.1,0.9,0.1,1.4c-0.4-0.2-0.7-0.4-1.1-0.6c-0.2-0.1-0.5-0.3-0.7-0.4c-0.2-0.1-0.5-0.3-0.7-0.3
					c-0.1,0-0.1,0.1-0.1,0.2c0.2,0.2,0.4,0.3,0.6,0.4s0.5,0.3,0.7,0.4c0.5,0.3,0.9,0.5,1.4,0.8c0.1,0.1,0.3,0,0.3-0.1
					C130.7,127.1,130.7,126.5,130.6,125.9L130.6,125.9z"/>
				<polygon class="st56" points="127.8,126.1 126.7,126.9 127.3,127.8 127.2,156 129.3,157.1 131.1,156 128.6,127.9 128.9,126.8 
									"/>
				<path class="st23" d="M114.7,130.5c-0.4-2.4,0.6-5,2.6-5.7c1.5-0.5,3.3-1,4.9-1.1c1.3,5.5,6.7,16.7,6.7,16.7s4.2-12.8,1.7-17.3
					c1.6-0.1,4.6,0.4,6.2,1.2c1.5,0.8,2.4,3.2,2.5,5.1c0.7,11.8,2.9,24,3.8,36c-1.2,0.5-2.7,0.6-3.9,0.7c-2,0.2-4,0.3-6.1,0.4
					c-6.6,0.2-13.1,0-19.3-2.4C114.8,152.9,116.3,141.7,114.7,130.5L114.7,130.5z"/>
				<path class="st50" d="M117,132.4c0.9,10.6,0,21.5-2,32.1c-0.3-0.1-0.7-0.2-1-0.4c0.9-11.1,2.3-22.2,0.7-33.3
					C115.4,131.3,116.2,131.9,117,132.4z"/>
				<g>
					<path class="st50" d="M132.7,133l2.2-0.8c0.2-0.1,0.4-0.1,0.6-0.2c0.2-0.1,0.3-0.1,0.5-0.2c0.3-0.2,0.2-0.6,0.1-0.8
						c-0.5-1.5-1-3-1.5-4.5c-0.1-0.2,0.2-0.3,0.3-0.1c0.4,1.3,0.8,2.6,1.3,3.8c0.1,0.3,0.2,0.6,0.3,0.9c0.1,0.2,0.1,0.5,0,0.7
						c-0.1,0.2-0.3,0.3-0.5,0.4c-0.3,0.1-0.6,0.2-0.9,0.3c-0.7,0.2-1.4,0.5-2.2,0.7C132.6,133.4,132.5,133.1,132.7,133L132.7,133z"
						/>
					<path class="st50" d="M132.9,133.1c0.8,0.9,1.7,1.7,2.5,2.6c0.1,0.1-0.1,0.4-0.2,0.2l-2.5-2.6
						C132.6,133.2,132.8,133,132.9,133.1z"/>
					<path class="st50" d="M129.5,142.9c1.9-2.4,3.8-4.8,5.7-7.2c0.1-0.1,0.3,0.1,0.2,0.2c-1.9,2.4-3.8,4.8-5.7,7.2
						C129.6,143.2,129.4,143,129.5,142.9z"/>
				</g>
				<g>
					<path class="st50" d="M123.5,133.6l-2.3-0.4c-0.2,0-0.4-0.1-0.6-0.1c-0.2,0-0.4,0-0.5-0.1c-0.3-0.1-0.3-0.5-0.2-0.8
						c0.3-1.6,0.6-3.1,0.8-4.7c0-0.2-0.3-0.2-0.3-0.1c-0.2,1.3-0.5,2.7-0.7,4c-0.1,0.3-0.1,0.6-0.2,0.9c0,0.2,0,0.5,0.1,0.7
						c0.1,0.2,0.4,0.3,0.6,0.3c0.3,0.1,0.6,0.1,1,0.2c0.7,0.1,1.5,0.3,2.2,0.4C123.7,133.9,123.7,133.6,123.5,133.6L123.5,133.6z"/>
					<path class="st50" d="M123.4,133.7c-0.7,1-1.4,2-2.1,2.9c-0.1,0.2,0.1,0.3,0.2,0.2c0.7-1,1.4-2,2.1-2.9
						C123.7,133.7,123.5,133.5,123.4,133.7z"/>
					<path class="st50" d="M128.1,142.8c-2.2-2.1-4.4-4.2-6.6-6.3c-0.1-0.1-0.3,0.1-0.2,0.2c2.2,2.1,4.4,4.2,6.6,6.3
						C128,143.2,128.2,143,128.1,142.8z"/>
				</g>
				<path class="st50" d="M129,140.9c0.2,3.4,0.4,6.7,0.5,10.1c0.1,3.4,0.2,6.7,0.2,10.1c0,1.9,0,3.8,0,5.7c0,0.2-0.3,0.2-0.3,0
					c0-3.4,0-6.7-0.1-10.1c-0.1-3.4-0.2-6.7-0.3-10.1c-0.1-1.9-0.2-3.8-0.3-5.7C128.7,140.7,129,140.7,129,140.9L129,140.9z"/>
				<path class="st50" d="M134.2,156.2c1.8,0.5,3.7,0.4,5.4-0.2c0.2-0.1,0.3,0.2,0.1,0.3c-1.8,0.7-3.7,0.7-5.5,0.2
					C134,156.4,134.1,156.1,134.2,156.2L134.2,156.2z"/>
				<path class="st50" d="M118.1,156.6c1.8,0.5,3.7,0.4,5.4-0.2c0.2-0.1,0.3,0.2,0.1,0.3c-1.8,0.7-3.7,0.7-5.5,0.2
					C117.8,156.8,117.9,156.5,118.1,156.6z"/>
			</g>
			<g>
				<path class="st57" d="M133.1,113.6c0.5-1.8,0.4-3.8-0.4-5.6c0.1-0.4,0-0.9-0.2-1.3c-0.2-0.4-0.6-0.7-0.9-0.9
					c-0.5-0.3-1.1-0.4-1.7-0.2c-0.6,0.2-1,0.7-1.1,1.3c-0.4-0.3-0.8-0.5-1.3-0.7c-0.5-0.2-1-0.2-1.5-0.1c-0.5,0.1-0.9,0.5-1.1,1
					c-0.1,0.5,0.1,1.1,0.5,1.3c-0.4-0.5-1.2-0.5-1.8-0.3c-0.5,0.2-0.9,0.7-1.2,1.3c-0.2,0.4-0.3,0.9-0.2,1.4
					c0.1,0.5,0.4,0.9,0.8,1.1c-0.8,0.4-1.1,1.4-0.9,2.3c0.2,0.9,0.7,1.6,1.3,2.3s1.2,1.3,1.6,2.1L133.1,113.6L133.1,113.6z"/>
				<path class="st50" d="M132.9,113.8c0.5-1.8,0.4-3.7-0.3-5.4c0.1-0.4,0-0.9-0.2-1.3c-0.2-0.4-0.5-0.7-0.8-0.9
					c-0.5-0.3-1-0.4-1.5-0.2c-0.5,0.2-0.9,0.7-0.9,1.2c-0.4-0.3-0.7-0.5-1.1-0.7c-0.4-0.2-0.9-0.2-1.3-0.1c-0.4,0.1-0.8,0.5-1,1
					s0.1,1,0.5,1.2c-0.3-0.4-1.1-0.5-1.6-0.3c-0.5,0.2-0.8,0.7-1,1.2c-0.2,0.4-0.2,0.9-0.2,1.3c0.1,0.4,0.3,0.9,0.7,1.1
					c-0.7,0.4-1,1.3-0.8,2.2s0.6,1.6,1.2,2.2c0.5,0.7,1.1,1.3,1.5,2.1L132.9,113.8L132.9,113.8z"/>
				<g>
					<g>
						<g>
							<g>
								<path class="st52" d="M124.6,116.1c0.2,2.4,0.1,4.9-0.2,7.3c-0.1,0.5,0.1,1,0.6,1.3c1.1,0.8,2.5,1.1,3.9,0.9
									c0.7-0.1,1.2-0.7,1.1-1.4c-0.1-1.6-0.2-3.1-0.1-4.7C128.5,117.8,126.6,116.8,124.6,116.1L124.6,116.1z"/>
								<path class="st53" d="M129.8,119.5c-1.3-1.7-3.2-2.7-5.2-3.4c0.1,0.6,0.1,1.3,0.1,1.9c0.8,2.7,2.9,4.4,5.2,5
									C129.8,121.9,129.8,120.8,129.8,119.5L129.8,119.5z"/>
							</g>
							<g>
								<path class="st52" d="M133.2,112.2c0.5,3.4-0.3,9.2-2.8,9.5c-3,0.3-4.9-2.4-5.5-4.8c0,0-0.3,0.2-0.6,0.2
									c-0.3,0-0.7-0.4-0.8-0.6c-0.3-0.5-0.6-1.2-0.3-1.7c0.4-0.6,1.3-0.8,1.6,0c0-1.2,0.4-2.4,0.8-3.5c0.1-0.4,0.4-0.7,0.8-0.8
									c1.7-0.6,3.9-0.6,5.6-0.1c0.4,0.1,0.8,0.5,0.9,0.9C133,111.5,133.1,111.9,133.2,112.2L133.2,112.2z"/>
								<path class="st50" d="M129.5,112.4c-0.5-0.7-2.1-0.2-2.6,0.2c-0.1,0.1-0.2,0.2-0.2,0.3c0,0.1,0,0.1,0.1,0.2
									c0.2,0,0.3-0.1,0.5-0.2c0.2-0.1,0.4-0.2,0.6-0.2c0.3-0.1,0.5-0.1,0.8,0c0.3,0,0.5,0.1,0.7,0.1
									C129.6,112.7,129.6,112.5,129.5,112.4L129.5,112.4z"/>
								<path class="st50" d="M128.7,113.6c0,0,0-0.1-0.1-0.1c0,0-0.1-0.1-0.1-0.1c0,0-0.1,0-0.1,0c0,0-0.1,0-0.1,0
									c-0.1,0-0.1,0-0.1,0.1c0,0,0,0-0.1,0.1c0,0.1,0,0.1,0,0.2v0c0,0,0,0.1,0,0.1c0,0,0,0.1,0.1,0.1c0,0,0.1,0.1,0.1,0.1
									c0,0,0.1,0,0.1,0l0.1,0c0.1,0,0.1,0,0.1-0.1c0,0,0,0,0.1-0.1c0-0.1,0-0.1,0-0.2v0C128.8,113.7,128.8,113.6,128.7,113.6z"/>
								<path class="st50" d="M132.4,113.8c0,0,0-0.1-0.1-0.1c0,0-0.1-0.1-0.1-0.1c0,0-0.1,0-0.1,0c0,0-0.1,0-0.1,0
									c-0.1,0-0.1,0-0.1,0.1c0,0,0,0-0.1,0.1c0,0.1,0,0.1,0,0.2v0c0,0,0,0.1,0,0.1c0,0,0,0.1,0.1,0.1c0,0,0.1,0.1,0.1,0.1
									c0,0,0.1,0,0.1,0l0.1,0c0.1,0,0.1,0,0.1-0.1c0,0,0,0,0.1-0.1c0-0.1,0-0.1,0-0.2v0C132.4,113.9,132.4,113.8,132.4,113.8z"/>
								<path class="st50" d="M133,112.9c-0.1-0.3-0.4-0.4-0.7-0.4c-0.3-0.1-0.5-0.1-0.8,0c-0.1,0-0.2,0.2-0.2,0.3
									c0,0.2,0.2,0.2,0.4,0.2c0.2,0,0.4,0,0.6,0.1c0.1,0.1,0.8,0.4,0.7,0C133.1,112.9,133.1,112.9,133,112.9L133,112.9z"/>
								<path class="st58" d="M129.9,119.5c-0.1,0-0.2,0-0.3,0c-0.1,0-0.2,0-0.3,0c-0.1,0-0.2,0-0.3-0.1c-0.1,0-0.2-0.1-0.3-0.1
									c-0.1,0-0.2,0.1-0.1,0.2c0.1,0.1,0.2,0.1,0.3,0.2c0.1,0,0.2,0.1,0.3,0.1c0.1,0,0.2,0,0.3,0c0.1,0,0.3,0,0.4,0
									C130.1,119.7,130.1,119.6,129.9,119.5z"/>
								<path class="st58" d="M124.5,115.9c-0.1,0-0.3,0-0.3-0.1c0-0.1,0-0.1,0.1-0.2c0,0,0.1-0.1,0.1-0.1c0.1,0,0.2-0.1,0.1-0.2
									c-0.1-0.4-0.4-0.7-0.8-0.7c-0.2,0-0.3,0.1-0.4,0.3c0,0.1,0,0.2,0,0.2c0,0,0.1,0.2,0.1,0.1c0,0,0-0.1,0-0.1
									c0-0.1,0-0.1,0.1-0.1c0.1-0.1,0.2-0.1,0.3-0.1c0.2,0,0.3,0.2,0.4,0.4c-0.2,0.1-0.3,0.3-0.3,0.5c0.1,0.2,0.3,0.4,0.6,0.3
									C124.7,116.1,124.6,115.9,124.5,115.9L124.5,115.9z"/>
							</g>
						</g>
						<path class="st53" d="M131.5,115.5c-0.2-0.1-0.3-0.2-0.5-0.4c-0.2-0.1-0.3-0.3-0.2-0.5c0-0.2-0.2-0.2-0.3-0.1
							c-0.2,0.3,0.1,0.7,0.3,0.9c0.2,0.1,0.3,0.2,0.5,0.3c0.1,0.1,0.2,0.3,0.3,0.4c0.1,0.3,0.1,0.7-0.2,1c-0.2,0.3-0.5,0.4-0.9,0.5
							c-0.1,0-0.1,0.2,0,0.2c0.4,0.1,0.8-0.1,1-0.3c0.3-0.3,0.4-0.6,0.4-1C132,116.1,131.8,115.8,131.5,115.5L131.5,115.5z"/>
					</g>
					<path class="st50" d="M130.4,118.8c-1.1,0.3-2.2-0.1-2.9-1c-0.1-0.2,0.1-0.3,0.3-0.2c0.5,0.8,1.6,1.2,2.5,0.9
						C130.5,118.5,130.6,118.8,130.4,118.8L130.4,118.8z"/>
				</g>
			</g>
			<path class="st50" d="M139.4,129c0.2,4.5,0.6,9,1.2,13.4c0.2,1.3,0.3,2.5,0.5,3.7c0,0.2-0.3,0.2-0.3,0c-0.7-4.4-1.2-8.9-1.5-13.4
				c-0.1-1.3-0.2-2.5-0.2-3.8C139.1,128.8,139.4,128.8,139.4,129L139.4,129z"/>
			<g>
				<path class="st52" d="M106.3,92.2c-0.7-0.4-1.2-1.2-1.2-2c0-0.8,0.6-1.6,1.3-1.9c0.1-1.3,1.3-2.3,2.6-2.5
					c-0.9,2.1-1.5,4.4-1.8,6.7L106.3,92.2L106.3,92.2z"/>
				<path class="st53" d="M107.3,86.5c-0.5,0.2-0.6,0.7-0.7,1.1c-0.1,0.3-0.1,0.5-0.3,0.7c-0.2,0.2-0.5,0.3-0.7,0.5
					c-0.4,0.3-0.8,0.8-0.8,1.3c-0.1,0.6,0.2,1.2,0.4,1.7c0.1,0.2,0.3,0,0.3-0.1c-0.2-0.5-0.4-1.1-0.3-1.7c0.1-0.6,0.5-0.9,0.9-1.2
					c0.2-0.1,0.4-0.2,0.5-0.4c0.1-0.2,0.2-0.4,0.2-0.6c0.1-0.4,0.2-1,0.6-1.1C107.7,86.7,107.5,86.4,107.3,86.5L107.3,86.5z"/>
			</g>
		</g>
		<g>
			<path class="st59" d="M182.6,112.3c2.2,0.6,3.9,2.5,4.2,4.8c0.1,0.5,0.1,1.1,0.4,1.5c0.3,0.5,0.9,0.7,1,1.3
				c0.1,0.6-0.3,1.2-0.1,1.7c0.3,0.5,1.1,0.5,1.4,1.1c0.3,0.6-0.4,1.3-0.1,1.9c0.2,0.5,1,0.5,1.5,0.8c0.5,0.3,0.7,0.9,0.7,1.4
				c0,0.6-0.2,1.1-0.5,1.6c-1.5,2.9-4.5,4.9-7.7,5.6s-6.6,0.1-9.6-1.2c-0.7-0.3-1.5-0.7-1.9-1.3c-0.5-0.6-0.6-1.5-0.2-2.2
				c0.2-0.2,0.4-0.4,0.5-0.7c0.4-0.9-1-1.9-0.7-2.9c0.1-0.5,0.6-0.9,1.1-1.2s0.9-0.8,0.8-1.4c-0.1-0.3-0.3-0.5-0.3-0.8
				c-0.2-0.7,0.6-1.2,1-1.8c0.8-1,0.9-2.4,1-3.6C175.6,113.5,179.1,111.3,182.6,112.3L182.6,112.3z"/>
			<path class="st60" d="M182.5,113.5c2,0.6,3.7,2.4,4,4.5c0.1,0.5,0.1,1,0.4,1.4c0.3,0.4,0.8,0.7,1,1.2c0.1,0.5-0.3,1.1-0.1,1.6
				c0.3,0.5,1.1,0.5,1.3,1c0.3,0.6-0.4,1.3-0.1,1.8c0.2,0.5,1,0.5,1.4,0.8c0.4,0.3,0.7,0.8,0.7,1.3c0,0.5-0.2,1-0.4,1.5
				c-1.4,2.8-4.2,4.6-7.3,5.3c-3,0.6-6.2,0.1-9.1-1.1c-0.7-0.3-1.4-0.6-1.8-1.2c-0.5-0.6-0.6-1.5-0.2-2c0.2-0.2,0.4-0.4,0.5-0.6
				c0.4-0.9-0.9-1.8-0.7-2.7c0.1-0.5,0.6-0.8,1-1.1c0.4-0.3,0.9-0.8,0.8-1.3c-0.1-0.3-0.2-0.5-0.3-0.7c-0.2-0.7,0.5-1.2,1-1.7
				c0.8-0.9,0.8-2.2,1-3.4C176,114.7,179.3,112.6,182.5,113.5L182.5,113.5z"/>
			<g>
				<path class="st29" d="M202.7,120.9c0-0.4-0.2-0.7-0.6-0.9c-0.3-0.2-0.7-0.3-1.1-0.4c-1.1-0.2-2.2-0.3-3.4-0.3
					c-0.6,0-1.1,0.4-1.2,1c-0.1,0.3-0.1,0.6-0.1,0.9c-0.8,0.5-0.7,1.7-0.6,2.6c-1.8,1.6-4.7,3.8-7,4.4c-2.3,0.6-4.8,1.5-5.9,3.6
					c-0.8,1.5-0.7,3.2-0.7,4.8c0.1,1.2,0.2,2.5,1.7,2.9c0.5,0.1,1,0.1,1.5,0c3.2-0.6,5.3-3.4,8.1-5.1c2.7-1.6,5.4-3.3,7.2-5.9
					C202.5,126,204.4,123.5,202.7,120.9z"/>
				<path class="st29" d="M202.9,124.9c0.5-1.3,0.6-2.7-0.3-4c0-0.4-0.2-0.7-0.6-0.9c-0.3-0.2-0.7-0.3-1.1-0.4
					c-1.1-0.2-2.2-0.3-3.4-0.3c-0.6,0-1.1,0.4-1.2,1c-0.1,0.3-0.1,0.6-0.1,0.9c-0.8,0.5-0.7,1.7-0.6,2.6c-1.8,1.6-4.7,3.8-7,4.4
					c-2.3,0.6-4.8,1.5-5.9,3.6c-0.8,1.5-0.7,3.2-0.7,4.8c0,0.3,0,0.5,0.1,0.8C189.8,134.9,197.6,130.9,202.9,124.9L202.9,124.9z"/>
				<path class="st54" d="M182.3,137.4c0.1,0.9,0.5,1.8,1.7,2.1c0.5,0.1,1,0.1,1.5,0c3.2-0.6,5.3-3.4,8.1-5.1
					c2.7-1.6,5.4-3.3,7.2-5.9c0.9-1.2,1.7-2.4,2.2-3.6C197.6,130.9,189.8,134.9,182.3,137.4z"/>
				<path class="st61" d="M197,109.4l-0.3,10.5c0,0.8,0.6,1.4,1.3,1.5c0.6,0,1.4,0,2.3-0.4c0.6-0.3,0.9-0.9,0.8-1.5l-1.5-10.3
					C199.6,109.2,198.3,109.1,197,109.4L197,109.4z"/>
				<path class="st54" d="M199.2,126c-1.2-0.2-2.3-0.9-3-1.9c-0.1-0.2-0.3,0-0.2,0.2c0.8,1.1,1.9,1.8,3.2,2
					C199.4,126.3,199.4,126,199.2,126L199.2,126z"/>
				<path class="st54" d="M200,122.3c-0.9,0-1.8-0.2-2.6-0.7c-0.2-0.1-0.3,0.2-0.2,0.3c0.8,0.5,1.8,0.8,2.7,0.8
					C200.2,122.6,200.2,122.3,200,122.3z"/>
			</g>
			<path class="st29" d="M181.4,127.1c-2-0.5-4.2-0.4-6.1,0.4c-0.9,0.4-1.9,1-1.8,2c0,0.8,0.8,1.4,1.6,1.8c2.7,1.5,6,1.9,9.1,1.2
				c1.5-0.3,3-1.6,1.6-3C184.6,128.3,183,127.5,181.4,127.1L181.4,127.1z"/>
			<path class="st29" d="M175,130.8c-2.1,0.3-3.9,2.1-5.1,4c-1.3,1.9-2.2,4.1-3.6,5.9c-1.1,1.5-2.6,2.7-3.6,4.3
				c-1,1.6-1.6,3.7-0.7,5.5c0.8,1.6,2.6,2.4,4.3,2.4c1.2,0,2.6-0.3,3.4-1.4c0.6-0.8,0.8-1.8,0.8-2.8c0-0.2,0-0.4-0.1-0.6
				c-0.1-1.2,0.3-2.3,1.1-3.1c0.2-0.3,0.5-0.5,0.7-0.8c1.4-1.9,2.7-4,3.3-6.4C176.1,135.5,176.1,132.9,175,130.8L175,130.8z"/>
			<path class="st29" d="M175.2,138.5c0.1-0.2,0.1-0.4,0.2-0.6c0.7-2.3,0.7-5-0.4-7.1c-2.1,0.3-3.9,2.1-5.1,4
				c-1.3,1.9-2.2,4.1-3.6,5.9c-1.1,1.5-2.6,2.7-3.6,4.3c-1,1.6-1.6,3.7-0.7,5.5c0.8,1.6,2.6,2.4,4.3,2.4c1.2,0,2.6-0.3,3.4-1.4
				c0.6-0.8,0.8-1.8,0.8-2.8c0-0.2,0-0.4-0.1-0.6c0,0,0-0.1,0-0.1c-0.4-0.9-0.9-1.7-1.5-2.5C171.2,143.5,173.5,141.1,175.2,138.5
				L175.2,138.5z"/>
			<path class="st54" d="M168.8,145.4c0.6,0.8,1.1,1.6,1.5,2.5c-0.1-1.1,0.3-2.2,1.1-3c0.2-0.3,0.5-0.5,0.7-0.8
				c1.3-1.8,2.4-3.6,3.2-5.7C173.5,141.1,171.2,143.5,168.8,145.4L168.8,145.4z"/>
			<path class="st50" d="M184.2,164.5c1.2-1.4,2.1-2.8,2.3-3.9l-15.5-2.9c-0.5,1.3-1.2,2.5-1.6,3.8
				C174.1,163.3,179.3,164.5,184.2,164.5L184.2,164.5z"/>
			<g>
				<g>
					<path class="st8" d="M182,221.3l3.2-0.1c0.9,0.9,6.3,2.1,6.6,3.4h-10.5C181.4,223.4,181.6,222.3,182,221.3L182,221.3z"/>
					<path class="st23" d="M191.8,224.5c0,0.1,0.1,0.2,0.1,0.4c0,0.2-0.1,0.4-0.3,0.4h-10.1c-0.2,0-0.3-0.1-0.3-0.3
						c0-0.1,0-0.3,0-0.4H191.8L191.8,224.5z"/>
				</g>
				<path class="st50" d="M189.9,159.6c-4.7,1.7-6.8,1.1-11.7,1c-0.4,2.8,1.3,8.6,1.3,8.6l0.2,4.3h11.9
					C191.5,168.6,191,163.7,189.9,159.6L189.9,159.6z"/>
				<path class="st62" d="M179.6,173.5l0.1,2l11.7,0.1c0.1-0.7,0.1-1.4,0.1-2.2H179.6L179.6,173.5z"/>
				<g>
					<path class="st8" d="M177,221.3l-3.2-0.1c-0.9,0.9-2.4,2.1-2.7,3.4h6.6C177.6,223.4,177.3,222.3,177,221.3L177,221.3z"/>
					<path class="st23" d="M171.1,224.5c0,0.1-0.1,0.2-0.1,0.4c0,0.2,0.1,0.4,0.3,0.4h6.2c0.2,0,0.3-0.1,0.3-0.3c0-0.1,0-0.3,0-0.4
						H171.1L171.1,224.5z"/>
				</g>
				<path class="st23" d="M179.6,169.2c0,0,2.6-2.3,4.6-4.7c-4.9,0.1-10.1-1.2-14.8-2.9c-1.1,3.9-1.7,7.9-1.8,12h11.8L179.6,169.2
					L179.6,169.2z"/>
				<path class="st63" d="M167.6,173.5c-0.1,0.7-0.1,1.5,0,2.2h11.8v-2.2H167.6L167.6,173.5z"/>
			</g>
			<path class="st29" d="M188.6,149c0-5.7,0.6-10.4,0.9-16.1c0-0.6-0.2-1.3-0.7-1.6c-8.2-4.2-14.2-0.8-15.6,0.2
				c-0.7,0.5-1,1.4-0.7,2.2c1.5,4.8,1.4,9.1,0.6,14.1c-0.6,3.8-4.8,8.4-3.7,13.3c6.6,3,14.5,2.7,21.7,1.3
				C192.9,158.9,188.6,152.1,188.6,149L188.6,149z"/>
			<g>
				<path class="st61" d="M178.9,122.1c0.3,2.4,0.4,4.8,0.4,7.2c0,0.5,0.2,1,0.5,1.2c0.8,0.7,1.8,1,2.7,0.7c0.4-0.1,0.7-0.8,0.6-1.4
					c-0.2-1.5-0.3-3-0.4-4.6C181.6,123.6,180.3,122.7,178.9,122.1z"/>
				<path class="st64" d="M182.6,125.2c-1-1.6-2.3-2.5-3.7-3.1c0.1,0.6,0.1,1.3,0.2,1.9c1,1.9,2.3,3.8,3.8,4.7
					C182.8,127.6,182.7,126.4,182.6,125.2L182.6,125.2z"/>
			</g>
			<path class="st54" d="M188.4,161.5c-2.2,0.6-4.5,1-6.7,1.1c-2.3,0.1-4.6-0.1-6.8-0.6c-1.3-0.3-2.5-0.6-3.7-1.1
				c-0.2-0.1-0.3,0.2-0.1,0.3c2.1,0.8,4.4,1.3,6.7,1.6c2.3,0.3,4.6,0.2,6.9-0.1c1.3-0.2,2.6-0.4,3.8-0.8
				C188.7,161.7,188.6,161.4,188.4,161.5L188.4,161.5z"/>
			<g>
				<g>
					<path class="st61" d="M185.3,117.7c0.8,3.7-0.1,8-1.1,8.1c-3.2,0.5-5.4-2.5-5.4-2.6c0,0-0.5,0.3-0.7,0.4
						c-0.3,0.1-0.7-0.2-0.9-0.4c-0.4-0.4-0.9-1-0.7-1.6c0.2-0.7,1.3-1,1.8-0.4c1-1.9,0.1-2.9,0.1-4.3c1.6-1.3,3.7-1.8,5.8-1.6
						C184.4,115.4,185.2,117.3,185.3,117.7L185.3,117.7z"/>
					<path class="st50" d="M181.5,119.3C181.5,119.3,181.5,119.3,181.5,119.3c-0.1-0.1-0.2-0.1-0.2-0.1c0,0-0.1,0-0.1,0
						c0,0-0.1,0-0.1,0c-0.1,0-0.1,0.1-0.1,0.1c0,0,0,0.1,0,0.1c0,0.1,0,0.1,0,0.2l0,0c0,0,0,0.1,0.1,0.1c0,0,0.1,0.1,0.1,0.1
						c0,0,0.1,0,0.1,0c0,0,0.1,0,0.1,0l0.1,0c0.1,0,0.1-0.1,0.1-0.1c0,0,0-0.1,0-0.1c0-0.1,0-0.1,0-0.2l0,0
						C181.6,119.4,181.6,119.4,181.5,119.3z"/>
					<path class="st50" d="M184.7,118.8C184.7,118.7,184.6,118.7,184.7,118.8c-0.1-0.1-0.2-0.1-0.2-0.1c0,0-0.1,0-0.1,0
						c0,0-0.1,0-0.1,0c-0.1,0-0.1,0.1-0.1,0.1c0,0,0,0.1,0,0.1c0,0.1,0,0.1,0,0.2l0,0c0,0,0,0.1,0.1,0.1c0,0,0.1,0.1,0.1,0.1
						c0,0,0.1,0,0.1,0c0,0,0.1,0,0.1,0l0.1,0c0.1,0,0.1-0.1,0.1-0.1c0,0,0-0.1,0-0.1c0-0.1,0-0.1,0-0.2l0,0
						C184.7,118.9,184.7,118.8,184.7,118.8z"/>
					<path class="st64" d="M178,122.6c-0.1,0.1-0.2,0-0.3-0.1c0-0.1,0-0.1,0-0.2c0-0.1,0.1-0.1,0.1-0.1c0.1,0,0.1-0.1,0.1-0.2
						c-0.2-0.3-0.5-0.6-0.9-0.5c-0.2,0.1-0.3,0.2-0.3,0.4c0,0.1,0,0.2,0,0.2c0,0,0.1,0.1,0.2,0.1c0,0,0-0.1,0-0.1c0-0.1,0-0.1,0-0.2
						c0-0.1,0.1-0.2,0.2-0.2c0.2,0,0.4,0.1,0.5,0.3c-0.2,0.1-0.2,0.4-0.1,0.5c0.1,0.2,0.4,0.3,0.6,0.2
						C178.3,122.7,178.2,122.5,178,122.6L178,122.6z"/>
				</g>
				<path class="st60" d="M182,117.4c-0.7,0.1-1.3,0.3-1.9,0.7c-0.2,0.1,0,0.3,0.2,0.2c0.5-0.4,1.1-0.6,1.7-0.7
					c0.1,0,0.1-0.1,0.1-0.2C182.2,117.4,182.1,117.4,182,117.4z"/>
				<path class="st60" d="M185.1,117.5c-0.3-0.3-0.8-0.4-1.2-0.4c-0.1,0-0.1,0.1-0.1,0.2c0,0.1,0.1,0.1,0.2,0.1c0,0,0.1,0,0.1,0h0
					c0,0,0,0,0,0c0,0,0,0,0.1,0c0,0,0.1,0,0.1,0c0,0,0,0,0,0h0c0,0,0,0,0,0c0,0,0,0,0,0c0,0,0.1,0,0.1,0c0,0,0,0,0.1,0c0,0,0,0,0,0
					l0,0c0,0,0,0,0,0c0,0,0.1,0,0.1,0.1c0,0,0,0,0.1,0c0,0,0,0,0,0l0,0c0.1,0.1,0.1,0.1,0.2,0C185.1,117.6,185.1,117.5,185.1,117.5
					L185.1,117.5z"/>
				<path class="st64" d="M184,124c-0.3,0-0.7,0.1-1,0.1c-0.1,0-0.1,0.1-0.1,0.2c0,0.1,0.1,0.1,0.2,0.1c0.3,0,0.7-0.1,1-0.1
					c0.1,0,0.1-0.1,0.1-0.2C184.1,124,184.1,123.9,184,124z"/>
				<path class="st64" d="M184.4,121.1c-0.1-0.2-0.3-0.3-0.5-0.4c-0.1-0.1-0.3-0.2-0.4-0.3c0-0.1-0.1-0.1-0.2-0.1
					c-0.1,0-0.1,0.1-0.1,0.2c0.1,0.3,0.5,0.4,0.7,0.6c0.1,0.1,0.2,0.2,0.1,0.3c-0.1,0.1-0.3,0.2-0.4,0.4c-0.1,0.1-0.1,0.1,0,0.2
					c0.1,0.1,0.2,0.1,0.2,0c0.1-0.1,0.3-0.2,0.4-0.4C184.5,121.5,184.5,121.3,184.4,121.1L184.4,121.1z"/>
				<path class="st50" d="M183.9,123.1c0-0.1-0.1-0.1-0.2-0.1c-0.4,0.2-0.9,0.2-1.4,0.1c-0.1,0-0.2,0-0.2,0.1c0,0.1,0,0.2,0.1,0.2
					c0.5,0.1,1.1,0.1,1.6-0.1C183.9,123.3,184,123.2,183.9,123.1L183.9,123.1z"/>
			</g>
			<g>
				<path class="st54" d="M177.2,153c-0.3,1.8-1.3,3.5-2.8,4.5c-0.2,0.1,0,0.3,0.2,0.2c1.6-1.1,2.6-2.8,2.9-4.7
					C177.6,152.8,177.3,152.8,177.2,153L177.2,153z"/>
				<path class="st54" d="M186.6,152.6c-3.1,0.1-6.2,0.2-9.2,0.3c-0.2,0-0.2,0.3,0,0.3c3.1-0.1,6.2-0.2,9.2-0.3
					C186.8,152.9,186.8,152.6,186.6,152.6z"/>
				<path class="st54" d="M188.5,156.4c-1.2-0.8-1.9-2.2-1.8-3.7c0-0.2-0.3-0.2-0.3,0c-0.1,1.5,0.6,3.1,1.9,3.9
					C188.5,156.7,188.6,156.5,188.5,156.4L188.5,156.4z"/>
			</g>
			<path class="st61" d="M176.9,154.3l-9.3-7.1c0,0-2.2,1.1-2.1,4.1l10.1,5.2C175.5,156.5,176.4,155.5,176.9,154.3z"/>
			<path class="st54" d="M167.7,147.1c-1.7,0.8-2.8,2.8-2.6,4.7c0,0.2,0.3,0.1,0.3-0.1c-0.2-1.8,0.8-3.6,2.4-4.3
				C168,147.3,167.8,147,167.7,147.1L167.7,147.1z"/>
			<path class="st54" d="M169.2,147.1c-0.8-1-2.2-1.3-3.3-0.8c-0.2,0.1,0,0.3,0.1,0.3c1-0.4,2.2-0.1,2.9,0.8
				C169.1,147.4,169.3,147.2,169.2,147.1L169.2,147.1z"/>
			<path class="st54" d="M173.6,137.7c0-0.2-0.3-0.2-0.3,0c0.2,2.9,0.1,5.8-0.2,8.6c0,0.2,0.3,0.2,0.3,0
				C173.7,143.5,173.8,140.6,173.6,137.7z"/>
			<path class="st54" d="M183.9,129.5c-0.1-0.2-0.4-0.1-0.3,0.1c0.2,0.7-0.1,1.4-0.5,1.9c-0.2,0.3-0.4,0.5-0.6,0.7
				c-0.3,0.2-0.6,0.2-0.9,0c-0.3-0.2-0.5-0.4-0.8-0.6c-0.3-0.2-0.6-0.4-0.8-0.6c-0.6-0.3-1.2-0.6-1.8-0.8c-0.7-0.2-1.5-0.5-1.6-1.3
				c0-0.2-0.3-0.1-0.3,0.1c0.1,0.7,0.8,1.1,1.4,1.3c0.7,0.3,1.5,0.5,2.2,0.9c0.3,0.2,0.6,0.4,1,0.6c0.3,0.2,0.5,0.5,0.9,0.7
				c0.7,0.3,1.2-0.2,1.6-0.7C183.7,131.2,184.2,130.3,183.9,129.5L183.9,129.5z"/>
			<path class="st8" d="M179,133.2c-0.1-0.2-0.4-0.1-0.3,0.1c0.7,1.9,0.8,3.9,0.5,5.8c0,0.2,0.3,0.2,0.3,0
				C179.9,137.1,179.7,135.1,179,133.2L179,133.2z"/>
			<path class="st8" d="M184.3,132.7c-0.1-0.2-0.4-0.1-0.3,0.1c0.7,2.1,0.8,4.5,0.3,6.7c0,0.2,0.2,0.3,0.3,0.1
				C185.1,137.3,185,134.9,184.3,132.7L184.3,132.7z"/>
			<path class="st61" d="M173.8,221.2l-1.8-10c-0.6-3.4-0.9-10.4-0.8-13.9l0.1-3.6l-3-17.9h10.6l-2.9,18.5l0.4,1.8
				c0.8,4.1,1.2,11.8,1,16l-0.4,9.3L173.8,221.2L173.8,221.2z"/>
			<path class="st61" d="M191.4,175.7l-6.2,45.5H182l-0.5-12.3c-0.2-3.5,0.4-10.7,1.5-14l0,0l-2.8-19.3L191.4,175.7L191.4,175.7z"/>
			<polygon class="st64" points="178.8,175.7 168.2,175.7 168.4,176.7 178.7,176.7 			"/>
			<path class="st61" d="M176,194.2l2.7-17.5h-10.3l2.8,17l-0.1,3.6c-0.1,3.4,0.2,10.5,0.8,13.9l1.8,10l3.2,0.1l0.4-9.3
				c0.2-4.1-0.2-11.9-1-16L176,194.2L176,194.2z"/>
			<polygon class="st64" points="191.4,175.7 180.2,175.6 180.4,176.7 191.3,176.7 			"/>
			<path class="st61" d="M180.4,176.7l2.6,18.2l0,0c-1.2,3.3-1.7,10.5-1.5,14l0.5,12.3h3.2l6.1-44.5L180.4,176.7L180.4,176.7z"/>
			<path class="st61" d="M199.7,109.8L199.7,109.8l1.8-3.5l-2-1.5l-1.9,0.7l-0.3,2.9c-0.1,0.4-0.2,0.7-0.2,1.2L199.7,109.8
				L199.7,109.8z"/>
			<polygon class="st29" points="199.3,70.9 206.1,84.5 221.2,86.7 210.3,97.4 212.8,112.4 199.3,105.3 185.8,112.4 188.4,97.4 
				177.5,86.7 192.6,84.5 			"/>
			<path class="st51" d="M183.5,85.9l-6,0.9l10.9,10.7l-2.6,15l13.5-7.1l13.5,7.1l-2.2-12.8C200.1,99.2,189.7,94.3,183.5,85.9
				L183.5,85.9z"/>
			<g>
				<path class="st61" d="M197.6,109.4c0.4-0.3,0.7-0.9,0.7-1.5c0-0.6-0.3-1.2-0.7-1.5c-0.1-1-0.7-1.8-1.5-2c0.5,1.7,0.9,3.5,1,5.3
					L197.6,109.4L197.6,109.4z"/>
				<path class="st64" d="M197,104.9c0.3,0.1,0.4,0.5,0.4,0.9c0,0.2,0.1,0.4,0.2,0.6c0.1,0.2,0.3,0.2,0.4,0.4c0.3,0.2,0.4,0.6,0.5,1
					c0,0.5-0.1,0.9-0.2,1.4c0,0.1-0.2,0-0.1-0.1c0.1-0.4,0.2-0.9,0.2-1.3c0-0.4-0.3-0.7-0.5-0.9c-0.1-0.1-0.2-0.2-0.3-0.3
					c-0.1-0.1-0.1-0.3-0.1-0.5c-0.1-0.3-0.1-0.8-0.4-0.9C196.8,105.1,196.9,104.9,197,104.9L197,104.9z"/>
			</g>
			<path class="st60" d="M182.6,115.6c-0.3,0.3-0.7,0.6-1.1,0.8c-0.4,0.3-0.8,0.6-0.9,0.9c-0.2,0.4,0,0.9,0,1.4c0,0.6-0.4,1.2-1,1.6
				c-0.6,0.4-1.4,0.6-2.1,0.5c-0.1-1.4-0.1-3,0.7-4.2c0.6-0.8,1.5-1.5,2.6-1.8C181.7,114.5,183.7,114.3,182.6,115.6L182.6,115.6z"/>
		</g>
		<g>
			<path class="st23" d="M76.8,119.6c-0.5,0.6-0.9,1.2-1.3,1.7c-2.7,0.6-3.5,1.4-4.6,3.9l2,9.5c3.9-1.3,6.8-5.2,9.4-8.4
				c0.2-0.3,0.4-0.5,0.7-0.8c-0.2,0-0.4,0-0.6-0.1C79.5,125,77.1,122.4,76.8,119.6z"/>
			<path class="st65" d="M85.6,116.5c-0.4-1.3-1.3-2.6-2.7-2.6c-0.7,0-1.4,0.5-1.9,0.9c-1.3,1.1-2.8,3-4.2,4.8
				c0.3,2.8,2.7,5.4,5.5,5.8c0.2,0,0.4,0.1,0.6,0.1C85.1,122.7,86.7,120.1,85.6,116.5L85.6,116.5z"/>
			<path class="st65" d="M59.2,125.9c0-0.8-0.4-1.5-0.9-2.1c-0.5-0.5-1.3-0.9-2-1.1c-1.6-0.5-3.3-0.5-4.9-0.1
				c-2.9-1.9-5.6-4-8.2-6.3c-1.6,1.2-3.3,3.8-4.6,5.3c5,6.1,11.5,10.2,18.9,12.9L59.2,125.9L59.2,125.9z"/>
			<path class="st23" d="M59.2,125.9c0-0.8-0.4-1.5-0.9-2.1c-0.5-0.5-1.3-0.9-2-1.1c-1.6-0.5-3.3-0.5-4.9-0.1
				c-0.9-0.6-1.7-1.2-2.6-1.8c-1.8,2.2-2.6,4.9-2.9,7.8c3.5,2.5,7.4,4.4,11.5,6L59.2,125.9L59.2,125.9z"/>
			<path class="st50" d="M56,134c-3.3-2.6-6.5-5.3-9.7-8c-0.2,0.8-0.4,1.7-0.5,2.6C49,130.8,52.4,132.5,56,134L56,134z"/>
			<g>
				<g>
					<g>
						<path class="st54" d="M55.6,159.9c10.3,1.2,10.1,7.6,10.1,7.6l-4.1,26.6l-3,23.2h-4.9C51.6,186.8,55.6,159.9,55.6,159.9
							L55.6,159.9z"/>
						<path class="st29" d="M63,167.1c0,0-4.6-3.2-5.1-6l17.1,0.7c0,0,2.9,36,2.8,55.5h-4.9L63,167.1L63,167.1z"/>
						<path class="st65" d="M77.4,217.3c0,0.7,0,1.4,0,2.1h-3.9l-0.2-2.1H77.4L77.4,217.3z"/>
						<path class="st65" d="M58.2,217.3c0,0.7,0,1.4,0,2.1h-3.9l-0.2-2.1H58.2L58.2,217.3z"/>
						<path class="st54" d="M59.4,164c-0.9-1-1.7-2.1-1.9-3.2l17.3-0.9c0,0,0.1,2,0.2,2.9C69.9,164.1,64.6,164.5,59.4,164L59.4,164z
							"/>
					</g>
					<g>
						<path class="st23" d="M73.3,219.1l4.5-0.1c1.3,1.4,2.2,3.2,2.6,5.2h-8.2C72.4,222.4,72.7,220.7,73.3,219.1L73.3,219.1z"/>
						<path class="st54" d="M80.4,224.1c0,0.2,0.1,0.4,0.1,0.6c0.1,0.3-0.1,0.6-0.4,0.6h-7.5c-0.2,0-0.4-0.2-0.4-0.5
							c0-0.2,0-0.4,0.1-0.6L80.4,224.1L80.4,224.1z"/>
					</g>
					<g>
						<path class="st23" d="M58.5,219.1l-4.5-0.1c-1.3,1.4-8.9,3.2-9.3,5.2h14.9C59.3,222.4,59,220.7,58.5,219.1z"/>
						<path class="st54" d="M44.6,224.1c0,0.2-0.1,0.4-0.1,0.6c-0.1,0.3,0.1,0.6,0.4,0.6h14.2c0.2,0,0.4-0.2,0.4-0.5
							c0-0.2,0-0.4-0.1-0.6L44.6,224.1L44.6,224.1z"/>
					</g>
				</g>
				<path class="st54" d="M73.8,196.1c0.6-1,1.1-2.1,1.6-3.2c0.5-1.1,0.8-2.3,1.1-3.5c0-0.1,0.2-0.1,0.2,0.1
					c-0.2,1.2-0.6,2.4-1.1,3.5c-0.5,1.1-1,2.3-1.7,3.2C73.9,196.4,73.7,196.2,73.8,196.1L73.8,196.1z"/>
			</g>
			<path class="st23" d="M56,127.1c0.1-1.4,1-2.6,2.3-3.2c2.8-1.2,5.8-1.5,8.8-1.3c2.7,0.2,5.4,0.8,8.1,1.6c1.7,0.5,2.8,2.3,2.5,4.1
				c-1.6,10.2-2.3,20.7-1.9,31c0,0.7,0.1,1.6-0.6,1.8c-5.9,1.8-14.3,2.1-19.9,0.6c-1.4-0.4-0.3-1.7-0.3-3.1
				C55,148.4,55.5,137.3,56,127.1L56,127.1z"/>
			<g>
				<path class="st65" d="M69,116.1c-0.2,2.3-0.1,4.6,0.2,6.9c0.1,0.5-0.1,0.9-0.5,1.2c-1.1,0.7-2.4,1.1-3.7,0.9
					c-0.6-0.1-1.1-0.7-1-1.3c0.1-1.5,0.2-2.9,0.1-4.4C65.3,117.7,67.1,116.7,69,116.1L69,116.1z"/>
				<path class="st66" d="M64.1,119.3c1.3-1.6,3-2.6,4.9-3.2c-0.1,1-0.1,2-0.1,2.9c-0.9,2.4-2.5,4.7-4.6,5.7c-0.3-0.3-0.4-0.6-0.4-1
					C64.1,122.2,64.1,120.8,64.1,119.3L64.1,119.3z"/>
				<path class="st50" d="M69.4,115.5c0.3-1,0.5-2,0.8-3c0.1-0.5,0.3-1.1,0.2-1.6c-0.1-0.5-0.5-1-1.1-1c-1.4-2.1-4-3.3-6.5-3
					c-0.9,0.1-1.8,0.4-2.3,1c-0.7,0.7-0.8,1.8-0.8,2.8c0,1.2,0.5,1.3,1.4,2.2c0.8,0.8,1.7,2.3,2.8,2.5
					C65.7,115.8,67.5,115.8,69.4,115.5L69.4,115.5z"/>
				<path class="st50" d="M69.2,115.5c0.2-0.9,0.5-1.8,0.7-2.7c0.1-0.5,0.3-1,0.2-1.5c-0.1-0.5-0.5-0.9-1-1c-1.3-1.9-3.6-3-5.9-2.7
					c-0.8,0.1-1.6,0.4-2.1,1c-0.6,0.7-0.8,1.7-0.8,2.6c0,1.1,0.5,1.2,1.2,2c0.7,0.8,1.5,2.1,2.5,2.3
					C65.8,115.8,67.4,115.8,69.2,115.5L69.2,115.5z"/>
				<g>
					<path class="st65" d="M60.9,112.4c-0.4,3.2,0.9,8.9,2.7,8.9c3.8,0.1,4.6-2.2,5.2-4.6c0,0,0.3,0.2,0.5,0.2
						c0.3,0,0.6-0.3,0.8-0.6c0.3-0.4,0.6-1.1,0.3-1.6c-0.4-0.6-1.2-0.7-1.6,0c0-1.2-0.4-2.3-0.8-3.3c-0.1-0.3-0.4-0.6-0.7-0.7
						c-1.7-0.6-3.8-0.6-5.5-0.1c-0.3,0.1-0.6,0.4-0.7,0.7C61,111.6,60.9,112.1,60.9,112.4L60.9,112.4z"/>
					<path class="st50" d="M67.1,117.6c-1.9-0.5-4-0.3-5.7,0.6c0.5,1.7,1.2,3,2.1,3.1c3.6,0.1,4.5-2,5.1-4.2l0.2-2.5
						C68.3,115.6,67.7,116.6,67.1,117.6L67.1,117.6z"/>
					<path class="st65" d="M70.3,114.7c-0.3-0.5-0.9-0.7-1.3-0.3c0,0.1-0.1,0.1-0.1,0.2l-0.2,2.5c0-0.1,0.1-0.2,0.1-0.3
						c0,0,0.3,0.2,0.5,0.2c0.3,0,0.6-0.3,0.8-0.6C70.4,115.9,70.7,115.2,70.3,114.7z"/>
					<path class="st65" d="M68.8,114.7c0-1.2-0.4-2.3-0.8-3.3c-0.1-0.3-0.4-0.6-0.7-0.7c-1.7-0.6-3.8-0.6-5.5-0.1
						c-0.3,0.1-0.6,0.4-0.7,0.7c-0.1,0.4-0.2,0.8-0.3,1.1c-0.2,1.7,0,4,0.6,5.9c1.7-0.9,3.8-1.1,5.7-0.6c0.6-1,1.2-2,1.8-3v-0.1
						C68.9,114.6,68.8,114.7,68.8,114.7L68.8,114.7z"/>
					<path class="st65" d="M68.9,114.5L68.9,114.5C68.9,114.5,69,114.5,68.9,114.5C69,114.5,68.9,114.5,68.9,114.5L68.9,114.5z"/>
					<path class="st50" d="M64.3,112.6c0.5-0.7,1.9-0.2,2.5,0.2c0.1,0.1,0.2,0.2,0.2,0.3c0,0.1,0,0.1-0.1,0.1
						c-0.2,0-0.3-0.1-0.4-0.2c-0.2-0.1-0.4-0.2-0.6-0.2c-0.2-0.1-0.5-0.1-0.7,0c-0.2,0-0.5,0.1-0.7,0.1
						C64.2,112.9,64.2,112.7,64.3,112.6L64.3,112.6z"/>
					<path class="st50" d="M65,113.7c0,0,0-0.1,0.1-0.1c0,0,0.1-0.1,0.1-0.1c0,0,0.1,0,0.1,0c0,0,0.1,0,0.1,0c0.1,0,0.1,0,0.1,0.1
						c0,0,0,0,0.1,0.1c0,0,0,0.1,0,0.2v0c0,0,0,0.1,0,0.1c0,0,0,0.1-0.1,0.1c0,0-0.1,0.1-0.1,0.1c0,0-0.1,0-0.1,0l-0.1,0
						c-0.1,0-0.1,0-0.1-0.1l0-0.1c0,0,0-0.1,0-0.2v0C65,113.8,65,113.7,65,113.7L65,113.7z"/>
					<path class="st50" d="M61.6,113.9c0,0,0-0.1,0.1-0.1c0,0,0.1-0.1,0.1-0.1c0,0,0.1,0,0.1,0c0,0,0.1,0,0.1,0c0.1,0,0.1,0,0.1,0.1
						c0,0,0,0,0,0.1c0,0,0,0.1,0,0.2v0c0,0,0,0.1,0,0.1c0,0,0,0.1-0.1,0.1c0,0-0.1,0.1-0.1,0.1c0,0-0.1,0-0.1,0l-0.1,0
						c-0.1,0-0.1,0-0.1-0.1c0,0,0,0-0.1-0.1c0,0,0-0.1,0-0.2v0C61.6,114,61.6,113.9,61.6,113.9L61.6,113.9z"/>
					<path class="st50" d="M61,113c0.1-0.2,0.4-0.4,0.6-0.4c0.2-0.1,0.5-0.1,0.7,0c0.1,0,0.2,0.1,0.2,0.3c0,0.2-0.2,0.2-0.3,0.2
						c-0.2,0-0.4,0-0.6,0.1C61.5,113.2,60.8,113.5,61,113C61,113.1,61,113,61,113L61,113z"/>
					<path class="st66" d="M69,115.9c0.1,0,0.2,0,0.3-0.1c0-0.1,0-0.1-0.1-0.2c0,0-0.1-0.1-0.1-0.1c-0.1,0-0.1-0.1-0.1-0.2
						c0.1-0.3,0.4-0.7,0.7-0.6c0.2,0,0.3,0.1,0.4,0.3c0,0.1,0,0.2,0,0.2c0,0-0.1,0.2-0.1,0.1c0,0,0-0.1,0-0.1c0,0,0-0.1-0.1-0.1
						c-0.1-0.1-0.2-0.1-0.3-0.1c-0.2,0-0.3,0.2-0.4,0.3c0.2,0.1,0.3,0.3,0.2,0.5c-0.1,0.2-0.3,0.4-0.5,0.3
						C68.9,116.1,68.9,115.9,69,115.9L69,115.9z"/>
				</g>
			</g>
			<path class="st50" d="M59.6,159.9c2.4,0.2,4.9-0.2,7.2-1.2c2.1-0.9,3.9-2.4,5.2-4.2c0.8-1,1.4-2.1,1.9-3.2c0.1-0.2,0.3,0,0.3,0.1
				c-0.9,2.1-2.3,4-4,5.4c-1.8,1.6-4.1,2.6-6.4,3.1c-1.4,0.3-2.8,0.3-4.2,0.2C59.4,160.1,59.5,159.9,59.6,159.9L59.6,159.9z"/>
			<path class="st50" d="M64.1,125.6c1.9,0.6,4.1,0,5.6-1.3c0.1-0.1,0.3,0.1,0.2,0.2c-1.5,1.5-3.8,2-5.9,1.4
				C63.9,125.8,64,125.5,64.1,125.6L64.1,125.6z"/>
			<path class="st66" d="M62.4,115.3c0.2-0.3,0.5-0.5,0.5-0.9c0-0.2,0.3-0.1,0.3,0.1c-0.1,0.6-0.7,0.9-0.9,1.5
				c-0.1,0.3,0,0.7,0.2,0.9c0.2,0.2,0.6,0.3,0.9,0.2c0.2-0.1,0.3,0.2,0.1,0.3c-0.8,0.2-1.6-0.3-1.5-1.1
				C62,115.8,62.2,115.5,62.4,115.3L62.4,115.3z"/>
			<path class="st50" d="M65.5,118.2c-0.5,0.7-1.5,1.1-2.3,0.9c-0.2,0-0.3,0.2-0.1,0.3c1,0.2,2.1-0.2,2.7-1
				C65.9,118.2,65.6,118,65.5,118.2L65.5,118.2z"/>
			<g>
				<polygon class="st29" points="61.4,62.4 68.1,76.1 83.2,78.3 72.3,88.9 74.9,104 61.4,96.9 47.9,104 50.4,88.9 39.5,78.3 
					54.6,76.1 				"/>
				<path class="st51" d="M45.6,77.4l-6,0.9l10.9,10.7l-2.6,15l13.5-7.1l13.5,7.1l-2.2-12.8C62.2,90.7,51.7,85.8,45.6,77.4
					L45.6,77.4z"/>
			</g>
			<g>
				<g>
					<path class="st65" d="M51.9,98c0.2,0,0.4,0,0.5,0c0.2,0.1,0.3,0.2,0.4,0.4c0,0.2-0.1,0.4-0.3,0.5c-0.2,0.1-0.4,0.1-0.6,0.1
						c-0.7,0.1-1.4,0.4-2,0.9c-0.3,0.2-0.6,0.5-0.9,0.7c-1.2,0.7-2.1-0.6-0.9-1.3C49.2,98.6,50.6,98.2,51.9,98L51.9,98z"/>
					<path class="st65" d="M52.6,99.1c0.2,0,0.4,0,0.5,0c0.2,0.1,0.3,0.2,0.4,0.4c0,0.2-0.1,0.4-0.3,0.5c-0.2,0.1-0.4,0.1-0.6,0.1
						c-0.7,0.1-1.4,0.4-2,0.9c-0.3,0.2-0.6,0.5-0.9,0.7c-1.2,0.7-2.1-0.6-0.9-1.3C49.9,99.7,51.3,99.3,52.6,99.1L52.6,99.1z"/>
					<path class="st65" d="M52.4,100.4c0.2,0,0.4,0,0.5,0s0.3,0.2,0.4,0.4c0,0.2-0.1,0.4-0.3,0.5c-0.2,0.1-0.4,0.1-0.6,0.1
						c-0.7,0.1-1.4,0.4-2,0.9c-0.3,0.2-0.6,0.5-0.9,0.7c-1.2,0.7-2.1-0.6-0.9-1.3C49.7,101,51.1,100.5,52.4,100.4L52.4,100.4z"/>
					<path class="st65" d="M51.8,101.7c0.1,0,0.3,0,0.4,0c0.1,0,0.3,0.1,0.3,0.3c0,0.2-0.1,0.3-0.3,0.4c-0.2,0.1-0.3,0.1-0.5,0.1
						c-0.6,0.1-1.2,0.3-1.7,0.7c-0.2,0.2-0.5,0.4-0.7,0.6c-0.9,0.5-1.7-0.5-0.7-1.1C49.6,102.1,50.7,101.8,51.8,101.7L51.8,101.7z"
						/>
					<path class="st65" d="M47.9,99.4c-0.6,0.5-1,0.9-1.4,1.6c-0.5,0.7-0.7,1.6-0.6,2.4c0.2,0.8,0.9,1.5,1.7,1.6
						c0.5,0,1-0.2,1.4-0.5c0.8-0.6,1.3-1.6,1.3-2.7c0-1-0.5-2-1.3-2.7L47.9,99.4L47.9,99.4z"/>
				</g>
				<path class="st65" d="M46.8,101.7c-1.9,2.3-9.2,13.7-9.2,16.6c0,1.5,0.5,3.1,1.7,4.2c1.3,1.1,2.8,0.9,3.7-0.6
					c1.5-2.7,4.6-14.6,5.3-18.2L46.8,101.7L46.8,101.7z"/>
			</g>
			<g>
				<g>
					<path class="st65" d="M71,96.9c-0.2,0-0.4,0-0.5,0c-0.2,0.1-0.3,0.2-0.4,0.4c0,0.2,0.1,0.4,0.3,0.5c0.2,0.1,0.4,0.1,0.6,0.1
						c0.7,0.1,1.4,0.4,2,0.9c0.3,0.2,0.6,0.5,0.9,0.7c1.2,0.7,2.1-0.6,0.9-1.3C73.7,97.5,72.3,97,71,96.9L71,96.9z"/>
					<path class="st65" d="M70.3,98c-0.2,0-0.4,0-0.5,0c-0.2,0.1-0.3,0.2-0.4,0.4c0,0.2,0.1,0.4,0.3,0.5c0.2,0.1,0.4,0.1,0.6,0.1
						c0.7,0.1,1.4,0.4,2,0.9c0.3,0.2,0.6,0.5,0.9,0.7c1.2,0.7,2.1-0.6,0.9-1.3C73,98.6,71.7,98.2,70.3,98L70.3,98z"/>
					<path class="st65" d="M70.5,99.3c-0.2,0-0.4,0-0.5,0s-0.3,0.2-0.4,0.4c0,0.2,0.1,0.4,0.3,0.5s0.4,0.1,0.6,0.1
						c0.7,0.1,1.4,0.4,2,0.9c0.3,0.2,0.6,0.5,0.9,0.7c1.2,0.7,2.1-0.6,0.9-1.3C73.2,99.8,71.9,99.4,70.5,99.3L70.5,99.3z"/>
					<path class="st65" d="M71.1,100.6c-0.1,0-0.3,0-0.4,0c-0.1,0-0.3,0.1-0.3,0.3c0,0.2,0.1,0.3,0.3,0.4c0.2,0.1,0.3,0.1,0.5,0.1
						c0.6,0.1,1.2,0.3,1.7,0.7c0.2,0.2,0.5,0.4,0.7,0.6c0.9,0.5,1.7-0.5,0.7-1.1C73.3,101,72.2,100.7,71.1,100.6L71.1,100.6z"/>
					<path class="st65" d="M75,98.3c0.6,0.5,1,0.9,1.4,1.6c0.5,0.7,0.7,1.6,0.6,2.4c-0.2,0.8-0.9,1.5-1.7,1.6c-0.5,0-1-0.2-1.4-0.5
						c-0.8-0.6-1.3-1.6-1.3-2.7c0-1,0.5-2,1.3-2.7L75,98.3L75,98.3z"/>
				</g>
				<path class="st65" d="M76.2,100.5c1.9,2.3,9.2,13.7,9.2,16.6c0,1.5-0.5,3.1-1.7,4.2c-1.3,1.1-2.8,0.9-3.7-0.6
					c-1.5-2.7-4.6-14.6-5.3-18.2L76.2,100.5L76.2,100.5z"/>
			</g>
			<path class="st50" d="M82.4,125.7c-1.8,2.2-3.7,4.3-5.5,6.5c-0.5,0.6-1.1,1.2-1.6,1.9c-0.1,0.1,0.1,0.4,0.2,0.2
				c1.8-2.2,3.7-4.3,5.5-6.5l1.6-1.9C82.8,125.8,82.6,125.5,82.4,125.7z"/>
			<path class="st50" d="M55.7,126.9c-0.2,2.5-0.3,5.1-0.4,7.6c-0.1,2.6-0.2,5.1-0.2,7.7c0,1.4,0,2.9,0,4.3c0,0.2,0.3,0.2,0.3,0
				c0-2.5,0-5.1,0.1-7.6c0.1-2.6,0.2-5.1,0.3-7.7c0.1-1.4,0.2-2.9,0.2-4.3C56,126.7,55.7,126.7,55.7,126.9L55.7,126.9z"/>
			<g>
				<path class="st50" d="M61.3,115.8c-0.8,0-1.5-0.7-1.5-1.5c0-0.8,0.7-1.5,1.5-1.5c0.8,0,1.5,0.7,1.5,1.5
					C62.8,115.1,62.2,115.8,61.3,115.8z M61.3,113c-0.7,0-1.3,0.6-1.3,1.3c0,0.7,0.6,1.3,1.3,1.3c0.7,0,1.3-0.6,1.3-1.3
					C62.7,113.6,62.1,113,61.3,113z"/>
				<path class="st50" d="M65,115.8c-0.8,0-1.5-0.7-1.5-1.5c0-0.8,0.7-1.5,1.5-1.5s1.5,0.7,1.5,1.5C66.4,115.1,65.8,115.8,65,115.8z
					 M65,113c-0.7,0-1.3,0.6-1.3,1.3c0,0.7,0.6,1.3,1.3,1.3c0.7,0,1.3-0.6,1.3-1.3C66.3,113.6,65.7,113,65,113z"/>
				<path class="st50" d="M62.8,113.9l-0.1-0.1c0.3-0.2,0.7-0.3,1,0l-0.1,0.1C63.3,113.7,63,113.7,62.8,113.9L62.8,113.9z"/>
				<path class="st50" d="M69.2,114.3c-0.9-0.3-1.9-0.5-2.9-0.3l0-0.1c1-0.1,2,0,3,0.3L69.2,114.3z"/>
			</g>
		</g>
		<rect x="34.4" y="225.3" class="st23" width="175" height="1.1"/>
	</g>
</g>
</svg>
