<?xml version="1.0" encoding="utf-8"?>
<!-- Generator: Adobe Illustrator 27.5.0, SVG Export Plug-In . SVG Version: 6.00 Build 0)  -->
<svg version="1.1" id="Calque_1" xmlns="http://www.w3.org/2000/svg" xmlns:xlink="http://www.w3.org/1999/xlink" x="0px" y="0px"
	 viewBox="0 0 250 250" style="enable-background:new 0 0 250 250;" xml:space="preserve">
<style type="text/css">
	.st0{fill:#F6B11A;}
	.st1{fill:#F38520;}
	.st2{fill:#01614D;}
	.st3{fill:#D7C25D;}
	.st4{fill:#F3E7D7;}
	.st5{fill:none;stroke:#FFD580;stroke-miterlimit:10;}
	.st6{fill:#F4B11C;}
	.st7{fill:#FFEDC8;}
	.st8{fill:#FFFFFF;}
	.st9{fill:url(#);}
	.st10{fill:#FAFBFB;}
	.st11{fill:#F5F6F6;}
	.st12{fill:#E0E1E0;}
	.st13{opacity:0.5;}
	.st14{fill:#386250;}
	.st15{fill:#FAFBFC;}
	.st16{fill:#273339;}
	.st17{fill:#D8822E;}
	.st18{opacity:0.2;}
	.st19{fill:#010101;}
	.st20{fill:#9F7463;}
	.st21{fill:#66473D;}
	.st22{opacity:0.7;fill:#03624E;enable-background:new    ;}
	.st23{fill:#03624E;}
	.st24{opacity:0.7;}
	.st25{opacity:0.4;}
	.st26{fill:#858259;}
	.st27{fill:#58512F;}
	.st28{fill:#F08421;}
	.st29{fill:#F4B01C;}
	.st30{opacity:0.4;fill:#FFFFFF;enable-background:new    ;}
	.st31{opacity:0.1;fill:#FFFFFF;enable-background:new    ;}
	.st32{fill:#465B65;}
	.st33{fill:#F2A235;}
	.st34{opacity:0.3;}
	.st35{fill:#A9B283;}
	.st36{fill:#147162;}
	.st37{fill:#FBBF9E;}
	.st38{fill:#AE7462;}
	.st39{fill:#6F453A;}
	.st40{opacity:0.3;fill:#010101;enable-background:new    ;}
	.st41{fill:#F28421;}
	.st42{fill:#7C8546;}
	.st43{fill:#F2B01C;}
</style>
<rect class="st8" width="250" height="250"/>
<g id="Plant">
	<g>
		<g>
			<rect x="67" y="54.9" class="st22" width="9" height="128.6"/>
			<g>
				<g class="st13">
					<rect x="17.2" y="54.9" class="st23" width="52.4" height="128.7"/>
				</g>
				<g class="st24">
					<rect x="20.7" y="59.2" class="st23" width="45.4" height="19.9"/>
				</g>
				<g class="st24">
					<rect x="20.7" y="84.3" class="st23" width="45.4" height="19.9"/>
				</g>
				<g class="st24">
					<rect x="20.7" y="109.4" class="st23" width="45.4" height="19.9"/>
				</g>
				<g>
					<g>
						<g>
							<g class="st13">
								<polygon class="st23" points="21.2,78.9 21.2,74.6 23.5,74.6 23.5,78.9 								"/>
							</g>
							<g class="st24">
								<path class="st23" d="M23.3,75.4c0,0-0.5,0-1.1,0c-0.6,0-1.1,0-1.1,0s0.5,0,1.1,0C22.8,75.3,23.3,75.4,23.3,75.4z"/>
							</g>
							<g class="st24">
								<path class="st23" d="M23.3,76c0,0-0.5,0-1.1,0c-0.6,0-1.1,0-1.1,0c0,0,0.5,0,1.1,0C22.8,76,23.3,76,23.3,76z"/>
							</g>
							<g class="st24">
								<path class="st23" d="M23.3,76.7c0,0-0.5,0-1.1,0c-0.6,0-1.1,0-1.1,0s0.5,0,1.1,0C22.8,76.7,23.3,76.7,23.3,76.7z"/>
							</g>
							<g class="st24">
								<path class="st23" d="M23.3,77.3c0,0-0.5,0-1.1,0c-0.6,0-1.1,0-1.1,0s0.5,0,1.1,0C22.8,77.3,23.3,77.3,23.3,77.3z"/>
							</g>
							<g class="st24">
								<path class="st23" d="M23.3,78c0,0-0.5,0-1.1,0c-0.6,0-1.1,0-1.1,0s0.5,0,1.1,0C22.8,78,23.3,78,23.3,78z"/>
							</g>
						</g>
						<path class="st11" d="M21,74.5h25.5c0.3,1.4,0.3,2.9,0,4.6H21.1v-0.3h1.6c0.4,0,0.7-0.3,0.7-0.7v-2.5c0-0.4-0.3-0.7-0.7-0.7
							H21L21,74.5L21,74.5z"/>
						<path class="st8" d="M45.6,79.2c0,0,0-1.1,0-2.3c0-1.3,0-2.3,0-2.3s0,1.1,0,2.3C45.6,78.1,45.6,79.2,45.6,79.2z"/>
						<path class="st8" d="M24.7,79.2c0,0,0-1.1,0-2.3c0-1.3,0-2.3,0-2.3s0,1.1,0,2.3C24.7,78.1,24.7,79.2,24.7,79.2z"/>
						<path class="st8" d="M46.1,79.2c0,0,0-1.1,0-2.3c0-1.3,0-2.3,0-2.3s0,1.1,0,2.3C46.1,78.1,46.1,79.2,46.1,79.2z"/>
						<path class="st8" d="M24.3,79.2c0,0,0-1.1,0-2.3c0-1.3,0-2.3,0-2.3s0,1.1,0,2.3C24.3,78.1,24.3,79.2,24.3,79.2z"/>
						<path class="st8" d="M29,76.1h13.5c0.3,0,0.5,0.2,0.5,0.5v0.2c0,0.3-0.2,0.5-0.5,0.5H29c-0.3,0-0.5-0.2-0.5-0.5v-0.2
							C28.5,76.3,28.8,76.1,29,76.1z"/>
					</g>
					<g>
						<path class="st11" d="M25.5,70.8v3.5h3.3v-3.5H25.5z"/>
						<g class="st13">
							<path class="st23" d="M43.8,70.5c0.5,1.2,0.4,2.6,0,4.1H25.3v-0.3h1.2c1,0,1.8-0.8,1.8-1.8l0,0c0-1-0.8-1.8-1.8-1.8h-1.2
								v-0.4L43.8,70.5L43.8,70.5z"/>
						</g>
						<path class="st8" d="M27.5,71c0,0,3.7,0,8.2,0c4.5,0,8.2,0,8.2,0s-3.7,0-8.2,0S27.5,71,27.5,71z"/>
						<path class="st8" d="M27.3,74.1c0,0,3.7,0,8.3,0s8.3,0,8.3,0c0,0-3.7,0-8.3,0S27.3,74.1,27.3,74.1z"/>
						<g class="st24">
							<path class="st23" d="M25.5,72.6c0,0,0.6,0,1.4,0c0.8,0,1.4,0,1.4,0s-0.6,0-1.4,0C26.1,72.5,25.5,72.6,25.5,72.6z"/>
						</g>
						<g class="st24">
							<path class="st23" d="M25.5,73.4c0,0,0.6,0,1.3,0s1.3,0,1.3,0s-0.6,0-1.3,0S25.5,73.3,25.5,73.4z"/>
						</g>
						<g class="st24">
							<path class="st23" d="M25.5,74.1c0,0,0.4,0,0.9,0s0.9,0,0.9,0c0,0-0.4,0-0.9,0S25.5,74.1,25.5,74.1z"/>
						</g>
						<g class="st24">
							<path class="st23" d="M25.5,71.9c0,0,0.6,0,1.3,0s1.3,0,1.3,0s-0.6,0-1.3,0S25.5,71.8,25.5,71.9z"/>
						</g>
						<g class="st24">
							<path class="st23" d="M25.5,71.1c0,0,0.5,0,1,0c0.6,0,1,0,1,0c0,0-0.5,0-1,0C26,71.1,25.5,71.1,25.5,71.1z"/>
						</g>
					</g>
					<g>
						<g class="st13">
							<path class="st23" d="M23.7,66.6v3.5h6.8v-3.5H23.7z"/>
						</g>
						<path class="st11" d="M45.8,68.4C45.8,68.5,45.8,68.5,45.8,68.4c-0.1,1.2-1,2-2,2H23.4v-0.3h4.8c1,0,1.8-0.8,1.8-1.8l0,0
							c0-1-0.8-1.8-1.8-1.8h-4.8v-0.4l20.4,0.1C44.9,66.3,45.8,67.3,45.8,68.4L45.8,68.4z"/>
						<g class="st24">
							<path class="st23" d="M23.7,68.5c0,0,1.4,0,3.1,0s3.1,0,3.1,0s-1.4,0-3.1,0S23.7,68.4,23.7,68.5z"/>
						</g>
						<g class="st24">
							<path class="st23" d="M23.8,69.3c0,0,1.3,0,3,0c1.6,0,3,0,3,0c0,0-1.3,0-3,0C25.1,69.2,23.8,69.2,23.8,69.3z"/>
						</g>
						<g class="st24">
							<path class="st23" d="M23.7,70c0,0,1.2,0,2.7,0s2.7,0,2.7,0s-1.2,0-2.7,0S23.7,70,23.7,70z"/>
						</g>
						<g class="st24">
							<path class="st23" d="M23.7,67.7c0,0,1.4,0,3.1,0c1.7,0,3.1,0,3.1,0s-1.4,0-3.1,0C25.1,67.7,23.7,67.7,23.7,67.7z"/>
						</g>
						<g class="st24">
							<path class="st23" d="M23.8,67c0,0,1.2,0,2.7,0s2.7,0,2.7,0s-1.2,0-2.7,0S23.8,67,23.8,67z"/>
						</g>
					</g>
					<path class="st8" d="M41.1,72.8H30.1c-0.1,0-0.3-0.1-0.3-0.3v-0.1c0-0.1,0.1-0.3,0.3-0.3h11.1c0.1,0,0.3,0.1,0.3,0.3v0.1
						C41.4,72.7,41.3,72.8,41.1,72.8z"/>
					<path class="st8" d="M43.5,68.7H32.4c-0.1,0-0.3-0.1-0.3-0.3v-0.1c0-0.1,0.1-0.3,0.3-0.3h11.1c0.1,0,0.3,0.1,0.3,0.3v0.1
						C43.7,68.6,43.6,68.7,43.5,68.7z"/>
				</g>
				<g>
					<g>
						<g class="st13">
							<path class="st23" d="M51,97.8h-5.8c-0.9,0-1.6-0.7-1.6-1.6l0,0c0-0.9,0.7-1.6,1.6-1.6H51V97.8L51,97.8z"/>
						</g>
						<g class="st13">
							<path class="st23" d="M49.4,94.6h13c0.1,0,0.2,0.1,0.2,0.2v0.1c0,0.1-0.1,0.2-0.2,0.2h-13V94.6L49.4,94.6L49.4,94.6z"/>
						</g>
						<g class="st13">
							<path class="st23" d="M49.4,97.3h13c0.1,0,0.2,0.1,0.2,0.2v0.1c0,0.1-0.1,0.2-0.2,0.2h-13V97.3L49.4,97.3L49.4,97.3z"/>
						</g>
						<path class="st11" d="M62.3,97.3H50.9c-0.6,0-1.1-0.5-1.1-1.1l0,0c0-0.6,0.5-1.1,1.1-1.1h11.4C62,95.8,62,96.5,62.3,97.3
							L62.3,97.3z"/>
						<g class="st13">
							<path class="st23" d="M49.8,97.8h-4.6c-0.9,0-1.6-0.7-1.6-1.6l0,0c0-0.9,0.7-1.6,1.6-1.6h4.8C48.8,95.3,48.9,97,49.8,97.8z"
								/>
						</g>
						<g class="st24">
							<path class="st23" d="M60.9,96.3c0,0-2.3,0-5.2,0c-2.9,0-5.2,0-5.2,0c0,0,2.3,0,5.2,0C58.6,96.3,60.9,96.3,60.9,96.3z"/>
						</g>
						<g class="st24">
							<path class="st23" d="M62,96.8c0,0-2.3,0-5.2,0c-2.9,0-5.2,0-5.2,0s2.3,0,5.2,0C59.7,96.7,62,96.7,62,96.8z"/>
						</g>
						<g class="st24">
							<path class="st23" d="M61.7,95.6c0,0-2.3,0-5.2,0c-2.9,0-5.2,0-5.2,0c0,0,2.3,0,5.2,0C59.3,95.6,61.7,95.6,61.7,95.6z"/>
						</g>
						<g class="st24">
							<path class="st23" d="M49.3,97.6c0,0-1.1,0-2.4,0c-1.4,0-2.4,0-2.4,0s1.1,0,2.4,0C48.2,97.6,49.3,97.6,49.3,97.6z"/>
						</g>
						<g class="st24">
							<path class="st23" d="M49.3,94.8c0,0-1.1,0-2.4,0c-1.4,0-2.4,0-2.4,0c0,0,1.1,0,2.4,0C48.2,94.8,49.3,94.8,49.3,94.8z"/>
						</g>
					</g>
					<g>
						<path class="st11" d="M50.2,104.3h-7.3c-1.2,0-2.1-0.9-2.1-2.1l0,0c0-1.2,0.9-2.1,2.1-2.1h7.3c0.2,0,0.3,0.1,0.3,0.3v3.6
							C50.5,104.1,50.3,104.3,50.2,104.3z"/>
						<path class="st11" d="M48.4,100.1h16.8c0.2,0,0.3,0.1,0.3,0.3v0.1c0,0.2-0.1,0.3-0.3,0.3H48.4V100.1L48.4,100.1z"/>
						<path class="st11" d="M48.4,103.6h16.8c0.2,0,0.3,0.1,0.3,0.3v0.1c0,0.2-0.1,0.3-0.3,0.3H48.4V103.6L48.4,103.6z"/>
						<path class="st15" d="M65,103.6H50.3c-0.8,0-1.4-0.6-1.4-1.4l0,0c0-0.8,0.6-1.4,1.4-1.4H65C64.6,101.7,64.6,102.6,65,103.6
							L65,103.6z"/>
						<g class="st13">
							<path class="st23" d="M48.9,104.3h-6c-1.1,0-2.1-0.9-2.1-2.1l0,0c0-1.2,0.9-2.1,2.1-2.1H49C47.5,101,47.6,103.2,48.9,104.3z"
								/>
						</g>
						<g class="st24">
							<path class="st23" d="M63.2,102.3c0,0-3,0-6.7,0c-3.7,0-6.7,0-6.7,0c0,0,3,0,6.7,0C60.2,102.3,63.2,102.3,63.2,102.3
								L63.2,102.3z"/>
						</g>
						<g class="st24">
							<path class="st23" d="M64.6,102.9c0,0-3,0-6.7,0c-3.7,0-6.7,0-6.7,0c0,0,3,0,6.7,0C61.6,102.9,64.6,102.9,64.6,102.9z"/>
						</g>
						<g class="st24">
							<path class="st23" d="M64.2,101.7c0,0-3,0-6.7,0c-3.7,0-6.7,0-6.7,0s3,0,6.7,0C61.1,101.7,64.2,101.7,64.2,101.7z"/>
						</g>
						<g class="st24">
							<path class="st23" d="M48.2,104c0,0-1.4,0-3.1,0s-3.1,0-3.1,0c0,0,1.4,0,3.1,0S48.2,104,48.2,104z"/>
						</g>
						<g class="st24">
							<path class="st23" d="M48.2,100.4c0,0-1.4,0-3.1,0s-3.1,0-3.1,0c0,0,1.4,0,3.1,0S48.2,100.4,48.2,100.4z"/>
						</g>
					</g>
					<g>
						<g class="st13">
							<path class="st23" d="M53,100.1h-6.6c-0.7,0-1.2-0.5-1.2-1.2l0,0c0-0.7,0.5-1.2,1.2-1.2H53V100.1z"/>
						</g>
						<g class="st13">
							<path class="st23" d="M51.3,97.7h13.7c0.1,0,0.2,0.1,0.2,0.2V98c0,0.1-0.1,0.2-0.2,0.2H51.3V97.7L51.3,97.7L51.3,97.7z"/>
						</g>
						<g class="st13">
							<path class="st23" d="M51.3,99.5h13.7c0.1,0,0.2,0.1,0.2,0.2v0.1c0,0.1-0.1,0.2-0.2,0.2H51.3V99.5L51.3,99.5L51.3,99.5z"/>
						</g>
						<path class="st11" d="M64.7,99.5H52.3c-0.4,0-0.6-0.3-0.6-0.6l0,0c0-0.4,0.3-0.6,0.6-0.6h12.4C64.4,98.7,64.4,99.1,64.7,99.5
							L64.7,99.5z"/>
						<g class="st13">
							<path class="st23" d="M51.7,100.1h-5.4c-0.7,0-1.2-0.5-1.2-1.2l0,0c0-0.7,0.5-1.2,1.2-1.2h5.5
								C50.6,98.2,50.7,99.5,51.7,100.1L51.7,100.1z"/>
						</g>
						<g class="st24">
							<path class="st23" d="M63.3,98.8c0,0-2.4,0-5.5,0c-3,0-5.5,0-5.5,0c0,0,2.4,0,5.5,0C60.8,98.8,63.3,98.8,63.3,98.8z"/>
						</g>
						<g class="st24">
							<path class="st23" d="M64.4,99.1c0,0-2.4,0-5.5,0s-5.5,0-5.5,0c0,0,2.4,0,5.5,0C62,99.1,64.4,99.1,64.4,99.1z"/>
						</g>
						<g class="st24">
							<path class="st23" d="M51.1,99.9c0,0-1.1,0-2.6,0c-1.4,0-2.6,0-2.6,0s1.1,0,2.6,0C49.9,99.8,51.1,99.8,51.1,99.9z"/>
						</g>
						<g class="st24">
							<path class="st23" d="M51.1,98c0,0-1.1,0-2.6,0c-1.4,0-2.6,0-2.6,0c0,0,1.1,0,2.6,0C49.9,98,51.1,98,51.1,98z"/>
						</g>
						<g class="st24">
							<path class="st23" d="M65,97.7c0,0-4.2,0-9.4,0s-9.4,0-9.4,0c0,0,4.2,0,9.4,0S65,97.7,65,97.7z"/>
						</g>
					</g>
					<g>
						<path class="st11" d="M52.5,94.5h-6.6c-0.7,0-1.2-0.5-1.2-1.2l0,0c0-0.7,0.5-1.2,1.2-1.2h6.6V94.5z"/>
						<path class="st11" d="M50.8,92.1h13.7c0.1,0,0.2,0.1,0.2,0.2v0.1c0,0.1-0.1,0.2-0.2,0.2H50.8V92.1L50.8,92.1L50.8,92.1z"/>
						<path class="st11" d="M50.8,94h13.7c0.1,0,0.2,0.1,0.2,0.2v0.1c0,0.1-0.1,0.2-0.2,0.2H50.8V94L50.8,94L50.8,94z"/>
						<path class="st15" d="M64.2,94H51.8c-0.4,0-0.6-0.3-0.6-0.6l0,0c0-0.4,0.3-0.6,0.6-0.6h12.4C63.9,93.1,63.9,93.6,64.2,94
							L64.2,94z"/>
						<g class="st13">
							<path class="st23" d="M51.2,94.5h-5.4c-0.7,0-1.2-0.5-1.2-1.2l0,0c0-0.7,0.5-1.2,1.2-1.2h5.5C50.1,92.7,50.2,93.9,51.2,94.5
								L51.2,94.5z"/>
						</g>
						<g class="st24">
							<path class="st23" d="M62.8,93.2c0,0-2.4,0-5.5,0s-5.5,0-5.5,0c0,0,2.4,0,5.5,0C60.4,93.2,62.8,93.2,62.8,93.2z"/>
						</g>
						<g class="st24">
							<path class="st23" d="M63.9,93.6c0,0-2.4,0-5.5,0s-5.5,0-5.5,0c0,0,2.4,0,5.5,0C61.5,93.6,63.9,93.6,63.9,93.6z"/>
						</g>
						<g class="st24">
							<path class="st23" d="M50.6,94.3c0,0-1.1,0-2.6,0c-1.4,0-2.6,0-2.6,0c0,0,1.1,0,2.6,0C49.4,94.3,50.6,94.3,50.6,94.3z"/>
						</g>
						<g class="st24">
							<path class="st23" d="M50.6,92.4c0,0-1.1,0-2.6,0c-1.4,0-2.6,0-2.6,0c0,0,1.1,0,2.6,0C49.4,92.4,50.6,92.4,50.6,92.4z"/>
						</g>
						<g class="st24">
							<path class="st23" d="M64.5,92.1c0,0-4.2,0-9.4,0s-9.4,0-9.4,0c0,0,4.2,0,9.4,0S64.5,92.1,64.5,92.1z"/>
						</g>
					</g>
					<g>
						<g class="st13">
							<path class="st23" d="M53.4,92.1H48c-0.5,0-1-0.5-1-1.2l0,0c0-0.7,0.4-1.2,1-1.2h5.4V92.1z"/>
						</g>
						<g class="st13">
							<path class="st23" d="M52,89.7H63c0.1,0,0.2,0.1,0.2,0.2v0.1c0,0.1-0.1,0.2-0.2,0.2H52V89.7L52,89.7L52,89.7z"/>
						</g>
						<g class="st13">
							<path class="st23" d="M52,91.6H63c0.1,0,0.2,0.1,0.2,0.2v0.1c0,0.1-0.1,0.2-0.2,0.2H52V91.6L52,91.6L52,91.6z"/>
						</g>
						<path class="st11" d="M62.9,91.6H52.8c-0.3,0-0.5-0.3-0.5-0.6l0,0c0-0.4,0.2-0.6,0.5-0.6h10.1C62.7,90.7,62.7,91.1,62.9,91.6
							L62.9,91.6z"/>
						<g class="st24">
							<path class="st23" d="M61.7,90.8c0,0-2,0-4.4,0s-4.4,0-4.4,0c0,0,2,0,4.4,0C59.8,90.8,61.7,90.8,61.7,90.8z"/>
						</g>
						<g class="st24">
							<path class="st23" d="M62.7,91.2c0,0-2,0-4.4,0s-4.4,0-4.4,0c0,0,2,0,4.4,0C60.7,91.1,62.7,91.2,62.7,91.2z"/>
						</g>
						<g class="st24">
							<path class="st23" d="M51.8,91.9c0,0-0.9,0-2.1,0c-1.1,0-2.1,0-2.1,0s0.9,0,2.1,0C50.9,91.9,51.8,91.9,51.8,91.9z"/>
						</g>
						<g class="st24">
							<path class="st23" d="M51.8,90c0,0-0.9,0-2.1,0c-1.1,0-2.1,0-2.1,0c0,0,0.9,0,2.1,0C50.9,90,51.8,90,51.8,90z"/>
						</g>
					</g>
					<g class="st13">
						<polygon class="st23" points="54.7,95.6 54.7,96.9 55.1,96.6 55.6,96.9 55.6,95.6 						"/>
					</g>
				</g>
				<g>
					<g class="st13">
						<rect x="21.5" y="112.7" class="st23" width="4.9" height="16.6"/>
					</g>
					<path class="st8" d="M23.5,124.3v-6.7c0-0.2,0.2-0.4,0.4-0.4H24c0.2,0,0.4,0.2,0.4,0.4v6.7c0,0.2-0.2,0.4-0.4,0.4h-0.2
						C23.7,124.7,23.5,124.6,23.5,124.3z"/>
				</g>
				<g>
					<g class="st13">
						<path class="st23" d="M54.1,129.2v-14.6c0,0,0-0.1,0.1-0.1h4.3c0,0,0.1,0,0.1,0.1v14.6c0,0,0,0.1-0.1,0.1L54.1,129.2
							C54.2,129.3,54.1,129.3,54.1,129.2z"/>
					</g>
					<path class="st8" d="M56.7,119v5.8c0,0.2-0.2,0.4-0.4,0.4l0,0c-0.2,0-0.4-0.2-0.4-0.4V119c0-0.2,0.2-0.4,0.4-0.4l0,0
						C56.6,118.6,56.7,118.8,56.7,119z"/>
				</g>
				<g>
					<g class="st13">
						<path class="st23" d="M61,129.2v-16.5c0,0,0-0.1,0.1-0.1h4.8c0,0,0.1,0,0.1,0.1v16.5c0,0,0,0.1-0.1,0.1L61,129.2
							C61,129.3,61,129.3,61,129.2z"/>
					</g>
					<path class="st8" d="M63.9,117.7v6.6c0,0.2-0.2,0.4-0.4,0.4l0,0c-0.2,0-0.4-0.2-0.4-0.4v-6.6c0-0.2,0.2-0.4,0.4-0.4l0,0
						C63.7,117.2,63.9,117.4,63.9,117.7z"/>
				</g>
				<g>
					<rect x="26.6" y="110.1" class="st11" width="2.5" height="19.1"/>
					<path class="st8" d="M28.1,115.9v7c0,0.1-0.1,0.2-0.2,0.2l0,0c-0.1,0-0.2-0.1-0.2-0.2v-7c0-0.1,0.1-0.2,0.2-0.2l0,0
						C28,115.6,28.1,115.7,28.1,115.9z"/>
				</g>
				<g>
					<path class="st11" d="M58.5,129.3v-18.9c0,0,0-0.1,0.1-0.1h2.4c0,0,0.1,0,0.1,0.1v18.9c0,0,0,0.1-0.1,0.1L58.5,129.3
						C58.5,129.3,58.5,129.3,58.5,129.3z"/>
					<path class="st8" d="M60,116v7c0,0.1-0.1,0.2-0.2,0.2l0,0c-0.1,0-0.2-0.1-0.2-0.2v-7c0-0.1,0.1-0.2,0.2-0.2l0,0
						C59.9,115.8,60,115.9,60,116z"/>
				</g>
				<g>
					<path class="st11" d="M54.1,79V64.4c0,0,0-0.1,0.1-0.1h4.3c0,0,0.1,0,0.1,0.1V79c0,0,0,0.1-0.1,0.1L54.1,79
						C54.2,79,54.1,79,54.1,79z"/>
					<path class="st8" d="M56.7,68.8v5.8c0,0.2-0.2,0.4-0.4,0.4l0,0c-0.2,0-0.4-0.2-0.4-0.4v-5.8c0-0.2,0.2-0.4,0.4-0.4l0,0
						C56.6,68.4,56.7,68.6,56.7,68.8z"/>
				</g>
				<g>
					<path class="st11" d="M61,79V62.5c0,0,0-0.1,0.1-0.1h4.8c0,0,0.1,0,0.1,0.1V79c0,0,0,0.1-0.1,0.1L61,79C61,79,61,79,61,79z"/>
					<path class="st8" d="M63.9,67.4V74c0,0.2-0.2,0.4-0.4,0.4l0,0c-0.2,0-0.4-0.2-0.4-0.4v-6.6c0-0.2,0.2-0.4,0.4-0.4l0,0
						C63.7,67,63.9,67.2,63.9,67.4z"/>
				</g>
				<g>
					<g class="st13">
						<path class="st23" d="M58.5,79V60.1c0,0,0-0.1,0.1-0.1h2.4c0,0,0.1,0,0.1,0.1V79c0,0,0,0.1-0.1,0.1L58.5,79
							C58.5,79.1,58.5,79.1,58.5,79z"/>
					</g>
					<path class="st8" d="M60,65.8v7c0,0.1-0.1,0.2-0.2,0.2l0,0c-0.1,0-0.2-0.1-0.2-0.2v-7c0-0.1,0.1-0.2,0.2-0.2l0,0
						C59.9,65.6,60,65.7,60,65.8z"/>
				</g>
				<g>
					<rect x="37.5" y="99.6" class="st11" width="3.7" height="4.4"/>
					<g class="st13">
						<rect x="21" y="99.3" class="st23" width="16.6" height="4.9"/>
					</g>
					<g class="st13">
						<path class="st23" d="M41.3,99.7h-4.1v-0.4h4.1c0.1,0,0.2,0.1,0.2,0.2l0,0C41.5,99.6,41.4,99.7,41.3,99.7z"/>
					</g>
					<g class="st13">
						<path class="st23" d="M41.3,104.3h-4.1v-0.4h4.1c0.1,0,0.2,0.1,0.2,0.2l0,0C41.5,104.2,41.4,104.3,41.3,104.3z"/>
					</g>
					<g class="st25">
						<rect x="34.4" y="99.3" class="st11" width="2" height="4.9"/>
					</g>
					<g class="st25">
						<rect x="22.5" y="99.3" class="st11" width="2" height="4.9"/>
					</g>
					<g class="st24">
						<path class="st23" d="M41.2,100.3c0,0-0.8,0-1.8,0c-1,0-1.8,0-1.8,0c0,0,0.8,0,1.8,0C40.4,100.3,41.2,100.3,41.2,100.3z"/>
					</g>
					<g class="st24">
						<path class="st23" d="M41.2,101c0,0-0.8,0-1.8,0c-1,0-1.8,0-1.8,0c0,0,0.8,0,1.8,0C40.4,101,41.2,101,41.2,101z"/>
					</g>
					<g class="st24">
						<path class="st23" d="M41.2,101.8c0,0-0.8,0-1.8,0c-1,0-1.8,0-1.8,0c0,0,0.8,0,1.8,0C40.4,101.8,41.2,101.8,41.2,101.8z"/>
					</g>
					<g class="st24">
						<path class="st23" d="M41.2,102.6c0,0-0.8,0-1.8,0c-1,0-1.8,0-1.8,0c0,0,0.8,0,1.8,0C40.4,102.6,41.2,102.6,41.2,102.6z"/>
					</g>
					<g class="st24">
						<path class="st23" d="M41.2,103.4c0,0-0.8,0-1.8,0c-1,0-1.8,0-1.8,0c0,0,0.8,0,1.8,0C40.4,103.4,41.2,103.4,41.2,103.4z"/>
					</g>
					<path class="st8" d="M26,101.4h6.7c0.2,0,0.4,0.2,0.4,0.4v0.2c0,0.2-0.2,0.4-0.4,0.4H26c-0.2,0-0.4-0.2-0.4-0.4v-0.2
						C25.6,101.5,25.8,101.4,26,101.4z"/>
				</g>
				<g>
					<g>
						<rect x="48.6" y="114.9" class="st11" width="4.1" height="4.1"/>
						<g class="st13">
							<rect x="30.3" y="114.6" class="st23" width="18.4" height="4.6"/>
						</g>
						<g class="st13">
							<path class="st23" d="M52.8,115h-4.5v-0.4h4.5c0.1,0,0.2,0.1,0.2,0.2l0,0C53,114.9,52.9,115,52.8,115L52.8,115z"/>
						</g>
						<g class="st13">
							<path class="st23" d="M52.8,119.2h-4.5v-0.4h4.5c0.1,0,0.2,0.1,0.2,0.2l0,0C53,119.1,52.9,119.2,52.8,119.2L52.8,119.2z"/>
						</g>
						<g class="st24">
							<path class="st23" d="M52.6,115.5c0,0-0.9,0-2,0s-2,0-2,0c0,0,0.9,0,2,0S52.6,115.5,52.6,115.5z"/>
						</g>
						<g class="st24">
							<path class="st23" d="M52.6,116.2c0,0-0.9,0-2,0s-2,0-2,0s0.9,0,2,0S52.6,116.1,52.6,116.2z"/>
						</g>
						<g class="st24">
							<path class="st23" d="M52.6,116.9c0,0-0.9,0-2,0s-2,0-2,0c0,0,0.9,0,2,0S52.6,116.9,52.6,116.9z"/>
						</g>
						<g class="st24">
							<path class="st23" d="M52.6,117.7c0,0-0.9,0-2,0s-2,0-2,0s0.9,0,2,0S52.6,117.7,52.6,117.7z"/>
						</g>
						<g class="st24">
							<path class="st23" d="M52.6,118.4c0,0-0.9,0-2,0s-2,0-2,0c0,0,0.9,0,2,0S52.6,118.4,52.6,118.4z"/>
						</g>
					</g>
					<g>
						<rect x="48.5" y="119.3" class="st15" width="4.1" height="2.5"/>
						<rect x="30.9" y="119.2" class="st11" width="17.6" height="2.7"/>
						<path class="st11" d="M48.4,119.4h4.4c0.1,0,0.1,0,0.1-0.1l0,0c0-0.1,0-0.1-0.1-0.1h-4.4V119.4L48.4,119.4z"/>
						<path class="st11" d="M48.4,121.9h4.5c0.1,0,0.1,0,0.1-0.1l0,0c0-0.1,0-0.1-0.1-0.1h-4.5V121.9L48.4,121.9z"/>
						<g class="st24">
							<path class="st23" d="M52.6,119.8c0,0-0.9,0-2,0c-1.1,0-2,0-2,0c0,0,0.9,0,2,0C51.7,119.8,52.6,119.8,52.6,119.8z"/>
						</g>
						<g class="st24">
							<path class="st23" d="M52.6,120.3c0,0-0.9,0-2,0c-1.1,0-2,0-2,0c0,0,0.9,0,2,0C51.7,120.3,52.6,120.3,52.6,120.3z"/>
						</g>
						<g class="st24">
							<path class="st23" d="M52.6,120.7c0,0-0.9,0-2,0c-1.1,0-2,0-2,0c0,0,0.9,0,2,0C51.7,120.7,52.6,120.7,52.6,120.7z"/>
						</g>
						<g class="st24">
							<path class="st23" d="M52.6,121.2c0,0-0.9,0-2,0c-1.1,0-2,0-2,0c0,0,0.9,0,2,0C51.7,121.2,52.6,121.2,52.6,121.2z"/>
						</g>
						<rect x="33.7" y="120.2" class="st15" width="12.1" height="0.7"/>
					</g>
					<g>
						<rect x="49" y="122.2" class="st11" width="4.2" height="6.8"/>
						<g class="st13">
							<rect x="29.2" y="121.9" class="st23" width="19.8" height="7.4"/>
						</g>
						<g class="st13">
							<path class="st23" d="M53.6,129.3h-5.1v-0.5h5.1c0.2,0,0.3,0.1,0.3,0.2l0,0C53.8,129.2,53.7,129.3,53.6,129.3z"/>
						</g>
						<g class="st13">
							<path class="st23" d="M53.6,122.4h-5.1v-0.5h5.1c0.1,0,0.2,0.1,0.2,0.2l0,0C53.8,122.3,53.7,122.4,53.6,122.4z"/>
						</g>
						<g class="st25">
							<polygon class="st8" points="44.8,121.9 40.6,129.3 44.1,129.3 48.1,121.9 							"/>
						</g>
						<g class="st24">
							<path class="st23" d="M53.2,123.1c0,0-0.9,0-2.1,0c-1.2,0-2.1,0-2.1,0c0,0,0.9,0,2.1,0C52.3,123,53.2,123.1,53.2,123.1z"/>
						</g>
						<g class="st24">
							<path class="st23" d="M53.2,123.9c0,0-0.9,0-2.1,0c-1.2,0-2.1,0-2.1,0c0,0,0.9,0,2.1,0C52.3,123.9,53.2,123.9,53.2,123.9z"/>
						</g>
						<g class="st24">
							<path class="st23" d="M53.2,124.8c0,0-0.9,0-2.1,0c-1.2,0-2.1,0-2.1,0s0.9,0,2.1,0C52.3,124.8,53.2,124.8,53.2,124.8z"/>
						</g>
						<g class="st24">
							<path class="st23" d="M53.2,125.7c0,0-0.9,0-2.1,0c-1.2,0-2.1,0-2.1,0c0,0,0.9,0,2.1,0C52.3,125.7,53.2,125.7,53.2,125.7z"/>
						</g>
						<g class="st24">
							<path class="st23" d="M53.2,126.6c0,0-0.9,0-2.1,0c-1.2,0-2.1,0-2.1,0c0,0,0.9,0,2.1,0C52.3,126.5,53.2,126.5,53.2,126.6z"/>
						</g>
						<g class="st24">
							<path class="st23" d="M53.2,127.4c0,0-0.9,0-2.1,0c-1.2,0-2.1,0-2.1,0c0,0,0.9,0,2.1,0C52.3,127.4,53.2,127.4,53.2,127.4z"/>
						</g>
						<g class="st24">
							<path class="st23" d="M53.2,128.3c0,0-0.9,0-2.1,0c-1.2,0-2.1,0-2.1,0s0.9,0,2.1,0C52.3,128.3,53.2,128.3,53.2,128.3z"/>
						</g>
					</g>
				</g>
				<g class="st24">
					<rect x="20.7" y="131.8" class="st23" width="45.4" height="19.9"/>
				</g>
				<g class="st24">
					<rect x="20.7" y="156.9" class="st23" width="45.4" height="19.9"/>
				</g>
				<g>
					<g>
						<g class="st13">
							<path class="st23" d="M51,145.3h-5.8c-0.9,0-1.6-0.7-1.6-1.6l0,0c0-0.9,0.7-1.6,1.6-1.6H51V145.3L51,145.3z"/>
						</g>
						<g class="st13">
							<path class="st23" d="M49.4,142.1h13c0.1,0,0.2,0.1,0.2,0.2v0.1c0,0.1-0.1,0.2-0.2,0.2h-13V142.1L49.4,142.1L49.4,142.1z"/>
						</g>
						<g class="st13">
							<path class="st23" d="M49.4,144.8h13c0.1,0,0.2,0.1,0.2,0.2v0.1c0,0.1-0.1,0.2-0.2,0.2h-13V144.8L49.4,144.8L49.4,144.8z"/>
						</g>
						<path class="st11" d="M62.3,144.8H50.9c-0.6,0-1.1-0.5-1.1-1.1l0,0c0-0.6,0.5-1.1,1.1-1.1h11.4C62,143.3,62,144,62.3,144.8
							L62.3,144.8z"/>
						<g class="st13">
							<path class="st23" d="M49.8,145.3h-4.6c-0.9,0-1.6-0.7-1.6-1.6l0,0c0-0.9,0.7-1.6,1.6-1.6h4.8
								C48.8,142.8,48.9,144.5,49.8,145.3z"/>
						</g>
						<g class="st24">
							<path class="st23" d="M60.9,143.8c0,0-2.3,0-5.2,0c-2.9,0-5.2,0-5.2,0c0,0,2.3,0,5.2,0C58.6,143.8,60.9,143.8,60.9,143.8z"/>
						</g>
						<g class="st24">
							<path class="st23" d="M62,144.3c0,0-2.3,0-5.2,0c-2.9,0-5.2,0-5.2,0s2.3,0,5.2,0C59.7,144.2,62,144.3,62,144.3z"/>
						</g>
						<g class="st24">
							<path class="st23" d="M61.7,143.1c0,0-2.3,0-5.2,0c-2.9,0-5.2,0-5.2,0s2.3,0,5.2,0C59.3,143.1,61.7,143.1,61.7,143.1z"/>
						</g>
						<g class="st24">
							<path class="st23" d="M49.3,145.1c0,0-1.1,0-2.4,0c-1.4,0-2.4,0-2.4,0c0,0,1.1,0,2.4,0C48.2,145.1,49.3,145.1,49.3,145.1z"/>
						</g>
						<g class="st24">
							<path class="st23" d="M49.3,142.3c0,0-1.1,0-2.4,0c-1.4,0-2.4,0-2.4,0c0,0,1.1,0,2.4,0C48.2,142.3,49.3,142.3,49.3,142.3z"/>
						</g>
					</g>
					<g>
						<path class="st11" d="M50.2,151.8h-7.3c-1.2,0-2.1-0.9-2.1-2.1l0,0c0-1.2,0.9-2.1,2.1-2.1h7.3c0.2,0,0.3,0.1,0.3,0.3v3.6
							C50.5,151.6,50.3,151.8,50.2,151.8z"/>
						<path class="st11" d="M48.4,147.6h16.8c0.2,0,0.3,0.1,0.3,0.3v0.1c0,0.2-0.1,0.3-0.3,0.3H48.4V147.6L48.4,147.6z"/>
						<path class="st11" d="M48.4,151.1h16.8c0.2,0,0.3,0.1,0.3,0.3v0.1c0,0.2-0.1,0.3-0.3,0.3H48.4V151.1L48.4,151.1z"/>
						<path class="st15" d="M65,151.1H50.3c-0.8,0-1.4-0.6-1.4-1.4l0,0c0-0.8,0.6-1.4,1.4-1.4H65C64.6,149.2,64.6,150.1,65,151.1
							L65,151.1z"/>
						<g class="st13">
							<path class="st23" d="M48.9,151.8h-6c-1.1,0-2.1-0.9-2.1-2.1l0,0c0-1.2,0.9-2.1,2.1-2.1H49C47.5,148.5,47.6,150.7,48.9,151.8
								z"/>
						</g>
						<g class="st24">
							<path class="st23" d="M63.2,149.8c0,0-3,0-6.7,0c-3.7,0-6.7,0-6.7,0c0,0,3,0,6.7,0C60.2,149.8,63.2,149.8,63.2,149.8
								L63.2,149.8z"/>
						</g>
						<g class="st24">
							<path class="st23" d="M64.6,150.4c0,0-3,0-6.7,0c-3.7,0-6.7,0-6.7,0c0,0,3,0,6.7,0C61.6,150.4,64.6,150.4,64.6,150.4z"/>
						</g>
						<g class="st24">
							<path class="st23" d="M64.2,149.2c0,0-3,0-6.7,0c-3.7,0-6.7,0-6.7,0s3,0,6.7,0C61.1,149.2,64.2,149.2,64.2,149.2z"/>
						</g>
						<g class="st24">
							<path class="st23" d="M48.2,151.5c0,0-1.4,0-3.1,0s-3.1,0-3.1,0c0,0,1.4,0,3.1,0S48.2,151.5,48.2,151.5z"/>
						</g>
						<g class="st24">
							<path class="st23" d="M48.2,147.9c0,0-1.4,0-3.1,0s-3.1,0-3.1,0s1.4,0,3.1,0S48.2,147.9,48.2,147.9z"/>
						</g>
					</g>
					<g>
						<g class="st13">
							<path class="st23" d="M53,147.6h-6.6c-0.7,0-1.2-0.5-1.2-1.2l0,0c0-0.7,0.5-1.2,1.2-1.2H53V147.6z"/>
						</g>
						<g class="st13">
							<path class="st23" d="M51.3,145.2h13.7c0.1,0,0.2,0.1,0.2,0.2v0.1c0,0.1-0.1,0.2-0.2,0.2H51.3V145.2L51.3,145.2L51.3,145.2z"
								/>
						</g>
						<g class="st13">
							<path class="st23" d="M51.3,147h13.7c0.1,0,0.2,0.1,0.2,0.2v0.1c0,0.1-0.1,0.2-0.2,0.2H51.3V147L51.3,147L51.3,147z"/>
						</g>
						<path class="st11" d="M64.7,147H52.3c-0.4,0-0.6-0.3-0.6-0.6l0,0c0-0.4,0.3-0.6,0.6-0.6h12.4C64.4,146.2,64.4,146.6,64.7,147
							L64.7,147z"/>
						<g class="st13">
							<path class="st23" d="M51.7,147.6h-5.4c-0.7,0-1.2-0.5-1.2-1.2l0,0c0-0.7,0.5-1.2,1.2-1.2h5.5
								C50.6,145.7,50.7,147,51.7,147.6L51.7,147.6z"/>
						</g>
						<g class="st24">
							<path class="st23" d="M63.3,146.3c0,0-2.4,0-5.5,0c-3,0-5.5,0-5.5,0c0,0,2.4,0,5.5,0C60.8,146.3,63.3,146.3,63.3,146.3z"/>
						</g>
						<g class="st24">
							<path class="st23" d="M64.4,146.6c0,0-2.4,0-5.5,0s-5.5,0-5.5,0c0,0,2.4,0,5.5,0C62,146.6,64.4,146.6,64.4,146.6z"/>
						</g>
						<g class="st24">
							<path class="st23" d="M51.1,147.4c0,0-1.1,0-2.6,0c-1.4,0-2.6,0-2.6,0c0,0,1.1,0,2.6,0C49.9,147.3,51.1,147.4,51.1,147.4z"/>
						</g>
						<g class="st24">
							<path class="st23" d="M51.1,145.5c0,0-1.1,0-2.6,0c-1.4,0-2.6,0-2.6,0s1.1,0,2.6,0C49.9,145.5,51.1,145.5,51.1,145.5z"/>
						</g>
						<g class="st24">
							<path class="st23" d="M65,145.2c0,0-4.2,0-9.4,0s-9.4,0-9.4,0c0,0,4.2,0,9.4,0S65,145.2,65,145.2z"/>
						</g>
					</g>
					<g>
						<path class="st11" d="M52.5,142h-6.6c-0.7,0-1.2-0.5-1.2-1.2l0,0c0-0.7,0.5-1.2,1.2-1.2h6.6V142z"/>
						<path class="st11" d="M50.8,139.7h13.7c0.1,0,0.2,0.1,0.2,0.2v0.1c0,0.1-0.1,0.2-0.2,0.2H50.8V139.7L50.8,139.7L50.8,139.7z"
							/>
						<path class="st11" d="M50.8,141.5h13.7c0.1,0,0.2,0.1,0.2,0.2v0.1c0,0.1-0.1,0.2-0.2,0.2H50.8V141.5L50.8,141.5L50.8,141.5z"
							/>
						<path class="st15" d="M64.2,141.5H51.8c-0.4,0-0.6-0.3-0.6-0.6l0,0c0-0.4,0.3-0.6,0.6-0.6h12.4
							C63.9,140.6,63.9,141.1,64.2,141.5L64.2,141.5z"/>
						<g class="st13">
							<path class="st23" d="M51.2,142h-5.4c-0.7,0-1.2-0.5-1.2-1.2l0,0c0-0.7,0.5-1.2,1.2-1.2h5.5C50.1,140.2,50.2,141.4,51.2,142
								L51.2,142z"/>
						</g>
						<g class="st24">
							<path class="st23" d="M62.8,140.8c0,0-2.4,0-5.5,0s-5.5,0-5.5,0c0,0,2.4,0,5.5,0C60.4,140.7,62.8,140.7,62.8,140.8z"/>
						</g>
						<g class="st24">
							<path class="st23" d="M63.9,141.1c0,0-2.4,0-5.5,0s-5.5,0-5.5,0c0,0,2.4,0,5.5,0C61.5,141.1,63.9,141.1,63.9,141.1z"/>
						</g>
						<g class="st24">
							<path class="st23" d="M50.6,141.8c0,0-1.1,0-2.6,0c-1.4,0-2.6,0-2.6,0s1.1,0,2.6,0C49.4,141.8,50.6,141.8,50.6,141.8z"/>
						</g>
						<g class="st24">
							<path class="st23" d="M50.6,139.9c0,0-1.1,0-2.6,0c-1.4,0-2.6,0-2.6,0s1.1,0,2.6,0C49.4,139.9,50.6,139.9,50.6,139.9z"/>
						</g>
						<g class="st24">
							<path class="st23" d="M64.5,139.7c0,0-4.2,0-9.4,0s-9.4,0-9.4,0c0,0,4.2,0,9.4,0S64.5,139.6,64.5,139.7z"/>
						</g>
					</g>
					<g>
						<g class="st13">
							<path class="st23" d="M53.4,139.6H48c-0.5,0-1-0.5-1-1.2l0,0c0-0.7,0.4-1.2,1-1.2h5.4V139.6z"/>
						</g>
						<g class="st13">
							<path class="st23" d="M52,137.2H63c0.1,0,0.2,0.1,0.2,0.2v0.1c0,0.1-0.1,0.2-0.2,0.2H52V137.2L52,137.2L52,137.2z"/>
						</g>
						<g class="st13">
							<path class="st23" d="M52,139.1H63c0.1,0,0.2,0.1,0.2,0.2v0.1c0,0.1-0.1,0.2-0.2,0.2H52V139.1L52,139.1L52,139.1z"/>
						</g>
						<path class="st11" d="M62.9,139.1H52.8c-0.3,0-0.5-0.3-0.5-0.6l0,0c0-0.4,0.2-0.6,0.5-0.6h10.1
							C62.7,138.2,62.7,138.6,62.9,139.1L62.9,139.1z"/>
						<g class="st24">
							<path class="st23" d="M61.7,138.3c0,0-2,0-4.4,0s-4.4,0-4.4,0c0,0,2,0,4.4,0C59.8,138.3,61.7,138.3,61.7,138.3z"/>
						</g>
						<g class="st24">
							<path class="st23" d="M62.7,138.7c0,0-2,0-4.4,0s-4.4,0-4.4,0c0,0,2,0,4.4,0C60.7,138.7,62.7,138.7,62.7,138.7z"/>
						</g>
						<g class="st24">
							<path class="st23" d="M51.8,139.4c0,0-0.9,0-2.1,0c-1.1,0-2.1,0-2.1,0c0,0,0.9,0,2.1,0C50.9,139.4,51.8,139.4,51.8,139.4z"/>
						</g>
						<g class="st24">
							<path class="st23" d="M51.8,137.5c0,0-0.9,0-2.1,0c-1.1,0-2.1,0-2.1,0c0,0,0.9,0,2.1,0C50.9,137.5,51.8,137.5,51.8,137.5z"/>
						</g>
					</g>
					<g class="st13">
						<polygon class="st23" points="54.7,143.1 54.7,144.4 55.1,144.1 55.6,144.4 55.6,143.1 						"/>
					</g>
				</g>
				<g>
					<g class="st13">
						<rect x="21.5" y="160.2" class="st23" width="4.9" height="16.6"/>
					</g>
					<path class="st8" d="M23.5,171.9v-6.7c0-0.2,0.2-0.4,0.4-0.4H24c0.2,0,0.4,0.2,0.4,0.4v6.7c0,0.2-0.2,0.4-0.4,0.4h-0.2
						C23.7,172.2,23.5,172.1,23.5,171.9z"/>
				</g>
				<g>
					<g class="st13">
						<path class="st23" d="M54.1,176.7v-14.6c0,0,0-0.1,0.1-0.1h4.3c0,0,0.1,0,0.1,0.1v14.6c0,0,0,0.1-0.1,0.1L54.1,176.7
							C54.2,176.8,54.1,176.8,54.1,176.7z"/>
					</g>
					<path class="st8" d="M56.7,166.5v5.8c0,0.2-0.2,0.4-0.4,0.4l0,0c-0.2,0-0.4-0.2-0.4-0.4v-5.8c0-0.2,0.2-0.4,0.4-0.4l0,0
						C56.6,166.1,56.7,166.3,56.7,166.5z"/>
				</g>
				<g>
					<g class="st13">
						<path class="st23" d="M61,176.7v-16.5c0,0,0-0.1,0.1-0.1h4.8c0,0,0.1,0,0.1,0.1v16.5c0,0,0,0.1-0.1,0.1L61,176.7
							C61,176.8,61,176.8,61,176.7z"/>
					</g>
					<path class="st8" d="M63.9,165.2v6.6c0,0.2-0.2,0.4-0.4,0.4l0,0c-0.2,0-0.4-0.2-0.4-0.4v-6.6c0-0.2,0.2-0.4,0.4-0.4l0,0
						C63.7,164.8,63.9,164.9,63.9,165.2z"/>
				</g>
				<g>
					<rect x="26.6" y="157.6" class="st11" width="2.5" height="19.1"/>
					<path class="st8" d="M28.1,163.4v7c0,0.1-0.1,0.2-0.2,0.2l0,0c-0.1,0-0.2-0.1-0.2-0.2v-7c0-0.1,0.1-0.2,0.2-0.2l0,0
						C28,163.1,28.1,163.2,28.1,163.4z"/>
				</g>
				<g>
					<path class="st11" d="M58.5,176.8v-18.9c0,0,0-0.1,0.1-0.1h2.4c0,0,0.1,0,0.1,0.1v18.9c0,0,0,0.1-0.1,0.1L58.5,176.8
						C58.5,176.8,58.5,176.8,58.5,176.8z"/>
					<path class="st8" d="M60,163.5v7c0,0.1-0.1,0.2-0.2,0.2l0,0c-0.1,0-0.2-0.1-0.2-0.2v-7c0-0.1,0.1-0.2,0.2-0.2l0,0
						C59.9,163.3,60,163.4,60,163.5z"/>
				</g>
				<g>
					<rect x="37.5" y="147.1" class="st11" width="3.7" height="4.4"/>
					<g class="st13">
						<rect x="21" y="146.8" class="st23" width="16.6" height="4.9"/>
					</g>
					<g class="st13">
						<path class="st23" d="M41.3,147.2h-4.1v-0.4h4.1c0.1,0,0.2,0.1,0.2,0.2l0,0C41.5,147.2,41.4,147.2,41.3,147.2z"/>
					</g>
					<g class="st13">
						<path class="st23" d="M41.3,151.8h-4.1v-0.4h4.1c0.1,0,0.2,0.1,0.2,0.2l0,0C41.5,151.7,41.4,151.8,41.3,151.8z"/>
					</g>
					<g class="st25">
						<rect x="34.4" y="146.8" class="st11" width="2" height="4.9"/>
					</g>
					<g class="st25">
						<rect x="22.5" y="146.8" class="st11" width="2" height="4.9"/>
					</g>
					<g class="st24">
						<path class="st23" d="M41.2,147.8c0,0-0.8,0-1.8,0c-1,0-1.8,0-1.8,0s0.8,0,1.8,0C40.4,147.8,41.2,147.8,41.2,147.8z"/>
					</g>
					<g class="st24">
						<path class="st23" d="M41.2,148.5c0,0-0.8,0-1.8,0c-1,0-1.8,0-1.8,0s0.8,0,1.8,0C40.4,148.5,41.2,148.5,41.2,148.5z"/>
					</g>
					<g class="st24">
						<path class="st23" d="M41.2,149.3c0,0-0.8,0-1.8,0c-1,0-1.8,0-1.8,0c0,0,0.8,0,1.8,0C40.4,149.3,41.2,149.3,41.2,149.3z"/>
					</g>
					<g class="st24">
						<path class="st23" d="M41.2,150.1c0,0-0.8,0-1.8,0c-1,0-1.8,0-1.8,0s0.8,0,1.8,0C40.4,150.1,41.2,150.1,41.2,150.1z"/>
					</g>
					<g class="st24">
						<path class="st23" d="M41.2,150.9c0,0-0.8,0-1.8,0c-1,0-1.8,0-1.8,0s0.8,0,1.8,0C40.4,150.9,41.2,150.9,41.2,150.9z"/>
					</g>
					<path class="st8" d="M26,148.9h6.7c0.2,0,0.4,0.2,0.4,0.4v0.2c0,0.2-0.2,0.4-0.4,0.4H26c-0.2,0-0.4-0.2-0.4-0.4v-0.2
						C25.6,149,25.8,148.9,26,148.9z"/>
				</g>
				<g>
					<g>
						<rect x="48.6" y="162.4" class="st11" width="4.1" height="4.1"/>
						<g class="st13">
							<rect x="30.3" y="162.1" class="st23" width="18.4" height="4.6"/>
						</g>
						<g class="st13">
							<path class="st23" d="M52.8,162.5h-4.5v-0.4h4.5c0.1,0,0.2,0.1,0.2,0.2l0,0C53,162.4,52.9,162.5,52.8,162.5L52.8,162.5z"/>
						</g>
						<g class="st13">
							<path class="st23" d="M52.8,166.7h-4.5v-0.4h4.5c0.1,0,0.2,0.1,0.2,0.2l0,0C53,166.7,52.9,166.7,52.8,166.7L52.8,166.7z"/>
						</g>
						<g class="st24">
							<path class="st23" d="M52.6,163c0,0-0.9,0-2,0s-2,0-2,0c0,0,0.9,0,2,0S52.6,163,52.6,163z"/>
						</g>
						<g class="st24">
							<path class="st23" d="M52.6,163.7c0,0-0.9,0-2,0s-2,0-2,0c0,0,0.9,0,2,0S52.6,163.7,52.6,163.7z"/>
						</g>
						<g class="st24">
							<path class="st23" d="M52.6,164.4c0,0-0.9,0-2,0s-2,0-2,0c0,0,0.9,0,2,0S52.6,164.4,52.6,164.4z"/>
						</g>
						<g class="st24">
							<path class="st23" d="M52.6,165.2c0,0-0.9,0-2,0s-2,0-2,0c0,0,0.9,0,2,0S52.6,165.2,52.6,165.2z"/>
						</g>
						<g class="st24">
							<path class="st23" d="M52.6,165.9c0,0-0.9,0-2,0s-2,0-2,0c0,0,0.9,0,2,0S52.6,165.9,52.6,165.9z"/>
						</g>
					</g>
					<g>
						<rect x="48.5" y="166.8" class="st15" width="4.1" height="2.5"/>
						<rect x="30.9" y="166.7" class="st11" width="17.6" height="2.7"/>
						<path class="st11" d="M48.4,166.9h4.4c0.1,0,0.1,0,0.1-0.1l0,0c0-0.1,0-0.1-0.1-0.1h-4.4V166.9L48.4,166.9z"/>
						<path class="st11" d="M48.4,169.4h4.5c0.1,0,0.1,0,0.1-0.1l0,0c0-0.1,0-0.1-0.1-0.1h-4.5V169.4L48.4,169.4z"/>
						<g class="st24">
							<path class="st23" d="M52.6,167.3c0,0-0.9,0-2,0c-1.1,0-2,0-2,0s0.9,0,2,0C51.7,167.3,52.6,167.3,52.6,167.3z"/>
						</g>
						<g class="st24">
							<path class="st23" d="M52.6,167.8c0,0-0.9,0-2,0c-1.1,0-2,0-2,0c0,0,0.9,0,2,0C51.7,167.8,52.6,167.8,52.6,167.8z"/>
						</g>
						<g class="st24">
							<path class="st23" d="M52.6,168.3c0,0-0.9,0-2,0c-1.1,0-2,0-2,0c0,0,0.9,0,2,0C51.7,168.2,52.6,168.2,52.6,168.3z"/>
						</g>
						<g class="st24">
							<path class="st23" d="M52.6,168.7c0,0-0.9,0-2,0c-1.1,0-2,0-2,0c0,0,0.9,0,2,0C51.7,168.7,52.6,168.7,52.6,168.7z"/>
						</g>
						<rect x="33.7" y="167.7" class="st15" width="12.1" height="0.7"/>
					</g>
					<g>
						<rect x="49" y="169.7" class="st11" width="4.2" height="6.8"/>
						<g class="st13">
							<rect x="29.2" y="169.4" class="st23" width="19.8" height="7.4"/>
						</g>
						<g class="st13">
							<path class="st23" d="M53.6,176.8h-5.1v-0.5h5.1c0.2,0,0.3,0.1,0.3,0.2l0,0C53.8,176.7,53.7,176.8,53.6,176.8z"/>
						</g>
						<g class="st13">
							<path class="st23" d="M53.6,169.9h-5.1v-0.5h5.1c0.1,0,0.2,0.1,0.2,0.2l0,0C53.8,169.8,53.7,169.9,53.6,169.9z"/>
						</g>
						<g class="st25">
							<polygon class="st8" points="44.8,169.4 40.6,176.8 44.1,176.8 48.1,169.4 							"/>
						</g>
						<g class="st24">
							<path class="st23" d="M53.2,170.6c0,0-0.9,0-2.1,0c-1.2,0-2.1,0-2.1,0s0.9,0,2.1,0C52.3,170.6,53.2,170.6,53.2,170.6z"/>
						</g>
						<g class="st24">
							<path class="st23" d="M53.2,171.4c0,0-0.9,0-2.1,0c-1.2,0-2.1,0-2.1,0s0.9,0,2.1,0C52.3,171.4,53.2,171.4,53.2,171.4z"/>
						</g>
						<g class="st24">
							<path class="st23" d="M53.2,172.3c0,0-0.9,0-2.1,0c-1.2,0-2.1,0-2.1,0s0.9,0,2.1,0C52.3,172.3,53.2,172.3,53.2,172.3z"/>
						</g>
						<g class="st24">
							<path class="st23" d="M53.2,173.2c0,0-0.9,0-2.1,0c-1.2,0-2.1,0-2.1,0s0.9,0,2.1,0C52.3,173.2,53.2,173.2,53.2,173.2z"/>
						</g>
						<g class="st24">
							<path class="st23" d="M53.2,174.1c0,0-0.9,0-2.1,0c-1.2,0-2.1,0-2.1,0s0.9,0,2.1,0C52.3,174,53.2,174.1,53.2,174.1z"/>
						</g>
						<g class="st24">
							<path class="st23" d="M53.2,174.9c0,0-0.9,0-2.1,0c-1.2,0-2.1,0-2.1,0s0.9,0,2.1,0C52.3,174.9,53.2,174.9,53.2,174.9z"/>
						</g>
						<g class="st24">
							<path class="st23" d="M53.2,175.8c0,0-0.9,0-2.1,0c-1.2,0-2.1,0-2.1,0s0.9,0,2.1,0C52.3,175.8,53.2,175.8,53.2,175.8z"/>
						</g>
					</g>
				</g>
			</g>
		</g>
		<g>
			<g>
				<g class="st13">
					<rect x="141.5" y="59" class="st23" width="44.3" height="57.2"/>
				</g>
				<g class="st24">
					<path class="st23" d="M185.8,59c0,0,0,0.1-0.1,0.2c-0.1,0.1-0.2,0.3-0.4,0.4c-0.4,0.4-0.9,0.9-1.5,1.6l0,0h0
						c-3.9,0-11.4,0.1-20.1,0.1c-8.7,0-16.3,0-20.1-0.1h0l0,0c-0.6-0.7-1.1-1.3-1.5-1.6c-0.2-0.2-0.3-0.3-0.4-0.4
						c-0.1-0.1-0.1-0.2-0.1-0.2c0,0,0.1,0,0.1,0.1c0.1,0.1,0.2,0.2,0.4,0.4c0.4,0.4,0.9,0.9,1.5,1.6l0,0c3.9,0,11.4-0.1,20.1-0.1
						c8.7,0,16.3,0,20.1,0.1l0,0c0.7-0.7,1.2-1.2,1.5-1.6c0.2-0.2,0.3-0.3,0.4-0.4C185.8,59,185.8,59,185.8,59L185.8,59z"/>
				</g>
				<g class="st24">
					<path class="st23" d="M141.5,116.2c0,0,0-0.1,0.1-0.2c0.1-0.1,0.2-0.3,0.4-0.4c0.4-0.4,0.9-0.9,1.5-1.6l0,0h0
						c3.9,0,11.4-0.1,20.1-0.1c8.7,0,16.3,0,20.1,0.1h0l0,0c0.6,0.7,1.1,1.3,1.5,1.6c0.2,0.2,0.3,0.3,0.4,0.4
						c0.1,0.1,0.1,0.2,0.1,0.2c0,0-0.1,0-0.1-0.1c-0.1-0.1-0.2-0.2-0.4-0.4c-0.4-0.4-0.9-0.9-1.5-1.6l0,0c-3.9,0-11.4,0.1-20.1,0.1
						s-16.3,0-20.1-0.1l0,0c-0.7,0.7-1.2,1.2-1.5,1.6c-0.2,0.2-0.3,0.3-0.4,0.4C141.6,116.2,141.6,116.2,141.5,116.2L141.5,116.2z"
						/>
				</g>
			</g>
			<rect x="143.6" y="61.2" class="st8" width="40.2" height="52.9"/>
			<g class="st13">
				<path class="st23" d="M149.9,98.6c1.2-1.1,3-1.5,4.6-1.4c1.7,0,3.3,0.4,4.9,0.4c2.6,0,5.3-1,7.9-0.6c0.8,0.1,1.7,0.4,2.5,0.3
					c0.7-0.2,1.3-0.6,2-0.9c1.8-0.5,3.9,0.9,5.7,0.1v11.8h-27.6L149.9,98.6L149.9,98.6z"/>
			</g>
			<g class="st24">
				<path class="st23" d="M150.4,99c-0.1,0-0.1-7-0.1-15.6s0.1-15.6,0.1-15.6c0.1,0,0.1,7,0.1,15.6S150.5,99,150.4,99z"/>
			</g>
			<g class="st24">
				<path class="st23" d="M151.7,99c-0.1,0-0.1-7-0.1-15.6s0.1-15.6,0.1-15.6c0.1,0,0.1,7,0.1,15.6S151.8,99,151.7,99z"/>
			</g>
			<g class="st24">
				<path class="st23" d="M152.9,99c-0.1,0-0.1-7-0.1-15.6s0.1-15.6,0.1-15.6c0.1,0,0.1,7,0.1,15.6S153,99,152.9,99z"/>
			</g>
			<g class="st24">
				<path class="st23" d="M154.2,99c-0.1,0-0.1-7-0.1-15.6s0.1-15.6,0.1-15.6s0.1,7,0.1,15.6S154.3,99,154.2,99z"/>
			</g>
			<g class="st24">
				<path class="st23" d="M155.5,99c-0.1,0-0.1-7-0.1-15.6s0.1-15.6,0.1-15.6c0.1,0,0.1,7,0.1,15.6S155.5,99,155.5,99z"/>
			</g>
			<g class="st24">
				<path class="st23" d="M156.7,99c-0.1,0-0.1-7-0.1-15.6s0.1-15.6,0.1-15.6c0.1,0,0.1,7,0.1,15.6S156.8,99,156.7,99z"/>
			</g>
			<g class="st24">
				<path class="st23" d="M158,99c-0.1,0-0.1-7-0.1-15.6s0.1-15.6,0.1-15.6c0.1,0,0.1,7,0.1,15.6S158,99,158,99z"/>
			</g>
			<g class="st24">
				<path class="st23" d="M159.2,99c-0.1,0-0.1-7-0.1-15.6s0.1-15.6,0.1-15.6s0.1,7,0.1,15.6S159.3,99,159.2,99z"/>
			</g>
			<g class="st24">
				<path class="st23" d="M160.5,99c-0.1,0-0.1-7-0.1-15.6s0.1-15.6,0.1-15.6s0.1,7,0.1,15.6S160.6,99,160.5,99z"/>
			</g>
			<g class="st24">
				<path class="st23" d="M161.7,99c-0.1,0-0.1-7-0.1-15.6s0.1-15.6,0.1-15.6s0.1,7,0.1,15.6S161.8,99,161.7,99z"/>
			</g>
			<g class="st24">
				<path class="st23" d="M163,99c-0.1,0-0.1-7-0.1-15.6s0.1-15.6,0.1-15.6s0.1,7,0.1,15.6S163.1,99,163,99z"/>
			</g>
			<g class="st24">
				<path class="st23" d="M164.3,99c-0.1,0-0.1-7-0.1-15.6s0.1-15.6,0.1-15.6s0.1,7,0.1,15.6S164.3,99,164.3,99z"/>
			</g>
			<g class="st24">
				<path class="st23" d="M165.5,99c-0.1,0-0.1-7-0.1-15.6s0.1-15.6,0.1-15.6s0.1,7,0.1,15.6S165.6,99,165.5,99z"/>
			</g>
			<g class="st24">
				<path class="st23" d="M166.8,99c-0.1,0-0.1-7-0.1-15.6s0.1-15.6,0.1-15.6s0.1,7,0.1,15.6S166.8,99,166.8,99z"/>
			</g>
			<g class="st24">
				<path class="st23" d="M168,99c-0.1,0-0.1-7-0.1-15.6s0.1-15.6,0.1-15.6s0.1,7,0.1,15.6S168.1,99,168,99z"/>
			</g>
			<g class="st24">
				<path class="st23" d="M169.3,99c-0.1,0-0.1-7-0.1-15.6s0.1-15.6,0.1-15.6s0.1,7,0.1,15.6S169.4,99,169.3,99z"/>
			</g>
			<g class="st24">
				<path class="st23" d="M170.6,99c-0.1,0-0.1-7-0.1-15.6s0.1-15.6,0.1-15.6s0.1,7,0.1,15.6S170.6,99,170.6,99z"/>
			</g>
			<g class="st24">
				<path class="st23" d="M171.8,99c-0.1,0-0.1-7-0.1-15.6s0.1-15.6,0.1-15.6c0.1,0,0.1,7,0.1,15.6S171.9,99,171.8,99z"/>
			</g>
			<g class="st24">
				<path class="st23" d="M173.1,99c-0.1,0-0.1-7-0.1-15.6s0.1-15.6,0.1-15.6s0.1,7,0.1,15.6S173.1,99,173.1,99z"/>
			</g>
			<g class="st24">
				<path class="st23" d="M174.3,99c-0.1,0-0.1-7-0.1-15.6s0.1-15.6,0.1-15.6s0.1,7,0.1,15.6S174.4,99,174.3,99z"/>
			</g>
			<g class="st24">
				<path class="st23" d="M175.6,99c-0.1,0-0.1-7-0.1-15.6s0.1-15.6,0.1-15.6s0.1,7,0.1,15.6S175.7,99,175.6,99z"/>
			</g>
			<g class="st24">
				<path class="st23" d="M176.8,99c-0.1,0-0.1-7-0.1-15.6s0.1-15.6,0.1-15.6s0.1,7,0.1,15.6S176.9,99,176.8,99z"/>
			</g>
		</g>
		<g>
			<g class="st24">
				<polygon class="st23" points="230.7,58.2 230.7,80.8 198.3,80.8 197.2,58.4 				"/>
			</g>
			<g>
				<rect x="197.2" y="58.4" class="st11" width="32.4" height="22.3"/>
				<g class="st24">
					<path class="st23" d="M229.7,80.9H197V58.2h32.7V80.9z M197.3,80.6h32.1v-22h-32.1V80.6z"/>
				</g>
			</g>
			<g>
				<rect x="200.7" y="61.2" class="st8" width="25.4" height="16.8"/>
				<g class="st24">
					<path class="st23" d="M226,61.2c0,0,0,0-0.1,0c-0.1,0-0.2,0-0.4,0c-0.3,0-0.8,0-1.4,0c-1.2,0-3,0-5.2,0c-4.5,0-10.8,0-18.3,0
						l0.1-0.1c0,5.1,0,10.8,0,16.8l0,0l-0.1-0.1c9.6,0,18.4,0,25.4,0L226,78c0-5.1,0-9.3,0-12.2c0-1.5,0-2.6,0-3.4
						c0-0.4,0-0.7,0-0.9C226,61.3,226,61.2,226,61.2c0,0,0,0.1,0,0.3c0,0.2,0,0.5,0,0.9c0,0.8,0,1.9,0,3.4c0,2.9,0,7.1,0,12.3V78
						H226c-7,0-15.8,0-25.4,0h-0.1V78l0,0c0-6,0-11.7,0-16.8v-0.1h0.1c7.5,0,13.8,0,18.3,0c2.2,0,4,0,5.2,0c0.6,0,1.1,0,1.4,0
						c0.2,0,0.3,0,0.4,0C226,61.2,226,61.2,226,61.2L226,61.2z"/>
				</g>
			</g>
			<g class="st24">
				<path class="st23" d="M197.2,58.3c0,0,0.2,0.1,0.6,0.4c0.3,0.2,0.8,0.6,1.3,1c0.5,0.4,0.9,0.8,1.2,1c0.3,0.3,0.5,0.5,0.5,0.5
					c0,0-0.8-0.6-1.8-1.4C197.9,59,197.1,58.4,197.2,58.3L197.2,58.3z"/>
			</g>
			<g class="st24">
				<path class="st23" d="M229.6,58.4c0,0-0.7,0.7-1.7,1.4c-1,0.8-1.8,1.4-1.8,1.3c0,0,0.7-0.7,1.7-1.4
					C228.7,59,229.5,58.4,229.6,58.4z"/>
			</g>
			<g>
				<path class="st8" d="M229.5,80.7c-1.2-1-2.4-2-3.6-2.9"/>
				<g class="st24">
					<path class="st23" d="M225.9,77.8c0,0,0.9,0.6,1.9,1.4c1,0.8,1.8,1.5,1.8,1.5c0,0-0.9-0.6-1.9-1.4
						C226.7,78.5,225.9,77.8,225.9,77.8z"/>
				</g>
			</g>
			<g class="st24">
				<path class="st23" d="M197.2,80.7c0,0,0.7-0.7,1.7-1.4c1-0.8,1.8-1.3,1.8-1.3c0,0-0.7,0.7-1.7,1.4
					C198,80.2,197.2,80.8,197.2,80.7z"/>
			</g>
			<g class="st24">
				<rect x="205.8" y="66.4" class="st23" width="16" height="5.6"/>
			</g>
		</g>
		<path class="st16" d="M232.8,184.3c0,0-48.1,0.1-107.4,0.1S18,184.3,18,184.3c0,0,48.1-0.1,107.4-0.1S232.8,184.3,232.8,184.3z"/>
		<g>
			<g>
				<g>
					<path class="st26" d="M122.4,83.5h-6V70.3c0-1.7,1.4-3,3-3l0,0c1.7,0,3,1.4,3,3L122.4,83.5L122.4,83.5z"/>
					<path class="st27" d="M117.6,83.1c0,0,0-0.2,0-0.6c0-0.4,0-1-0.1-1.7c0-1.5-0.1-3.5-0.1-5.7c0-1.1,0-2.2,0-3.1
						c0-1,0-1.9,0.3-2.6c0.2-0.7,0.6-1.2,0.8-1.5c0.1-0.2,0.3-0.3,0.4-0.3c0.1-0.1,0.1-0.1,0.1-0.1c0,0-0.2,0.1-0.4,0.5
						c-0.3,0.3-0.6,0.8-0.8,1.5c-0.2,0.7-0.2,1.6-0.2,2.5c0,1,0,2,0.1,3.1c0,2.2,0,4.2,0.1,5.7c0,0.7,0,1.3,0,1.7
						C117.6,82.8,117.6,83,117.6,83.1L117.6,83.1z"/>
					<path class="st27" d="M119.4,67.8c0.1,0,0.1,3.4,0.1,7.6c0,4.2,0,7.6-0.1,7.6c-0.1,0-0.1-3.4-0.1-7.6
						C119.3,71.3,119.3,67.8,119.4,67.8L119.4,67.8z"/>
					<path class="st27" d="M121.3,83c0,0,0-0.2,0-0.6c0-0.4,0-1,0-1.7c0-1.4,0-3.4-0.1-5.6c0-1.1,0-2.1-0.1-3.1
						c-0.1-0.9-0.2-1.8-0.3-2.5c-0.3-1.4-0.8-2.2-0.8-2.2c0,0,0,0,0.1,0.1c0.1,0.1,0.1,0.2,0.2,0.4c0.2,0.4,0.4,0.9,0.6,1.6
						c0.2,0.7,0.3,1.6,0.3,2.5c0.1,1,0.1,2,0.1,3.1c0,2.2,0,4.2,0,5.6c0,0.7,0,1.3,0,1.7C121.3,82.8,121.3,83,121.3,83L121.3,83z"/>
					<path class="st27" d="M116.8,78.6c0,0.1-0.3,0.1-0.6,0c-0.3-0.1-0.6-0.3-0.5-0.4c0,0,0.3,0.1,0.6,0.2
						C116.6,78.5,116.8,78.6,116.8,78.6z"/>
					<path class="st27" d="M116.7,75.4c0,0-0.3,0-0.7-0.2c-0.3-0.2-0.5-0.5-0.5-0.5c0,0,0.3,0.1,0.6,0.3
						C116.5,75.2,116.8,75.3,116.7,75.4L116.7,75.4z"/>
					<path class="st27" d="M116.7,71c0,0-0.4-0.1-0.7-0.4c-0.3-0.3-0.5-0.6-0.4-0.7c0,0,0.3,0.2,0.6,0.5
						C116.5,70.7,116.8,70.9,116.7,71L116.7,71z"/>
					<path class="st27" d="M117.5,68.2c0,0-0.3-0.2-0.4-0.5c-0.2-0.3-0.2-0.6-0.2-0.6c0.1,0,0.2,0.2,0.3,0.5
						C117.4,67.9,117.5,68.1,117.5,68.2L117.5,68.2z"/>
					<path class="st27" d="M118.5,71.6c0,0-0.2-0.1-0.3-0.4c-0.1-0.2-0.2-0.5-0.2-0.5c0,0,0.2,0.1,0.3,0.4
						C118.4,71.3,118.5,71.5,118.5,71.6z"/>
					<path class="st27" d="M118.7,73.9c0.1,0,0,0.4-0.1,0.8c-0.1,0.4-0.3,0.7-0.3,0.7c-0.1,0,0-0.4,0.1-0.8
						C118.5,74.2,118.6,73.8,118.7,73.9z"/>
					<path class="st27" d="M118.5,80.1c-0.1,0-0.1-0.3-0.2-0.6c0-0.3,0-0.6,0-0.6c0.1,0,0.1,0.3,0.2,0.6
						C118.6,79.8,118.6,80.1,118.5,80.1z"/>
					<path class="st27" d="M116.9,82.1c0,0-0.2,0-0.4-0.1s-0.4-0.2-0.4-0.3c0,0,0.2,0,0.4,0.1S116.9,82,116.9,82.1z"/>
					<path class="st27" d="M120.6,80.2c0,0,0,0.3-0.2,0.6c-0.2,0.3-0.3,0.6-0.4,0.5c0,0,0-0.3,0.2-0.6
						C120.3,80.4,120.5,80.1,120.6,80.2z"/>
					<path class="st27" d="M120.7,77.7c0,0-0.3-0.3-0.5-0.6c-0.2-0.4-0.4-0.7-0.4-0.7c0,0,0.3,0.3,0.5,0.6
						C120.6,77.4,120.7,77.7,120.7,77.7z"/>
					<path class="st27" d="M120.4,72c0.1,0,0,0.3-0.1,0.7s-0.3,0.7-0.3,0.7c-0.1,0,0-0.3,0.1-0.7S120.4,71.9,120.4,72z"/>
					<path class="st27" d="M120,69.6c-0.1,0-0.1-0.2-0.1-0.5c0-0.3,0-0.5,0.1-0.5c0.1,0,0.1,0.2,0.1,0.5
						C120.1,69.4,120,69.6,120,69.6z"/>
					<path class="st27" d="M121.7,68.5c-0.1,0,0-0.2,0-0.5c0.1-0.3,0.2-0.5,0.2-0.5c0.1,0,0,0.2,0,0.5
						C121.8,68.3,121.7,68.5,121.7,68.5z"/>
					<path class="st27" d="M119.4,67.7c-0.1,0-0.1-0.2-0.2-0.6c0-0.3,0-0.6,0-0.6c0.1,0,0.1,0.2,0.2,0.6
						C119.5,67.5,119.5,67.7,119.4,67.7z"/>
					<path class="st27" d="M122.5,69.8c0,0-0.1,0.4-0.3,0.8c-0.3,0.4-0.5,0.6-0.6,0.6c0,0,0.2-0.3,0.4-0.7
						C122.2,70.1,122.4,69.8,122.5,69.8L122.5,69.8z"/>
					<path class="st27" d="M123,74.2c0,0-0.2,0.2-0.4,0.4c-0.3,0.2-0.5,0.3-0.6,0.3c0,0,0.2-0.2,0.4-0.4
						C122.7,74.3,123,74.1,123,74.2z"/>
					<path class="st27" d="M123,78.3c0,0.1-0.2,0.2-0.6,0.3c-0.3,0.1-0.6,0.1-0.6,0.1c0-0.1,0.2-0.2,0.6-0.3
						C122.7,78.3,123,78.3,123,78.3L123,78.3z"/>
					<path class="st27" d="M122.9,81.3c0,0-0.3-0.1-0.6-0.3c-0.3-0.2-0.5-0.4-0.4-0.4c0,0,0.3,0.1,0.6,0.3
						C122.7,81.1,122.9,81.3,122.9,81.3z"/>
				</g>
				<g>
					<rect x="113.5" y="83" class="st28" width="12.4" height="2.2"/>
					<polygon class="st28" points="114.4,84.8 115.9,91.3 123.3,91.3 125,84.8 					"/>
					<path class="st27" d="M125.9,85.2c0,0-2.8,0-6.2,0s-6.2,0-6.2,0s2.8,0,6.2,0S125.9,85.2,125.9,85.2z"/>
				</g>
			</g>
			<g>
				<rect x="95.2" y="91.4" class="st26" width="33.6" height="4.5"/>
				<rect x="99.3" y="95.2" class="st26" width="3" height="5.8"/>
				<rect x="122" y="94.7" class="st26" width="3" height="5.8"/>
				<path class="st27" d="M128.8,96c0,0-7.5,0.1-16.7,0.1s-16.7,0-16.7-0.1s7.5-0.1,16.7-0.1S128.8,96,128.8,96z"/>
			</g>
			<g>
				<path class="st28" d="M106.5,74.3c-0.1-0.1-0.3-0.1-0.4,0c-0.5,0.1-1,0.5-1.4,0.9c0.4-0.5,0.8-1.1,0.9-1.7
					c0.1-0.2-0.2-0.4-0.4-0.3c-0.4,0.3-0.7,0.7-0.9,1.1c0.1-0.5,0.1-1,0-1.5c0-0.1,0-0.3-0.2-0.4c-0.2-0.1-0.4,0.2-0.4,0.4
					c-0.2,0.7-0.2,1.4-0.2,2c-0.2-0.7-0.4-1.5-0.5-2.2c0-0.1-0.1-0.3-0.2-0.3c-0.2,0-0.3,0.2-0.3,0.3c-0.2,0.8,0,1.8,0.5,2.5
					c-0.4-0.3-0.9-0.6-1.3-1c-0.1-0.1-0.3-0.2-0.4-0.1c-0.1,0-0.2,0.2-0.1,0.3c0,0.1,0.1,0.2,0.2,0.3c0.5,0.6,1.2,1.2,2,1.2
					c1,0,2.1-0.3,2.8-1C106.5,74.7,106.7,74.4,106.5,74.3L106.5,74.3z"/>
				<g>
					<path class="st26" d="M102,85c-1.5-0.8-2.2-2.8-2.3-4.4c-0.1-1.6,0.6-3.3,1.9-4.2c1.4-1,3.4-1,4.8,0c1.4,0.9,2.3,2.7,2.2,4.4
						c-0.1,1.7-1,3.3-2.4,4.3"/>
					<path class="st27" d="M104.4,85.1c0,0,0-0.1,0-0.4c0-0.3,0-0.6,0-1c0-0.9-0.1-2-0.1-3.3c-0.1-1.3-0.1-2.5-0.2-3.3
						c0-0.4,0-0.7-0.1-1c0-0.2,0-0.4,0-0.4c0,0,0,0.1,0.1,0.4s0.1,0.6,0.1,1c0.1,0.8,0.2,2,0.2,3.3c0.1,1.3,0.1,2.5,0.1,3.3
						c0,0.4,0,0.8,0,1C104.4,85,104.4,85.2,104.4,85.1L104.4,85.1z"/>
					<path class="st27" d="M100.1,80.2c0,0-0.2,0-0.5,0s-0.5-0.1-0.5-0.1c0,0,0.2,0,0.5,0C99.9,80.1,100.1,80.1,100.1,80.2z"/>
					<path class="st27" d="M100.2,78.7c0,0-0.2,0-0.5-0.1s-0.4-0.2-0.4-0.2c0,0,0.2,0,0.5,0.1C100.1,78.6,100.2,78.7,100.2,78.7z"/>
					<path class="st27" d="M101,77.7c0,0-0.2-0.1-0.5-0.3c-0.2-0.2-0.4-0.4-0.4-0.4c0,0,0.2,0.1,0.4,0.3
						C100.8,77.5,101,77.6,101,77.7L101,77.7z"/>
					<path class="st27" d="M101.7,76.6c0,0-0.1-0.2-0.2-0.4c-0.1-0.2-0.2-0.4-0.1-0.4c0,0,0.1,0.2,0.2,0.4
						C101.7,76.4,101.8,76.6,101.7,76.6z"/>
					<path class="st27" d="M102.9,75.9c0,0-0.2-0.2-0.2-0.4c-0.1-0.2-0.1-0.5,0-0.5c0,0,0.1,0.2,0.2,0.4
						C102.9,75.7,102.9,75.9,102.9,75.9z"/>
					<path class="st27" d="M104.9,75.1c0,0,0,0.2,0,0.3c-0.1,0.2-0.1,0.3-0.2,0.3c0,0,0-0.2,0-0.3C104.7,75.2,104.8,75.1,104.9,75.1
						z"/>
					<path class="st27" d="M106.3,75.7c0,0-0.1,0.2-0.2,0.3c-0.1,0.1-0.3,0.2-0.3,0.2c0,0,0.1-0.2,0.2-0.3
						C106.2,75.8,106.3,75.7,106.3,75.7z"/>
					<path class="st27" d="M107.6,76.6c0,0-0.1,0.1-0.3,0.3c-0.2,0.1-0.3,0.2-0.3,0.1c0,0,0.1-0.1,0.3-0.3
						C107.4,76.6,107.6,76.5,107.6,76.6z"/>
					<path class="st27" d="M108.5,77.8c0,0-0.2,0.1-0.4,0.2c-0.2,0.1-0.4,0.2-0.5,0.1s0.2-0.1,0.4-0.2
						C108.3,77.8,108.5,77.8,108.5,77.8z"/>
					<path class="st27" d="M108.9,79.1c0,0-0.2,0.1-0.4,0.1c-0.2,0-0.4,0-0.4,0c0,0,0.2-0.1,0.4-0.1
						C108.7,79.1,108.9,79.1,108.9,79.1z"/>
					<path class="st27" d="M109.1,80.8c0,0-0.2,0-0.4-0.1c-0.2-0.1-0.4-0.2-0.4-0.2c0,0,0.2,0,0.4,0.1
						C108.9,80.7,109.1,80.8,109.1,80.8z"/>
					<path class="st27" d="M108.9,82.2c0,0-0.3,0-0.5-0.2c-0.3-0.2-0.4-0.4-0.4-0.4c0,0,0.2,0.1,0.5,0.3
						C108.7,82.1,108.9,82.2,108.9,82.2L108.9,82.2z"/>
					<path class="st27" d="M108.2,83.5c0,0-0.2-0.1-0.4-0.3c-0.2-0.2-0.3-0.4-0.3-0.4c0,0,0.2,0.1,0.4,0.3
						C108,83.3,108.2,83.5,108.2,83.5z"/>
					<path class="st27" d="M101.1,83.7c0,0-0.2,0.2-0.5,0.3c-0.3,0.1-0.5,0.2-0.5,0.2c0,0,0.2-0.2,0.5-0.3
						C100.9,83.7,101.1,83.6,101.1,83.7z"/>
					<path class="st27" d="M100.5,82.5c0,0-0.2,0.1-0.4,0.2c-0.2,0.1-0.4,0.2-0.4,0.1c0,0,0.2-0.1,0.4-0.2
						C100.3,82.5,100.5,82.5,100.5,82.5z"/>
					<path class="st27" d="M100,81.5c0,0-0.2,0.1-0.5,0.1c-0.3,0-0.5,0-0.5,0c0,0,0.2-0.1,0.5-0.1C99.8,81.4,100,81.4,100,81.5z"/>
					<path class="st27" d="M101.6,80.9c0,0-0.2,0.1-0.5,0.2c-0.3,0-0.5,0-0.5-0.1c0,0,0.2-0.1,0.5-0.1
						C101.3,80.9,101.5,80.9,101.6,80.9z"/>
					<path class="st27" d="M102.8,79.6c0,0-0.1,0.1-0.4,0.1c-0.2,0-0.4,0-0.4-0.1c0,0,0.2-0.1,0.4-0.1
						C102.7,79.6,102.8,79.6,102.8,79.6L102.8,79.6z"/>
					<path class="st27" d="M103.1,78.6c0,0-0.2,0-0.4-0.1c-0.2-0.1-0.3-0.2-0.3-0.2c0,0,0.2,0,0.4,0.1
						C102.9,78.5,103.1,78.6,103.1,78.6z"/>
					<path class="st27" d="M103.6,77.5c0,0-0.1-0.1-0.2-0.2c-0.1-0.1-0.1-0.3-0.1-0.3c0,0,0.1,0.1,0.2,0.2
						C103.5,77.4,103.6,77.5,103.6,77.5L103.6,77.5z"/>
					<path class="st27" d="M103,81.8c0,0-0.1,0.1-0.3,0.2c-0.1,0-0.2,0-0.3,0l0-0.1c0,0,0.1,0,0.1,0c0,0,0,0-0.1,0.1l0-0.1
						c0.1,0,0.2-0.1,0.3-0.1C102.8,81.8,103,81.8,103,81.8L103,81.8z"/>
					<path class="st27" d="M103.3,83.6c0,0-0.2,0.1-0.4,0.2c-0.2,0.1-0.5,0.1-0.5,0.1c0,0,0.2-0.1,0.4-0.2
						C103,83.6,103.2,83.6,103.3,83.6z"/>
					<path class="st27" d="M101.8,82.8c0,0-0.1,0.1-0.3,0.2c-0.2,0.1-0.3,0.1-0.3,0c0,0,0.1-0.1,0.3-0.2
						C101.6,82.8,101.8,82.8,101.8,82.8z"/>
					<path class="st27" d="M101.9,79.1c0,0-0.2,0-0.5-0.1c-0.3-0.1-0.4-0.2-0.4-0.2c0,0,0.2,0,0.5,0.1
						C101.7,79,101.9,79.1,101.9,79.1L101.9,79.1z"/>
					<path class="st27" d="M105.4,78.7c0,0-0.1,0.2-0.3,0.3c-0.2,0.1-0.3,0.2-0.4,0.2c0,0,0.1-0.2,0.3-0.3
						C105.3,78.7,105.4,78.7,105.4,78.7z"/>
					<path class="st27" d="M105.6,80.5c0,0-0.1,0.1-0.3,0.1c-0.2,0-0.3,0-0.3,0c0,0,0.1-0.1,0.3-0.1
						C105.5,80.5,105.6,80.5,105.6,80.5z"/>
					<path class="st27" d="M105.8,82.6c0,0-0.2,0-0.4-0.1c-0.2-0.1-0.4-0.2-0.4-0.2c0,0,0.2,0,0.4,0.1
						C105.7,82.4,105.9,82.5,105.8,82.6z"/>
					<path class="st27" d="M105.4,84.6c0,0-0.2-0.1-0.3-0.2c-0.1-0.1-0.2-0.3-0.2-0.3s0.2,0.1,0.3,0.2
						C105.3,84.4,105.4,84.6,105.4,84.6L105.4,84.6z"/>
					<path class="st27" d="M105.3,77.4c0,0-0.1,0.1-0.2,0.2c-0.1,0.1-0.3,0.1-0.3,0c0,0,0.1-0.1,0.2-0.2
						C105.1,77.4,105.3,77.3,105.3,77.4L105.3,77.4z"/>
					<path class="st27" d="M107,79.2c0,0-0.1,0.1-0.4,0.2c-0.2,0-0.4,0-0.4,0c0,0,0.2-0.1,0.4-0.1C106.8,79.2,107,79.2,107,79.2z"/>
					<path class="st27" d="M106.7,77.5c0,0-0.1,0.1-0.4,0.2c-0.2,0.1-0.4,0.1-0.4,0c0,0,0.2-0.1,0.4-0.2
						C106.5,77.6,106.6,77.5,106.7,77.5L106.7,77.5z"/>
					<path class="st27" d="M107.4,81.8c0,0-0.3,0.1-0.6,0c-0.3-0.1-0.6-0.2-0.6-0.2c0,0,0.3,0,0.6,0.1
						C107.1,81.7,107.4,81.7,107.4,81.8L107.4,81.8z"/>
					<path class="st27" d="M106.7,84.2c0,0-0.2-0.1-0.4-0.3c-0.2-0.2-0.3-0.4-0.3-0.4c0,0,0.2,0.1,0.4,0.3
						C106.6,84,106.8,84.1,106.7,84.2L106.7,84.2z"/>
					<path class="st27" d="M103.9,75.6c0,0-0.5,0.3-1.2,1c-0.7,0.7-1.3,1.9-1.5,3.3c-0.1,0.7,0,1.4,0.1,2c0.1,0.6,0.2,1.2,0.4,1.6
						c0.1,0.5,0.3,0.8,0.3,1.1c0.1,0.3,0.1,0.4,0.1,0.4c0,0-0.1-0.1-0.2-0.4c-0.1-0.2-0.2-0.6-0.4-1.1c-0.1-0.5-0.3-1-0.4-1.6
						c-0.1-0.6-0.2-1.3-0.1-2.1c0.2-1.5,0.9-2.7,1.6-3.4c0.3-0.3,0.7-0.6,0.9-0.7c0.1-0.1,0.2-0.1,0.3-0.1
						C103.9,75.6,103.9,75.6,103.9,75.6L103.9,75.6z"/>
					<path class="st27" d="M105.8,85.1c0,0,0.3-0.5,0.6-1.5c0.3-0.9,0.6-2.3,0.4-3.8c-0.1-0.7-0.3-1.4-0.6-2c-0.3-0.6-0.6-1.1-1-1.4
						c-0.4-0.3-0.7-0.5-1-0.6s-0.4-0.1-0.4-0.1c0,0,0,0,0.1,0c0.1,0,0.2,0,0.3,0.1c0.3,0.1,0.6,0.3,1,0.6c0.4,0.3,0.8,0.8,1,1.4
						c0.3,0.6,0.5,1.3,0.6,2.1c0.2,1.5-0.1,2.9-0.4,3.8c-0.1,0.2-0.2,0.4-0.3,0.6c-0.1,0.2-0.2,0.3-0.2,0.5
						C105.9,85,105.8,85.1,105.8,85.1L105.8,85.1z"/>
				</g>
				<g>
					<rect x="98.9" y="84.1" class="st28" width="10.9" height="1.9"/>
					<polygon class="st28" points="99.7,85.6 101,91.4 107.5,91.4 109,85.6 					"/>
					<path class="st27" d="M109.8,86c0,0-2.5,0-5.5,0c-3,0-5.5,0-5.5,0s2.5,0,5.5,0C107.3,86,109.8,86,109.8,86z"/>
				</g>
			</g>
		</g>
		<g>
			<path class="st29" d="M231.2,89.6c0-1.1-5.8-2-13-2s-13,0.9-13,1.9h0l-1.7,22.6h29.4L231.2,89.6L231.2,89.6z"/>
			<path class="st16" d="M211.1,189.5l6.3-1.5h0.7l6.8,1.5c0,0-0.1,0.3,0.3,0.4v0.3h-14.6V190c0,0,0.4-0.1,0.5-0.3L211.1,189.5
				L211.1,189.5z"/>
			<rect x="217.4" y="112.2" class="st16" width="0.7" height="76"/>
			<polygon class="st30" points="218.1,118.2 217.4,116.5 217.4,112.2 218.1,112.2 			"/>
			<path class="st31" d="M218.8,189.1h-4.9c0,0,0-0.1,0-0.1l3.3-0.8c0,0,0,0,0,0h0.8c0,0,0,0,0,0L218.8,189.1
				C218.8,189,218.8,189.1,218.8,189.1L218.8,189.1z"/>
			<path class="st32" d="M225.3,190c0,0-3.3,0.1-7.3,0.1c-4,0-7.3,0-7.3-0.1s3.3-0.1,7.3-0.1C222,189.9,225.3,189.9,225.3,190z"/>
			<path class="st32" d="M218.1,188c0,0-0.2,0.1-0.4,0.1s-0.4,0-0.4-0.1s0.2-0.1,0.4-0.1S218.1,188,218.1,188z"/>
		</g>
		<g>
			<g>
				<path class="st33" d="M62.1,152.8c0,0,7.3-2.7,16.1-1.4c1.7,0.2,1.7,11,1.7,11l-7.9,6.9L62.1,152.8"/>
				<g class="st34">
					<path class="st19" d="M62.1,152.8c0,0,7.3-2.7,16.1-1.4c1.7,0.2,0.9,11.1,0.9,11.1l-5.9,4.3L62.1,152.8"/>
				</g>
				<path class="st33" d="M63.7,152.4h4.9c2.5,0,4.5,2,4.5,4.5v25.3h-9.4c-2.5,0-4.5-2-4.5-4.5v-20.8
					C59.2,154.4,61.2,152.4,63.7,152.4L63.7,152.4z"/>
				<g>
					<g>
						<g>
							<polygon class="st35" points="63.7,195 66.1,182.1 73.7,182.1 68.5,195.1 							"/>
							<polygon class="st35" points="202.4,195 200,182.1 192.4,182.1 197.6,195.1 							"/>
							<path class="st33" d="M188.7,159l0.8-25.8c0.1-2.3-1.4-4.3-3.2-4.3l-52.9,0.4V159H188.7L188.7,159z"/>
							<path class="st33" d="M196.5,168.8C196.5,168.8,196.5,168.7,196.5,168.8c0-0.3,0-0.4,0-0.5h-0.1c-0.9-5.4-5.3-7.4-7.6-9.3
								c-2.4-2-46.4-1.5-49.6-1.7c-3.2-0.1-4.2,0.6-4.4,1.1c-0.4-0.5-1.6-1.2-4.6-1.1c-3.4,0.1-49.8-0.6-52.1,1.7
								c-1.8,1.8-5.5,5.8-5,7v16.4l61,0l0-0.2l62.5,0C196.5,182.2,196.5,171.2,196.5,168.8L196.5,168.8L196.5,168.8z M133.4,168.3
								L133.4,168.3l0,0.2L133.4,168.3z"/>
							<path class="st33" d="M205.5,152.9c0,0-7.3-2.7-16.1-1.4c-1.7,0.2-1.7,11-1.7,11l7.9,6.9L205.5,152.9"/>
							<g class="st34">
								<path class="st19" d="M205.6,152.9c0,0-7.3-2.7-16.1-1.4c-1.7,0.2-0.9,11.1-0.9,11.1l5.9,4.3L205.6,152.9"/>
							</g>
							<path class="st33" d="M203.9,182.2h-9.4v-25.3c0-2.5,2-4.5,4.5-4.5h4.9c2.5,0,4.5,2,4.5,4.5v20.8
								C208.4,180.2,206.4,182.2,203.9,182.2L203.9,182.2z"/>
							<path class="st36" d="M204.3,182.3c0,0-30.5-0.1-69.7-0.1c-39.2,0-71,0-71,0c0,0,31.8-0.1,71-0.1
								C173.8,182.1,204.3,182.3,204.3,182.3L204.3,182.3z"/>
							<path class="st36" d="M135.1,133.4c0,0,0,0,0,0.1c0,0.1,0,0.2,0,0.4c0,0.3,0,0.8,0,1.4c0,1.3,0,3,0,5.2c0,4.4,0,10.5,0,17.2
								c0,6.7,0,12.8,0,17.2c0,2.2,0,4,0,5.2c0,0.6,0,1.1,0,1.4c0,0.2,0,0.3,0,0.4c0,0.1,0,0.1,0,0.1s0,0,0-0.1c0-0.1,0-0.2,0-0.4
								c0-0.3,0-0.8,0-1.4c0-1.3,0-3,0-5.2c0-4.4,0-10.5,0-17.2c0-6.7,0-12.8,0-17.2c0-2.2,0-4,0-5.2c0-0.6,0-1.1,0-1.4
								c0-0.2,0-0.3,0-0.4C135.1,133.4,135.1,133.4,135.1,133.4L135.1,133.4z"/>
							<path class="st33" d="M78,159l0-25.8c-0.1-2.3,1.4-4.3,3.2-4.3l52.2,0.4l0,29.7H78L78,159z"/>
						</g>
						<path class="st36" d="M194.5,181.4c0,0-0.1-4.2-0.1-9.5c0-5.2,0-9.5,0.1-9.5s0.1,4.2,0.1,9.5
							C194.6,177.2,194.6,181.4,194.5,181.4z"/>
						<path class="st36" d="M73.2,181.9c0,0-0.1-3.3-0.1-7.3c0-4,0-7.3,0.1-7.3c0,0,0.1,3.3,0.1,7.3
							C73.3,178.7,73.2,181.9,73.2,181.9z"/>
					</g>
					<path class="st36" d="M187.3,159.1c0,0-24.4,0.1-54.4,0.1s-54.4,0-54.4-0.1c0,0,24.4-0.1,54.4-0.1S187.3,159,187.3,159.1z"/>
				</g>
				<path class="st36" d="M194.5,166.8c0,0-27.1,0.1-60.6,0.1s-60.6,0-60.6-0.1c0,0,27.1-0.1,60.6-0.1S194.5,166.7,194.5,166.8z"/>
			</g>
			<g>
				<path class="st37" d="M159.8,138.6c-0.7-0.8-3.1-0.1-3.1-0.1c-2.6,0.7-5.6,1.4-8.1,2.5c-3.3,1.3-6.7,2.1-7.6,4.7
					c-0.8,2.1,1,4.3,2,6.7c0.9,2.3,2,4.5,3.2,6.7c0.7,1.3,1.1,3.2,2.5,3.8c1.1,0.4,2.7-0.3,3.8-0.5c4.8-0.7,9.5-2.3,13.7-4.8
					c0.6-0.4,0.9-1.1,0.8-1.8C165.9,149.5,164,143.6,159.8,138.6L159.8,138.6z"/>
				<path class="st16" d="M141.1,146c0,0,0.1,0.2,0.3,0.6c0.2,0.4,0.6,1,1,1.7c0.5,0.7,1.1,1.5,1.6,2.4c0.6,1,1.1,2.1,1.6,3.2
					c1,2.4,1.8,4.5,2.4,6.1c0.1,0.4,0.2,0.8,0.3,1.1c0,0.3,0,0.6,0.1,0.8c0,0.5,0.2,0.7,0.1,0.7c0,0,0,0,0,0c0,0,0-0.1-0.1-0.1
					c0-0.1-0.1-0.3-0.1-0.5c0-0.2,0-0.5-0.1-0.8c0-0.3-0.1-0.7-0.3-1.1c-0.6-1.6-1.5-3.7-2.4-6c-0.5-1.2-1-2.3-1.5-3.2
					c-0.5-1-1.1-1.7-1.6-2.4c-0.5-0.7-0.8-1.3-1-1.7c-0.1-0.2-0.2-0.4-0.2-0.5C141.1,146,141.1,146,141.1,146L141.1,146z"/>
				<path class="st16" d="M160.2,148.3c0,0-0.1,0.2-0.3,0.5c-0.2,0.3-0.5,0.7-0.9,1.2c-0.8,1-1.9,2.4-3.2,4
					c-1.3,1.5-2.5,2.9-3.4,3.8c-0.4,0.5-0.8,0.9-1.1,1.1c-0.3,0.3-0.4,0.4-0.4,0.4c0,0,0.1-0.2,0.4-0.4c0.3-0.3,0.6-0.7,1-1.2
					c0.9-1,2.1-2.3,3.4-3.8s2.4-2.9,3.3-3.9c0.4-0.5,0.7-0.9,1-1.2C160.1,148.5,160.2,148.3,160.2,148.3L160.2,148.3z"/>
				<path class="st16" d="M158.4,147.8c0,0-0.3,0.2-0.7,0.4c-0.4,0.2-1.1,0.5-1.7,0.8c-0.7,0.3-1.3,0.5-1.8,0.6
					c-0.5,0.1-0.8,0.2-0.8,0.2c0,0,0.3-0.1,0.7-0.3c0.5-0.2,1.1-0.4,1.8-0.7c0.7-0.3,1.3-0.5,1.8-0.7
					C158.2,147.9,158.4,147.8,158.4,147.8z"/>
			</g>
			<g>
				<path class="st37" d="M90.8,140.9c-0.7-0.8-3.1-0.1-3.1-0.1c-2.6,0.7-5.6,1.4-8.1,2.5c-3.3,1.3-6.7,2.1-7.6,4.7
					c-0.8,2.1,1,4.3,2,6.7c0.9,2.3,2,4.5,3.2,6.7c0.7,1.3,1.1,3.2,2.5,3.8c1.1,0.4,2.7-0.3,3.8-0.5c4.8-0.7,9.5-2.3,13.7-4.8
					c0.6-0.4,0.9-1.1,0.8-1.8C96.9,151.7,95,145.8,90.8,140.9L90.8,140.9z"/>
				<path class="st16" d="M72.1,148.2c0,0,0.1,0.2,0.3,0.6c0.2,0.4,0.6,1,1,1.7c0.5,0.7,1.1,1.5,1.6,2.4c0.6,1,1.1,2.1,1.6,3.2
					c1,2.4,1.8,4.5,2.4,6.1c0.1,0.4,0.2,0.8,0.3,1.1c0,0.3,0,0.6,0.1,0.8c0,0.5,0.2,0.7,0.1,0.7c0,0,0,0,0,0c0,0,0-0.1-0.1-0.1
					c0-0.1-0.1-0.3-0.1-0.5c0-0.2,0-0.5-0.1-0.8c0-0.3-0.1-0.7-0.3-1.1c-0.6-1.6-1.5-3.7-2.4-6c-0.5-1.2-1-2.3-1.5-3.2
					c-0.5-1-1.1-1.7-1.6-2.4c-0.5-0.7-0.8-1.3-1-1.7c-0.1-0.2-0.2-0.4-0.2-0.5C72.1,148.3,72.1,148.2,72.1,148.2L72.1,148.2z"/>
				<path class="st16" d="M91.2,150.6c0,0-0.1,0.2-0.3,0.5c-0.2,0.3-0.5,0.7-0.9,1.2c-0.8,1-1.9,2.4-3.2,4c-1.3,1.5-2.5,2.9-3.4,3.8
					c-0.4,0.5-0.8,0.9-1.1,1.1c-0.3,0.3-0.4,0.4-0.4,0.4c0,0,0.1-0.2,0.4-0.4c0.3-0.3,0.6-0.7,1-1.2c0.9-1,2.1-2.3,3.4-3.8
					s2.4-2.9,3.3-3.9c0.4-0.5,0.7-0.9,1-1.2C91.1,150.7,91.2,150.5,91.2,150.6L91.2,150.6z"/>
				<path class="st16" d="M89.4,150c0,0-0.3,0.2-0.7,0.4c-0.4,0.2-1.1,0.5-1.7,0.8c-0.7,0.3-1.3,0.5-1.8,0.6s-0.8,0.2-0.8,0.2
					c0,0,0.3-0.1,0.7-0.3c0.5-0.2,1.1-0.4,1.8-0.7c0.7-0.3,1.3-0.5,1.8-0.7C89.1,150.1,89.4,150,89.4,150z"/>
			</g>
			<g>
				<path class="st37" d="M191.8,139.1c0.8-0.6,2.7,0.6,2.7,0.6c2.1,1.3,4.5,2.8,6.4,4.4c2.5,2.1,5.2,3.7,5.3,6.4
					c0.1,2.3-2.1,3.9-3.5,5.9c-1.4,2-3,3.9-4.6,5.6c-1,1-1.9,2.8-3.2,3c-1,0.2-2.2-1-3.2-1.4c-4-1.8-7.6-4.6-10.6-8
					c-0.4-0.5-0.5-1.3-0.2-1.9C183.5,148.1,186.8,142.8,191.8,139.1L191.8,139.1z"/>
				<path class="st16" d="M206,150.8c0,0,0,0.1-0.1,0.2c-0.1,0.1-0.2,0.2-0.3,0.4c-0.3,0.4-0.7,0.8-1.3,1.4c-0.6,0.6-1.3,1.2-2.1,2
					c-0.7,0.8-1.5,1.7-2.2,2.7c-1.4,2-2.8,3.8-3.7,5.2c-0.2,0.3-0.4,0.7-0.5,0.9c-0.1,0.3-0.2,0.6-0.3,0.8c-0.1,0.2-0.2,0.4-0.2,0.5
					c-0.1,0.1-0.1,0.1-0.1,0.1c0,0,0.2-0.2,0.3-0.6c0.1-0.2,0.2-0.5,0.3-0.8c0.1-0.3,0.3-0.6,0.5-1c0.9-1.3,2.2-3.2,3.7-5.2
					c0.7-1,1.5-1.9,2.2-2.7c0.7-0.8,1.5-1.4,2.1-2c0.6-0.5,1.1-1,1.4-1.4C205.8,151,206,150.8,206,150.8L206,150.8z"/>
				<path class="st16" d="M188.8,148.3c0,0,0.1,0.2,0.2,0.5c0.1,0.4,0.3,0.8,0.5,1.4c0.4,1.2,1,2.8,1.8,4.6c0.7,1.8,1.4,3.4,1.9,4.5
					c0.2,0.6,0.4,1,0.6,1.4c0.1,0.3,0.2,0.5,0.2,0.5c0,0-0.1-0.2-0.3-0.5c-0.2-0.3-0.4-0.8-0.6-1.4c-0.5-1.1-1.2-2.7-1.9-4.5
					c-0.7-1.8-1.3-3.4-1.7-4.6c-0.2-0.6-0.4-1.1-0.5-1.4C188.8,148.5,188.8,148.3,188.8,148.3L188.8,148.3z"/>
				<path class="st16" d="M190.5,148.3c0,0,0.2,0.2,0.6,0.5c0.3,0.3,0.8,0.7,1.3,1.1c0.5,0.4,1,0.8,1.3,1.1s0.6,0.5,0.5,0.5
					c0,0-0.2-0.1-0.6-0.4c-0.4-0.3-0.9-0.6-1.4-1.1c-0.5-0.4-1-0.9-1.3-1.2S190.4,148.3,190.5,148.3L190.5,148.3z"/>
			</g>
			<g>
				<g>
					<path class="st16" d="M200.7,141.3c-0.6,0-1.1,0.4-1.3,0.9c-0.2,0.5,0,1.1,0.4,1.5c-0.9,0-1.2,1.2-0.8,1.8
						c0.5,0.7,1.4,1,2.2,1.2l0.1,0.7c-0.1,0.9,0.5,1.8,1.3,2.2c0.9,0.4,2,0.3,2.7-0.2c0.7,0.6,1.9,0.7,2.8,0.3
						c0.9-0.5,1.4-1.4,1.2-2.3c1.3,0.3,2.8-0.3,3.4-1.4s0.1-2.6-1-3.2c0.3-0.8,0-1.7-0.6-2.2c-0.6-0.5-1.7-0.7-2.5-0.4
						c-0.3-0.8-1.1-1.4-2-1.6c-0.9-0.1-1.9,0.2-2.5,0.9c-0.6-0.7-1.9-0.9-2.7-0.4C200.6,139.4,200.3,140.5,200.7,141.3L200.7,141.3z
						"/>
					<path class="st16" d="M204.6,145.5c-0.6-0.1-1.2,0.2-1.5,0.6c-0.3,0.5-0.3,1.1,0.1,1.5c-0.9-0.2-1.5,0.9-1.2,1.6
						c0.3,0.7,1.1,1.2,1.9,1.6l0,0.7c-0.3,0.8,0.1,1.8,0.8,2.4c0.7,0.6,1.8,0.7,2.7,0.3c0.6,0.7,1.7,1.1,2.7,0.8
						c1-0.3,1.7-1.1,1.7-2.1c1.2,0.6,2.8,0.2,3.6-0.7c0.8-1,0.7-2.5-0.2-3.4c0.5-0.7,0.4-1.6-0.1-2.3c-0.5-0.7-1.5-1-2.3-0.9
						c-0.1-0.8-0.7-1.6-1.6-1.9c-0.9-0.3-1.9-0.1-2.6,0.4c-0.4-0.8-1.6-1.2-2.5-0.9C204.9,143.6,204.3,144.6,204.6,145.5
						L204.6,145.5z"/>
				</g>
				<path class="st38" d="M110.5,128.8c-1.1,0.1-2.3,0.1-3.1-0.7c-0.6-0.6-0.8-1.4-1-2.2c-0.5-2-0.9-4-1.4-6
					c-0.4-1.5-0.7-3.1-0.4-4.6c0.2-0.8,0.6-1.6,1.3-2.1s1.7-0.5,2.3,0.1c0.3,0.3,0.4,0.7,0.6,1c1.7,4.2,3.4,8.4,5.2,12.6"/>
				<g>
					<path class="st16" d="M201,151.8c1.1-0.1,1.7-1.9,1.7-3c0.7-0.1,1.1-0.5,1.2-1.1c0.1-0.7,0.2-0.7,0-1.3
						c0.9-1.3,0.4-3.3-0.9-4.1c0.3-1.4-0.8-2.7-2-3.4c-0.3-0.2-0.6-0.3-0.9-0.6c-0.2-0.2-0.3-0.4-0.4-0.6c-0.8-1.1-2.5-1.4-3.7-0.9
						c-0.2,0.1-1,0-1.3,0c-0.3,0-0.5-0.1-0.8,0c-1,0.2-0.9,0.9-1.3,1.3c-0.4,0.4-0.5,0.2-1,0.4c-0.3,0.1-0.5,0.1-0.8,0.2
						c-0.7,0.3-0.7,1.4-1.3,1.9c-0.1,0.1-0.3,0.1-0.4,0.2c-0.3,0.2-0.5,0.4-0.6,0.7c-0.1,0.2-0.1,0.5-0.3,0.7
						c-0.1,0.1-0.3,0.2-0.5,0.3c-0.4,0.2-1,2.2-0.9,2.6l8.1,8.4c0.7,0.5,1.8,0.5,2.5-0.1c0.1-0.1,0.2-0.2,0.4-0.2
						c0.1,0,0.2,0,0.4,0.1c0.8,0.3,1.6-0.4,2.2-1.1c0.1-0.1,0.2-0.2,0.3-0.2C200.7,151.8,200.9,151.8,201,151.8L201,151.8z"/>
					<path class="st32" d="M201.3,139.1c0,0,0.4,0.1,0.9,0.6c0.2,0.2,0.5,0.6,0.7,1c0.2,0.4,0.3,1,0.2,1.6l0-0.1
						c0.6,0.4,1.1,1,1.3,1.7c0.2,0.8,0.2,1.7-0.3,2.5l0-0.1c0.1,0.2,0.1,0.4,0.1,0.6c0,0.2-0.1,0.4-0.1,0.7c0,0.2-0.1,0.5-0.2,0.7
						c-0.1,0.2-0.3,0.4-0.5,0.5c-0.2,0.1-0.4,0.1-0.5,0.1l0.1-0.1c0,0.8-0.2,1.5-0.6,2.1c-0.2,0.3-0.4,0.6-0.7,0.8
						c-0.1,0.1-0.3,0.2-0.5,0.2c-0.2,0-0.3,0-0.4,0.1c-0.1,0.1-0.2,0.2-0.3,0.3c-0.1,0.1-0.2,0.2-0.3,0.3c-0.2,0.2-0.5,0.4-0.7,0.5
						c-0.3,0.1-0.5,0.2-0.8,0.2c-0.1,0-0.3,0-0.4-0.1c-0.1,0-0.2-0.1-0.3-0.1c-0.1,0-0.2,0.1-0.3,0.2c-0.1,0.1-0.2,0.1-0.3,0.2
						c-0.2,0.1-0.4,0.2-0.6,0.2c-0.4,0.1-0.7,0.1-1,0c-0.3-0.1-0.5-0.1-0.6-0.2c-0.1,0-0.1-0.1-0.1-0.1s0,0,0,0c0,0,0.2,0.2,0.8,0.3
						c0.3,0,0.6,0.1,0.9,0c0.2,0,0.4-0.1,0.5-0.2c0.1-0.1,0.2-0.1,0.3-0.2c0.1-0.1,0.2-0.2,0.3-0.2c0.1,0,0.3,0,0.4,0.1
						c0.1,0,0.2,0.1,0.4,0.1c0.2,0,0.5-0.1,0.7-0.2c0.2-0.1,0.5-0.3,0.7-0.5c0.1-0.1,0.2-0.2,0.3-0.3c0.1-0.1,0.2-0.3,0.4-0.3
						c0.2-0.1,0.3-0.1,0.5-0.1c0.1,0,0.3-0.1,0.4-0.2c0.3-0.2,0.5-0.4,0.6-0.7c0.3-0.6,0.5-1.3,0.5-2v-0.1l0.1,0
						c0.2,0,0.3-0.1,0.5-0.1c0.4-0.2,0.6-0.6,0.6-1c0-0.2,0.1-0.4,0.1-0.6c0-0.2-0.1-0.4-0.1-0.6l0,0l0,0c0.5-0.7,0.5-1.6,0.3-2.3
						c-0.2-0.7-0.6-1.3-1.2-1.7l0,0l0,0c0.1-0.6,0-1.1-0.1-1.5c-0.2-0.4-0.5-0.8-0.7-1C201.6,139.3,201.3,139.2,201.3,139.1
						L201.3,139.1z"/>
					<path class="st38" d="M198.8,149.5c1.5-1.4,2.3-4,1.5-6.2c-0.5-1.4-1.2-2.1-1.6-2.6c-0.9-1.2-2.3-1.6-2.3-1.6
						c-0.6-0.4-3.8-0.5-5.5,1.1c-1.9,1.7-4.3,3.9-5.4,5.5c-2.3,3.2-0.5,5.7-0.5,5.7c0,0-2.7,2-2.7,2l1.4,3.4l4.8,0.6L198.8,149.5
						L198.8,149.5z"/>
					<path class="st16" d="M189.5,143.4c-0.2,0.2-0.2,0.5,0,0.7c0.2,0.2,0.5,0.2,0.7,0c0.2-0.2,0.2-0.5,0-0.7
						C190,143.3,189.7,143.3,189.5,143.4L189.5,143.4z"/>
					<path class="st16" d="M190.5,141.9c0,0.1,0.5,0.2,0.8,0.5c0.4,0.4,0.5,0.8,0.6,0.8c0,0,0.1-0.1,0-0.3c0-0.2-0.2-0.5-0.4-0.7
						c-0.2-0.2-0.5-0.3-0.7-0.4C190.6,141.8,190.5,141.9,190.5,141.9L190.5,141.9z"/>
					<path class="st16" d="M189.8,147.1c0,0-0.2-0.3-0.5-0.7c-0.1-0.1-0.2-0.2-0.1-0.3c0-0.1,0.2-0.2,0.4-0.2c0.3-0.1,0.7-0.3,1-0.5
						c1.4-0.7,2.6-1.2,2.6-1.3c0-0.1-1.2,0.4-2.7,1.1c-0.4,0.2-0.7,0.3-1,0.5c-0.1,0.1-0.3,0.1-0.4,0.3c0,0.1,0,0.2,0,0.3
						c0,0.1,0.1,0.1,0.1,0.2C189.5,146.9,189.7,147.2,189.8,147.1L189.8,147.1z"/>
					<path class="st39" d="M185,151.4c0,0,1.8,2,4.7,2.7c0,0-3,0.9-5.6-2.1L185,151.4z"/>
					<path class="st16" d="M191.7,141.1c0,0.2,0.4,0.3,0.8,0.6c0.4,0.3,0.6,0.6,0.8,0.6c0.1,0,0.1-0.2,0-0.4
						c-0.1-0.2-0.2-0.5-0.5-0.7c-0.3-0.2-0.6-0.3-0.8-0.3C191.8,140.9,191.7,141,191.7,141.1L191.7,141.1z"/>
					<path class="st16" d="M193.5,147.4c-0.2,0.2-0.5,0.2-0.7,0c-0.2-0.2-0.2-0.5,0-0.7c0.2-0.2,0.5-0.2,0.7,0
						C193.7,146.9,193.7,147.2,193.5,147.4z"/>
					<path class="st16" d="M195.6,147.2c-0.1,0-0.1-0.5-0.5-0.9c-0.4-0.4-0.8-0.5-0.8-0.6c0,0,0.1-0.1,0.3,0c0.2,0,0.5,0.2,0.7,0.4
						c0.2,0.2,0.3,0.5,0.4,0.7C195.7,147.1,195.7,147.2,195.6,147.2L195.6,147.2z"/>
					<path class="st16" d="M197.1,145.7c-0.2,0-0.4-0.4-0.7-0.8c-0.3-0.4-0.7-0.6-0.7-0.8c0-0.1,0.2-0.1,0.4-0.1
						c0.2,0.1,0.5,0.2,0.7,0.5c0.2,0.3,0.4,0.5,0.4,0.8C197.2,145.6,197.2,145.7,197.1,145.7L197.1,145.7z"/>
					<path class="st38" d="M195.8,151.7c0.2-0.2,0.9-0.5,1.2-0.3c0.6,0.5,1.6,1.5,0.2,2.9c-1.9,1.9-3.7-0.7-3.7-0.8
						C193.5,153.5,195.1,152.4,195.8,151.7z"/>
					<path class="st39" d="M194.9,153.6c0,0,0,0.1,0,0.1c0,0.1,0.1,0.2,0.2,0.2c0.3,0.1,0.8,0,1.1-0.4c0.2-0.2,0.3-0.4,0.4-0.6
						c0.1-0.2,0.1-0.4,0-0.5c-0.1-0.1-0.2-0.1-0.3-0.1c-0.1,0-0.1,0.1-0.1,0.1c0,0,0-0.1,0.1-0.1c0,0,0.1-0.1,0.2,0
						c0.1,0,0.2,0.1,0.2,0.1c0.1,0.2,0.1,0.4,0.1,0.6c-0.1,0.2-0.2,0.5-0.4,0.6c-0.4,0.4-0.9,0.5-1.3,0.4c-0.2-0.1-0.2-0.2-0.3-0.3
						C194.9,153.7,194.9,153.6,194.9,153.6L194.9,153.6z"/>
					<path class="st16" d="M190.5,139.8c0.6,0.1,1.2,0.1,1.6-0.4c0.2,0.3,0.8,0.3,1.1,0.2c0.4-0.1,0.7,0,0.9-0.3
						c0-0.1,0.1-0.1,0.2-0.1c0.1,0,0.2,0,0.3,0.1c0.5,0.3,1.2,0.3,1.7-0.1c0.2,0.6,0.6,1.1,1.1,1.5c-0.1,0.5,0.1,1,0.5,1.3
						c0.4,0.3,0.9,0.5,1.4,0.3c-0.1,0.4,0,0.7,0.2,1.1c0.2,0.3,0.5,0.6,0.7,0.8c-0.6,0.4-0.8,1.3-0.5,1.9c0,0.1,0.1,0.2,0.1,0.3
						c0,0.1-0.1,0.1-0.2,0.2c-0.6,0.3-0.8,1.1-0.5,1.7c-0.5-0.1-1.1,0.5-0.9,1.1c0,0.1,0.1,0.2,0,0.3c0,0-0.1,0-0.1,0
						c-0.3,0-0.7,0.1-0.9,0.3c-0.2,0.2-0.4,0.6-0.1,0.9c-0.2,0-0.5,0-0.7,0.2c-0.2,0.2-0.2,0.5,0,0.6c0.1,0,1.2,0.8,1.3,0.8
						c1.3-0.2,1.4-1.7,2.2-2.6c0.8-1,1.4-2.1,1.7-3.4c0.1-0.5,0.2-1,0.2-1.6c0-0.6-0.1-1.2-0.3-1.8c-0.2-0.8-0.4-1.6-0.8-2.2
						c-0.8-1.3-2.2-1.9-3.6-2.4c-0.5-0.2-1.1-0.4-1.6-0.4c-0.7-0.1-1.3,0.1-2,0.3c-0.9,0.3-1.9,0.6-2.6,1.3"/>
					<path class="st39" d="M190.3,148.9c0-0.3-0.3-0.6-0.6-0.7s-0.7,0.2-0.8,0.5s0,0.7,0.2,0.9c0.3,0.2,0.7,0.2,0.9,0
						c0.2-0.1,0.4-0.4,0.3-0.6"/>
					<path class="st16" d="M190.8,148.7c-0.1-0.1-0.5,0.3-1.1,0.2c-0.6-0.1-1-0.6-1.1-0.5c0,0,0,0.2,0.2,0.4
						c0.2,0.2,0.5,0.4,0.9,0.5c0.4,0.1,0.7-0.1,0.9-0.2C190.8,148.8,190.9,148.7,190.8,148.7L190.8,148.7z"/>
					<path class="st16" d="M191.5,135.8c-0.7,0.9-0.7,2.4,0.1,3.3c0.8,0.9,2.2,1.2,3.2,0.6c0,0.6,0.4,1.2,0.9,1.4
						c0.6,0.2,1.3,0,1.6-0.5c0.3,0.8,1.2,1.3,2.1,1.1c0.8-0.2,1.5-0.9,1.8-1.7c0.3-0.9,0.2-1.8-0.2-2.6c-0.5-0.8-1.3-1.4-2.2-1.5
						c-0.3-1.3-1.9-2.2-3.2-1.6c-1.2-0.8-3-0.2-3.5,1.1"/>
					<path class="st32" d="M199.6,138.4c0,0,0.1,0,0.2,0c0.1,0,0.3,0.1,0.5,0.3c0.2,0.2,0.4,0.4,0.5,0.8c0.1,0.3,0.2,0.8,0,1.1
						c-0.1,0.3-0.5,0.5-0.8,0.4l0.1-0.1c0,0.3-0.1,0.6-0.3,0.8c-0.2,0.2-0.3,0.3-0.5,0.4c-0.3,0.2-0.6,0.1-0.6,0.1
						c0,0,0.2,0,0.5-0.2c0.3-0.2,0.7-0.6,0.7-1.1v-0.1l0.1,0c0.2,0.1,0.5-0.1,0.6-0.3c0.2-0.3,0.1-0.7,0-1c-0.1-0.3-0.3-0.6-0.5-0.7
						C199.9,138.5,199.6,138.5,199.6,138.4L199.6,138.4z"/>
				</g>
				<g>
					<path class="st16" d="M109.2,128.8c0.2,0.3,5.9,6.5,14.1,10.1c0,0,10,20.9,11.9,23.4s6.7,5.9,16,4c4.9-1,9.2-1.6,9.2-1.6
						l-0.4-14.5l-9.6,0.2l-3.6-0.1c0,0-14.6-16.6-14.8-17.1c-0.2-0.5-19.6-8.8-19.9-8.9C111.8,124,109.2,128.8,109.2,128.8
						L109.2,128.8z"/>
					<path class="st16" d="M149,148.4c0,0-2.3-18.2-4.1-21.3c-1.8-3.2-1.7-3.2-5.3-3.6c-3.6-0.4-17.8-0.9-17.8-0.9
						c-0.3,0.2-2.4,5.1-2.4,5.1s11.9,5.7,16.2,4.3l1.2,12.7l12.1,10.7"/>
					<g>
						<path class="st38" d="M102.2,116.4c0,1.9,1.1,3.7,2.4,5.2s2.7,2.8,3.6,4.5c0.5,0.8,0.9,1.8,1.8,2c0.9,0.3,1.8-0.3,2.7-0.6
							c2.6-1.1,5.7-0.9,8,0.6c0.2-1.9,0.5-3.7,1-5.5c-4.7-0.9-9.3-2.1-13.7-3.7c-1.2-0.4-2.5-0.9-3.2-2c-0.2-0.3-0.4-0.7-0.7-1
							c-0.3-0.3-0.6-0.6-1.1-0.6c-0.4,0-0.8,0.4-0.7,0.8"/>
						<path class="st39" d="M102.4,116.1c0,0-0.1-0.2,0.1-0.4c0.1-0.1,0.2-0.3,0.4-0.3c0.2-0.1,0.5-0.1,0.7,0
							c0.3,0.1,0.5,0.3,0.7,0.6c0.2,0.3,0.4,0.6,0.6,0.9c0.4,0.6,1.2,1.2,2,1.5c0.4,0.2,0.9,0.4,1.4,0.5c0.5,0.2,1,0.3,1.6,0.5
							c1.1,0.4,2.3,0.7,3.5,1.1c2.5,0.7,5.3,1.4,8.4,2l0.1,0l0,0.1c-0.4,1.4-0.7,3-0.9,4.6c0,0.3-0.1,0.6-0.1,0.9l0,0.1l-0.1-0.1
							c-0.7-0.5-1.5-0.8-2.4-1.1c-0.8-0.2-1.7-0.3-2.5-0.3c-0.8,0-1.6,0.2-2.4,0.4c-0.8,0.2-1.4,0.7-2.2,0.9c-0.4,0.1-0.8,0.2-1.2,0
							c-0.4-0.1-0.7-0.3-0.9-0.6c-0.5-0.6-0.8-1.2-1.1-1.8c-0.7-1.1-1.6-2.1-2.3-2.9c-0.8-0.9-1.5-1.7-2-2.4
							c-0.5-0.8-0.9-1.5-1.1-2.1c-0.2-0.6-0.3-1.1-0.3-1.4c0-0.3,0-0.5,0-0.5s0,0,0,0.1c0,0.1,0,0.2,0,0.4c0,0.3,0.1,0.8,0.4,1.4
							c0.2,0.6,0.6,1.3,1.1,2c0.5,0.8,1.2,1.5,2,2.4c0.8,0.9,1.6,1.8,2.4,2.9c0.4,0.6,0.6,1.2,1.1,1.8c0.2,0.3,0.5,0.5,0.9,0.6
							c0.3,0.1,0.7,0.1,1.1,0c0.7-0.2,1.4-0.6,2.2-0.9c0.8-0.3,1.6-0.4,2.4-0.4c0.8,0,1.7,0.1,2.5,0.3c0.8,0.2,1.7,0.6,2.4,1.1
							l-0.1,0.1c0-0.3,0.1-0.6,0.1-0.9c0.2-1.6,0.5-3.1,0.9-4.6l0.1,0.1c-3-0.6-5.9-1.3-8.4-2c-1.3-0.4-2.4-0.7-3.5-1.1
							c-0.5-0.2-1.1-0.4-1.6-0.5c-0.5-0.2-1-0.3-1.4-0.5c-0.9-0.4-1.6-0.9-2.1-1.6c-0.2-0.3-0.4-0.6-0.6-0.9
							c-0.2-0.3-0.4-0.5-0.7-0.6c-0.2-0.1-0.5-0.1-0.7,0c-0.2,0.1-0.3,0.2-0.4,0.3C102.3,116,102.4,116.1,102.4,116.1L102.4,116.1z"
							/>
					</g>
					<path class="st32" d="M130.3,131.5c0,0-0.1,0-0.4,0c-0.3,0-0.6-0.1-1.1-0.2c-0.9-0.2-2.1-0.5-3.4-0.9c-1.3-0.5-2.5-1-3.3-1.4
						c-0.4-0.2-0.7-0.4-0.9-0.5c-0.2-0.1-0.3-0.2-0.3-0.2c0,0,0.1,0,0.4,0.2c0.2,0.1,0.6,0.3,1,0.5c0.8,0.4,2,0.9,3.3,1.4
						c1.3,0.5,2.5,0.8,3.4,1c0.4,0.1,0.8,0.2,1.1,0.2S130.3,131.5,130.3,131.5L130.3,131.5z"/>
					<path class="st32" d="M136.7,129.6c0,0-0.2,0.6-0.5,1.2c-0.3,0.6-0.6,1.2-0.7,1.1c0,0,0.2-0.6,0.5-1.2
						C136.3,130.1,136.7,129.6,136.7,129.6z"/>
					<path class="st32" d="M137.9,130c0,0-0.6,0.5-1.2,1.1c-0.6,0.6-1.1,1.2-1.1,1.2c0,0,0.3-0.7,1-1.3
						C137.2,130.3,137.9,130,137.9,130L137.9,130z"/>
					<path class="st32" d="M158.1,150.2c0,0-0.1,0-0.2,0c-0.2,0-0.4,0-0.7,0c-0.6,0-1.4,0-2.4,0.1c-2.1,0-5,0.1-8.2,0.1h0l0,0
						c-0.6-0.6-1.1-1.2-1.7-1.8c-2.6-2.9-4.9-5.6-6.4-7.6c-0.8-1-1.4-1.8-1.8-2.4c-0.2-0.3-0.4-0.5-0.5-0.7
						c-0.1-0.2-0.2-0.2-0.2-0.2c0,0,0.1,0.1,0.2,0.2c0.1,0.2,0.3,0.4,0.5,0.6c0.4,0.6,1.1,1.4,1.9,2.4c1.6,2,3.8,4.7,6.5,7.5
						c0.6,0.6,1.1,1.2,1.7,1.8l-0.1,0c3.3,0,6.2-0.1,8.2-0.1c1,0,1.8,0,2.4,0c0.3,0,0.5,0,0.7,0C158,150.2,158.1,150.2,158.1,150.2
						L158.1,150.2z"/>
					<path class="st32" d="M142.9,157.6c0,0,0-0.1,0-0.3c0-0.2,0.1-0.4,0.2-0.7c0.2-0.6,0.5-1.4,0.9-2.3s0.9-1.6,1.2-2.1
						c0.2-0.3,0.3-0.5,0.5-0.6c0.1-0.1,0.2-0.2,0.2-0.2c0,0-0.2,0.3-0.5,0.8c-0.3,0.5-0.8,1.3-1.2,2.1c-0.4,0.8-0.7,1.7-0.9,2.2
						C143,157.2,142.9,157.6,142.9,157.6L142.9,157.6z"/>
					<path class="st32" d="M144.3,158.5c0,0,0-0.4,0.1-0.9c0.1-0.6,0.3-1.3,0.5-2.1c0.2-0.8,0.5-1.6,0.6-2.1
						c0.2-0.5,0.3-0.9,0.3-0.8c0,0-0.1,0.3-0.2,0.9c-0.2,0.5-0.4,1.3-0.6,2.1c-0.2,0.8-0.4,1.6-0.5,2.1
						C144.4,158.1,144.3,158.5,144.3,158.5L144.3,158.5z"/>
				</g>
				<path class="st39" d="M166.4,142.4c0,0,0.3-1.9,0.8-3c0.3-0.7,1.2-3.2,1.1-3.9c-0.1-0.7-0.6-3.5-0.6-3.5s-0.6,0.3-0.6,1.5
					s-0.4,2.9-0.4,2.9l-2.7-3.2c-0.2-0.2-0.6-0.2-0.7,0.1c-0.1,0.2-0.1,0.4,0,0.6c0.3,0.6,1.1,1.9,1.3,2.2c0.3,0.4,0.4,1,0.4,1
					l-3.1-1.7c-0.1-0.1-0.3,0-0.3,0.1c-0.1,0.3,0.1,0.9,0.3,1.1c0.3,0.4,1.6,1.2,1.6,1.2l-2.9,0.3c0,0,0.1,0.6,0.7,0.7
					c0.5,0,1.2-0.1,1.4,0c0,0-1.1,2.7-1,3.3c0.2,0.6,0.7,1.8,0.7,1.8l3.8-0.9L166.4,142.4L166.4,142.4z"/>
				<g>
					<polygon class="st32" points="165.7,143.2 167,143 170.8,150.8 165.4,153.7 162.9,143.7 					"/>
					<polygon class="st40" points="165.7,143.2 167,143 170.8,150.8 165.4,153.7 162.9,143.7 					"/>
				</g>
				<path class="st41" d="M187.3,153.8c0,0-4.5-2.2-6.7-3.3c-2.1-1.1-8.4-1.8-11.2-1.1c-2.8,0.7-12.2,0.2-12.2,0.2v15.9
					c0,0,14.7-0.7,22.2-1.3c7.5-0.6,10.6-4.3,10.6-4.3L187.3,153.8L187.3,153.8z"/>
				<g>
					<g>
						<polygon class="st8" points="162,125.1 170.3,126.7 170.8,127.1 163.8,142.9 161.1,141.9 						"/>
						<polygon class="st23" points="155.5,140.1 161.7,124.7 170.3,126.4 162.8,143 						"/>
						<path class="st16" d="M162.1,124.8c0,0,0,0.1,0,0.2c0,0.1-0.1,0.3-0.2,0.5c-0.1,0.4-0.3,1-0.6,1.7c-0.5,1.4-1.3,3.4-2.2,5.5
							c-0.9,2.1-1.7,4.1-2.3,5.4c-0.3,0.7-0.5,1.2-0.7,1.6c-0.1,0.2-0.1,0.3-0.2,0.4c0,0.1-0.1,0.2-0.1,0.2c0,0,0-0.1,0.1-0.2
							c0-0.1,0.1-0.3,0.2-0.5c0.2-0.4,0.4-1,0.7-1.7c0.6-1.4,1.4-3.3,2.3-5.5c0.9-2.1,1.7-4.1,2.2-5.5c0.3-0.7,0.5-1.2,0.7-1.7
							c0.1-0.2,0.1-0.3,0.2-0.5C162.1,124.8,162.1,124.8,162.1,124.8L162.1,124.8z"/>
					</g>
					<path class="st38" d="M165.9,143.2c0,0,0.3-1.9,0.8-3c0.3-0.7,1.2-3.2,1.1-3.9c-0.1-0.7-0.6-3.5-0.6-3.5s-0.6,0.3-0.6,1.5
						c0,1.2-0.4,2.9-0.4,2.9l-2.7-3.2c-0.2-0.2-0.6-0.2-0.7,0.1c-0.1,0.2-0.1,0.4,0,0.6c0.3,0.6,1.1,1.9,1.3,2.2
						c0.3,0.4,0.4,1,0.4,1l-3.1-1.7c-0.1-0.1-0.3,0-0.3,0.1c-0.1,0.3,0.1,0.9,0.3,1.1c0.3,0.4,1.6,1.2,1.6,1.2l-2.9,0.3
						c0,0,0.1,0.6,0.7,0.7c0.5,0,1.2-0.1,1.4,0c0,0-1.1,2.7-1,3.3c0.2,0.6,0.7,1.8,0.7,1.8l3.8-0.9L165.9,143.2L165.9,143.2z"/>
					<path class="st39" d="M163.5,140c0,0,0-0.1,0-0.3c0-0.2,0-0.4-0.2-0.5c-0.1-0.2-0.4-0.2-0.5-0.2c-0.2,0-0.2,0-0.3,0
						c0,0,0.1-0.1,0.3-0.1c0.2,0,0.4,0,0.6,0.3c0.2,0.2,0.2,0.5,0.2,0.7C163.6,139.9,163.5,140,163.5,140L163.5,140z"/>
					<path class="st39" d="M165.1,139.7c0,0,0-0.1,0-0.3c0-0.2,0-0.4-0.1-0.6c-0.1-0.2-0.2-0.4-0.3-0.5c-0.1-0.1-0.2-0.2-0.1-0.2
						s0.1,0,0.2,0.2c0.1,0.1,0.3,0.3,0.4,0.5c0.1,0.2,0.1,0.5,0.1,0.7C165.2,139.6,165.1,139.7,165.1,139.7z"/>
					<path class="st39" d="M166.4,138.1c0,0-0.1-0.2-0.1-0.4c-0.1-0.2-0.1-0.4-0.1-0.5c0,0,0.2,0.1,0.3,0.4
						C166.5,137.9,166.5,138.1,166.4,138.1L166.4,138.1z"/>
				</g>
				<g>
					<path class="st41" d="M160.9,145.7c0,0,3,16.1,5.7,18c2.8,1.9,14.1,0.7,16.5,0.3c2.4-0.4,7.6-3.1,7.5-4.9
						c-0.3-4.2-3.9-5.3-5.5-5.1c-1.6,0.2-12.7,3.4-12.7,3.4l-6-14C166.5,143.5,161.9,143.4,160.9,145.7L160.9,145.7z"/>
					<path class="st16" d="M160.9,145.7c0,0,0.1-0.1,0.2-0.4c0.1-0.1,0.2-0.2,0.3-0.4c0.2-0.1,0.3-0.3,0.6-0.4
						c0.9-0.6,2.5-1,4.5-1.1h0l0,0c1.5,3.4,3.5,8.2,6,14l-0.1,0c3.1-0.9,6.6-1.9,10.3-2.9c0.5-0.1,0.9-0.2,1.4-0.4
						c0.5-0.1,0.9-0.2,1.4-0.3c1,0,2,0.3,2.8,0.9c0.9,0.5,1.5,1.4,1.9,2.3c0.2,0.5,0.3,1,0.4,1.5c0,0.3,0.1,0.5,0,0.8
						c-0.1,0.3-0.2,0.5-0.3,0.7c-0.5,0.6-1.1,1.1-1.7,1.6c-0.6,0.4-1.3,0.8-1.9,1.1c-0.7,0.3-1.3,0.6-2,0.9
						c-0.3,0.1-0.7,0.2-1.1,0.3c-0.4,0.1-0.7,0.1-1.1,0.2c-2.9,0.4-5.6,0.6-8.3,0.7c-1.3,0-2.6,0-3.9-0.1c-0.6,0-1.2-0.1-1.8-0.2
						c-0.6-0.1-1.2-0.3-1.7-0.5c-0.5-0.3-0.9-0.8-1.2-1.3c-0.3-0.5-0.5-1-0.8-1.5c-0.4-1-0.8-2-1.1-2.9c-0.6-1.9-1.1-3.7-1.4-5.2
						c-0.4-1.5-0.7-2.9-0.9-4c-0.2-1.1-0.4-1.9-0.5-2.5c-0.1-0.3-0.1-0.5-0.1-0.7C160.9,145.8,160.9,145.7,160.9,145.7
						c0,0,0,0.1,0,0.2c0,0.2,0.1,0.4,0.1,0.7c0.1,0.6,0.3,1.4,0.5,2.5c0.2,1.1,0.5,2.4,0.9,4c0.4,1.5,0.8,3.3,1.4,5.2
						c0.3,0.9,0.6,1.9,1.1,2.9c0.2,0.5,0.5,1,0.7,1.5c0.3,0.5,0.6,0.9,1.1,1.2c0.5,0.3,1.1,0.4,1.7,0.5c0.6,0.1,1.2,0.2,1.8,0.2
						c1.2,0.1,2.5,0.1,3.8,0.1c2.6-0.1,5.4-0.3,8.2-0.7c0.4-0.1,0.7-0.1,1.1-0.2s0.7-0.2,1-0.3c0.7-0.2,1.4-0.5,2-0.9
						c0.7-0.3,1.3-0.7,1.9-1.1c0.6-0.4,1.2-0.9,1.6-1.5c0.1-0.2,0.3-0.4,0.3-0.7c0.1-0.2,0-0.5,0-0.7c-0.1-0.5-0.2-1-0.4-1.5
						c-0.4-0.9-1.1-1.7-1.9-2.3c-0.8-0.5-1.8-0.8-2.7-0.8c-0.5,0-0.9,0.2-1.4,0.2c-0.5,0.1-0.9,0.2-1.4,0.4c-3.7,1-7.1,2-10.3,2.9
						l-0.1,0l0-0.1c-2.4-5.8-4.5-10.6-5.9-14l0,0c-2,0-3.6,0.5-4.5,1c-0.2,0.1-0.4,0.3-0.6,0.4c-0.1,0.2-0.3,0.3-0.3,0.4
						C161,145.6,160.9,145.7,160.9,145.7L160.9,145.7z"/>
				</g>
			</g>
		</g>
		<g>
			<g>
				<path class="st42" d="M56.4,172.6c0.3-0.2,0.6-0.3,0.8-0.4c0.6-0.3,1.2-0.6,1.8-0.9c0.4-0.2,0.7-0.3,1.1-0.5
					c0.5-0.2,1-0.4,1.5-0.6c-0.5-0.1-1-0.1-1.5-0.1c-0.4,0-0.9-0.1-1.3,0c-0.5,0.1-1,0.2-1.5,0.4c-0.5,0.2-1,0.4-1.6,0.6
					c-0.8,0.3-1.5,0.5-2.2,1c-0.4,0.3-0.9,0.3-1.3,0.6c-0.5,0.3-0.9,0.7-1.5,0.9c-0.9,0.4-1.6,1.1-2.5,1.6c0,0-0.1,0-0.2,0.1
					c0.5-1.7,1.1-3.3,1.6-4.9c0,0-0.1,0-0.1-0.1c-1.1,0.8-2.1,1.7-3,2.7c0,0-0.1,0-0.1-0.1c0.3-0.8,0.6-1.6,0.8-2.4
					c0.3-0.8,0.5-1.6,0.8-2.4c0.3-0.8,0.5-1.6,0.8-2.5c0.3-0.8,0.5-1.6,0.8-2.4c0,0-0.1,0-0.1,0c-0.4,0.4-0.9,0.7-1.1,1.3
					c0,0.1-0.1,0.2-0.2,0.2c-0.1,0.1-0.2,0.2-0.3,0.4c-0.2,0.4-0.3,0.7-0.8,0.8c-0.1,0-0.1,0.2-0.2,0.3c-0.2,0.3-0.3,0.7-0.5,0.9
					c-0.1,0.1-0.2,0.2-0.3,0.4c-0.1,0.3-0.3,0.5-0.4,0.8c-0.1,0-0.1,0-0.2-0.1c0.1-0.5,0.1-1,0.2-1.5c0.2-0.9,0.3-1.8,0.6-2.6
					c0.2-0.6,0.2-1.2,0.4-1.9c0-0.1,0-0.2,0-0.4c-0.1,0.1-0.2,0.2-0.2,0.3c-0.3,0.5-0.6,1-1,1.5c-0.4,0.6-0.9,1.3-1.1,2
					c-0.1,0.2-0.2,0.3-0.3,0.5c-0.3,0.8-0.7,1.6-1,2.3c-0.1,0.2-0.2,0.5-0.3,0.7c-0.2,0.5-0.3,1.1-0.4,1.6c0,0,0,0-0.1,0
					c-0.2-1.2-0.3-2.3-0.5-3.5c-0.1,0-0.1,0-0.2,0c-0.3,0.7-0.6,1.3-0.8,2c-0.1-0.4-0.2-0.8-0.2-1.2c0-0.2-0.1-0.4-0.1-0.6
					c-0.1-0.3-0.3-0.7-0.2-0.9c0.1-0.3,0-0.6-0.1-0.9c-0.1-0.3-0.3-0.7-0.2-1c0.1-0.3-0.1-0.5-0.1-0.8c-0.1-0.5-0.2-1-0.2-1.5
					c0-0.2,0-0.4-0.1-0.6c-0.2-0.3-0.3-0.7-0.4-1c-0.1-0.2,0-0.3-0.1-0.5c-0.2-0.5-0.5-0.9-0.7-1.4c-0.1-0.1-0.1-0.2-0.2-0.4l-0.1,0
					c-0.1,0.3-0.2,0.6-0.3,0.9c-0.1,0.3,0,0.7-0.1,0.9c-0.4,0.5-0.2,1-0.2,1.4c0,0.2,0,0.4,0,0.6c0,0.4-0.1,0.7-0.1,1.1
					c0,0.3-0.1,0.7-0.1,1c0,0.1,0,0.2,0,0.3c0.4,1-0.1,2-0.1,3.1c0,0.3-0.1,0.5-0.1,0.8c0,0-0.1,0-0.1,0c-0.2-0.3-0.2-0.6-0.5-0.7
					c-0.5-0.3-0.8-0.7-1-1.2c-0.1-0.3-0.4-0.6-0.6-0.9c-0.4-0.6-0.8-1.1-1.2-1.7c-0.1-0.1-0.1-0.2-0.1-0.3c-0.2-0.3-0.3-0.8-0.8-0.9
					c-0.2-0.1-0.4-0.3-0.6-0.5c-0.1-0.1-0.1-0.1-0.1-0.2c-0.3-0.2-0.7-0.4-1.1-0.6c-0.1-0.1-0.3-0.1-0.5-0.2
					c0.1,0.2,0.1,0.3,0.1,0.4c0.4,0.7,0.8,1.4,1.2,2.1c0.8,1.5,1.6,3,2.3,4.5c0.6,1.2,1,2.4,1.6,3.6c0.3,0.6,0.2,1,0.2,1.6
					c-0.9-0.8-1.6-1.7-2.5-2.3c-0.1-0.1-0.1-0.2-0.2-0.3c-0.1-0.1-0.1-0.2-0.2-0.3c-0.3-0.2-0.6-0.5-0.8-0.7
					c-0.2-0.2-0.3-0.4-0.4-0.5c-0.3-0.3-0.7-0.7-1-1c-0.1-0.1-0.2-0.3-0.3-0.4c-0.5-0.5-1.1-1-1.6-1.5c-0.3-0.3-0.5-0.7-1-0.9
					c-0.2-0.1-0.3-0.3-0.4-0.4c-0.4-0.3-0.8-0.7-1.2-1c0,0-0.1,0.1-0.1,0.1c0.1,0.2,0.1,0.3,0.2,0.5c0.2,0.4,0.4,0.7,0.5,1.1
					c0.4,0.8,0.8,1.7,1.2,2.5c0.3,0.5,0.6,1,0.8,1.6c0.1,0.3,0.3,0.6,0.4,1c-0.5-0.2-0.9-0.5-1.2-0.9c-0.1-0.1-0.2-0.2-0.3-0.3
					c-0.3-0.2-0.6-0.4-0.9-0.7c-0.1-0.1-0.2-0.2-0.3-0.3c-0.3-0.2-0.8-0.4-1-0.7c-0.2-0.2-0.3-0.3-0.6-0.4c-0.3-0.1-0.6-0.3-0.7-0.5
					c-0.5-0.6-1.1-1.1-1.8-1.4c-0.1,0-0.3-0.1-0.3,0c-0.1,0.1-0.1,0.3-0.1,0.4c0,0.1,0.1,0.1,0.1,0.2c0.6,0.7,1.2,1.5,1.8,2.2
					c1.4,1.6,2.8,3.3,4.2,4.9c1.2,1.4,2.6,2.5,4.1,3.6c0.2,0.2,0.5,0.4,0.7,0.6c0,0,0,0.1,0,0.1c-0.3,0-0.7-0.1-1-0.1
					c-0.3-0.1-0.7-0.2-1-0.3c-0.3,0.3-1.7,0.3-2.3,0c-0.5,0.3-2,0-2.4-0.5c-0.2,0.1-0.4,0.3-0.5,0.3c-0.6-0.1-1.3-0.3-1.9-0.4
					c-0.1,0-0.1,0-0.2,0c-0.7,0.1-1.3,0.1-2-0.2c0,0-0.1,0-0.1,0c-0.5,0-1,0-1.5,0c-0.2,0-0.3,0-0.5,0c0,0.1,0,0.1-0.1,0.2
					c0.5,0.4,1,0.8,1.5,1.1c1.2,0.9,2.6,1.3,4,1.9c1.8,0.7,3.6,1.2,5.5,1.4c0.8,0.1,1.5,0.1,2.3,0.2l7.4-0.3h6.8c0.5,0,0.9,0,1.4,0
					c2.5-0.3,4.9-0.7,7.2-1.7c1.2-0.5,2.4-1,3.5-1.7c0.2-0.1,0.4-0.3,0.6-0.5c0,0,0-0.1-0.1-0.1c-0.5,0.1-1.1,0.2-1.6,0.2
					c-0.2,0-0.5-0.1-0.7-0.1c-0.5,0.1-1,0.2-1.5,0.2c-0.1,0-0.2,0-0.3,0c-0.2,0-0.3,0-0.5,0c-0.6,0-1.2,0.4-1.8,0
					c-0.1,0-0.1,0-0.2,0c-0.5,0.1-1,0.2-1.6,0.3c-0.1,0-0.2,0-0.4-0.1c-0.2,0-0.4-0.1-0.5,0c-0.5,0.1-1,0.2-1.5,0
					c1.2-0.8,2.3-1.5,3.5-2.3C53.8,174.2,55.1,173.4,56.4,172.6L56.4,172.6z"/>
				<path class="st19" d="M40.7,179.9c0,0,0.1,0,0.3,0c0.2,0,0.5,0,0.9,0c0.8,0,1.9-0.2,3-0.6c1.1-0.4,2.1-0.9,2.8-1.3
					c0.3-0.2,0.6-0.3,0.8-0.5c0.1,0,0.2-0.1,0.2-0.1c0.1,0,0.1,0,0.1,0c0,0,0,0-0.1,0.1c-0.1,0-0.1,0.1-0.2,0.1
					c-0.2,0.1-0.5,0.3-0.8,0.5c-0.7,0.4-1.7,0.9-2.8,1.3c-1.1,0.4-2.3,0.6-3.1,0.6c-0.4,0-0.7,0-0.9,0
					C41,179.9,40.9,179.9,40.7,179.9C40.8,179.9,40.7,179.9,40.7,179.9L40.7,179.9z"/>
				<path class="st19" d="M59,176.9C59,176.9,59,177,59,176.9c-0.1,0-0.1,0.1-0.2,0.1c-0.1,0.1-0.3,0.2-0.5,0.3
					c-0.4,0.2-1.1,0.4-2,0.4l0,0c-0.2,0.3-0.5,0.5-0.9,0.6c-0.4,0.1-0.8,0.1-1.2-0.1l0.1,0c-0.2,0.3-0.5,0.5-0.9,0.6
					c-0.4,0.1-0.8,0-1.1-0.2h0.1c-0.1,0.1-0.3,0.2-0.5,0.3c-0.6,0.3-1.4,0.3-2,0l0.1,0c-0.3,0.4-0.9,0.6-1.3,0.7
					c-0.5,0-0.9-0.1-1.3-0.3h0c-0.4,0.3-0.8,0.5-1.1,0.5c-0.4,0.1-0.7,0.1-1,0.1c-0.3,0-0.5-0.1-0.6-0.1c-0.1,0-0.1,0-0.2-0.1
					c0,0-0.1,0-0.1,0c0,0,0,0,0.1,0c0,0,0.1,0,0.2,0c0.1,0,0.3,0.1,0.6,0.1c0.3,0,0.6,0,0.9-0.1c0.4-0.1,0.7-0.3,1.1-0.5l0,0l0,0
					c0.3,0.2,0.8,0.4,1.2,0.3c0.5,0,0.9-0.2,1.3-0.6l0,0l0,0c0.6,0.3,1.3,0.3,1.9,0c0.2-0.1,0.3-0.2,0.4-0.3l0,0l0,0
					c0.3,0.2,0.7,0.3,1.1,0.2c0.4-0.1,0.7-0.3,0.9-0.6l0,0l0,0c0.4,0.2,0.8,0.2,1.1,0.1c0.4-0.1,0.7-0.3,0.9-0.6l0,0h0
					c0.9,0,1.5-0.2,2-0.4c0.2-0.1,0.4-0.2,0.5-0.2C58.9,177,59,177,59,176.9C59,177,59,176.9,59,176.9L59,176.9z"/>
				<path class="st19" d="M61.7,170.1c0,0,0,0-0.1,0c-0.1,0-0.2,0.1-0.3,0.1c-0.1,0-0.3,0.1-0.5,0.1c-0.2,0-0.5,0-0.7-0.1h0
					c-0.2,0.2-0.5,0.3-0.8,0.4c-0.3,0.1-0.7,0.1-1.1-0.1l0,0c-0.2,0.2-0.5,0.4-0.8,0.6c-0.3,0.1-0.7,0.1-1,0l0,0
					c-0.4,0.5-1.1,0.9-1.9,0.9l0,0c-0.2,0.7-0.9,1.3-1.8,1.3l0,0c-0.2,0.6-0.8,1.1-1.4,1.2c-0.2,0-0.4,0.1-0.6,0.1l0,0
					c-0.1,0.5-0.4,0.9-0.8,1.2c-0.4,0.3-0.9,0.4-1.3,0.3l0.1,0c-0.1,0.6-0.7,0.9-1.2,0.7l0.1,0c-0.1,0.4-0.4,0.8-0.7,1
					c-0.3,0.2-0.8,0.3-1.1,0.2l0,0c-0.1,0.4-0.5,0.7-0.8,0.9c-0.4,0.2-0.7,0.2-1,0l0,0c-0.3,0.3-0.6,0.5-0.8,0.6
					c-0.3,0.1-0.5,0.2-0.8,0.2c-0.2,0-0.4,0-0.5,0c-0.1,0-0.1,0-0.1,0c0,0,0,0,0,0s0,0,0,0c0,0,0.1,0,0.1,0c0.1,0,0.3,0,0.5,0
					s0.5-0.1,0.7-0.2c0.3-0.1,0.6-0.3,0.8-0.6l0,0l0,0c0.3,0.1,0.7,0.1,1,0c0.3-0.1,0.7-0.4,0.8-0.8l0,0l0,0c0.4,0.1,0.8,0,1.1-0.2
					c0.3-0.2,0.6-0.6,0.7-1l0,0l0,0c0.4,0.1,1-0.2,1.1-0.7l0,0l0,0c0.4,0.1,0.9,0,1.3-0.2c0.4-0.2,0.7-0.6,0.8-1.1l0,0h0
					c0.2,0,0.4,0,0.5-0.1c0.6-0.2,1.1-0.6,1.4-1.2l0,0h0c0.8,0,1.5-0.6,1.7-1.2l0,0h0c0.7,0,1.4-0.4,1.8-0.9l0,0l0,0
					c0.3,0.1,0.7,0.1,1,0c0.3-0.1,0.6-0.3,0.7-0.5l0,0l0,0c0.4,0.1,0.7,0.1,1.1,0.1c0.3-0.1,0.6-0.2,0.8-0.4l0,0h0
					c0.3,0.1,0.5,0.1,0.7,0.1c0.2,0,0.4,0,0.5-0.1c0.1,0,0.3-0.1,0.3-0.1C61.6,170.2,61.6,170.2,61.7,170.1
					C61.7,170.2,61.7,170.2,61.7,170.1L61.7,170.1z"/>
				<path class="st19" d="M48.2,175.2c0,0,0,0.1-0.1,0.2c-0.1,0.1-0.2,0.2-0.3,0.4c-0.2,0.1-0.4,0.3-0.6,0.4
					c-0.3,0.1-0.6,0.2-0.9,0.1c-0.1,0-0.1,0-0.2,0l0,0c-0.1,0.3-0.3,0.5-0.5,0.6c-0.2,0.1-0.4,0.2-0.6,0.2c-0.2,0-0.3,0-0.4,0
					c-0.1,0-0.2,0-0.2,0c0,0,0.2,0,0.6,0c0.2,0,0.4-0.1,0.6-0.3c0.2-0.1,0.4-0.3,0.5-0.6l0,0l0,0c0.1,0,0.1,0,0.2,0
					c0.3,0,0.6,0,0.8-0.1c0.2-0.1,0.5-0.2,0.6-0.3C48,175.4,48.2,175.2,48.2,175.2L48.2,175.2z"/>
				<path class="st19" d="M46.6,172.5C46.6,172.5,46.6,172.6,46.6,172.5c-0.1,0.1-0.1,0.2-0.1,0.3c-0.1,0.2-0.2,0.5-0.4,0.8
					c-0.3,0.7-0.8,1.6-1.3,2.7c-0.3,0.5-0.5,1-0.8,1.4c-0.3,0.4-0.6,0.8-0.9,1c-0.3,0.3-0.6,0.4-0.7,0.5c-0.1,0-0.2,0.1-0.2,0.1
					c-0.1,0-0.1,0-0.1,0c0,0,0.1-0.1,0.3-0.2s0.4-0.3,0.7-0.5c0.3-0.3,0.6-0.6,0.9-1c0.3-0.4,0.6-0.9,0.8-1.4c0.5-1,1-2,1.3-2.7
					c0.2-0.3,0.3-0.6,0.4-0.8C46.5,172.7,46.5,172.7,46.6,172.5C46.6,172.6,46.6,172.5,46.6,172.5L46.6,172.5z"/>
				<path class="st19" d="M49.7,163.2C49.7,163.2,49.7,163.2,49.7,163.2c-0.1,0.2-0.1,0.3-0.2,0.4c-0.1,0.2-0.3,0.6-0.6,1l0,0
					c-0.1,0.4-0.4,0.9-0.8,1.2l0,0c0.1,0.2,0.1,0.5,0,0.8c0,0.1-0.1,0.3-0.2,0.4c-0.1,0.1-0.2,0.2-0.4,0.3c-0.1,0.1-0.2,0.2-0.2,0.3
					c0,0.1,0.2,0.3,0.1,0.5c0,0.2-0.1,0.3-0.2,0.4c-0.1,0.1-0.3,0.2-0.5,0.2l0-0.1c0.2,0.5-0.1,1.2-0.6,1.5l0-0.1
					c0.1,0.1,0.1,0.2,0.1,0.3c0.2,0.6-0.2,1.3-0.7,1.6l0-0.1c0.1,0.3,0.1,0.7,0,1c-0.1,0.3-0.4,0.5-0.7,0.6l0,0
					c0.1,0.4,0,0.8-0.2,1.1c-0.2,0.3-0.4,0.6-0.7,0.7l0,0c0.1,0.4,0,0.8-0.1,1.1c-0.1,0.3-0.2,0.6-0.4,0.8c-0.1,0.2-0.3,0.3-0.4,0.4
					c0,0-0.1,0.1-0.1,0.1c0,0,0,0,0,0s0,0,0,0c0,0,0.1-0.1,0.1-0.1c0.1-0.1,0.2-0.2,0.3-0.4c0.1-0.2,0.3-0.5,0.4-0.8
					c0.1-0.3,0.1-0.7,0.1-1.1v0l0,0c0.3-0.1,0.5-0.4,0.7-0.7c0.2-0.3,0.2-0.7,0.2-1.1l0,0l0,0c0.3-0.1,0.5-0.3,0.6-0.6
					c0.1-0.3,0.2-0.6,0-0.9l0,0l0,0c0.5-0.2,0.8-0.9,0.7-1.5c0-0.1-0.1-0.2-0.1-0.3l0,0l0,0c0.5-0.3,0.7-0.9,0.6-1.4l0,0l0,0
					c0.2-0.1,0.3-0.1,0.4-0.2c0.1-0.1,0.2-0.2,0.2-0.4c0-0.1-0.1-0.3-0.1-0.4c0-0.1,0-0.2,0-0.2c0-0.1,0.1-0.1,0.2-0.2
					c0.1-0.1,0.3-0.2,0.3-0.3c0.1-0.1,0.2-0.2,0.2-0.3c0.1-0.3,0.1-0.5,0-0.8l0,0l0,0c0.4-0.4,0.6-0.8,0.8-1.2l0,0v0
					c0.2-0.4,0.4-0.8,0.6-1C49.6,163.5,49.6,163.4,49.7,163.2C49.7,163.2,49.7,163.2,49.7,163.2L49.7,163.2z"/>
				<g>
					<path class="st42" d="M35.2,168.1c0.1,0.3,0.5,0.6,0.9,0.5c-0.1,0.2-0.1,0.5,0.1,0.8c0.2,0.2,0.4,0.3,0.7,0.3
						c-0.2,0.5,0.1,1.2,0.6,1.4c-0.1,0.5,0.3,1.1,0.8,1.2c-0.4,0.7-0.1,1.8,0.7,2.1c-0.3,0.6,0.1,1.5,0.7,1.7
						c-0.2,0.7,0.3,1.6,1,1.8c0.2,0.4,0.4,0.8,0.6,1.1c0.1,0.1,0.1,0.2,0.1,0.4c0.1,0.3-0.1,0.6-0.4,0.8c-0.3,0.2-0.6,0.2-0.9,0.2
						c-0.8,0-1.5-0.3-2.1-0.8c-0.6-0.5-1.1-1.1-1.4-1.7c-0.4-0.8-0.7-1.6-0.9-2.5c-0.4-2.2,0.2-4.5-0.7-6.6L35.2,168.1L35.2,168.1z"
						/>
					<path class="st19" d="M35.2,168.1c0,0.1,0,0.2-0.1,0.7v0c0,0.1,0.1,0.2,0.1,0.4c0,0.1,0.1,0.3,0.1,0.5c0.1,0.3,0.2,0.7,0.2,1.2
						c0,0.5,0.1,1,0.1,1.5c0,0.6,0,1.2,0,1.8c0,0.6,0.1,1.3,0.3,2c0.2,0.7,0.5,1.4,0.9,2.1c0.4,0.7,1,1.3,1.7,1.7
						c0.4,0.2,0.8,0.4,1.2,0.4c0.4,0.1,0.9,0.1,1.2-0.1c0.2-0.1,0.3-0.3,0.4-0.5c0-0.1,0-0.2,0-0.3c0-0.1-0.1-0.2-0.1-0.3
						c-0.2-0.4-0.4-0.8-0.6-1.2l0,0c-0.7-0.3-1.2-1.2-1-1.9l0,0c-0.3-0.1-0.6-0.4-0.7-0.8c-0.1-0.3-0.1-0.7,0-1l0,0.1
						c-0.4-0.2-0.7-0.6-0.8-1c-0.1-0.4-0.1-0.9,0.1-1.2l0,0.1c-0.3,0-0.6-0.2-0.7-0.4c-0.2-0.2-0.2-0.5-0.2-0.8l0,0
						c-0.3-0.1-0.5-0.4-0.6-0.6c-0.1-0.3-0.1-0.5,0-0.8l0,0c-0.3,0-0.6-0.1-0.8-0.4c-0.1-0.2-0.1-0.5-0.1-0.7l0,0
						c-0.2,0-0.3,0-0.5-0.1c-0.1-0.1-0.2-0.1-0.3-0.2C35.3,168.3,35.3,168.2,35.2,168.1C35.2,168.2,35.2,168.2,35.2,168.1
						c0,0,0,0.1,0.2,0.2c0.1,0.1,0.2,0.1,0.3,0.2c0.1,0.1,0.3,0.1,0.5,0.1h0l0,0c-0.1,0.2-0.1,0.4,0.1,0.7c0.1,0.2,0.4,0.4,0.7,0.4
						l0,0l0,0c-0.1,0.2-0.1,0.5,0,0.7c0.1,0.2,0.3,0.5,0.6,0.6l0,0l0,0c0,0.2,0,0.5,0.2,0.7c0.1,0.2,0.4,0.4,0.7,0.4l0.1,0l0,0
						c-0.2,0.3-0.2,0.8-0.1,1.1c0.1,0.4,0.4,0.8,0.8,0.9l0,0l0,0c-0.3,0.6,0,1.4,0.7,1.6l0,0l0,0c-0.2,0.7,0.2,1.5,0.9,1.8l0,0l0,0
						c0.2,0.4,0.4,0.8,0.6,1.2c0.1,0.1,0.1,0.2,0.1,0.3c0,0.1,0,0.2,0,0.4c-0.1,0.2-0.2,0.4-0.4,0.5c-0.2,0.1-0.4,0.2-0.6,0.2
						c-0.2,0-0.4,0-0.7,0c-0.4-0.1-0.8-0.2-1.2-0.4c-0.7-0.4-1.3-1.1-1.7-1.7c-0.4-0.7-0.7-1.4-0.9-2.1c-0.2-0.7-0.3-1.4-0.3-2
						c0-0.6,0-1.3,0-1.8c0-0.6,0-1.1-0.1-1.5c0-0.5-0.1-0.9-0.2-1.2c0-0.2-0.1-0.3-0.1-0.5c0-0.1-0.1-0.3-0.1-0.4l0,0v0
						C35.2,168.4,35.2,168.2,35.2,168.1L35.2,168.1z"/>
				</g>
				<path class="st19" d="M39.5,180.3C39.5,180.3,39.5,180.3,39.5,180.3c-0.1,0.1-0.2,0.1-0.3,0.1c-0.2,0-0.5,0.1-0.8,0.1
					c-0.3,0-0.8-0.1-1.2-0.2c-0.4-0.1-0.9-0.3-1.4-0.6c-0.9-0.5-1.7-1-2.3-1.4c-0.3-0.2-0.5-0.4-0.6-0.5c-0.1-0.1-0.2-0.2-0.2-0.2
					c0,0,0.1,0.1,0.2,0.2c0.2,0.1,0.4,0.3,0.6,0.5c0.6,0.4,1.4,0.9,2.3,1.4c0.5,0.2,0.9,0.4,1.3,0.6c0.4,0.1,0.8,0.2,1.2,0.3
					C39.1,180.4,39.5,180.2,39.5,180.3L39.5,180.3z"/>
				<path class="st19" d="M35.9,175.6c0,0,0,0-0.1,0c-0.1,0-0.2-0.1-0.4-0.1c-0.2-0.1-0.3-0.2-0.5-0.4c-0.2-0.2-0.3-0.4-0.4-0.7
					l0.1,0c-0.2,0.2-0.5,0.2-0.8,0.1c-0.3-0.1-0.5-0.4-0.6-0.7l0.1,0c-0.3,0.1-0.7,0-1-0.2c-0.3-0.2-0.5-0.6-0.4-1l0.1,0
					c-0.4,0.1-0.7,0-1-0.2c-0.3-0.2-0.4-0.4-0.5-0.7l0,0c-0.3,0-0.5,0-0.7-0.1c-0.2-0.1-0.4-0.2-0.5-0.3c-0.1-0.1-0.2-0.2-0.2-0.3
					c0-0.1,0-0.1,0-0.1c0,0,0.1,0.2,0.3,0.4c0.1,0.1,0.3,0.2,0.5,0.3c0.2,0.1,0.4,0.1,0.7,0.1h0l0,0c0.1,0.2,0.2,0.5,0.5,0.7
					c0.2,0.2,0.6,0.3,0.9,0.2l0.1,0l0,0.1c0,0.3,0.1,0.7,0.4,0.9c0.3,0.2,0.6,0.3,0.9,0.2l0,0l0,0c0,0.3,0.3,0.6,0.5,0.7
					c0.3,0.1,0.6,0,0.8-0.1l0,0l0,0c0.1,0.3,0.2,0.5,0.4,0.7c0.2,0.2,0.3,0.3,0.5,0.4C35.8,175.6,36,175.6,35.9,175.6L35.9,175.6z"
					/>
				<g class="st34">
					<path class="st19" d="M33.2,179.3c-0.8,0.6-2.1,0.6-2.9-0.1c-0.6,0.4-1.5,0.4-2.2,0.2c-0.3-0.1-0.5-0.2-0.8-0.3
						c-0.5-0.1-1-0.1-1.5-0.2c-0.5-0.1-1.1-0.4-1.2-0.9c-0.6,0.2-1.3,0-2-0.2c-1.1-0.4-2.2-0.8-3.3-1.2c0.4,0.3,0.8,0.7,1.2,1
						c1.2,0.9,2.6,1.3,4,1.9c1.8,0.7,3.6,1.2,5.5,1.4c0.8,0.1,1.6,0.1,2.4,0.2l5.9-0.3l-3.1-1.3C34.8,179.6,33.9,179.6,33.2,179.3
						L33.2,179.3z"/>
				</g>
				<path class="st19" d="M35.5,179.3c0,0-0.2,0.1-0.6,0.2c-0.4,0.1-1,0.1-1.7-0.2h0c-0.3,0.3-0.8,0.4-1.3,0.5
					c-0.5,0-1.1-0.2-1.6-0.5h0.1c-0.4,0.3-0.9,0.4-1.5,0.3c-0.3,0-0.5-0.1-0.8-0.2c-0.3-0.1-0.5-0.2-0.8-0.3
					c-0.5-0.1-1.1-0.1-1.6-0.2c-0.3-0.1-0.5-0.1-0.7-0.3c-0.2-0.1-0.4-0.3-0.5-0.6l0.1,0c-0.4,0.2-0.8,0.1-1.2,0
					c-0.4-0.1-0.7-0.2-1-0.3c-0.6-0.2-1.2-0.4-1.6-0.6c-0.5-0.2-0.8-0.3-1.1-0.4c-0.1,0-0.2-0.1-0.3-0.1c-0.1,0-0.1,0-0.1,0
					s0,0,0.1,0c0.1,0,0.2,0.1,0.3,0.1c0.3,0.1,0.6,0.2,1.1,0.4c0.5,0.2,1,0.4,1.6,0.6c0.3,0.1,0.6,0.2,1,0.3c0.4,0.1,0.8,0.1,1.1,0
					l0,0l0,0c0.1,0.2,0.2,0.4,0.4,0.5c0.2,0.1,0.4,0.2,0.7,0.3c0.5,0.1,1,0,1.6,0.2c0.3,0.1,0.5,0.2,0.8,0.3
					c0.2,0.1,0.5,0.2,0.8,0.2c0.5,0,1-0.1,1.4-0.3l0,0l0,0c0.4,0.4,1,0.5,1.5,0.5c0.5,0,1-0.2,1.3-0.4l0,0l0,0
					c0.7,0.3,1.3,0.3,1.7,0.3c0.2,0,0.4-0.1,0.5-0.1C35.5,179.3,35.5,179.3,35.5,179.3L35.5,179.3z"/>
				<g class="st34">
					<path class="st19" d="M38.3,172.2c0,0-0.4-0.8-0.2-1.2c-0.5-0.4-0.7-1.1-0.4-1.6c-0.3,0-0.5-0.1-0.7-0.3
						c-0.2-0.2-0.3-0.5-0.2-0.7l0.2-0.7c0,0,0.6,1.4,1.3,1.4c0,0-0.9,1.4,0.3,1.8c0,0-0.5,1.1,0.4,1.4l-0.3,1.9
						C38.6,174.1,37.7,173.3,38.3,172.2L38.3,172.2z"/>
				</g>
				<path class="st19" d="M38.4,172.3C38.4,172.3,38.4,172.2,38.4,172.3c-0.1-0.1-0.2-0.2-0.3-0.3c-0.1-0.1-0.1-0.2-0.2-0.4
					c0-0.2,0-0.4,0.1-0.6l0,0c-0.3-0.2-0.5-0.5-0.5-0.9c-0.1-0.3,0-0.6,0.1-0.8l0,0.1c-0.2,0-0.5-0.1-0.6-0.2
					c-0.2-0.1-0.2-0.3-0.3-0.4c0-0.1,0-0.3,0-0.3c0-0.1,0-0.1,0-0.1c0,0,0,0.2,0.1,0.4c0,0.1,0.1,0.3,0.3,0.4
					c0.1,0.1,0.3,0.2,0.6,0.2h0.1l0,0.1c-0.1,0.2-0.1,0.5-0.1,0.8c0.1,0.3,0.3,0.6,0.5,0.8l0,0l0,0c-0.1,0.2-0.1,0.4-0.1,0.5
					c0,0.2,0.1,0.3,0.1,0.4C38.3,172.2,38.5,172.3,38.4,172.3L38.4,172.3z"/>
				<path class="st19" d="M42.4,170.9c0,0,0-0.1,0-0.3c0-0.2,0-0.5-0.1-0.8c-0.1-0.7-0.2-1.6-0.4-2.8l0,0c-0.1,0-0.1,0-0.2,0l0,0
					c-0.2,0.4-0.3,0.8-0.5,1.2c-0.1,0.2-0.2,0.4-0.3,0.6c-0.1,0.2-0.2,0.4-0.3,0.7c-0.3,0.9-0.6,1.7-0.9,2.5
					c-0.2,0.8-0.3,1.5-0.4,2.1c0,0.6,0,1.1,0.1,1.4c0,0.2,0.1,0.3,0.1,0.4c0,0.1,0,0.1,0,0.1c0,0,0,0,0-0.1c0-0.1-0.1-0.2-0.1-0.4
					c-0.1-0.3-0.1-0.8-0.1-1.4c0-0.6,0.1-1.3,0.3-2.1s0.5-1.6,0.9-2.5c0.1-0.2,0.2-0.4,0.3-0.7c0.1-0.2,0.2-0.4,0.3-0.6
					c0.2-0.4,0.4-0.8,0.5-1.2l0,0h0c0.1,0,0.1,0,0.2,0h0l0,0c0.2,1.1,0.4,2.1,0.4,2.8c0,0.3,0,0.6,0,0.8
					C42.4,170.7,42.4,170.8,42.4,170.9C42.4,170.9,42.4,170.9,42.4,170.9L42.4,170.9z"/>
				<g class="st34">
					<path class="st19" d="M41.4,173.8c-0.2,0.5-0.8,0.6-1,1.1c-0.3,0.5,0,1.2-0.3,1.8c-0.1,0.2-0.3,0.3-0.5,0.5
						c-0.4,0.5-0.5,1.2-0.3,1.8c0.2,0.6,0.7,1.1,1.4,1.2l-0.4-0.5c0.5-1.2,0.9-2.4,1.3-3.7C41.6,175.3,41.7,174.5,41.4,173.8
						L41.4,173.8z"/>
				</g>
				<g>
					<path class="st42" d="M44.1,167.9c-0.2,0.2-0.4,0.5-0.5,0.8c-0.2,0.3-0.3,0.7-0.5,1c-0.3,0.5-0.5,1.1-0.8,1.6l-0.7,1.6
						c-0.1,0.3-0.3,0.6-0.3,1c0,0.2,0,0.5-0.1,0.7c-0.2,0.3-0.5,0.3-0.7,0.6c-0.2,0.3-0.1,0.7-0.1,1.1c-0.1,0.7-0.6,1.2-0.8,1.9
						c-0.2,0.7,0.5,1.9,1.2,2.1c2-0.7,2.3-2.4,2.5-3.6c0.7-3.4,1.4-6.7,2.1-10.1C45.2,167.1,44.6,167.4,44.1,167.9L44.1,167.9z"/>
					<path class="st19" d="M44.1,167.9C44.1,167.9,44.2,167.8,44.1,167.9c0.1-0.1,0.2-0.2,0.3-0.3c0.1-0.1,0.3-0.2,0.4-0.4
						c0.2-0.2,0.3-0.4,0.4-0.6l0,0c-0.2,1.2-0.6,3.1-1.1,5.4c-0.2,1.1-0.5,2.4-0.8,3.7c-0.1,0.3-0.1,0.7-0.2,1
						c-0.1,0.3-0.1,0.7-0.2,1c-0.2,0.7-0.5,1.4-1.1,1.9c-0.4,0.3-0.8,0.5-1.2,0.7l0,0l0,0c-0.2-0.1-0.4-0.3-0.6-0.4
						c-0.2-0.2-0.3-0.4-0.4-0.6c-0.1-0.2-0.2-0.4-0.2-0.7c0-0.2,0-0.5,0.1-0.7c0.2-0.4,0.5-0.8,0.6-1.2c0.1-0.2,0.1-0.4,0.1-0.6
						c0-0.2,0-0.4,0-0.6c0-0.1,0.1-0.2,0.2-0.3c0.1-0.1,0.2-0.1,0.3-0.2c0.2-0.1,0.4-0.2,0.4-0.4c0.1-0.2,0.1-0.4,0.1-0.6
						c0-0.2,0.1-0.4,0.1-0.6c0.1-0.4,0.3-0.7,0.4-1c0.1-0.3,0.3-0.6,0.4-0.9c0.3-0.6,0.5-1.1,0.7-1.5c0.2-0.5,0.4-0.8,0.6-1.1
						c0.2-0.3,0.3-0.5,0.4-0.7C44.1,167.9,44.1,167.9,44.1,167.9C44.1,167.9,44.1,167.9,44.1,167.9c-0.1,0.1-0.1,0.2-0.2,0.2
						c-0.1,0.2-0.2,0.4-0.4,0.7c-0.2,0.3-0.4,0.7-0.6,1.1c-0.2,0.5-0.5,1-0.7,1.5c-0.1,0.3-0.3,0.6-0.4,0.9c-0.1,0.3-0.3,0.6-0.4,1
						c-0.1,0.2-0.1,0.4-0.1,0.5c0,0.2,0,0.4-0.1,0.6c-0.1,0.2-0.3,0.3-0.5,0.4c-0.1,0.1-0.2,0.1-0.2,0.2c-0.1,0.1-0.1,0.2-0.1,0.3
						c0,0.2,0,0.4,0,0.6c0,0.2,0,0.5-0.1,0.7c-0.2,0.4-0.5,0.8-0.6,1.2c-0.1,0.2-0.1,0.4-0.1,0.7c0,0.2,0.1,0.5,0.2,0.7
						c0.1,0.2,0.2,0.4,0.4,0.6c0.2,0.2,0.4,0.3,0.6,0.4h0c0.4-0.1,0.8-0.4,1.1-0.7c0.6-0.5,0.9-1.2,1.1-1.8c0.1-0.3,0.2-0.7,0.2-1
						c0.1-0.3,0.1-0.7,0.2-1c0.3-1.3,0.5-2.6,0.8-3.7c0.5-2.3,0.9-4.2,1.1-5.4l0,0c-0.1,0.3-0.2,0.5-0.4,0.7
						c-0.2,0.2-0.3,0.3-0.4,0.4C44.4,167.7,44.3,167.7,44.1,167.9C44.2,167.8,44.1,167.9,44.1,167.9L44.1,167.9z"/>
				</g>
				<g class="st34">
					<path class="st19" d="M42,179.4c0.7-0.3,1.3-0.9,1.8-1.6c0.5-0.7,0.8-1.4,1.2-2.1c0.5-1.1,1-2.2,1.6-3.2l3.1-9.3l-0.8,1.4
						c-0.2,0.8-0.8,1.2-0.8,1.2c0.2,0.4,0,1-0.4,1.3c-0.2,0.1-0.4,0.2-0.4,0.4c0,0.1,0.1,0.3,0.1,0.4c0,0.2,0,0.4-0.2,0.5
						s-0.3,0.2-0.5,0.3c0.2,0.5-0.1,1.2-0.6,1.4c0.4,0.6,0.1,1.6-0.6,1.9c0.3,0.6-0.1,1.4-0.7,1.6c0.1,0.7-0.2,1.5-0.9,1.8
						c0.1,0.9-0.2,1.9-0.9,2.4"/>
				</g>
				<g class="st34">
					<path class="st19" d="M35.9,175.6c-0.7-0.1-1.2-0.6-1.4-1.3c-0.2,0.2-0.6,0.2-0.8,0.1c-0.3-0.1-0.5-0.4-0.5-0.7
						c-0.3,0.1-0.7,0-1-0.2c-0.3-0.2-0.4-0.6-0.4-1c-0.6,0.2-1.3-0.3-1.4-0.9c-0.6,0.1-1.2-0.3-1.4-0.9c0,0,0.4,0.4,1.2,0.4l0.6,0.4
						c0,0-0.1,0.7,1.2,0.7c0,0-0.1,1.4,1.4,1.2c0,0,0.1,0.8,1.2,0.6c0,0,0.2,0.8,1.2,1.1L35.9,175.6L35.9,175.6z"/>
				</g>
				<g>
					<g class="st34">
						<path class="st19" d="M60,170.2c-0.5,0.4-1.3,0.5-1.9,0.3c-0.4,0.5-1.1,0.8-1.8,0.6c-0.4,0.6-1.1,0.9-1.8,0.9
							c-0.2,0.7-1,1.3-1.7,1.3c-0.3,0.8-1.1,1.3-1.9,1.3c-0.2,0.9-1.2,1.6-2.1,1.4c-0.1,0.5-0.6,0.9-1.1,0.7c-0.1,0.8-1,1.4-1.8,1.2
							c-0.2,0.7-1.1,1.2-1.8,0.9c-0.5,0.6-1.4,1-2.2,0.9l-0.4,0.2c1.5,0.1,2.3-0.2,3.6-0.6c1.4-0.5,2.7-1.2,3.9-1.9l0.1,0
							c0,0,0.1,0,0.1,0c1.2-0.8,2.2-1.5,3.4-2.2c1.3-0.8,2.6-1.6,3.9-2.4c0.3-0.2,0.6-0.3,0.9-0.5c0.6-0.3,1.2-0.6,1.8-0.9
							c0.4-0.2,0.7-0.3,1.1-0.5c0.3-0.1,1.3-0.5,1.6-0.7C61.3,170.2,60.4,170.4,60,170.2L60,170.2z"/>
					</g>
					<g class="st34">
						<path class="st19" d="M59.5,176.7C59.4,176.7,59.4,176.7,59.5,176.7L59.5,176.7l-0.5,0.2c-0.8,0.5-1.7,0.7-2.7,0.7
							c-0.5,0.6-1.4,0.8-2,0.5c-0.4,0.6-1.4,0.8-2,0.3c-0.7,0.6-1.6,0.7-2.4,0.3c-0.6,0.7-1.8,0.9-2.6,0.3c-0.8,0.6-1.9,0.8-2.9,0.4
							l-0.4,0.1c0.1,0.2,0.4,0.5,0.7,0.6c0.3,0.1,0.5,0,0.8-0.2c-0.1,0.1-0.1,0.2,0,0.3c0.1,0.1,0.2,0.1,0.3,0.1
							c0.3,0.1,0.6,0,0.9-0.2c0,0.1,0,0.2,0.1,0.2c0.1,0,0.3,0.1,0.4,0.1l0.3,0c0.3,0,0.5,0,0.8,0c2.5-0.3,4.9-0.8,7.3-1.7
							c1.2-0.5,2.4-1,3.5-1.7C59.1,177.1,59.3,176.9,59.5,176.7L59.5,176.7z"/>
					</g>
				</g>
				<path class="st19" d="M47,180.5c0,0,0,0.1-0.1,0.1c-0.1,0-0.1,0-0.2-0.1c-0.1,0-0.1-0.1-0.1-0.2l0,0c-0.1,0.1-0.3,0.2-0.6,0.2
					c-0.1,0-0.2,0-0.4,0c-0.1,0-0.3-0.1-0.3-0.2c0-0.1,0-0.2,0.1-0.3l0.1,0.1c-0.2,0.2-0.4,0.2-0.6,0.2c-0.2,0-0.4-0.1-0.5-0.2
					c-0.1-0.1-0.2-0.2-0.2-0.3c0-0.1-0.1-0.1,0-0.1c0,0,0.1,0.2,0.3,0.3c0.1,0.1,0.3,0.1,0.5,0.1s0.4-0.1,0.6-0.2l0.1,0.1
					c0,0-0.1,0.1,0,0.2c0,0.1,0.2,0.1,0.3,0.2c0.1,0,0.2,0,0.3,0c0.2,0,0.4-0.1,0.5-0.2l0.1,0l0,0.1c0,0.1,0,0.1,0.1,0.2
					c0,0,0.1,0.1,0.1,0.1C46.9,180.5,47,180.5,47,180.5L47,180.5z"/>
			</g>
			<g>
				<polygon class="st43" points="47.6,192.8 31.6,192.8 29.7,180.3 49.4,180.3 				"/>
				<polygon class="st43" points="28.3,183.2 28.3,180.3 50.8,180.3 50.7,183.2 				"/>
				<path class="st19" d="M50.7,183.2c0,0-5,0.1-11.2,0.1s-11.2,0-11.2-0.1s5-0.1,11.2-0.1S50.7,183.1,50.7,183.2z"/>
				<path class="st40" d="M30.9,183.1c2,0.9,5.5,1.3,8.7,1.2c3.2-0.1,5.9-0.6,8.7-1.2L30.9,183.1L30.9,183.1z"/>
			</g>
		</g>
	</g>
</g>
</svg>
