<?xml version="1.0" encoding="UTF-8"?>
<svg id="Calque_2" data-name="Calque 2" xmlns="http://www.w3.org/2000/svg" viewBox="0 0 251 251">
  <defs>
    <style>
      .cls-1 {
        fill: #f4b01c;
      }

      .cls-2 {
        fill: #f58a68;
      }

      .cls-3 {
        fill: #f9aa92;
      }

      .cls-4 {
        fill: #f9aa91;
      }

      .cls-5 {
        fill: #026db1;
      }

      .cls-6 {
        fill: #03624e;
      }

      .cls-7 {
        fill: #043026;
      }

      .cls-8, .cls-9 {
        fill: #fff;
      }

      .cls-10 {
        fill: #f1e6d6;
      }

      .cls-11 {
        fill: #fbf8f6;
      }

      .cls-12 {
        fill: #fbc9ba;
      }

      .cls-13 {
        fill: #996828;
      }

      .cls-14 {
        fill: #97442a;
      }

      .cls-15 {
        fill: #6d311f;
      }

      .cls-16 {
        fill: #80431c;
      }

      .cls-17 {
        fill: #a86327;
      }

      .cls-18, .cls-19 {
        fill: #afcab7;
      }

      .cls-20 {
        fill: #bf6e3d;
      }

      .cls-21 {
        fill: #d6c15e;
      }

      .cls-22 {
        fill: #22201d;
      }

      .cls-23 {
        fill: #1481c4;
      }

      .cls-24 {
        fill: #814f25;
      }

      .cls-25 {
        fill: #7b2923;
      }

      .cls-19 {
        isolation: isolate;
        opacity: .27;
      }

      .cls-9 {
        stroke: #fff;
        stroke-miterlimit: 10;
      }

      .cls-26 {
        opacity: .22;
      }

      .cls-27 {
        opacity: .32;
      }
    </style>
  </defs>
  <g id="Calque_1-2" data-name="Calque 1">
    <g>
      <rect class="cls-9" x=".5" y=".5" width="250" height="250"/>
      <g id="OBJECTS">
        <g>
          <polygon class="cls-19" points="151.82 141.47 153.46 143.11 151.82 144.76 152.79 145.73 154.43 144.08 156.08 145.73 157.06 144.76 155.41 143.11 157.06 141.47 156.08 140.49 154.43 142.14 152.79 140.49 151.82 141.47"/>
          <polygon class="cls-11" points="23.4 134.88 19.07 139.83 23.03 144.35 19.07 148.87 23.05 153.41 19.07 157.96 23.4 162.9 23.4 162.04 19.84 157.97 23.85 153.38 19.87 148.84 23.85 144.3 19.88 139.77 23.4 135.74 23.4 134.88"/>
          <g class="cls-27">
            <path class="cls-1" d="m76.8,30.99c-.63,3.39-3.89,5.62-7.28,4.99s-5.62-3.89-4.99-7.28c.63-3.39,3.89-5.62,7.28-4.99s5.62,3.89,4.99,7.28Z"/>
            <path class="cls-22" d="m74.27,20.9c3.24,0,5.88,2.64,5.88,5.88s-2.64,5.88-5.88,5.88-5.88-2.64-5.88-5.88,2.64-5.88,5.88-5.88m0-.36c-3.45,0-6.24,2.8-6.24,6.24s2.8,6.24,6.24,6.24,6.24-2.8,6.24-6.24-2.8-6.24-6.24-6.24h0Z"/>
          </g>
          <path class="cls-6" d="m230.2,151.64c-.96,0-1.73.78-1.73,1.73s.78,1.73,1.73,1.73,1.73-.78,1.73-1.73-.78-1.73-1.73-1.73Zm0,2.89c-.64,0-1.16-.52-1.16-1.16s.52-1.16,1.16-1.16,1.16.52,1.16,1.16-.52,1.16-1.16,1.16Z"/>
          <g class="cls-26">
            <polygon class="cls-18" points="212.84 68.84 220.1 58.75 226.41 68.84 212.84 68.84"/>
            <path class="cls-22" d="m224.74,57.31l5.68,9.07h-12.21l6.53-9.07m.02-.65l-7.26,10.08h13.58l-6.31-10.08h0Z"/>
          </g>
          <path class="cls-1" d="m92.11,204.87c-3.83,0-6.93,3.1-6.93,6.93h13.87c0-3.83-3.1-6.93-6.93-6.93Z"/>
          <path class="cls-6" d="m195.65,24.38c2.17,0,3.93,1.76,3.93,3.93h1.93c0-3.24-2.63-5.87-5.87-5.87s-5.87,2.63-5.87,5.87h1.93c0-2.17,1.76-3.93,3.93-3.93h0Z"/>
          <path class="cls-6" d="m28.11,195.75c0-2.17,1.76-3.93,3.93-3.93v-1.93c-3.24,0-5.87,2.63-5.87,5.87s2.63,5.87,5.87,5.87v-1.93c-2.17,0-3.93-1.76-3.93-3.93h0Z"/>
          <g>
            <g>
              <path class="cls-7" d="m112.83,56.46v31.97h-14.05c-1.25,0-2.25-1.01-2.25-2.26v-27.45c0-1.25,1.01-2.25,2.25-2.25h14.05Z"/>
              <path class="cls-13" d="m167.5,71.6c-1.44,13.6-9.16,16.83-9.16,16.83h-45.51v-31.97c12.77-2.46,18.86-18.19,17.54-26.07.23-1.77.24-3.42,0-4.82.9-2.7,3.56-2.16,3.56-2.16,8.78,1.38,9.28,19.59,9.21,25.53-.01,1.03.78,1.89,1.81,1.96,3.36.23,10.67.89,17.09,2.57,4.21,1.1,5.95,2.21,6.47,4.61.55,2.54-.27,6.54-1.01,13.51h0Z"/>
            </g>
            <g>
              <path class="cls-6" d="m112.83,56.46v27.1h-14.05c-1.25,0-2.25-1.01-2.25-2.25v-22.59c0-1.25,1.01-2.25,2.25-2.25h14.05Z"/>
              <path class="cls-1" d="m168.52,58.09c-.22,2.22-.63,5.03-1.01,8.64-1.44,13.6-9.16,16.83-9.16,16.83h-45.51v-27.1c6.37-1.22,11.32-5.93,14.32-11.5,2.17-4.01,2.84-8.54,3.13-13.03.17-2.63-.85-9.44,3.66-8.52,8.78,1.38,9.28,19.59,9.21,25.53-.01,1.03.78,1.89,1.81,1.96,3.36.23,10.67.89,17.09,2.57,4.21,1.1,5.95,2.21,6.47,4.61h0Z"/>
            </g>
            <path class="cls-20" d="m150.33,88.43h6.85l-3.31,3.62v3.92h-4.87v-3.38c0-.78.16-1.54.48-2.25l.85-1.9h0Z"/>
            <g>
              <path class="cls-20" d="m150.13,91.57c.75-.36,1.25-1.19,1.22-2.02s-.58-1.62-1.35-1.93c-.14-1.34-1.35-2.39-2.67-2.62.95,2.19,1.57,4.52,1.82,6.9l.99-.32h0Z"/>
              <path class="cls-16" d="m149.06,85.64c.48.18.65.71.75,1.17.06.26.12.55.29.77.18.22.47.32.7.48.47.32.79.79.84,1.36.07.62-.16,1.23-.37,1.8-.07.19-.34.04-.28-.15.2-.54.42-1.13.33-1.71-.09-.57-.5-.95-.98-1.22-.21-.12-.4-.25-.54-.45-.13-.18-.2-.41-.25-.63-.11-.43-.17-.98-.64-1.16-.19-.07-.04-.34.15-.28h0Z"/>
            </g>
            <path class="cls-20" d="m105.94,88.43h-6.85l3.31,3.62v3.92h4.87v-3.38c0-.78-.16-1.54-.48-2.25l-.85-1.9h0Z"/>
            <g>
              <path class="cls-6" d="m135.08,124.01c4.09-2.66,7.81-5.87,11.04-9.52,1.14-6.43,1.8-13.33,2.27-19.84,2-.2,4.24-.31,6.24-.12,1.5,8.76,2.09,17.55,1.49,26.42-5.5,5.44-11.37,11.51-16.87,16.95l-4.17-13.87h0Z"/>
              <path class="cls-7" d="m155.51,116.95c.33-.46.6-.94.82-1.42-.02,1.8-.1,3.6-.22,5.41-5.5,5.44-11.37,11.51-16.87,16.95l-.97-3.22c6.09-5.48,12.1-11.08,17.24-17.71h0Z"/>
              <path class="cls-7" d="m148.89,97.73c1.39.03,2.77.07,4.16.1.2,0,.21.32.01.31-1.39-.03-2.77-.07-4.16-.1-.2,0-.21-.32-.01-.31Z"/>
            </g>
            <g>
              <path class="cls-6" d="m121.13,124.01c-4.09-2.66-7.81-5.87-11.04-9.52-1.14-6.43-1.8-13.33-2.27-19.84-2-.2-4.24-.31-6.24-.12-1.5,8.76-2.09,17.55-1.49,26.42,5.5,5.44,11.37,11.51,16.87,16.95l4.17-13.87h0Z"/>
              <path class="cls-7" d="m117.23,133.13c.09,1.04.16,2.08.22,3.13l-.48,1.62c-5.5-5.44-11.37-11.51-16.87-16.95-.16-2.35-.23-4.7-.23-7.04,3.02,8.06,9.86,14.23,17.36,19.23h0Z"/>
              <path class="cls-7" d="m101.92,97.97c1.84-.09,3.68-.18,5.51-.28.2,0,.21.3.01.31-1.84.09-3.68.18-5.51.28-.2,0-.21-.3-.01-.31Z"/>
            </g>
            <g>
              <g>
                <g>
                  <path class="cls-6" d="m114.57,220.98c0,.76,0,1.5.01,2.22h4.42l.25-2.22h-4.68,0Z"/>
                  <path class="cls-6" d="m136.45,220.98c0,.76,0,1.5.01,2.22h4.42l.25-2.22h-4.68,0Z"/>
                  <path class="cls-7" d="m141.28,160.75c-11.71,1.29-13.4,7.99-13.4,7.99l4.73,27.92,2.48,25.57h7.88c2.38-31.98-1.68-61.48-1.68-61.48h0Z"/>
                  <path class="cls-6" d="m131.02,168.35s5.21-3.34,5.82-6.25l-21.11.69s-2.94,37.7-2.86,58.19h8.05l10.09-52.63Z"/>
                  <path class="cls-6" d="m130.43,171.44l-9.5,50.78h-8.05c-.06-15.24,1.55-41.26,2.38-52.95,4.91,1.58,10.04,2.38,15.17,2.16h0Z"/>
                  <path class="cls-7" d="m115.26,169.28c.29-4.02.48-6.49.48-6.49l21.11-.69c-.61,2.92-5.82,6.25-5.82,6.25l-.59,3.09c-5.14.22-10.26-.58-15.17-2.16h0Z"/>
                  <path class="cls-7" d="m135.05,165.03c1.03-1.04,1.94-2.22,2.17-3.35l-19.76-.94s-.16,2.12-.24,3.01c5.89,1.37,11.91,1.88,17.82,1.28h0Z"/>
                </g>
                <g>
                  <path class="cls-6" d="m119.25,222.86l-5.17-.14c-1.44,1.5-2.47,3.39-2.97,5.41h9.34c-.19-1.79-.57-3.56-1.19-5.26h0Z"/>
                  <path class="cls-17" d="m111.11,228.13c-.05.19-.1.39-.14.58-.06.31.17.59.48.59h8.56c.29,0,.51-.24.49-.53-.02-.22-.04-.43-.06-.65h-9.34,0Z"/>
                </g>
                <g>
                  <path class="cls-6" d="m136.17,222.86l5.17-.14c1.44,1.5,10.12,3.39,10.62,5.41h-16.99c.19-1.79.57-3.56,1.19-5.26h0Z"/>
                  <path class="cls-17" d="m151.96,228.13c.05.19.1.39.14.58.06.31-.17.59-.48.59h-16.21c-.29,0-.51-.24-.49-.53.02-.22.04-.43.06-.65h16.99,0Z"/>
                </g>
              </g>
              <path class="cls-7" d="m118.67,198.7c-.64-1.1-1.31-2.18-1.84-3.34-.54-1.17-.92-2.4-1.31-3.63-.05-.15-.26-.09-.23.06.23,1.28.69,2.52,1.22,3.7.52,1.18,1.13,2.36,1.94,3.37.11.13.31-.04.23-.17Z"/>
              <path class="cls-7" d="m114.17,220.23h5.13c.2,0,.21.31.01.31h-5.13c-.2,0-.21-.31-.01-.31Z"/>
            </g>
            <g>
              <path class="cls-10" d="m139.19,127.78c-.06-1.37-1.02-2.56-2.44-3.07-3.01-1.1-6.38-1.43-9.66-1.21-3.02.2-5.97.84-8.87,1.69-1.89.55-3.06,2.24-2.77,3.97,1.73,10.32,2.31,20.96,1.64,31.39,7.74,2.24,15.45,2.9,22.77.34.25-10.69-.17-22.41-.67-33.12h0Z"/>
              <path class="cls-21" d="m128.29,126.47c-.84.43-1.64.96-2.37,1.57-.32-.58-.6-1.18-.9-1.76-.16-.32-.33-.64-.5-.96-.16-.31-.31-.67-.53-.95-.09-.11-.27,0-.23.14.09.33.29.65.44.95.16.33.33.67.5,1.01.33.66.68,1.31.99,1.98.06.12.22.11.31.04.77-.65,1.59-1.22,2.47-1.7.21-.11.02-.42-.18-.32h0Z"/>
              <path class="cls-21" d="m131.34,126.47c0-.28-.02-.56-.02-.84,0-.25.06-.59-.06-.81-.04-.08-.17-.08-.22,0-.12.22-.07.54-.06.78,0,.29,0,.59.02.88.02.47.05.94.09,1.4-.39-.22-.78-.44-1.16-.66-.24-.14-.48-.27-.72-.4-.24-.13-.47-.29-.74-.34-.09-.02-.16.08-.09.16.18.21.44.32.67.47.23.14.47.28.71.41.48.28.96.55,1.45.83.11.06.28-.01.26-.15-.06-.57-.1-1.14-.12-1.72h0Z"/>
              <polygon class="cls-21" points="128.38 126.64 127.28 127.51 127.83 128.37 127.73 157.62 129.91 158.76 131.77 157.62 129.21 128.53 129.52 127.38 128.38 126.64"/>
              <path class="cls-6" d="m114.79,131.24c-.37-2.5.65-5.2,2.67-5.93,1.51-.55,3.41-1.07,5.09-1.19,1.36,5.69,6.98,17.3,6.98,17.3,0,0,4.37-13.3,1.8-17.88,1.64-.09,4.77.38,6.41,1.22,1.55.79,2.52,3.34,2.63,5.31.72,12.2,3,24.88,3.96,37.26-1.19.56-2.75.57-4.03.68-2.09.19-4.19.29-6.28.36-6.8.25-13.52.03-19.95-2.44.93-11.59,2.44-23.15.72-34.7h0Z"/>
              <path class="cls-7" d="m117.23,133.13c.98,11.02.03,22.24-2.08,33.19-.36-.13-.72-.25-1.08-.39.93-11.52,2.41-23,.76-34.46.8.57,1.6,1.13,2.41,1.67Z"/>
              <g>
                <path class="cls-7" d="m133.49,133.81l2.3-.79c.19-.07.38-.13.58-.2.17-.06.35-.1.51-.19.33-.18.2-.58.11-.87-.51-1.56-1.03-3.12-1.54-4.68-.06-.19.23-.29.3-.1.44,1.33.87,2.65,1.31,3.98.1.31.22.62.3.93.06.23.09.48-.02.7-.11.22-.33.32-.55.4-.32.11-.64.22-.96.33-.75.26-1.49.51-2.24.77-.19.06-.29-.23-.1-.3h0Z"/>
                <path class="cls-7" d="m133.68,133.89c.87.9,1.74,1.8,2.6,2.7.14.15-.07.37-.21.23l-2.6-2.7c-.14-.15.07-.37.21-.23Z"/>
                <path class="cls-7" d="m130.16,143.99c1.97-2.47,3.93-4.94,5.9-7.4.13-.16.35.05.23.21-1.97,2.47-3.93,4.94-5.9,7.4-.13.16-.35-.05-.23-.21Z"/>
              </g>
              <g>
                <path class="cls-7" d="m123.99,134.35l-2.39-.46c-.2-.04-.4-.08-.6-.12-.17-.03-.36-.05-.53-.12-.35-.14-.28-.54-.23-.84.29-1.61.58-3.23.87-4.85.03-.2-.27-.25-.31-.05-.25,1.37-.49,2.75-.74,4.12-.06.32-.13.64-.17.96-.02.23-.02.49.12.69.14.2.37.27.6.32.33.07.66.13,1,.19.77.15,1.55.3,2.32.45.2.04.25-.27.05-.31h0Z"/>
                <path class="cls-7" d="m123.81,134.46c-.73,1.01-1.47,2.02-2.2,3.04-.12.16.12.36.24.2.73-1.01,1.47-2.02,2.2-3.04.12-.16-.12-.36-.24-.2Z"/>
                <path class="cls-7" d="m128.69,143.97c-2.29-2.17-4.58-4.34-6.88-6.51-.15-.14-.34.1-.2.24,2.29,2.17,4.58,4.34,6.88,6.51.15.14.34-.1.2-.24Z"/>
              </g>
              <path class="cls-7" d="m129.67,141.93c.22,3.48.4,6.97.52,10.46.13,3.49.2,6.98.23,10.47.01,1.96.01,3.93,0,5.9,0,.2-.31.21-.31.01.03-3.49,0-6.98-.06-10.47-.07-3.49-.19-6.98-.35-10.46-.09-1.96-.2-3.92-.33-5.89-.01-.2.3-.21.31-.01h0Z"/>
              <path class="cls-7" d="m135.07,157.77c1.83.51,3.79.44,5.58-.22.19-.07.28.23.1.3-1.83.68-3.86.76-5.74.23-.19-.05-.13-.36.07-.31h0Z"/>
              <path class="cls-7" d="m118.34,158.18c1.83.51,3.79.44,5.58-.22.19-.07.28.23.1.3-1.83.68-3.86.76-5.74.23-.19-.05-.13-.36.07-.31Z"/>
            </g>
            <g>
              <path class="cls-25" d="m133.92,113.73c.55-1.89.41-3.97-.38-5.77.11-.44.02-.96-.2-1.35-.22-.39-.58-.71-.97-.93-.53-.3-1.18-.44-1.76-.26-.58.17-1.08.7-1.1,1.31-.45-.27-.83-.54-1.33-.71s-1.05-.24-1.55-.1c-.51.15-.96.53-1.11,1.03-.15.51.09,1.12.57,1.33-.39-.47-1.28-.56-1.84-.32s-.96.76-1.2,1.32c-.19.45-.29.95-.2,1.43.09.48.38.93.82,1.13-.83.42-1.11,1.43-.93,2.35s.75,1.7,1.36,2.41,1.28,1.39,1.69,2.22l8.14-5.11h0Z"/>
              <path class="cls-7" d="m133.66,113.92c.49-1.82.37-3.83-.33-5.56.09-.43.02-.92-.18-1.29-.2-.38-.51-.68-.86-.9-.48-.29-1.05-.42-1.57-.25s-.96.68-.98,1.27c-.4-.26-.74-.52-1.18-.69s-.93-.23-1.38-.09-.85.51-.98.99.08,1.08.5,1.28c-.34-.46-1.14-.54-1.64-.31-.5.23-.86.73-1.07,1.28-.17.43-.26.91-.18,1.37s.34.9.73,1.09c-.74.4-.98,1.38-.83,2.26.16.88.66,1.64,1.21,2.32.54.68,1.13,1.33,1.51,2.13l7.24-4.92h0Z"/>
              <g>
                <g>
                  <g>
                    <g>
                      <path class="cls-20" d="m125.05,116.32c.2,2.52.14,5.05-.17,7.56-.06.5.15,1.01.57,1.3,1.15.81,2.63,1.16,4.01.96.7-.11,1.2-.75,1.14-1.46-.14-1.63-.17-3.18-.14-4.86-1.38-1.75-3.29-2.81-5.41-3.5h0Z"/>
                      <path class="cls-16" d="m130.46,119.82c-1.38-1.75-3.29-2.81-5.41-3.5.05.66.08,1.32.1,1.99.83,2.8,3.01,4.54,5.37,5.22-.07-1.22-.09-2.43-.06-3.72h0Z"/>
                    </g>
                    <g>
                      <path class="cls-20" d="m133.95,112.22c.47,3.52-.27,9.53-2.92,9.81-3.12.32-5.03-2.45-5.73-5.01,0,.04-.29.21-.59.19-.3-.02-.7-.37-.86-.62-.32-.48-.64-1.22-.3-1.76.41-.65,1.32-.79,1.71-.02-.03-1.28.39-2.46.83-3.66.15-.39.45-.7.85-.84,1.8-.63,4.01-.66,5.85-.12.46.14.8.51.94.96.11.37.2.77.24,1.06h0Z"/>
                      <path class="cls-7" d="m130.19,112.44c-.57-.72-2.12-.22-2.7.24-.11.08-.23.19-.22.34,0,.08.05.15.13.16.17.05.34-.1.49-.17.19-.1.4-.18.61-.23.26-.06.54-.07.8-.05.26.03.51.15.77.11.2-.03.21-.29.11-.41h0Z"/>
                      <path class="cls-7" d="m129.37,113.69s-.04-.08-.07-.11c-.03-.03-.07-.06-.11-.07-.04-.02-.09-.03-.13-.03-.03,0-.06,0-.09.01-.06.01-.11.04-.15.09-.02.02-.03.05-.05.07-.03.05-.05.11-.05.17v.04s0,.09.03.13c.01.04.04.08.07.11.03.03.07.06.11.07.04.02.09.03.13.03h.09c.06-.03.11-.06.15-.1.02-.02.03-.05.05-.07.03-.05.05-.11.05-.17v-.04s0-.09-.03-.13Z"/>
                      <path class="cls-7" d="m133.14,113.91s-.04-.08-.07-.11c-.03-.03-.07-.06-.11-.07-.04-.02-.09-.03-.13-.03-.03,0-.06,0-.09.01-.06.01-.11.04-.15.09-.02.02-.03.05-.05.07-.03.05-.05.11-.05.17v.04s0,.09.03.13c.01.04.04.08.07.11.03.03.07.06.11.07.04.02.09.03.13.03h.09c.06-.03.11-.06.15-.1.02-.02.03-.05.05-.07.03-.05.05-.11.05-.17v-.04s0-.09-.03-.13Z"/>
                      <path class="cls-7" d="m133.83,112.94c-.14-.26-.42-.39-.7-.47-.27-.07-.55-.08-.82-.01-.13.03-.2.16-.18.29.03.21.21.22.37.22.22,0,.44.03.64.12.14.06.87.43.73-.04,0-.04-.02-.07-.04-.1h0Z"/>
                      <path class="cls-24" d="m130.6,119.82c-.1-.03-.23,0-.33,0-.1,0-.21,0-.3-.02-.1-.01-.2-.03-.31-.06-.11-.03-.21-.08-.33-.07-.12,0-.16.14-.09.23.08.1.2.14.32.17.11.04.22.06.33.08.12.02.24.03.36.03.12,0,.28.01.39-.05.13-.08.1-.28-.04-.32Z"/>
                      <path class="cls-24" d="m124.97,116.13c-.11.04-.26-.02-.29-.15-.01-.06.02-.12.06-.17.04-.05.1-.08.15-.08.09,0,.16-.09.13-.17-.1-.37-.4-.75-.82-.7-.19.02-.36.13-.44.3-.04.08-.04.17-.02.26.01.05.08.18.15.12.04-.04.03-.1.04-.15.01-.05.04-.1.07-.15.06-.09.17-.13.28-.12.22.02.35.19.44.38-.19.09-.32.31-.26.53.06.24.34.4.58.32.15-.04.08-.28-.06-.23h.01Z"/>
                    </g>
                  </g>
                  <path class="cls-16" d="m132.28,115.69c-.16-.15-.36-.25-.54-.37-.2-.14-.28-.3-.25-.54.01-.16-.2-.18-.28-.08-.23.33.09.74.35.93.16.12.34.19.48.33.12.12.21.28.27.44.11.34.05.71-.17.98-.24.3-.56.38-.92.47-.11.03-.11.19,0,.22.37.11.78-.09,1.05-.32.3-.26.46-.64.46-1.04,0-.38-.16-.77-.45-1.03h0Z"/>
                </g>
                <path class="cls-7" d="m131.09,119.1c-1.12.33-2.33-.11-2.97-1.08-.11-.17.15-.33.26-.17.57.85,1.62,1.25,2.61.96.19-.06.29.24.1.3h0Z"/>
              </g>
            </g>
            <path class="cls-7" d="m140.43,129.64c.24,4.65.66,9.29,1.27,13.92.17,1.29.35,2.59.55,3.88.03.2-.28.21-.31.01-.7-4.61-1.23-9.24-1.57-13.88-.1-1.3-.17-2.6-.24-3.91,0-.2.3-.21.31-.01h0Z"/>
            <g>
              <path class="cls-20" d="m106.14,91.57c-.75-.36-1.25-1.19-1.22-2.02.03-.83.58-1.62,1.35-1.93.14-1.34,1.35-2.39,2.67-2.62-.95,2.19-1.57,4.52-1.82,6.9l-.99-.32h0Z"/>
              <path class="cls-16" d="m107.21,85.64c-.48.18-.65.71-.75,1.17-.06.26-.12.55-.29.77-.18.22-.47.32-.7.48-.47.32-.79.79-.84,1.36-.07.62.16,1.23.37,1.8.07.19.34.04.28-.15-.2-.54-.42-1.13-.33-1.71.09-.57.5-.95.98-1.22.21-.12.4-.25.54-.45.13-.18.2-.41.25-.63.11-.43.17-.98.64-1.16.19-.07.04-.34-.15-.28h0Z"/>
            </g>
          </g>
          <g>
            <path class="cls-14" d="m185.09,112.34c2.23.64,4.01,2.64,4.37,4.93.08.53.11,1.1.41,1.54.32.47.93.76,1.05,1.31.14.59-.35,1.24-.07,1.78.29.54,1.16.55,1.44,1.1.3.61-.38,1.37-.11,1.99.25.57,1.06.55,1.59.87.49.3.74.9.74,1.47s-.22,1.12-.48,1.63c-1.53,3.03-4.65,5.1-7.98,5.77s-6.83.08-9.96-1.23c-.75-.31-1.5-.68-2-1.32s-.67-1.6-.19-2.24c.18-.24.44-.43.57-.71.46-.97-.99-1.95-.78-3,.12-.57.67-.91,1.14-1.25.48-.33.96-.84.84-1.41-.06-.28-.26-.51-.33-.79-.17-.72.58-1.28,1.06-1.84.85-1.01.9-2.44,1.06-3.74.45-3.61,4.09-5.87,7.62-4.86h0Z"/>
            <path class="cls-15" d="m185.04,113.63c2.1.6,3.78,2.49,4.13,4.65.08.5.1,1.03.39,1.45.3.44.88.71.99,1.24.13.56-.33,1.17-.07,1.68.27.51,1.1.51,1.36,1.04.29.58-.36,1.29-.1,1.88.24.53.99.52,1.5.82.47.28.7.84.69,1.39,0,.54-.21,1.06-.45,1.54-1.44,2.86-4.38,4.8-7.52,5.45-3.14.64-6.44.08-9.4-1.16-.7-.3-1.42-.64-1.89-1.25-.47-.6-.63-1.51-.18-2.12.17-.23.42-.41.54-.67.43-.92-.93-1.84-.73-2.83.11-.53.63-.86,1.08-1.17.45-.32.91-.79.79-1.32-.06-.26-.25-.48-.31-.74-.16-.68.55-1.2,1-1.74.8-.95.84-2.3,1-3.53.43-3.4,3.85-5.54,7.19-4.59h0Z"/>
            <g>
              <path class="cls-1" d="m205.89,121.25c.01-.4-.25-.77-.59-.98s-.73-.31-1.12-.38c-1.14-.22-2.31-.33-3.47-.34-.6,0-1.12.42-1.24,1.01-.06.3-.12.61-.13.89-.79.54-.76,1.76-.63,2.72-1.84,1.62-4.85,3.93-7.23,4.53-2.38.6-4.92,1.6-6.07,3.77-.8,1.51-.76,3.3-.68,5,.05,1.24.18,2.64,1.81,3.04.51.13,1.05.11,1.57,0,3.33-.64,5.46-3.52,8.36-5.27,2.77-1.66,5.59-3.44,7.44-6.08s3.74-5.21,1.98-7.92Z"/>
              <path class="cls-1" d="m206.19,125.42c.55-1.38.64-2.76-.29-4.18.01-.4-.25-.77-.59-.98s-.73-.31-1.12-.38c-1.14-.22-2.31-.33-3.47-.34-.6,0-1.12.42-1.24,1.01-.06.3-.12.61-.13.89-.79.54-.76,1.76-.63,2.72-1.84,1.62-4.85,3.93-7.23,4.53-2.38.6-4.92,1.6-6.07,3.77-.8,1.51-.76,3.3-.68,5,0,.28.03.56.06.84,7.83-2.58,15.81-6.65,21.38-12.88h0Z"/>
              <path class="cls-17" d="m184.8,138.3c.12.97.48,1.89,1.75,2.21.51.13,1.05.11,1.57,0,3.33-.64,5.46-3.52,8.36-5.27,2.77-1.66,5.59-3.44,7.44-6.08.88-1.26,1.77-2.49,2.27-3.74-5.57,6.23-13.56,10.29-21.38,12.88Z"/>
              <path class="cls-12" d="m200.09,109.37l-.28,10.89c-.02.8.58,1.5,1.39,1.56.64.05,1.46-.02,2.33-.44.6-.29.93-.94.83-1.59l-1.59-10.61s-1.42-.12-2.68.2h0Z"/>
              <path class="cls-17" d="m202.37,126.5c-1.25-.18-2.39-.9-3.12-1.92-.12-.16-.34.05-.23.21.79,1.1,2.01,1.83,3.34,2.03.2.03.21-.28.01-.31h0Z"/>
              <path class="cls-17" d="m203.17,122.68c-.95,0-1.88-.25-2.69-.73-.17-.1-.34.16-.17.26.86.51,1.85.79,2.85.78.2,0,.21-.31.01-.31Z"/>
            </g>
            <path class="cls-1" d="m183.9,127.67c-2.08-.55-4.33-.43-6.33.36-.94.37-1.94,1.08-1.91,2.09.03.87.84,1.5,1.61,1.91,2.84,1.53,6.24,1.99,9.39,1.27,1.53-.35,3.05-1.62,1.68-3.11-1.13-1.23-2.84-2.09-4.44-2.52h0Z"/>
            <path class="cls-1" d="m177.22,131.46c-2.22.35-4.02,2.16-5.32,4.15s-2.27,4.23-3.7,6.1c-1.18,1.54-2.65,2.82-3.7,4.47-1.05,1.64-1.63,3.87-.78,5.65.81,1.69,2.71,2.47,4.46,2.5,1.28.01,2.65-.35,3.48-1.41.62-.79.86-1.86.82-2.9,0-.21-.02-.42-.05-.63-.15-1.2.3-2.37,1.11-3.2.26-.26.49-.55.69-.83,1.44-2.01,2.77-4.15,3.46-6.57s.73-5.14-.47-7.33h0Z"/>
            <path class="cls-1" d="m177.49,139.42c.07-.21.14-.42.2-.63.69-2.42.73-5.14-.47-7.33-2.22.35-4.02,2.16-5.32,4.15s-2.27,4.23-3.7,6.1c-1.18,1.54-2.65,2.82-3.7,4.47s-1.63,3.87-.78,5.65c.81,1.69,2.71,2.47,4.46,2.5,1.28.01,2.65-.35,3.48-1.41.62-.79.86-1.86.82-2.9,0-.21-.02-.42-.05-.63,0-.05,0-.09,0-.14-.44-.93-.93-1.76-1.55-2.6,2.51-2.04,4.86-4.48,6.62-7.23h0Z"/>
            <path class="cls-17" d="m170.86,146.65c.63.83,1.11,1.67,1.55,2.6-.1-1.15.34-2.26,1.12-3.05.26-.26.49-.55.69-.83,1.31-1.83,2.53-3.78,3.26-5.94-1.76,2.75-4.11,5.19-6.62,7.23h0Z"/>
            <path class="cls-7" d="m186.82,166.36c1.2-1.45,2.2-2.94,2.38-4.04l-16.02-2.96c-.5,1.3-1.25,2.63-1.63,3.97,4.82,1.8,10.22,3.09,15.28,3.03h0Z"/>
            <g>
              <g>
                <path class="cls-8" d="m184.5,225.17l3.33-.09c.93.96,6.5,2.18,6.83,3.47h-10.92c.12-1.15.37-2.29.77-3.38h0Z"/>
                <path class="cls-6" d="m194.65,228.54c.03.13.06.25.09.37.04.2-.11.38-.31.38h-10.42c-.18,0-.33-.16-.32-.34,0-.14.02-.28.04-.42h10.92Z"/>
              </g>
              <path class="cls-7" d="m192.64,161.28c-4.82,1.8-7.05,1.1-12.12,1.04-.44,2.86,1.33,8.95,1.33,8.95l.2,4.47h12.36c-.05-5.06-.54-10.13-1.78-14.45h0Z"/>
              <path class="cls-5" d="m182.05,175.73l.14,2.12,12.09.14c.1-.74.15-1.5.13-2.26h-12.36,0Z"/>
              <g>
                <path class="cls-8" d="m179.3,225.17l-3.33-.09c-.93.96-2.46,2.18-2.78,3.47h6.87c-.12-1.15-.37-2.29-.77-3.38h0Z"/>
                <path class="cls-6" d="m173.19,228.54c-.03.13-.06.25-.09.37-.04.2.11.38.31.38h6.37c.18,0,.33-.16.32-.34,0-.14-.02-.28-.04-.42h-6.87Z"/>
              </g>
              <path class="cls-6" d="m182.06,171.27s2.68-2.4,4.76-4.91c-5.06.06-10.45-1.22-15.28-3.03-1.16,4.03-1.73,8.2-1.9,12.4h12.22l.2-4.47h0Z"/>
              <path class="cls-23" d="m169.64,175.73c-.08.75-.07,1.51,0,2.26h12.21v-2.26h-12.22,0Z"/>
            </g>
            <path class="cls-1" d="m191.33,150.36c.02-5.93.64-10.74.88-16.67.02-.65-.17-1.39-.74-1.68-8.47-4.32-14.73-.82-16.11.18-.7.51-1.01,1.44-.74,2.28,1.54,4.92,1.41,9.47.59,14.56-.64,3.98-4.92,8.64-3.84,13.77,6.82,3.05,15,2.75,22.48,1.33,1.99-3.56-2.52-10.54-2.51-13.77h0Z"/>
            <g>
              <path class="cls-12" d="m181.3,122.52c.31,2.46.45,4.96.42,7.43,0,.5.17.98.48,1.25.83.74,1.84,1.02,2.75.75.47-.14.75-.8.66-1.49-.21-1.59-.34-3.11-.44-4.77-1.05-1.65-2.4-2.6-3.87-3.17Z"/>
              <path class="cls-4" d="m185.17,125.69c-1.05-1.65-2.4-2.6-3.87-3.17.08.65.15,1.3.21,1.95,1,1.99,2.42,3.97,3.97,4.87-.14-1.2-.24-2.39-.31-3.65h0Z"/>
            </g>
            <path class="cls-17" d="m191.16,163.27c-2.27.65-4.61,1.02-6.97,1.09-2.36.07-4.72-.15-7.03-.65-1.3-.29-2.58-.66-3.83-1.13-.19-.07-.28.23-.1.3,2.23.83,4.55,1.38,6.91,1.64,2.37.26,4.78.22,7.14-.1,1.33-.18,2.65-.47,3.94-.84.19-.05.13-.36-.07-.31h0Z"/>
            <g>
              <g>
                <path class="cls-12" d="m187.91,117.92c.87,3.83-.13,8.28-1.14,8.44-3.35.52-5.58-2.61-5.6-2.65.02.04-.48.32-.78.37-.29.05-.76-.19-.97-.39-.41-.38-.9-1.01-.7-1.61.24-.72,1.33-1.08,1.88-.43,1.02-1.98.14-3.01.1-4.44,1.66-1.29,3.81-1.86,5.95-1.7.36.02,1.17,2.07,1.25,2.42h0Z"/>
                <path class="cls-7" d="m184.04,119.64s-.05-.07-.09-.09c-.04-.02-.08-.04-.12-.04-.04,0-.09,0-.14,0-.03,0-.06.02-.09.03-.05.03-.09.07-.13.12,0,.02-.02.05-.03.08-.02.06-.02.12,0,.18v.03s.04.09.07.12c.02.04.05.07.09.09.04.02.08.04.12.04.04,0,.09,0,.14,0l.09-.03c.05-.03.09-.07.13-.12,0-.02.02-.05.03-.08.02-.06.02-.12,0-.18v-.03s-.04-.09-.07-.12Z"/>
                <path class="cls-7" d="m187.31,119.06s-.05-.07-.09-.09c-.04-.02-.08-.04-.12-.04-.04,0-.09,0-.14,0-.03,0-.06.02-.09.03-.05.03-.09.07-.13.12,0,.02-.02.05-.03.08-.02.06-.02.12,0,.18v.03s.04.09.07.12c.02.04.05.07.09.09.04.02.08.04.12.04.04,0,.09,0,.14,0l.09-.03c.05-.03.09-.07.13-.12,0-.02.02-.05.03-.08.02-.06.02-.12,0-.18v-.03s-.04-.09-.07-.12Z"/>
                <path class="cls-4" d="m180.4,122.99c-.1.06-.25.04-.31-.07-.03-.06,0-.12.02-.17.02-.05.07-.1.13-.11.09-.02.13-.12.09-.2-.18-.33-.56-.62-.96-.48-.17.06-.32.2-.35.39-.01.09,0,.17.04.25.02.04.12.16.17.08.03-.05,0-.1,0-.15,0-.05,0-.11.03-.16.04-.1.13-.16.24-.18.21-.03.39.1.51.26-.16.13-.24.36-.13.56.12.22.42.31.63.18.13-.08.01-.29-.11-.2h0Z"/>
              </g>
              <path class="cls-15" d="m184.52,117.63c-.7.06-1.37.33-1.93.75-.16.12.05.35.21.23.52-.39,1.14-.62,1.79-.68.08,0,.14-.11.12-.18-.02-.09-.1-.13-.18-.12Z"/>
              <path class="cls-15" d="m187.67,117.7c-.34-.32-.81-.47-1.28-.37-.08.02-.14.1-.12.18s.1.14.18.12c.05,0,.1-.02.15-.02h.11s.1,0,.15.01c.01,0,.02,0,.04,0h.01s.02,0,.03,0c.01,0,.02,0,.04,0l.13.04s.04.02.06.03h0s.02,0,.03.02c.04.02.08.05.12.07.02.01.04.03.06.05,0,0,0,0,.02.01l.02.02c.06.06.16.07.22.01.06-.05.07-.16.01-.22h0Z"/>
              <path class="cls-4" d="m186.55,124.42c-.34.05-.68.1-1.02.15-.08,0-.14.1-.12.18.02.09.1.14.18.12.34-.05.68-.1,1.02-.15.08,0,.14-.1.12-.18-.02-.09-.1-.14-.18-.12Z"/>
              <path class="cls-4" d="m186.99,121.45c-.11-.17-.29-.28-.47-.38-.15-.08-.31-.16-.36-.33-.03-.08-.14-.1-.21-.07-.08.04-.1.13-.07.21.13.34.51.41.76.63.11.09.17.21.09.34-.09.16-.27.24-.39.37-.06.06-.07.16-.01.22.05.06.16.07.22.01.15-.15.33-.25.45-.43s.12-.4,0-.58h0Z"/>
              <path class="cls-7" d="m186.51,123.55c-.04-.08-.13-.1-.21-.07-.45.17-.95.19-1.41.06-.08-.02-.17.01-.2.1-.02.08.01.17.1.2.55.16,1.12.13,1.65-.08.08-.03.11-.14.07-.21h0Z"/>
            </g>
            <g>
              <path class="cls-17" d="m179.59,154.47c-.3,1.87-1.37,3.58-2.91,4.68-.16.12.05.34.21.23,1.61-1.15,2.71-2.94,3.01-4.89.03-.2-.28-.21-.31-.01h0Z"/>
              <path class="cls-17" d="m189.27,154.03c-3.19.09-6.37.18-9.55.28-.2,0-.21.32-.01.31,3.19-.09,6.37-.18,9.55-.28.2,0,.21-.32.01-.31Z"/>
              <path class="cls-17" d="m191.2,157.97c-1.23-.83-1.93-2.31-1.82-3.78.01-.2-.3-.21-.31-.01-.12,1.58.64,3.17,1.96,4.05.16.11.33-.15.17-.26h0Z"/>
            </g>
            <path class="cls-12" d="m179.23,155.83l-9.65-7.31s-2.3,1.19-2.19,4.24l10.44,5.35s.92-1.08,1.4-2.29Z"/>
            <path class="cls-17" d="m169.66,148.41c-1.81.84-2.91,2.87-2.67,4.84.02.2.33.13.31-.07-.23-1.84.83-3.72,2.51-4.5.18-.08.04-.36-.15-.28h0Z"/>
            <path class="cls-17" d="m171.26,148.37c-.81-.98-2.24-1.33-3.41-.86-.18.07-.04.35.15.28,1.05-.42,2.32-.08,3.04.79.13.16.36-.06.23-.21h0Z"/>
            <path class="cls-17" d="m175.8,138.66c-.01-.2-.32-.21-.31-.01.21,2.97.13,5.96-.23,8.92-.02.2.29.21.31.01.36-2.96.44-5.95.23-8.92Z"/>
            <path class="cls-17" d="m186.47,130.12c-.06-.19-.37-.12-.31.07.25.73-.13,1.44-.56,2.01-.2.27-.41.56-.67.77-.3.23-.61.19-.9-.01-.27-.19-.51-.42-.79-.62-.28-.21-.57-.4-.87-.58-.6-.35-1.23-.63-1.89-.84-.67-.22-1.57-.48-1.68-1.31-.03-.2-.33-.13-.31.07.1.75.79,1.16,1.44,1.39.77.27,1.52.53,2.23.94.34.2.67.42.98.65.3.23.57.51.91.68.72.36,1.24-.26,1.65-.77.54-.68,1.06-1.54.76-2.44h0Z"/>
            <path class="cls-8" d="m181.44,133.96c-.06-.19-.37-.12-.31.07.67,1.93.86,4,.54,6.01-.03.2.28.21.31.01.32-2.04.14-4.15-.55-6.09h0Z"/>
            <path class="cls-8" d="m186.88,133.51c-.06-.19-.36-.12-.31.07.7,2.23.83,4.61.34,6.89-.04.19.26.29.3.1.49-2.34.38-4.78-.34-7.06h0Z"/>
            <path class="cls-12" d="m175.97,225.07l-1.91-10.36c-.64-3.51-.93-10.82-.85-14.39l.09-3.77-3.09-18.56h11.01l-2.97,19.13.4,1.91c.87,4.2,1.22,12.23,1.04,16.52l-.4,9.61-3.33-.09h0Z"/>
            <path class="cls-12" d="m194.29,177.99l-6.46,47.08h-3.33l-.56-12.73c-.16-3.66.37-11.05,1.58-14.51h0l-2.85-19.99,11.62.14h0Z"/>
            <polygon class="cls-4" points="181.24 177.99 170.22 177.99 170.39 178.99 181.08 178.99 181.24 177.99"/>
            <path class="cls-12" d="m178.26,197.12l2.82-18.13h-10.69l2.92,17.56-.09,3.77c-.08,3.57.2,10.88.85,14.39l1.91,10.36,3.33.09.4-9.61c.18-4.29-.17-12.32-1.04-16.52l-.4-1.91h0Z"/>
            <polygon class="cls-4" points="194.29 177.99 182.67 177.86 182.83 178.99 194.15 178.99 194.29 177.99"/>
            <path class="cls-12" d="m182.83,178.99l2.69,18.85h0c-1.21,3.46-1.75,10.85-1.58,14.51l.56,12.73h3.33l6.32-46.08h-11.32Z"/>
            <path class="cls-12" d="m202.81,109.81v-.03l1.89-3.54-2.03-1.54-2.01.77-.36,2.96c-.14.44-.16.75-.19,1.23l2.7.16h0Z"/>
            <polygon class="cls-1" points="202.44 69.44 209.44 83.61 225.08 85.89 213.76 96.92 216.44 112.5 202.44 105.14 188.45 112.5 191.13 96.92 179.81 85.89 195.45 83.61 202.44 69.44"/>
            <path class="cls-13" d="m186.06,84.98l-6.25.91,11.32,11.03-2.67,15.58,13.99-7.36,13.99,7.36-2.27-13.22c-10.88-.47-21.7-5.55-28.11-14.3h0Z"/>
            <g>
              <path class="cls-12" d="m200.67,109.39c.43-.29.71-.94.69-1.6-.01-.66-.33-1.28-.78-1.53-.08-1.06-.77-1.89-1.53-2.08.54,1.73.89,3.58,1.04,5.46l.57-.25h0Z"/>
              <path class="cls-4" d="m200.06,104.7c.28.15.37.56.43.93.03.21.07.44.16.61.1.17.27.26.4.38.27.25.45.63.48,1.08.04.49-.09.97-.21,1.43-.04.15-.2.03-.16-.12.12-.43.24-.89.19-1.35-.05-.46-.29-.75-.56-.96-.12-.09-.23-.2-.31-.35-.07-.15-.11-.32-.15-.49-.06-.33-.1-.78-.37-.92-.11-.05-.02-.27.08-.22h0Z"/>
            </g>
            <path class="cls-15" d="m185.16,115.74c-.29.35-.73.61-1.14.87-.41.27-.81.57-.97.97-.18.46-.01.95-.03,1.42-.02.63-.39,1.24-.98,1.65-.6.41-1.41.62-2.19.55-.08-1.49-.15-3.07.75-4.39.58-.86,1.57-1.53,2.7-1.89.96-.31,2.99-.57,1.89.8h0Z"/>
          </g>
          <g>
            <path class="cls-6" d="m75.56,119.95c-.48.62-.95,1.2-1.37,1.71-2.77.59-3.63,1.45-4.79,4.03l2.02,9.86c4.02-1.4,7.08-5.36,9.76-8.67.23-.28.46-.56.67-.84-.21,0-.42-.03-.64-.07-2.85-.48-5.34-3.13-5.66-6.02Z"/>
            <path class="cls-3" d="m84.68,116.74c-.43-1.32-1.4-2.74-2.79-2.71-.76.02-1.43.48-2.01.96-1.32,1.11-2.91,3.16-4.32,4.96.32,2.89,2.81,5.55,5.66,6.02.21.04.43.06.64.07,2.34-2.96,4.01-5.6,2.82-9.31h0Z"/>
            <path class="cls-3" d="m57.39,126.44c.02-.8-.37-1.57-.94-2.13-.57-.56-1.3-.92-2.06-1.18-1.62-.55-3.44-.54-5.1-.14-2.96-2.01-5.8-4.18-8.53-6.5-1.68,1.25-3.44,3.88-4.76,5.51,5.16,6.33,11.9,10.51,19.57,13.33l1.81-8.9h0Z"/>
            <path class="cls-6" d="m57.39,126.44c.02-.8-.37-1.57-.94-2.13-.57-.56-1.3-.92-2.06-1.18-1.62-.55-3.44-.54-5.1-.14-.9-.61-1.78-1.24-2.66-1.88-1.81,2.32-2.65,5.11-2.99,8.04,3.61,2.58,7.62,4.6,11.93,6.18l1.81-8.9h0Z"/>
            <path class="cls-7" d="m54.11,134.78c-3.41-2.66-6.69-5.52-9.99-8.29-.21.87-.37,1.76-.48,2.67,3.2,2.29,6.71,4.13,10.47,5.62h0Z"/>
            <g>
              <g>
                <g>
                  <path class="cls-17" d="m53.67,161.61c10.61,1.27,10.46,7.88,10.46,7.88l-4.29,27.57-3.06,24.02h-5.06c-2.16-31.57,1.95-59.48,1.95-59.48h0Z"/>
                  <path class="cls-1" d="m61.27,169.12s-4.72-3.3-5.28-6.18l17.73.69s2.96,37.23,2.89,57.46h-5.02l-10.32-51.97h0Z"/>
                  <path class="cls-3" d="m76.2,221.09c0,.75,0,1.48-.01,2.19h-4l-.22-2.19h4.25,0Z"/>
                  <path class="cls-3" d="m56.36,221.09c0,.75,0,1.48-.01,2.19h-4l-.22-2.19h4.25,0Z"/>
                  <path class="cls-17" d="m57.62,165.83c-.94-1.02-1.76-2.2-1.97-3.3l17.92-.92s.15,2.09.21,2.97c-5.34,1.35-10.8,1.86-16.16,1.26h0Z"/>
                </g>
                <g>
                  <path class="cls-6" d="m71.95,222.94l4.69-.14c1.31,1.48,2.24,3.35,2.7,5.34h-8.47c.17-1.77.52-3.52,1.08-5.2h0Z"/>
                  <path class="cls-17" d="m79.34,228.14c.04.19.09.38.12.57.05.3-.16.59-.44.59h-7.76c-.26,0-.47-.24-.45-.52.01-.21.03-.43.05-.64h8.47Z"/>
                </g>
                <g>
                  <path class="cls-6" d="m56.62,222.94l-4.69-.14c-1.31,1.48-9.18,3.35-9.63,5.34h15.4c-.17-1.77-.52-3.52-1.08-5.2Z"/>
                  <path class="cls-17" d="m42.29,228.14c-.04.19-.09.38-.12.57-.05.3.16.59.44.59h14.7c.26,0,.47-.24.45-.52-.01-.21-.03-.43-.05-.64h-15.41Z"/>
                </g>
              </g>
              <path class="cls-17" d="m72.48,199.09c.58-1.09,1.19-2.15,1.67-3.3.48-1.16.83-2.37,1.19-3.58.04-.15.24-.09.21.06-.21,1.26-.63,2.49-1.11,3.66-.48,1.16-1.02,2.33-1.76,3.33-.1.13-.28-.03-.21-.17h0Z"/>
            </g>
            <path class="cls-6" d="m54.1,127.72c.08-1.45.99-2.72,2.33-3.28,2.85-1.19,6.04-1.59,9.14-1.39,2.85.18,5.63.83,8.35,1.7,1.78.57,2.86,2.37,2.57,4.21-1.68,10.56-2.36,21.41-1.94,32.08.03.69.09,1.69-.57,1.9-6.09,1.9-14.79,2.22-20.59.67-1.44-.38-.31-1.71-.31-3.2-.03-10.66.47-22.14,1.01-32.69h0Z"/>
            <g>
              <path class="cls-3" d="m67.51,116.28c-.18,2.38-.13,4.77.16,7.13.06.48-.15.95-.54,1.23-1.09.76-2.48,1.1-3.78.9-.66-.1-1.13-.71-1.08-1.38.13-1.54.16-2.99.13-4.58,1.3-1.65,3.1-2.65,5.1-3.3h0Z"/>
              <path class="cls-2" d="m62.4,119.58c1.3-1.65,3.1-2.65,5.1-3.3-.08,1.01-.11,2.03-.1,3.04-.91,2.47-2.54,4.83-4.75,5.86-.26-.26-.41-.63-.38-1.03.13-1.54.16-2.99.13-4.58h0Z"/>
              <path class="cls-7" d="m67.97,115.7c.28-1.03.55-2.06.82-3.09.15-.54.29-1.1.18-1.65-.11-.55-.55-1.07-1.11-1.08-1.48-2.17-4.15-3.4-6.76-3.08-.9.11-1.81.41-2.42,1.08-.7.77-.88,1.89-.87,2.93,0,1.25.57,1.38,1.42,2.28.81.86,1.73,2.4,2.89,2.59,1.98.34,3.86.32,5.85,0h0Z"/>
              <path class="cls-7" d="m67.68,115.72c.25-.94.49-1.88.75-2.82.13-.49.26-1,.16-1.5s-.49-.98-1-.98c-1.34-1.98-3.76-3.1-6.12-2.81-.81.1-1.64.38-2.2.98-.64.7-.8,1.72-.79,2.68,0,1.13.51,1.26,1.28,2.08.74.79,1.56,2.19,2.62,2.37,1.79.31,3.5.29,5.29,0h0Z"/>
              <g>
                <path class="cls-3" d="m59.11,112.41c-.44,3.32.92,9.18,2.75,9.25,3.91.14,4.75-2.32,5.41-4.73,0,.04.27.2.56.18.28-.01.66-.35.81-.58.3-.45.61-1.15.28-1.66-.39-.62-1.25-.74-1.61-.02.03-1.21-.37-2.33-.79-3.47-.13-.36-.42-.64-.78-.77-1.74-.61-3.89-.64-5.65-.08-.34.11-.61.38-.72.73-.12.39-.22.83-.27,1.15h0Z"/>
                <path class="cls-7" d="m65.55,117.85c-1.94-.52-4.1-.32-5.86.63.51,1.78,1.28,3.15,2.17,3.19,3.73.14,4.66-2.09,5.31-4.39l.26-2.54c-.63,1.04-1.25,2.08-1.88,3.12h0Z"/>
                <path class="cls-3" d="m68.92,114.88c-.32-.51-.97-.68-1.39-.31-.03.05-.07.11-.1.16l-.26,2.54c.03-.11.06-.22.09-.34,0,.04.27.2.56.18.28-.01.66-.35.81-.58.3-.45.61-1.15.28-1.66Z"/>
                <path class="cls-3" d="m67.31,114.86c.03-1.21-.37-2.33-.79-3.47-.13-.36-.42-.64-.78-.77-1.74-.61-3.89-.64-5.65-.08-.34.11-.61.38-.72.73-.12.39-.22.83-.27,1.15-.23,1.72.03,4.14.59,6.07,1.76-.94,3.92-1.15,5.86-.63.63-1.04,1.25-2.08,1.88-3.12v-.06c-.04.05-.08.12-.12.19h0Z"/>
                <path class="cls-3" d="m67.43,114.67v.06c.02-.05.06-.11.09-.16-.03.03-.06.06-.09.1h0Z"/>
                <path class="cls-7" d="m62.65,112.62c.53-.68,2-.21,2.54.22.1.08.22.18.2.32,0,.07-.05.14-.12.16-.16.05-.32-.09-.46-.16-.18-.1-.38-.17-.58-.21-.25-.05-.5-.07-.76-.04-.25.02-.48.14-.73.1-.19-.03-.19-.27-.1-.39h0Z"/>
                <path class="cls-7" d="m63.43,113.81s.03-.08.07-.11c.03-.03.06-.05.11-.07.04-.02.08-.03.13-.03.03,0,.06,0,.09,0,.05.01.1.04.15.08.01.02.03.04.05.07.03.05.04.11.04.16v.03s0,.09-.03.13c-.01.04-.03.08-.07.11-.03.03-.06.05-.11.07-.04.02-.08.03-.13.03h-.09c-.05-.02-.1-.05-.15-.09l-.05-.07s-.04-.11-.04-.16v-.03s0-.09.03-.13h0Z"/>
                <path class="cls-7" d="m59.87,114.01s.03-.08.07-.11c.03-.03.06-.05.11-.07.04-.02.08-.03.13-.03.03,0,.06,0,.09,0,.05.01.1.04.15.08.01.02.03.04.05.07.03.05.04.11.04.16v.03s0,.09-.03.13c-.01.04-.03.08-.07.11-.03.03-.06.05-.11.07-.04.02-.08.03-.13.03h-.09c-.05-.02-.1-.05-.15-.09-.02-.02-.03-.04-.05-.07-.03-.05-.04-.11-.04-.16v-.03s0-.09.03-.13h0Z"/>
                <path class="cls-7" d="m59.22,113.09c.13-.25.4-.37.66-.44.26-.07.51-.08.77-.01.12.03.19.15.17.27-.02.2-.19.2-.35.21-.21,0-.41.03-.61.11-.13.06-.82.4-.68-.03,0-.03.02-.07.04-.1h0Z"/>
                <path class="cls-2" d="m67.57,116.1c.1.03.25-.02.27-.14,0-.06-.02-.11-.06-.16-.03-.04-.09-.07-.15-.07-.08,0-.15-.08-.13-.16.1-.35.38-.7.78-.66.18.02.34.12.42.29.03.08.04.16.02.24,0,.05-.07.17-.14.11-.04-.03-.03-.09-.04-.14-.01-.05-.03-.1-.06-.14-.06-.09-.16-.12-.26-.11-.2.02-.33.18-.41.36.18.08.3.29.25.49-.06.23-.32.38-.54.31-.14-.04-.08-.26.06-.22h0Z"/>
              </g>
            </g>
            <path class="cls-7" d="m57.82,161.62c2.52.24,5.1-.2,7.4-1.25,2.13-.96,4-2.47,5.44-4.31.8-1.02,1.44-2.15,1.94-3.34.07-.17.33-.04.26.14-.91,2.17-2.34,4.12-4.13,5.63-1.91,1.61-4.22,2.72-6.67,3.2-1.42.28-2.87.35-4.31.22-.19-.02-.12-.31.07-.29h0Z"/>
            <path class="cls-7" d="m62.5,126.1c2.01.57,4.27.03,5.79-1.4.14-.13.35.07.22.2-1.6,1.5-3.96,2.08-6.07,1.48-.18-.05-.12-.34.07-.29h0Z"/>
            <path class="cls-2" d="m60.66,115.43c.22-.27.48-.54.55-.9.03-.18.32-.12.29.07-.11.63-.72.96-.94,1.53-.12.32-.04.69.19.94.24.26.62.33.95.23.18-.06.27.22.09.28-.79.26-1.62-.35-1.58-1.18.02-.37.22-.67.45-.96h0Z"/>
            <path class="cls-7" d="m63.91,118.44c-.54.72-1.52,1.1-2.4.92-.19-.04-.29.26-.1.3,1.03.21,2.13-.2,2.76-1.04.12-.16-.14-.33-.26-.17h0Z"/>
            <g>
              <polygon class="cls-1" points="59.63 60.66 66.63 74.83 82.27 77.1 70.95 88.14 73.62 103.71 59.63 96.36 45.64 103.71 48.31 88.14 37 77.1 52.63 74.83 59.63 60.66"/>
              <path class="cls-13" d="m43.25,76.2l-6.25.91,11.32,11.03-2.67,15.58,13.99-7.36,13.99,7.36-2.27-13.22c-10.88-.47-21.7-5.55-28.11-14.3h0Z"/>
            </g>
            <g>
              <g>
                <path class="cls-3" d="m49.83,97.55c.18-.02.38-.03.56.02s.34.19.38.38c.04.22-.13.44-.32.54-.2.1-.43.12-.65.16-.76.11-1.49.43-2.1.9-.32.24-.6.53-.95.72-1.2.67-2.13-.62-.89-1.39,1.19-.73,2.6-1.17,3.99-1.32h0Z"/>
                <path class="cls-3" d="m50.55,98.71c.18-.02.38-.03.56.02s.34.19.38.38c.04.22-.13.44-.32.54-.2.1-.43.12-.65.16-.76.11-1.49.43-2.1.9-.32.24-.6.53-.95.72-1.2.67-2.13-.62-.89-1.39,1.19-.73,2.6-1.17,3.99-1.32h0Z"/>
                <path class="cls-3" d="m50.33,100.01c.18-.02.38-.03.56.02s.34.19.38.38c.04.22-.13.44-.32.54-.2.1-.43.12-.65.16-.76.11-1.49.43-2.1.9-.32.24-.6.53-.95.72-1.2.67-2.13-.62-.89-1.39,1.19-.73,2.6-1.17,3.99-1.32h0Z"/>
                <path class="cls-3" d="m49.71,101.34c.15-.02.31-.03.46.01s.28.16.31.31c.03.18-.1.36-.27.44-.16.08-.35.1-.53.13-.62.09-1.22.34-1.72.73-.26.2-.49.43-.77.59-.98.55-1.75-.5-.72-1.13.97-.6,2.13-.96,3.25-1.08h0Z"/>
                <path class="cls-3" d="m45.7,98.97c-.65.56-.99.93-1.47,1.65-.48.72-.76,1.6-.58,2.45.18.84.9,1.6,1.76,1.63.51.02,1.01-.19,1.42-.5.85-.64,1.38-1.68,1.39-2.74s-.49-2.12-1.33-2.78l-1.2.29h0Z"/>
              </g>
              <path class="cls-3" d="m44.5,101.33c-1.94,2.34-9.48,14.15-9.53,17.14-.02,1.57.51,3.24,1.72,4.3,1.34,1.18,2.92.88,3.81-.65,1.6-2.78,4.76-15.09,5.52-18.87l-1.51-1.92h0Z"/>
            </g>
            <g>
              <g>
                <path class="cls-3" d="m69.61,96.39c-.18-.02-.38-.03-.56.02s-.34.19-.38.38c-.04.22.13.44.32.54s.43.12.65.16c.76.11,1.49.43,2.1.9.32.24.6.53.95.72,1.2.67,2.13-.62.89-1.39-1.19-.73-2.6-1.17-3.99-1.32h0Z"/>
                <path class="cls-3" d="m68.9,97.55c-.18-.02-.38-.03-.56.02s-.34.19-.38.38c-.04.22.13.44.32.54s.43.12.65.16c.76.11,1.49.43,2.1.9.32.24.6.53.95.72,1.2.67,2.13-.62.89-1.39-1.19-.73-2.6-1.17-3.99-1.32h0Z"/>
                <path class="cls-3" d="m69.11,98.86c-.18-.02-.38-.03-.56.02s-.34.19-.38.38c-.04.22.13.44.32.54s.43.12.65.16c.76.11,1.49.43,2.1.9.32.24.6.53.95.72,1.2.67,2.13-.62.89-1.39-1.19-.73-2.6-1.17-3.99-1.32h0Z"/>
                <path class="cls-3" d="m69.74,100.19c-.15-.01-.31-.03-.46.01s-.28.16-.31.31c-.03.18.1.36.27.44s.35.1.53.13c.62.09,1.22.34,1.72.73.26.2.49.43.77.59.98.55,1.75-.5.72-1.13-.97-.6-2.13-.96-3.25-1.08h0Z"/>
                <path class="cls-3" d="m73.75,97.82c.65.56.99.93,1.47,1.65.48.72.76,1.6.58,2.45s-.9,1.6-1.76,1.63c-.51.02-1.01-.19-1.42-.5-.85-.64-1.38-1.68-1.39-2.74-.01-1.06.49-2.12,1.33-2.78l1.2.29h0Z"/>
              </g>
              <path class="cls-3" d="m74.95,100.18c1.94,2.34,9.48,14.15,9.53,17.14.02,1.57-.51,3.24-1.72,4.3-1.34,1.18-2.92.88-3.81-.65-1.6-2.78-4.76-15.09-5.52-18.87l1.51-1.92h0Z"/>
            </g>
            <path class="cls-7" d="m81.44,126.22c-1.9,2.24-3.8,4.49-5.7,6.74-.54.64-1.09,1.28-1.63,1.93-.13.15.08.38.21.23,1.9-2.24,3.8-4.49,5.7-6.74l1.63-1.93c.13-.15-.08-.38-.21-.23Z"/>
            <path class="cls-7" d="m53.73,127.43c-.17,2.63-.31,5.26-.42,7.89-.11,2.64-.18,5.29-.23,7.94-.02,1.48-.04,2.97-.04,4.46,0,.2.31.21.31.01,0-2.63.05-5.27.12-7.9.07-2.65.17-5.29.31-7.94.08-1.48.16-2.97.26-4.45.01-.2-.3-.21-.31-.01h0Z"/>
            <g>
              <path class="cls-7" d="m59.6,115.98c-.84,0-1.53-.68-1.53-1.53s.68-1.53,1.53-1.53,1.53.68,1.53,1.53-.68,1.53-1.53,1.53Zm0-2.9c-.76,0-1.37.62-1.37,1.37s.62,1.37,1.37,1.37,1.37-.62,1.37-1.37-.62-1.37-1.37-1.37Z"/>
              <path class="cls-7" d="m63.34,115.98c-.84,0-1.53-.68-1.53-1.53s.68-1.53,1.53-1.53,1.53.68,1.53,1.53-.68,1.53-1.53,1.53Zm0-2.9c-.76,0-1.37.62-1.37,1.37s.62,1.37,1.37,1.37,1.37-.62,1.37-1.37-.62-1.37-1.37-1.37Z"/>
              <path class="cls-7" d="m61.07,113.98l-.11-.11c.27-.26.73-.28,1.02-.04l-.1.12c-.23-.18-.6-.17-.81.03h0Z"/>
              <path class="cls-7" d="m67.76,114.45c-.96-.36-1.99-.48-3-.32l-.02-.16c1.03-.16,2.1-.04,3.07.33l-.05.15Z"/>
            </g>
          </g>
          <rect class="cls-6" x="31.71" y="229.3" width="181.13" height="1.16"/>
        </g>
      </g>
    </g>
  </g>
</svg>