<svg xmlns="http://www.w3.org/2000/svg" xmlns:xlink="http://www.w3.org/1999/xlink" width="112.133" height="113.445" viewBox="0 0 112.133 113.445">
  <defs>
    <clipPath id="clip-path">
      <rect id="Rectangle_26" data-name="Rectangle 26" width="69.553" height="73.649" fill="none"/>
    </clipPath>
    <clipPath id="clip-path-2">
      <rect id="Rectangle_27" data-name="Rectangle 27" width="28.498" height="54.273" fill="none"/>
    </clipPath>
  </defs>
  <g id="Groupe_519" data-name="Groupe 519" transform="translate(-1538.577 -6929.622)">
    <g id="Groupe_24" data-name="Groupe 24" transform="translate(967.391 7610.229) rotate(-142)">
      <g id="Groupe_23" data-name="Groupe 23" transform="translate(-144.11 832.33)" clip-path="url(#clip-path)">
        <path id="Tracé_15" data-name="Tracé 15" d="M23.619.014A14.363,14.363,0,0,1,31.071,3.34q8.988,6.8,17.945,13.641c5.108,3.923,10.2,7.867,15.23,11.886a27.81,27.81,0,0,1,3.5,3.626,7.016,7.016,0,0,1,1.34,7.295c-2.261,6.839-4.466,13.7-6.549,20.6a4.8,4.8,0,0,1-4.071,3.77c-10.43,1.98-20.39,5.6-30.42,8.952a7.207,7.207,0,0,1-6.561-.522C15.612,68.965,9.636,65.505,3.83,61.779-.342,59.1-.7,58.238.826,53.349,4.109,42.814,7.6,32.341,11.072,21.864c1.493-4.508,3.1-8.982,4.748-13.437A34.492,34.492,0,0,1,18.274,3,5.509,5.509,0,0,1,23.619.014m2.5,5.57q.465.468.928.936c5.649,11,11.3,22,16.989,33.092l17.17-5.536c-3.848-4.49-8.378-7.378-12.553-10.685-6.114-4.844-12.165-9.77-18.275-14.621C29.334,7.937,28.133,7.3,27,6.571c-.31-.31-.622-.622-.932-.934-.3-.221-.6-.443-.149-.111-.535-.153-.166-.048.2.057M20.886,8.666C14.812,24.308,10.3,39.975,4.971,55.857c6.389-2.735,12.22-5.234,17.8-7.622-.635-13.333-1.246-26.163-1.882-39.57M25.8,12.03c-.365,11.617-.751,23.171.8,35.028,4.774-2.063,9.059-3.916,13.76-5.946L25.8,12.03M46.152,45.5c2.381,1.986,4.4,3.606,6.352,5.313,2.021,1.77,3.97,3.626,6.372,5.833,1.692-5.911,3.194-11.161,4.732-16.531-4.353.065-10.74,2.036-17.456,5.385M37.967,60.914c2.277-4.438,2.942-9.406,1.753-12.9A41.516,41.516,0,0,0,29.026,52.6c3.154,2.932,6.016,5.592,8.941,8.31M22.205,54.656C18,56.173,14.312,57.5,9.627,59.194l12.578,7.188Zm23.035-4.23c-1.074,4.248-1.951,7.71-2.971,11.752L55.5,58.7c-3.588-2.894-6.656-5.367-10.262-8.273m-17.893,5.88a26.3,26.3,0,0,0-.9,11.528c2.958-1.037,5.8-1.541,8.336-3.96l-7.439-7.568" transform="translate(-0.001 -0.001)" fill="#f26d10"/>
      </g>
    </g>
    <g id="Groupe_26" data-name="Groupe 26" transform="matrix(0.966, -0.259, 0.259, 0.966, 1609.135, 6936.998)">
      <g id="Groupe_25" data-name="Groupe 25" transform="translate(0 0)" clip-path="url(#clip-path-2)">
        <path id="Tracé_16" data-name="Tracé 16" d="M11.8,0c3.812,2.673,4.429,3.556,3.2,7-1.891,5.3-4.176,10.471-6.473,15.618A27.01,27.01,0,0,1,5.228,27.75C4.154,29.168,2.76,30.2.777,29.451c-1.483-1.86-.516-3.578.209-5.3,2.728-6.494,5.425-13,8.212-19.473C9.855,3.149,10.813,1.75,11.8,0" transform="translate(0 -0.001)" fill="#f26d10"/>
        <path id="Tracé_17" data-name="Tracé 17" d="M25.516,17.115A9.659,9.659,0,0,1,23.488,19.5a22.282,22.282,0,0,1-5.458,2.756c-3.9,1.211-7.871,2.2-11.859,3.054a3.1,3.1,0,0,1-2.728-.995,3.075,3.075,0,0,1,.714-2.811,13.132,13.132,0,0,1,4.013-2.4c4.362-1.76,8.774-3.4,13.188-5.032a3.079,3.079,0,0,1,4.157,3.035" transform="translate(2.982 12.464)" fill="#f26d10"/>
        <path id="Tracé_18" data-name="Tracé 18" d="M3.512,25.089c1.87-2.616,3.535-2.2,4.966-1.741,4.476,1.431,8.9,3.02,13.326,4.6a3.629,3.629,0,0,1,1.948,1.236,4.137,4.137,0,0,1,.579,2.984c-.292.714-1.6,1.192-2.544,1.4a3.968,3.968,0,0,1-2.248-.526Q12.711,29.9,5.929,26.64a23.013,23.013,0,0,1-2.417-1.551" transform="translate(3.155 20.668)" fill="#f26d10"/>
      </g>
    </g>
  </g>
</svg>
