<svg xmlns="http://www.w3.org/2000/svg" xmlns:xlink="http://www.w3.org/1999/xlink" width="163.618" height="142.807" viewBox="0 0 163.618 142.807">
  <defs>
    <clipPath id="clip-path">
      <rect id="Rectangle_161" data-name="Rectangle 161" width="163.618" height="142.807" fill="none"/>
    </clipPath>
  </defs>
  <g id="Groupe_486" data-name="Groupe 486" transform="translate(0 0)">
    <g id="Groupe_485" data-name="Groupe 485" transform="translate(0 0.001)" clip-path="url(#clip-path)">
      <path id="Tracé_946" data-name="Tracé 946" d="M154.114,4.048C152.79,19.9,151.7,33.8,150.447,47.679c-1.288,14.322-2.728,28.631-4.1,42.946-.057.591-.084,1.187-.17,1.773-1.219,8.406-3.031,9.737-11.407,8.868-5.6-.582-11.237-.851-16.848-1.362-3.027-.276-5.089,1.3-6.945,3.3Q96.9,118.377,82.882,133.593c-2.212,2.4-4.213,5.017-6.6,7.217-3.643,3.352-6.1,2.456-6.849-2.466-1.57-10.255-3.111-20.518-4.375-30.814-.362-2.959-1.224-4.691-4.1-6.026C49.255,96.072,37.705,90.32,26.1,84.681a30.055,30.055,0,0,1-3.15-1.653c-2.578-1.657-2.622-3.166-.192-5.168A20.735,20.735,0,0,1,24.594,76.6c16.12-10.581,31.986-21.577,48.424-31.64,23.517-14.4,47.453-28.115,71.217-42.114.892-.526,1.84-.96,2.78-1.4,5.661-2.654,7.281-1.595,7.1,2.6m-16.938,7.3a1.785,1.785,0,0,0,.378-.065c.089-.036.154-.134.229-.2l-.54.336-.89.948a43.09,43.09,0,0,0-4.03,1.7c-35.4,19.2-68.65,41.851-102.272,63.9a9.645,9.645,0,0,0-1.471,1.5,8.11,8.11,0,0,0,1.914.771c8.531,1.081,17.083,2,25.6,3.207,3.985.562,7.439.828,9.1-3.956.449-1.3,1.821-2.319,2.893-3.339Q92.6,52.82,117.174,29.558c6.25-5.885,12.736-11.517,19.113-17.265l.889-.95M35.63,85.43l.026-.032q11.039,5.1,22.078,10.193c1.849.855,3.688,1.728,5.531,2.594-.076-2.147-.187-4.295-.214-6.441-.029-2.436-1.018-3.8-3.622-4.03-7.939-.7-15.867-1.513-23.8-2.283m42.738,47.1c.973-.877,2.026-1.682,2.906-2.645,5.905-6.447,11.763-12.939,17.658-19.4,2.9-3.175,5.868-6.285,8.758-9.464.566-.623,1.955-1.762-.138-2-4.559-.523-9.152-.742-13.727-1.129-1.769-.148-2.609.636-3.22,2.288-4.01,10.819-8.122,21.6-12.2,32.394Zm56.256-35.809c6.058.4,6.08.4,7.069-5.8.558-3.508,1.181-7.017,1.518-10.549q3.142-32.962,6.144-65.939c.134-1.461.007-2.947,0-4.421a36.5,36.5,0,0,0-3.047,3.506q-25.949,38.531-51.846,77.1c-1.8,2.674-1.717,3.062,1.59,3.311,12.854.97,25.712,1.866,38.57,2.789M67,89.325c.076.736.1,1.033.137,1.326q2.662,20.5,5.351,40.991a7.921,7.921,0,0,0,.831,1.955,8.491,8.491,0,0,0,1.187-1.756c4.25-11.856,8.44-23.735,12.7-35.588a25.578,25.578,0,0,1,2.542-5.624c8.743-13.058,17.674-25.991,26.378-39.075,6.98-10.495,13.729-21.144,20.56-31.739a10.728,10.728,0,0,0,.765-1.875,10.875,10.875,0,0,0-1.794,1.033c-5.067,4.348-10.215,8.608-15.132,13.118Q96.913,53.748,73.456,75.573c-2.173,2.014-4.221,4.173-6.224,6.359-.526.575-1.088,2.059-.924,2.183,2.237,1.682.643,3.77.693,5.211" transform="translate(9.49 -0.001)" fill="#fff"/>
      <path id="Tracé_947" data-name="Tracé 947" d="M34.738,63.327c.537,1.37,1.219,2.248,1.088,2.98a5.948,5.948,0,0,1-1.55,2.636C24.807,79.531,15.347,90.128,5.75,100.6c-1.208,1.317-2.912,4.077-5.021,1.884-2.046-2.128.735-3.688,2-5.073q14.05-15.444,28.266-30.737c.973-1.053,2.142-1.926,3.747-3.348" transform="translate(0 28.648)" fill="#fff"/>
      <path id="Tracé_948" data-name="Tracé 948" d="M105.859,77.3a26.8,26.8,0,0,1-2.044,3.29q-9.889,11.13-19.86,22.188a4.091,4.091,0,0,1-1.723,1.352,3.07,3.07,0,0,1-2.407-.238,2.936,2.936,0,0,1-.388-2.317,4.2,4.2,0,0,1,1.149-1.865Q90.768,88.543,101,77.425c.5-.539,1.172-1.367,1.7-1.322a12.331,12.331,0,0,1,3.159,1.192" transform="translate(35.909 34.427)" fill="#fff"/>
      <path id="Tracé_949" data-name="Tracé 949" d="M82.517,87.334c-.42-.98-1.439-2.494-1.147-2.815,2.86-3.146,5.907-6.125,9-9.041.3-.282,1.4.028,1.937.365a1.541,1.541,0,0,1,.253,1.493c-2.656,3.124-5.387,6.186-8.138,9.227-.26.288-.79.334-1.91.771" transform="translate(36.787 34.095)" fill="#fff"/>
      <path id="Tracé_950" data-name="Tracé 950" d="M39.954,69.819a5.251,5.251,0,0,1-.619,1.4c-2.53,2.68-5.025,5.4-7.714,7.916-.51.476-1.82.1-2.76.115.139-.8.007-1.846.466-2.37q3.5-4,7.294-7.727a3.452,3.452,0,0,1,2.372-.517c.354.02.667.8.96,1.188" transform="translate(13.057 31.042)" fill="#fff"/>
      <path id="Tracé_951" data-name="Tracé 951" d="M32.427,70.57a7.6,7.6,0,0,1-.876,1.524c-2.607,2.787-5.191,5.6-7.943,8.239-.548.524-1.792.32-2.715.45.192-.9.09-2.07.626-2.649,2.687-2.909,5.51-5.7,8.376-8.434.4-.381,1.307-.333,1.964-.279.206.017.357.7.568,1.149" transform="translate(9.452 31.389)" fill="#fff"/>
    </g>
  </g>
</svg>
